<?xml version="1.0" encoding="utf-8" standalone="no"?>
<!DOCTYPE svg PUBLIC "-//W3C//DTD SVG 1.1//EN"
  "http://www.w3.org/Graphics/SVG/1.1/DTD/svg11.dtd">
<!-- Created with matplotlib (https://matplotlib.org/) -->
<svg height="216pt" version="1.1" viewBox="0 0 288 216" width="288pt" xmlns="http://www.w3.org/2000/svg" xmlns:xlink="http://www.w3.org/1999/xlink">
 <defs>
  <style type="text/css">
*{stroke-linecap:butt;stroke-linejoin:round;}
  </style>
 </defs>
 <g id="figure_1">
  <g id="patch_1">
   <path d="M 0 216 
L 288 216 
L 288 0 
L 0 0 
z
" style="fill:#ffffff;"/>
  </g>
  <g id="axes_1">
   <g id="patch_2">
    <path d="M 36 189 
L 259.2 189 
L 259.2 25.92 
L 36 25.92 
z
" style="fill:#ffffff;"/>
   </g>
   <g id="matplotlib.axis_1">
    <g id="xtick_1">
     <g id="line2d_1">
      <path clip-path="url(#pbf7d25ec3e)" d="M 46.145455 189 
L 46.145455 25.92 
" style="fill:none;stroke:#b0b0b0;stroke-linecap:square;stroke-opacity:0.3;stroke-width:0.8;"/>
     </g>
     <g id="line2d_2">
      <defs>
       <path d="M 0 0 
L 0 3.5 
" id="maca3f49be9" style="stroke:#000000;stroke-width:0.8;"/>
      </defs>
      <g>
       <use style="stroke:#000000;stroke-width:0.8;" x="46.145455" xlink:href="#maca3f49be9" y="189"/>
      </g>
     </g>
     <g id="text_1">
      <!-- 0 -->
      <defs>
       <path d="M 4.15625 35.296875 
Q 4.15625 48 6.765625 55.734375 
Q 9.375 63.484375 14.515625 67.671875 
Q 19.671875 71.875 27.484375 71.875 
Q 33.25 71.875 37.59375 69.546875 
Q 41.9375 67.234375 44.765625 62.859375 
Q 47.609375 58.5 49.21875 52.21875 
Q 50.828125 45.953125 50.828125 35.296875 
Q 50.828125 22.703125 48.234375 14.96875 
Q 45.65625 7.234375 40.5 3 
Q 35.359375 -1.21875 27.484375 -1.21875 
Q 17.140625 -1.21875 11.234375 6.203125 
Q 4.15625 15.140625 4.15625 35.296875 
z
M 13.1875 35.296875 
Q 13.1875 17.671875 17.3125 11.828125 
Q 21.4375 6 27.484375 6 
Q 33.546875 6 37.671875 11.859375 
Q 41.796875 17.71875 41.796875 35.296875 
Q 41.796875 52.984375 37.671875 58.78125 
Q 33.546875 64.59375 27.390625 64.59375 
Q 21.34375 64.59375 17.71875 59.46875 
Q 13.1875 52.9375 13.1875 35.296875 
z
" id="ArialMT-48"/>
      </defs>
      <g transform="translate(43.364986 203.157813)scale(0.1 -0.1)">
       <use xlink:href="#ArialMT-48"/>
      </g>
     </g>
    </g>
    <g id="xtick_2">
     <g id="line2d_3">
      <path clip-path="url(#pbf7d25ec3e)" d="M 86.088189 189 
L 86.088189 25.92 
" style="fill:none;stroke:#b0b0b0;stroke-linecap:square;stroke-opacity:0.3;stroke-width:0.8;"/>
     </g>
     <g id="line2d_4">
      <g>
       <use style="stroke:#000000;stroke-width:0.8;" x="86.088189" xlink:href="#maca3f49be9" y="189"/>
      </g>
     </g>
     <g id="text_2">
      <!-- 50 -->
      <defs>
       <path d="M 4.15625 18.75 
L 13.375 19.53125 
Q 14.40625 12.796875 18.140625 9.390625 
Q 21.875 6 27.15625 6 
Q 33.5 6 37.890625 10.78125 
Q 42.28125 15.578125 42.28125 23.484375 
Q 42.28125 31 38.0625 35.34375 
Q 33.84375 39.703125 27 39.703125 
Q 22.75 39.703125 19.328125 37.765625 
Q 15.921875 35.84375 13.96875 32.765625 
L 5.71875 33.84375 
L 12.640625 70.609375 
L 48.25 70.609375 
L 48.25 62.203125 
L 19.671875 62.203125 
L 15.828125 42.96875 
Q 22.265625 47.46875 29.34375 47.46875 
Q 38.71875 47.46875 45.15625 40.96875 
Q 51.609375 34.46875 51.609375 24.265625 
Q 51.609375 14.546875 45.953125 7.46875 
Q 39.0625 -1.21875 27.15625 -1.21875 
Q 17.390625 -1.21875 11.203125 4.25 
Q 5.03125 9.71875 4.15625 18.75 
z
" id="ArialMT-53"/>
      </defs>
      <g transform="translate(80.527251 203.157813)scale(0.1 -0.1)">
       <use xlink:href="#ArialMT-53"/>
       <use x="55.615234" xlink:href="#ArialMT-48"/>
      </g>
     </g>
    </g>
    <g id="xtick_3">
     <g id="line2d_5">
      <path clip-path="url(#pbf7d25ec3e)" d="M 126.030923 189 
L 126.030923 25.92 
" style="fill:none;stroke:#b0b0b0;stroke-linecap:square;stroke-opacity:0.3;stroke-width:0.8;"/>
     </g>
     <g id="line2d_6">
      <g>
       <use style="stroke:#000000;stroke-width:0.8;" x="126.030923" xlink:href="#maca3f49be9" y="189"/>
      </g>
     </g>
     <g id="text_3">
      <!-- 100 -->
      <defs>
       <path d="M 37.25 0 
L 28.46875 0 
L 28.46875 56 
Q 25.296875 52.984375 20.140625 49.953125 
Q 14.984375 46.921875 10.890625 45.40625 
L 10.890625 53.90625 
Q 18.265625 57.375 23.78125 62.296875 
Q 29.296875 67.234375 31.59375 71.875 
L 37.25 71.875 
z
" id="ArialMT-49"/>
      </defs>
      <g transform="translate(117.689517 203.157813)scale(0.1 -0.1)">
       <use xlink:href="#ArialMT-49"/>
       <use x="55.615234" xlink:href="#ArialMT-48"/>
       <use x="111.230469" xlink:href="#ArialMT-48"/>
      </g>
     </g>
    </g>
    <g id="xtick_4">
     <g id="line2d_7">
      <path clip-path="url(#pbf7d25ec3e)" d="M 165.973658 189 
L 165.973658 25.92 
" style="fill:none;stroke:#b0b0b0;stroke-linecap:square;stroke-opacity:0.3;stroke-width:0.8;"/>
     </g>
     <g id="line2d_8">
      <g>
       <use style="stroke:#000000;stroke-width:0.8;" x="165.973658" xlink:href="#maca3f49be9" y="189"/>
      </g>
     </g>
     <g id="text_4">
      <!-- 150 -->
      <g transform="translate(157.632252 203.157813)scale(0.1 -0.1)">
       <use xlink:href="#ArialMT-49"/>
       <use x="55.615234" xlink:href="#ArialMT-53"/>
       <use x="111.230469" xlink:href="#ArialMT-48"/>
      </g>
     </g>
    </g>
    <g id="xtick_5">
     <g id="line2d_9">
      <path clip-path="url(#pbf7d25ec3e)" d="M 205.916392 189 
L 205.916392 25.92 
" style="fill:none;stroke:#b0b0b0;stroke-linecap:square;stroke-opacity:0.3;stroke-width:0.8;"/>
     </g>
     <g id="line2d_10">
      <g>
       <use style="stroke:#000000;stroke-width:0.8;" x="205.916392" xlink:href="#maca3f49be9" y="189"/>
      </g>
     </g>
     <g id="text_5">
      <!-- 200 -->
      <defs>
       <path d="M 50.34375 8.453125 
L 50.34375 0 
L 3.03125 0 
Q 2.9375 3.171875 4.046875 6.109375 
Q 5.859375 10.9375 9.828125 15.625 
Q 13.8125 20.3125 21.34375 26.46875 
Q 33.015625 36.03125 37.109375 41.625 
Q 41.21875 47.21875 41.21875 52.203125 
Q 41.21875 57.421875 37.46875 61 
Q 33.734375 64.59375 27.734375 64.59375 
Q 21.390625 64.59375 17.578125 60.78125 
Q 13.765625 56.984375 13.71875 50.25 
L 4.6875 51.171875 
Q 5.609375 61.28125 11.65625 66.578125 
Q 17.71875 71.875 27.9375 71.875 
Q 38.234375 71.875 44.234375 66.15625 
Q 50.25 60.453125 50.25 52 
Q 50.25 47.703125 48.484375 43.546875 
Q 46.734375 39.40625 42.65625 34.8125 
Q 38.578125 30.21875 29.109375 22.21875 
Q 21.1875 15.578125 18.9375 13.203125 
Q 16.703125 10.84375 15.234375 8.453125 
z
" id="ArialMT-50"/>
      </defs>
      <g transform="translate(197.574986 203.157813)scale(0.1 -0.1)">
       <use xlink:href="#ArialMT-50"/>
       <use x="55.615234" xlink:href="#ArialMT-48"/>
       <use x="111.230469" xlink:href="#ArialMT-48"/>
      </g>
     </g>
    </g>
    <g id="xtick_6">
     <g id="line2d_11">
      <path clip-path="url(#pbf7d25ec3e)" d="M 245.859127 189 
L 245.859127 25.92 
" style="fill:none;stroke:#b0b0b0;stroke-linecap:square;stroke-opacity:0.3;stroke-width:0.8;"/>
     </g>
     <g id="line2d_12">
      <g>
       <use style="stroke:#000000;stroke-width:0.8;" x="245.859127" xlink:href="#maca3f49be9" y="189"/>
      </g>
     </g>
     <g id="text_6">
      <!-- 250 -->
      <g transform="translate(237.51772 203.157813)scale(0.1 -0.1)">
       <use xlink:href="#ArialMT-50"/>
       <use x="55.615234" xlink:href="#ArialMT-53"/>
       <use x="111.230469" xlink:href="#ArialMT-48"/>
      </g>
     </g>
    </g>
    <g id="text_7">
     <!-- Tsh (cycles) -->
     <defs>
      <path d="M 25.921875 0 
L 25.921875 63.140625 
L 2.34375 63.140625 
L 2.34375 71.578125 
L 59.078125 71.578125 
L 59.078125 63.140625 
L 35.40625 63.140625 
L 35.40625 0 
z
" id="ArialMT-84"/>
      <path d="M 3.078125 15.484375 
L 11.765625 16.84375 
Q 12.5 11.625 15.84375 8.84375 
Q 19.1875 6.0625 25.203125 6.0625 
Q 31.25 6.0625 34.171875 8.515625 
Q 37.109375 10.984375 37.109375 14.3125 
Q 37.109375 17.28125 34.515625 19 
Q 32.71875 20.171875 25.53125 21.96875 
Q 15.875 24.421875 12.140625 26.203125 
Q 8.40625 27.984375 6.46875 31.125 
Q 4.546875 34.28125 4.546875 38.09375 
Q 4.546875 41.546875 6.125 44.5 
Q 7.71875 47.46875 10.453125 49.421875 
Q 12.5 50.921875 16.03125 51.96875 
Q 19.578125 53.03125 23.640625 53.03125 
Q 29.734375 53.03125 34.34375 51.265625 
Q 38.96875 49.515625 41.15625 46.5 
Q 43.359375 43.5 44.1875 38.484375 
L 35.59375 37.3125 
Q 35.015625 41.3125 32.203125 43.546875 
Q 29.390625 45.796875 24.265625 45.796875 
Q 18.21875 45.796875 15.625 43.796875 
Q 13.03125 41.796875 13.03125 39.109375 
Q 13.03125 37.40625 14.109375 36.03125 
Q 15.1875 34.625 17.484375 33.6875 
Q 18.796875 33.203125 25.25 31.453125 
Q 34.578125 28.953125 38.25 27.359375 
Q 41.9375 25.78125 44.03125 22.75 
Q 46.140625 19.734375 46.140625 15.234375 
Q 46.140625 10.84375 43.578125 6.953125 
Q 41.015625 3.078125 36.171875 0.953125 
Q 31.34375 -1.171875 25.25 -1.171875 
Q 15.140625 -1.171875 9.84375 3.03125 
Q 4.546875 7.234375 3.078125 15.484375 
z
" id="ArialMT-115"/>
      <path d="M 6.59375 0 
L 6.59375 71.578125 
L 15.375 71.578125 
L 15.375 45.90625 
Q 21.53125 53.03125 30.90625 53.03125 
Q 36.671875 53.03125 40.921875 50.75 
Q 45.171875 48.484375 47 44.484375 
Q 48.828125 40.484375 48.828125 32.859375 
L 48.828125 0 
L 40.046875 0 
L 40.046875 32.859375 
Q 40.046875 39.453125 37.1875 42.453125 
Q 34.328125 45.453125 29.109375 45.453125 
Q 25.203125 45.453125 21.75 43.421875 
Q 18.3125 41.40625 16.84375 37.9375 
Q 15.375 34.46875 15.375 28.375 
L 15.375 0 
z
" id="ArialMT-104"/>
      <path id="ArialMT-32"/>
      <path d="M 23.390625 -21.046875 
Q 16.109375 -11.859375 11.078125 0.4375 
Q 6.0625 12.75 6.0625 25.921875 
Q 6.0625 37.546875 9.8125 48.1875 
Q 14.203125 60.546875 23.390625 72.796875 
L 29.6875 72.796875 
Q 23.78125 62.640625 21.875 58.296875 
Q 18.890625 51.5625 17.1875 44.234375 
Q 15.09375 35.109375 15.09375 25.875 
Q 15.09375 2.390625 29.6875 -21.046875 
z
" id="ArialMT-40"/>
      <path d="M 40.4375 19 
L 49.078125 17.875 
Q 47.65625 8.9375 41.8125 3.875 
Q 35.984375 -1.171875 27.484375 -1.171875 
Q 16.84375 -1.171875 10.375 5.78125 
Q 3.90625 12.75 3.90625 25.734375 
Q 3.90625 34.125 6.6875 40.421875 
Q 9.46875 46.734375 15.15625 49.875 
Q 20.84375 53.03125 27.546875 53.03125 
Q 35.984375 53.03125 41.359375 48.75 
Q 46.734375 44.484375 48.25 36.625 
L 39.703125 35.296875 
Q 38.484375 40.53125 35.375 43.15625 
Q 32.28125 45.796875 27.875 45.796875 
Q 21.234375 45.796875 17.078125 41.03125 
Q 12.9375 36.28125 12.9375 25.984375 
Q 12.9375 15.53125 16.9375 10.796875 
Q 20.953125 6.0625 27.390625 6.0625 
Q 32.5625 6.0625 36.03125 9.234375 
Q 39.5 12.40625 40.4375 19 
z
" id="ArialMT-99"/>
      <path d="M 6.203125 -19.96875 
L 5.21875 -11.71875 
Q 8.109375 -12.5 10.25 -12.5 
Q 13.1875 -12.5 14.9375 -11.515625 
Q 16.703125 -10.546875 17.828125 -8.796875 
Q 18.65625 -7.46875 20.515625 -2.25 
Q 20.75 -1.515625 21.296875 -0.09375 
L 1.609375 51.859375 
L 11.078125 51.859375 
L 21.875 21.828125 
Q 23.96875 16.109375 25.640625 9.8125 
Q 27.15625 15.875 29.25 21.625 
L 40.328125 51.859375 
L 49.125 51.859375 
L 29.390625 -0.875 
Q 26.21875 -9.421875 24.46875 -12.640625 
Q 22.125 -17 19.09375 -19.015625 
Q 16.0625 -21.046875 11.859375 -21.046875 
Q 9.328125 -21.046875 6.203125 -19.96875 
z
" id="ArialMT-121"/>
      <path d="M 6.390625 0 
L 6.390625 71.578125 
L 15.1875 71.578125 
L 15.1875 0 
z
" id="ArialMT-108"/>
      <path d="M 42.09375 16.703125 
L 51.171875 15.578125 
Q 49.03125 7.625 43.21875 3.21875 
Q 37.40625 -1.171875 28.375 -1.171875 
Q 17 -1.171875 10.328125 5.828125 
Q 3.65625 12.84375 3.65625 25.484375 
Q 3.65625 38.578125 10.390625 45.796875 
Q 17.140625 53.03125 27.875 53.03125 
Q 38.28125 53.03125 44.875 45.953125 
Q 51.46875 38.875 51.46875 26.03125 
Q 51.46875 25.25 51.421875 23.6875 
L 12.75 23.6875 
Q 13.234375 15.140625 17.578125 10.59375 
Q 21.921875 6.0625 28.421875 6.0625 
Q 33.25 6.0625 36.671875 8.59375 
Q 40.09375 11.140625 42.09375 16.703125 
z
M 13.234375 30.90625 
L 42.1875 30.90625 
Q 41.609375 37.453125 38.875 40.71875 
Q 34.671875 45.796875 27.984375 45.796875 
Q 21.921875 45.796875 17.796875 41.75 
Q 13.671875 37.703125 13.234375 30.90625 
z
" id="ArialMT-101"/>
      <path d="M 12.359375 -21.046875 
L 6.0625 -21.046875 
Q 20.65625 2.390625 20.65625 25.875 
Q 20.65625 35.0625 18.5625 44.09375 
Q 16.890625 51.421875 13.921875 58.15625 
Q 12.015625 62.546875 6.0625 72.796875 
L 12.359375 72.796875 
Q 21.53125 60.546875 25.921875 48.1875 
Q 29.6875 37.546875 29.6875 25.921875 
Q 29.6875 12.75 24.625 0.4375 
Q 19.578125 -11.859375 12.359375 -21.046875 
z
" id="ArialMT-41"/>
     </defs>
     <g transform="translate(120.664062 216.425)scale(0.1 -0.1)">
      <use xlink:href="#ArialMT-84"/>
      <use x="60.912109" xlink:href="#ArialMT-115"/>
      <use x="110.912109" xlink:href="#ArialMT-104"/>
      <use x="166.527344" xlink:href="#ArialMT-32"/>
      <use x="194.310547" xlink:href="#ArialMT-40"/>
      <use x="227.611328" xlink:href="#ArialMT-99"/>
      <use x="277.611328" xlink:href="#ArialMT-121"/>
      <use x="327.611328" xlink:href="#ArialMT-99"/>
      <use x="377.611328" xlink:href="#ArialMT-108"/>
      <use x="399.828125" xlink:href="#ArialMT-101"/>
      <use x="455.443359" xlink:href="#ArialMT-115"/>
      <use x="505.443359" xlink:href="#ArialMT-41"/>
     </g>
    </g>
   </g>
   <g id="matplotlib.axis_2">
    <g id="ytick_1">
     <g id="line2d_13">
      <path clip-path="url(#pbf7d25ec3e)" d="M 36 181.587273 
L 259.2 181.587273 
" style="fill:none;stroke:#b0b0b0;stroke-linecap:square;stroke-opacity:0.3;stroke-width:0.8;"/>
     </g>
     <g id="line2d_14">
      <defs>
       <path d="M 0 0 
L -3.5 0 
" id="m58dc33d1bf" style="stroke:#000000;stroke-width:0.8;"/>
      </defs>
      <g>
       <use style="stroke:#000000;stroke-width:0.8;" x="36" xlink:href="#m58dc33d1bf" y="181.587273"/>
      </g>
     </g>
     <g id="text_8">
      <!-- 0.00 -->
      <defs>
       <path d="M 9.078125 0 
L 9.078125 10.015625 
L 19.09375 10.015625 
L 19.09375 0 
z
" id="ArialMT-46"/>
      </defs>
      <g transform="translate(9.539062 185.166179)scale(0.1 -0.1)">
       <use xlink:href="#ArialMT-48"/>
       <use x="55.615234" xlink:href="#ArialMT-46"/>
       <use x="83.398438" xlink:href="#ArialMT-48"/>
       <use x="139.013672" xlink:href="#ArialMT-48"/>
      </g>
     </g>
    </g>
    <g id="ytick_2">
     <g id="line2d_15">
      <path clip-path="url(#pbf7d25ec3e)" d="M 36 148.759481 
L 259.2 148.759481 
" style="fill:none;stroke:#b0b0b0;stroke-linecap:square;stroke-opacity:0.3;stroke-width:0.8;"/>
     </g>
     <g id="line2d_16">
      <g>
       <use style="stroke:#000000;stroke-width:0.8;" x="36" xlink:href="#m58dc33d1bf" y="148.759481"/>
      </g>
     </g>
     <g id="text_9">
      <!-- 0.05 -->
      <g transform="translate(9.539062 152.338387)scale(0.1 -0.1)">
       <use xlink:href="#ArialMT-48"/>
       <use x="55.615234" xlink:href="#ArialMT-46"/>
       <use x="83.398438" xlink:href="#ArialMT-48"/>
       <use x="139.013672" xlink:href="#ArialMT-53"/>
      </g>
     </g>
    </g>
    <g id="ytick_3">
     <g id="line2d_17">
      <path clip-path="url(#pbf7d25ec3e)" d="M 36 115.931688 
L 259.2 115.931688 
" style="fill:none;stroke:#b0b0b0;stroke-linecap:square;stroke-opacity:0.3;stroke-width:0.8;"/>
     </g>
     <g id="line2d_18">
      <g>
       <use style="stroke:#000000;stroke-width:0.8;" x="36" xlink:href="#m58dc33d1bf" y="115.931688"/>
      </g>
     </g>
     <g id="text_10">
      <!-- 0.10 -->
      <g transform="translate(9.539062 119.510595)scale(0.1 -0.1)">
       <use xlink:href="#ArialMT-48"/>
       <use x="55.615234" xlink:href="#ArialMT-46"/>
       <use x="83.398438" xlink:href="#ArialMT-49"/>
       <use x="139.013672" xlink:href="#ArialMT-48"/>
      </g>
     </g>
    </g>
    <g id="ytick_4">
     <g id="line2d_19">
      <path clip-path="url(#pbf7d25ec3e)" d="M 36 83.103896 
L 259.2 83.103896 
" style="fill:none;stroke:#b0b0b0;stroke-linecap:square;stroke-opacity:0.3;stroke-width:0.8;"/>
     </g>
     <g id="line2d_20">
      <g>
       <use style="stroke:#000000;stroke-width:0.8;" x="36" xlink:href="#m58dc33d1bf" y="83.103896"/>
      </g>
     </g>
     <g id="text_11">
      <!-- 0.15 -->
      <g transform="translate(9.539062 86.682802)scale(0.1 -0.1)">
       <use xlink:href="#ArialMT-48"/>
       <use x="55.615234" xlink:href="#ArialMT-46"/>
       <use x="83.398438" xlink:href="#ArialMT-49"/>
       <use x="139.013672" xlink:href="#ArialMT-53"/>
      </g>
     </g>
    </g>
    <g id="ytick_5">
     <g id="line2d_21">
      <path clip-path="url(#pbf7d25ec3e)" d="M 36 50.276104 
L 259.2 50.276104 
" style="fill:none;stroke:#b0b0b0;stroke-linecap:square;stroke-opacity:0.3;stroke-width:0.8;"/>
     </g>
     <g id="line2d_22">
      <g>
       <use style="stroke:#000000;stroke-width:0.8;" x="36" xlink:href="#m58dc33d1bf" y="50.276104"/>
      </g>
     </g>
     <g id="text_12">
      <!-- 0.20 -->
      <g transform="translate(9.539062 53.85501)scale(0.1 -0.1)">
       <use xlink:href="#ArialMT-48"/>
       <use x="55.615234" xlink:href="#ArialMT-46"/>
       <use x="83.398438" xlink:href="#ArialMT-50"/>
       <use x="139.013672" xlink:href="#ArialMT-48"/>
      </g>
     </g>
    </g>
    <g id="text_13">
     <!-- Current (uA) -->
     <defs>
      <path d="M 58.796875 25.09375 
L 68.265625 22.703125 
Q 65.28125 11.03125 57.546875 4.90625 
Q 49.8125 -1.21875 38.625 -1.21875 
Q 27.046875 -1.21875 19.796875 3.484375 
Q 12.546875 8.203125 8.765625 17.140625 
Q 4.984375 26.078125 4.984375 36.328125 
Q 4.984375 47.515625 9.25 55.828125 
Q 13.53125 64.15625 21.40625 68.46875 
Q 29.296875 72.796875 38.765625 72.796875 
Q 49.515625 72.796875 56.828125 67.328125 
Q 64.15625 61.859375 67.046875 51.953125 
L 57.71875 49.75 
Q 55.21875 57.5625 50.484375 61.125 
Q 45.75 64.703125 38.578125 64.703125 
Q 30.328125 64.703125 24.78125 60.734375 
Q 19.234375 56.78125 16.984375 50.109375 
Q 14.75 43.453125 14.75 36.375 
Q 14.75 27.25 17.40625 20.4375 
Q 20.0625 13.625 25.671875 10.25 
Q 31.296875 6.890625 37.84375 6.890625 
Q 45.796875 6.890625 51.3125 11.46875 
Q 56.84375 16.0625 58.796875 25.09375 
z
" id="ArialMT-67"/>
      <path d="M 40.578125 0 
L 40.578125 7.625 
Q 34.515625 -1.171875 24.125 -1.171875 
Q 19.53125 -1.171875 15.546875 0.578125 
Q 11.578125 2.34375 9.640625 5 
Q 7.71875 7.671875 6.9375 11.53125 
Q 6.390625 14.109375 6.390625 19.734375 
L 6.390625 51.859375 
L 15.1875 51.859375 
L 15.1875 23.09375 
Q 15.1875 16.21875 15.71875 13.8125 
Q 16.546875 10.359375 19.234375 8.375 
Q 21.921875 6.390625 25.875 6.390625 
Q 29.828125 6.390625 33.296875 8.421875 
Q 36.765625 10.453125 38.203125 13.9375 
Q 39.65625 17.4375 39.65625 24.078125 
L 39.65625 51.859375 
L 48.4375 51.859375 
L 48.4375 0 
z
" id="ArialMT-117"/>
      <path d="M 6.5 0 
L 6.5 51.859375 
L 14.40625 51.859375 
L 14.40625 44 
Q 17.4375 49.515625 20 51.265625 
Q 22.5625 53.03125 25.640625 53.03125 
Q 30.078125 53.03125 34.671875 50.203125 
L 31.640625 42.046875 
Q 28.421875 43.953125 25.203125 43.953125 
Q 22.3125 43.953125 20.015625 42.21875 
Q 17.71875 40.484375 16.75 37.40625 
Q 15.28125 32.71875 15.28125 27.15625 
L 15.28125 0 
z
" id="ArialMT-114"/>
      <path d="M 6.59375 0 
L 6.59375 51.859375 
L 14.5 51.859375 
L 14.5 44.484375 
Q 20.21875 53.03125 31 53.03125 
Q 35.6875 53.03125 39.625 51.34375 
Q 43.5625 49.65625 45.515625 46.921875 
Q 47.46875 44.1875 48.25 40.4375 
Q 48.734375 37.984375 48.734375 31.890625 
L 48.734375 0 
L 39.9375 0 
L 39.9375 31.546875 
Q 39.9375 36.921875 38.90625 39.578125 
Q 37.890625 42.234375 35.28125 43.8125 
Q 32.671875 45.40625 29.15625 45.40625 
Q 23.53125 45.40625 19.453125 41.84375 
Q 15.375 38.28125 15.375 28.328125 
L 15.375 0 
z
" id="ArialMT-110"/>
      <path d="M 25.78125 7.859375 
L 27.046875 0.09375 
Q 23.34375 -0.6875 20.40625 -0.6875 
Q 15.625 -0.6875 12.984375 0.828125 
Q 10.359375 2.34375 9.28125 4.8125 
Q 8.203125 7.28125 8.203125 15.1875 
L 8.203125 45.015625 
L 1.765625 45.015625 
L 1.765625 51.859375 
L 8.203125 51.859375 
L 8.203125 64.703125 
L 16.9375 69.96875 
L 16.9375 51.859375 
L 25.78125 51.859375 
L 25.78125 45.015625 
L 16.9375 45.015625 
L 16.9375 14.703125 
Q 16.9375 10.9375 17.40625 9.859375 
Q 17.875 8.796875 18.921875 8.15625 
Q 19.96875 7.515625 21.921875 7.515625 
Q 23.390625 7.515625 25.78125 7.859375 
z
" id="ArialMT-116"/>
      <path d="M -0.140625 0 
L 27.34375 71.578125 
L 37.546875 71.578125 
L 66.84375 0 
L 56.0625 0 
L 47.703125 21.6875 
L 17.78125 21.6875 
L 9.90625 0 
z
M 20.515625 29.390625 
L 44.78125 29.390625 
L 37.3125 49.21875 
Q 33.890625 58.25 32.234375 64.0625 
Q 30.859375 57.171875 28.375 50.390625 
z
" id="ArialMT-65"/>
     </defs>
     <g transform="translate(3.434375 134.965469)rotate(-90)scale(0.1 -0.1)">
      <use xlink:href="#ArialMT-67"/>
      <use x="72.216797" xlink:href="#ArialMT-117"/>
      <use x="127.832031" xlink:href="#ArialMT-114"/>
      <use x="161.132812" xlink:href="#ArialMT-114"/>
      <use x="194.433594" xlink:href="#ArialMT-101"/>
      <use x="250.048828" xlink:href="#ArialMT-110"/>
      <use x="305.664062" xlink:href="#ArialMT-116"/>
      <use x="333.447266" xlink:href="#ArialMT-32"/>
      <use x="361.230469" xlink:href="#ArialMT-40"/>
      <use x="394.53125" xlink:href="#ArialMT-117"/>
      <use x="450.146484" xlink:href="#ArialMT-65"/>
      <use x="516.845703" xlink:href="#ArialMT-41"/>
     </g>
    </g>
   </g>
   <g id="line2d_23">
    <path clip-path="url(#pbf7d25ec3e)" d="M 46.145455 181.587273 
L 87.685898 181.587273 
L 88.484753 177.094711 
L 89.283608 145.646777 
L 90.082462 172.602149 
L 90.881317 109.706281 
L 91.680172 163.617025 
L 92.479026 145.646777 
L 93.277881 145.646777 
L 94.076736 109.706281 
L 95.674445 109.706281 
L 96.4733 145.646777 
L 97.272155 109.706281 
L 98.071009 91.736033 
L 98.869864 100.721157 
L 99.668719 107.46 
L 100.467573 109.706281 
L 102.864137 109.706281 
L 103.662992 105.213719 
L 104.461847 109.706281 
L 107.657266 109.706281 
L 108.45612 105.213719 
L 109.254975 109.706281 
L 110.05383 100.721157 
L 110.852684 109.706281 
L 111.651539 91.736033 
L 112.450394 91.736033 
L 113.249248 109.706281 
L 114.048103 100.721157 
L 114.846958 100.721157 
L 115.645812 109.706281 
L 117.243522 73.765785 
L 118.042377 91.736033 
L 118.841231 91.736033 
L 119.640086 73.765785 
L 120.438941 91.736033 
L 122.03665 91.736033 
L 122.835505 73.765785 
L 123.634359 73.765785 
L 124.433214 107.46 
L 125.232069 73.765785 
L 126.030923 91.736033 
L 126.829778 91.736033 
L 127.628633 37.825289 
L 128.427487 73.765785 
L 129.226342 91.736033 
L 130.025197 37.825289 
L 130.824052 73.765785 
L 131.622906 91.736033 
L 132.421761 73.765785 
L 133.220616 37.825289 
L 134.01947 105.213719 
L 134.818325 91.736033 
L 136.416034 91.736033 
L 137.214889 73.765785 
L 138.013744 37.825289 
L 138.812598 91.736033 
L 139.611453 91.736033 
L 140.410308 107.46 
L 141.209162 91.736033 
L 142.008017 73.765785 
L 142.806872 100.721157 
L 143.605727 73.765785 
L 144.404581 91.736033 
L 146.002291 91.736033 
L 146.801145 37.825289 
L 147.6 91.736033 
L 148.398855 100.721157 
L 149.197709 73.765785 
L 150.795419 107.46 
L 151.594273 73.765785 
L 152.393128 109.706281 
L 153.191983 91.736033 
L 153.990838 37.825289 
L 154.789692 91.736033 
L 155.588547 109.706281 
L 156.387402 91.736033 
L 157.186256 100.721157 
L 157.985111 100.721157 
L 158.783966 73.765785 
L 159.58282 91.736033 
L 161.18053 91.736033 
L 161.979384 100.721157 
L 162.778239 91.736033 
L 163.577094 73.765785 
L 164.375948 37.825289 
L 165.174803 91.736033 
L 165.973658 100.721157 
L 167.571367 100.721157 
L 168.370222 91.736033 
L 169.169077 73.765785 
L 169.967931 91.736033 
L 170.766786 73.765785 
L 171.565641 91.736033 
L 172.364495 91.736033 
L 173.16335 105.213719 
L 173.962205 91.736033 
L 174.761059 91.736033 
L 175.559914 100.721157 
L 176.358769 91.736033 
L 177.157623 73.765785 
L 177.956478 91.736033 
L 178.755333 100.721157 
L 179.554188 73.765785 
L 180.353042 91.736033 
L 181.151897 100.721157 
L 181.950752 91.736033 
L 182.749606 100.721157 
L 183.548461 91.736033 
L 184.347316 73.765785 
L 185.14617 37.825289 
L 185.945025 91.736033 
L 186.74388 91.736033 
L 187.542734 109.706281 
L 189.140444 73.765785 
L 190.738153 73.765785 
L 191.537008 100.721157 
L 192.335863 73.765785 
L 193.134717 37.825289 
L 193.933572 91.736033 
L 195.531281 91.736033 
L 196.330136 109.706281 
L 197.128991 73.765785 
L 197.927845 91.736033 
L 198.7267 73.765785 
L 199.525555 91.736033 
L 200.324409 100.721157 
L 201.123264 91.736033 
L 202.720974 109.706281 
L 203.519828 100.721157 
L 204.318683 73.765785 
L 205.117538 91.736033 
L 205.916392 37.825289 
L 206.715247 37.825289 
L 207.514102 91.736033 
L 208.312956 73.765785 
L 209.111811 91.736033 
L 209.910666 73.765785 
L 211.508375 109.706281 
L 212.30723 91.736033 
L 215.502649 91.736033 
L 216.301503 109.706281 
L 217.899213 73.765785 
L 219.496922 109.706281 
L 220.295777 73.765785 
L 221.094631 91.736033 
L 221.893486 91.736033 
L 222.692341 73.765785 
L 223.491195 91.736033 
L 225.887759 91.736033 
L 226.686614 73.765785 
L 228.284324 73.765785 
L 229.083178 91.736033 
L 231.479742 91.736033 
L 232.278597 37.825289 
L 233.077452 73.765785 
L 234.675161 109.706281 
L 235.474016 33.332727 
L 236.27287 91.736033 
L 237.87058 91.736033 
L 238.669435 73.765785 
L 239.468289 37.825289 
L 240.267144 91.736033 
L 244.261417 91.736033 
L 245.060272 107.46 
L 245.859127 100.721157 
L 246.657981 73.765785 
L 247.456836 91.736033 
L 249.054545 91.736033 
L 249.054545 91.736033 
" style="fill:none;stroke:#1f77b4;stroke-linecap:square;stroke-width:1.5;"/>
    <defs>
     <path d="M 0 1.5 
C 0.397805 1.5 0.77937 1.341951 1.06066 1.06066 
C 1.341951 0.77937 1.5 0.397805 1.5 0 
C 1.5 -0.397805 1.341951 -0.77937 1.06066 -1.06066 
C 0.77937 -1.341951 0.397805 -1.5 0 -1.5 
C -0.397805 -1.5 -0.77937 -1.341951 -1.06066 -1.06066 
C -1.341951 -0.77937 -1.5 -0.397805 -1.5 0 
C -1.5 0.397805 -1.341951 0.77937 -1.06066 1.06066 
C -0.77937 1.341951 -0.397805 1.5 0 1.5 
z
" id="md071d55cfa" style="stroke:#1f77b4;"/>
    </defs>
    <g clip-path="url(#pbf7d25ec3e)">
     <use style="fill:#1f77b4;stroke:#1f77b4;" x="46.145455" xlink:href="#md071d55cfa" y="181.587273"/>
     <use style="fill:#1f77b4;stroke:#1f77b4;" x="46.944309" xlink:href="#md071d55cfa" y="181.587273"/>
     <use style="fill:#1f77b4;stroke:#1f77b4;" x="47.743164" xlink:href="#md071d55cfa" y="181.587273"/>
     <use style="fill:#1f77b4;stroke:#1f77b4;" x="48.542019" xlink:href="#md071d55cfa" y="181.587273"/>
     <use style="fill:#1f77b4;stroke:#1f77b4;" x="49.340873" xlink:href="#md071d55cfa" y="181.587273"/>
     <use style="fill:#1f77b4;stroke:#1f77b4;" x="50.139728" xlink:href="#md071d55cfa" y="181.587273"/>
     <use style="fill:#1f77b4;stroke:#1f77b4;" x="50.938583" xlink:href="#md071d55cfa" y="181.587273"/>
     <use style="fill:#1f77b4;stroke:#1f77b4;" x="51.737437" xlink:href="#md071d55cfa" y="181.587273"/>
     <use style="fill:#1f77b4;stroke:#1f77b4;" x="52.536292" xlink:href="#md071d55cfa" y="181.587273"/>
     <use style="fill:#1f77b4;stroke:#1f77b4;" x="53.335147" xlink:href="#md071d55cfa" y="181.587273"/>
     <use style="fill:#1f77b4;stroke:#1f77b4;" x="54.134001" xlink:href="#md071d55cfa" y="181.587273"/>
     <use style="fill:#1f77b4;stroke:#1f77b4;" x="54.932856" xlink:href="#md071d55cfa" y="181.587273"/>
     <use style="fill:#1f77b4;stroke:#1f77b4;" x="55.731711" xlink:href="#md071d55cfa" y="181.587273"/>
     <use style="fill:#1f77b4;stroke:#1f77b4;" x="56.530565" xlink:href="#md071d55cfa" y="181.587273"/>
     <use style="fill:#1f77b4;stroke:#1f77b4;" x="57.32942" xlink:href="#md071d55cfa" y="181.587273"/>
     <use style="fill:#1f77b4;stroke:#1f77b4;" x="58.128275" xlink:href="#md071d55cfa" y="181.587273"/>
     <use style="fill:#1f77b4;stroke:#1f77b4;" x="58.92713" xlink:href="#md071d55cfa" y="181.587273"/>
     <use style="fill:#1f77b4;stroke:#1f77b4;" x="59.725984" xlink:href="#md071d55cfa" y="181.587273"/>
     <use style="fill:#1f77b4;stroke:#1f77b4;" x="60.524839" xlink:href="#md071d55cfa" y="181.587273"/>
     <use style="fill:#1f77b4;stroke:#1f77b4;" x="61.323694" xlink:href="#md071d55cfa" y="181.587273"/>
     <use style="fill:#1f77b4;stroke:#1f77b4;" x="62.122548" xlink:href="#md071d55cfa" y="181.587273"/>
     <use style="fill:#1f77b4;stroke:#1f77b4;" x="62.921403" xlink:href="#md071d55cfa" y="181.587273"/>
     <use style="fill:#1f77b4;stroke:#1f77b4;" x="63.720258" xlink:href="#md071d55cfa" y="181.587273"/>
     <use style="fill:#1f77b4;stroke:#1f77b4;" x="64.519112" xlink:href="#md071d55cfa" y="181.587273"/>
     <use style="fill:#1f77b4;stroke:#1f77b4;" x="65.317967" xlink:href="#md071d55cfa" y="181.587273"/>
     <use style="fill:#1f77b4;stroke:#1f77b4;" x="66.116822" xlink:href="#md071d55cfa" y="181.587273"/>
     <use style="fill:#1f77b4;stroke:#1f77b4;" x="66.915676" xlink:href="#md071d55cfa" y="181.587273"/>
     <use style="fill:#1f77b4;stroke:#1f77b4;" x="67.714531" xlink:href="#md071d55cfa" y="181.587273"/>
     <use style="fill:#1f77b4;stroke:#1f77b4;" x="68.513386" xlink:href="#md071d55cfa" y="181.587273"/>
     <use style="fill:#1f77b4;stroke:#1f77b4;" x="69.312241" xlink:href="#md071d55cfa" y="181.587273"/>
     <use style="fill:#1f77b4;stroke:#1f77b4;" x="70.111095" xlink:href="#md071d55cfa" y="181.587273"/>
     <use style="fill:#1f77b4;stroke:#1f77b4;" x="70.90995" xlink:href="#md071d55cfa" y="181.587273"/>
     <use style="fill:#1f77b4;stroke:#1f77b4;" x="71.708805" xlink:href="#md071d55cfa" y="181.587273"/>
     <use style="fill:#1f77b4;stroke:#1f77b4;" x="72.507659" xlink:href="#md071d55cfa" y="181.587273"/>
     <use style="fill:#1f77b4;stroke:#1f77b4;" x="73.306514" xlink:href="#md071d55cfa" y="181.587273"/>
     <use style="fill:#1f77b4;stroke:#1f77b4;" x="74.105369" xlink:href="#md071d55cfa" y="181.587273"/>
     <use style="fill:#1f77b4;stroke:#1f77b4;" x="74.904223" xlink:href="#md071d55cfa" y="181.587273"/>
     <use style="fill:#1f77b4;stroke:#1f77b4;" x="75.703078" xlink:href="#md071d55cfa" y="181.587273"/>
     <use style="fill:#1f77b4;stroke:#1f77b4;" x="76.501933" xlink:href="#md071d55cfa" y="181.587273"/>
     <use style="fill:#1f77b4;stroke:#1f77b4;" x="77.300787" xlink:href="#md071d55cfa" y="181.587273"/>
     <use style="fill:#1f77b4;stroke:#1f77b4;" x="78.099642" xlink:href="#md071d55cfa" y="181.587273"/>
     <use style="fill:#1f77b4;stroke:#1f77b4;" x="78.898497" xlink:href="#md071d55cfa" y="181.587273"/>
     <use style="fill:#1f77b4;stroke:#1f77b4;" x="79.697351" xlink:href="#md071d55cfa" y="181.587273"/>
     <use style="fill:#1f77b4;stroke:#1f77b4;" x="80.496206" xlink:href="#md071d55cfa" y="181.587273"/>
     <use style="fill:#1f77b4;stroke:#1f77b4;" x="81.295061" xlink:href="#md071d55cfa" y="181.587273"/>
     <use style="fill:#1f77b4;stroke:#1f77b4;" x="82.093916" xlink:href="#md071d55cfa" y="181.587273"/>
     <use style="fill:#1f77b4;stroke:#1f77b4;" x="82.89277" xlink:href="#md071d55cfa" y="181.587273"/>
     <use style="fill:#1f77b4;stroke:#1f77b4;" x="83.691625" xlink:href="#md071d55cfa" y="181.587273"/>
     <use style="fill:#1f77b4;stroke:#1f77b4;" x="84.49048" xlink:href="#md071d55cfa" y="181.587273"/>
     <use style="fill:#1f77b4;stroke:#1f77b4;" x="85.289334" xlink:href="#md071d55cfa" y="181.587273"/>
     <use style="fill:#1f77b4;stroke:#1f77b4;" x="86.088189" xlink:href="#md071d55cfa" y="181.587273"/>
     <use style="fill:#1f77b4;stroke:#1f77b4;" x="86.887044" xlink:href="#md071d55cfa" y="181.587273"/>
     <use style="fill:#1f77b4;stroke:#1f77b4;" x="87.685898" xlink:href="#md071d55cfa" y="181.587273"/>
     <use style="fill:#1f77b4;stroke:#1f77b4;" x="88.484753" xlink:href="#md071d55cfa" y="177.094711"/>
     <use style="fill:#1f77b4;stroke:#1f77b4;" x="89.283608" xlink:href="#md071d55cfa" y="145.646777"/>
     <use style="fill:#1f77b4;stroke:#1f77b4;" x="90.082462" xlink:href="#md071d55cfa" y="172.602149"/>
     <use style="fill:#1f77b4;stroke:#1f77b4;" x="90.881317" xlink:href="#md071d55cfa" y="109.706281"/>
     <use style="fill:#1f77b4;stroke:#1f77b4;" x="91.680172" xlink:href="#md071d55cfa" y="163.617025"/>
     <use style="fill:#1f77b4;stroke:#1f77b4;" x="92.479026" xlink:href="#md071d55cfa" y="145.646777"/>
     <use style="fill:#1f77b4;stroke:#1f77b4;" x="93.277881" xlink:href="#md071d55cfa" y="145.646777"/>
     <use style="fill:#1f77b4;stroke:#1f77b4;" x="94.076736" xlink:href="#md071d55cfa" y="109.706281"/>
     <use style="fill:#1f77b4;stroke:#1f77b4;" x="94.875591" xlink:href="#md071d55cfa" y="109.706281"/>
     <use style="fill:#1f77b4;stroke:#1f77b4;" x="95.674445" xlink:href="#md071d55cfa" y="109.706281"/>
     <use style="fill:#1f77b4;stroke:#1f77b4;" x="96.4733" xlink:href="#md071d55cfa" y="145.646777"/>
     <use style="fill:#1f77b4;stroke:#1f77b4;" x="97.272155" xlink:href="#md071d55cfa" y="109.706281"/>
     <use style="fill:#1f77b4;stroke:#1f77b4;" x="98.071009" xlink:href="#md071d55cfa" y="91.736033"/>
     <use style="fill:#1f77b4;stroke:#1f77b4;" x="98.869864" xlink:href="#md071d55cfa" y="100.721157"/>
     <use style="fill:#1f77b4;stroke:#1f77b4;" x="99.668719" xlink:href="#md071d55cfa" y="107.46"/>
     <use style="fill:#1f77b4;stroke:#1f77b4;" x="100.467573" xlink:href="#md071d55cfa" y="109.706281"/>
     <use style="fill:#1f77b4;stroke:#1f77b4;" x="101.266428" xlink:href="#md071d55cfa" y="109.706281"/>
     <use style="fill:#1f77b4;stroke:#1f77b4;" x="102.065283" xlink:href="#md071d55cfa" y="109.706281"/>
     <use style="fill:#1f77b4;stroke:#1f77b4;" x="102.864137" xlink:href="#md071d55cfa" y="109.706281"/>
     <use style="fill:#1f77b4;stroke:#1f77b4;" x="103.662992" xlink:href="#md071d55cfa" y="105.213719"/>
     <use style="fill:#1f77b4;stroke:#1f77b4;" x="104.461847" xlink:href="#md071d55cfa" y="109.706281"/>
     <use style="fill:#1f77b4;stroke:#1f77b4;" x="105.260702" xlink:href="#md071d55cfa" y="109.706281"/>
     <use style="fill:#1f77b4;stroke:#1f77b4;" x="106.059556" xlink:href="#md071d55cfa" y="109.706281"/>
     <use style="fill:#1f77b4;stroke:#1f77b4;" x="106.858411" xlink:href="#md071d55cfa" y="109.706281"/>
     <use style="fill:#1f77b4;stroke:#1f77b4;" x="107.657266" xlink:href="#md071d55cfa" y="109.706281"/>
     <use style="fill:#1f77b4;stroke:#1f77b4;" x="108.45612" xlink:href="#md071d55cfa" y="105.213719"/>
     <use style="fill:#1f77b4;stroke:#1f77b4;" x="109.254975" xlink:href="#md071d55cfa" y="109.706281"/>
     <use style="fill:#1f77b4;stroke:#1f77b4;" x="110.05383" xlink:href="#md071d55cfa" y="100.721157"/>
     <use style="fill:#1f77b4;stroke:#1f77b4;" x="110.852684" xlink:href="#md071d55cfa" y="109.706281"/>
     <use style="fill:#1f77b4;stroke:#1f77b4;" x="111.651539" xlink:href="#md071d55cfa" y="91.736033"/>
     <use style="fill:#1f77b4;stroke:#1f77b4;" x="112.450394" xlink:href="#md071d55cfa" y="91.736033"/>
     <use style="fill:#1f77b4;stroke:#1f77b4;" x="113.249248" xlink:href="#md071d55cfa" y="109.706281"/>
     <use style="fill:#1f77b4;stroke:#1f77b4;" x="114.048103" xlink:href="#md071d55cfa" y="100.721157"/>
     <use style="fill:#1f77b4;stroke:#1f77b4;" x="114.846958" xlink:href="#md071d55cfa" y="100.721157"/>
     <use style="fill:#1f77b4;stroke:#1f77b4;" x="115.645812" xlink:href="#md071d55cfa" y="109.706281"/>
     <use style="fill:#1f77b4;stroke:#1f77b4;" x="116.444667" xlink:href="#md071d55cfa" y="91.736033"/>
     <use style="fill:#1f77b4;stroke:#1f77b4;" x="117.243522" xlink:href="#md071d55cfa" y="73.765785"/>
     <use style="fill:#1f77b4;stroke:#1f77b4;" x="118.042377" xlink:href="#md071d55cfa" y="91.736033"/>
     <use style="fill:#1f77b4;stroke:#1f77b4;" x="118.841231" xlink:href="#md071d55cfa" y="91.736033"/>
     <use style="fill:#1f77b4;stroke:#1f77b4;" x="119.640086" xlink:href="#md071d55cfa" y="73.765785"/>
     <use style="fill:#1f77b4;stroke:#1f77b4;" x="120.438941" xlink:href="#md071d55cfa" y="91.736033"/>
     <use style="fill:#1f77b4;stroke:#1f77b4;" x="121.237795" xlink:href="#md071d55cfa" y="91.736033"/>
     <use style="fill:#1f77b4;stroke:#1f77b4;" x="122.03665" xlink:href="#md071d55cfa" y="91.736033"/>
     <use style="fill:#1f77b4;stroke:#1f77b4;" x="122.835505" xlink:href="#md071d55cfa" y="73.765785"/>
     <use style="fill:#1f77b4;stroke:#1f77b4;" x="123.634359" xlink:href="#md071d55cfa" y="73.765785"/>
     <use style="fill:#1f77b4;stroke:#1f77b4;" x="124.433214" xlink:href="#md071d55cfa" y="107.46"/>
     <use style="fill:#1f77b4;stroke:#1f77b4;" x="125.232069" xlink:href="#md071d55cfa" y="73.765785"/>
     <use style="fill:#1f77b4;stroke:#1f77b4;" x="126.030923" xlink:href="#md071d55cfa" y="91.736033"/>
     <use style="fill:#1f77b4;stroke:#1f77b4;" x="126.829778" xlink:href="#md071d55cfa" y="91.736033"/>
     <use style="fill:#1f77b4;stroke:#1f77b4;" x="127.628633" xlink:href="#md071d55cfa" y="37.825289"/>
     <use style="fill:#1f77b4;stroke:#1f77b4;" x="128.427487" xlink:href="#md071d55cfa" y="73.765785"/>
     <use style="fill:#1f77b4;stroke:#1f77b4;" x="129.226342" xlink:href="#md071d55cfa" y="91.736033"/>
     <use style="fill:#1f77b4;stroke:#1f77b4;" x="130.025197" xlink:href="#md071d55cfa" y="37.825289"/>
     <use style="fill:#1f77b4;stroke:#1f77b4;" x="130.824052" xlink:href="#md071d55cfa" y="73.765785"/>
     <use style="fill:#1f77b4;stroke:#1f77b4;" x="131.622906" xlink:href="#md071d55cfa" y="91.736033"/>
     <use style="fill:#1f77b4;stroke:#1f77b4;" x="132.421761" xlink:href="#md071d55cfa" y="73.765785"/>
     <use style="fill:#1f77b4;stroke:#1f77b4;" x="133.220616" xlink:href="#md071d55cfa" y="37.825289"/>
     <use style="fill:#1f77b4;stroke:#1f77b4;" x="134.01947" xlink:href="#md071d55cfa" y="105.213719"/>
     <use style="fill:#1f77b4;stroke:#1f77b4;" x="134.818325" xlink:href="#md071d55cfa" y="91.736033"/>
     <use style="fill:#1f77b4;stroke:#1f77b4;" x="135.61718" xlink:href="#md071d55cfa" y="91.736033"/>
     <use style="fill:#1f77b4;stroke:#1f77b4;" x="136.416034" xlink:href="#md071d55cfa" y="91.736033"/>
     <use style="fill:#1f77b4;stroke:#1f77b4;" x="137.214889" xlink:href="#md071d55cfa" y="73.765785"/>
     <use style="fill:#1f77b4;stroke:#1f77b4;" x="138.013744" xlink:href="#md071d55cfa" y="37.825289"/>
     <use style="fill:#1f77b4;stroke:#1f77b4;" x="138.812598" xlink:href="#md071d55cfa" y="91.736033"/>
     <use style="fill:#1f77b4;stroke:#1f77b4;" x="139.611453" xlink:href="#md071d55cfa" y="91.736033"/>
     <use style="fill:#1f77b4;stroke:#1f77b4;" x="140.410308" xlink:href="#md071d55cfa" y="107.46"/>
     <use style="fill:#1f77b4;stroke:#1f77b4;" x="141.209162" xlink:href="#md071d55cfa" y="91.736033"/>
     <use style="fill:#1f77b4;stroke:#1f77b4;" x="142.008017" xlink:href="#md071d55cfa" y="73.765785"/>
     <use style="fill:#1f77b4;stroke:#1f77b4;" x="142.806872" xlink:href="#md071d55cfa" y="100.721157"/>
     <use style="fill:#1f77b4;stroke:#1f77b4;" x="143.605727" xlink:href="#md071d55cfa" y="73.765785"/>
     <use style="fill:#1f77b4;stroke:#1f77b4;" x="144.404581" xlink:href="#md071d55cfa" y="91.736033"/>
     <use style="fill:#1f77b4;stroke:#1f77b4;" x="145.203436" xlink:href="#md071d55cfa" y="91.736033"/>
     <use style="fill:#1f77b4;stroke:#1f77b4;" x="146.002291" xlink:href="#md071d55cfa" y="91.736033"/>
     <use style="fill:#1f77b4;stroke:#1f77b4;" x="146.801145" xlink:href="#md071d55cfa" y="37.825289"/>
     <use style="fill:#1f77b4;stroke:#1f77b4;" x="147.6" xlink:href="#md071d55cfa" y="91.736033"/>
     <use style="fill:#1f77b4;stroke:#1f77b4;" x="148.398855" xlink:href="#md071d55cfa" y="100.721157"/>
     <use style="fill:#1f77b4;stroke:#1f77b4;" x="149.197709" xlink:href="#md071d55cfa" y="73.765785"/>
     <use style="fill:#1f77b4;stroke:#1f77b4;" x="149.996564" xlink:href="#md071d55cfa" y="91.736033"/>
     <use style="fill:#1f77b4;stroke:#1f77b4;" x="150.795419" xlink:href="#md071d55cfa" y="107.46"/>
     <use style="fill:#1f77b4;stroke:#1f77b4;" x="151.594273" xlink:href="#md071d55cfa" y="73.765785"/>
     <use style="fill:#1f77b4;stroke:#1f77b4;" x="152.393128" xlink:href="#md071d55cfa" y="109.706281"/>
     <use style="fill:#1f77b4;stroke:#1f77b4;" x="153.191983" xlink:href="#md071d55cfa" y="91.736033"/>
     <use style="fill:#1f77b4;stroke:#1f77b4;" x="153.990838" xlink:href="#md071d55cfa" y="37.825289"/>
     <use style="fill:#1f77b4;stroke:#1f77b4;" x="154.789692" xlink:href="#md071d55cfa" y="91.736033"/>
     <use style="fill:#1f77b4;stroke:#1f77b4;" x="155.588547" xlink:href="#md071d55cfa" y="109.706281"/>
     <use style="fill:#1f77b4;stroke:#1f77b4;" x="156.387402" xlink:href="#md071d55cfa" y="91.736033"/>
     <use style="fill:#1f77b4;stroke:#1f77b4;" x="157.186256" xlink:href="#md071d55cfa" y="100.721157"/>
     <use style="fill:#1f77b4;stroke:#1f77b4;" x="157.985111" xlink:href="#md071d55cfa" y="100.721157"/>
     <use style="fill:#1f77b4;stroke:#1f77b4;" x="158.783966" xlink:href="#md071d55cfa" y="73.765785"/>
     <use style="fill:#1f77b4;stroke:#1f77b4;" x="159.58282" xlink:href="#md071d55cfa" y="91.736033"/>
     <use style="fill:#1f77b4;stroke:#1f77b4;" x="160.381675" xlink:href="#md071d55cfa" y="91.736033"/>
     <use style="fill:#1f77b4;stroke:#1f77b4;" x="161.18053" xlink:href="#md071d55cfa" y="91.736033"/>
     <use style="fill:#1f77b4;stroke:#1f77b4;" x="161.979384" xlink:href="#md071d55cfa" y="100.721157"/>
     <use style="fill:#1f77b4;stroke:#1f77b4;" x="162.778239" xlink:href="#md071d55cfa" y="91.736033"/>
     <use style="fill:#1f77b4;stroke:#1f77b4;" x="163.577094" xlink:href="#md071d55cfa" y="73.765785"/>
     <use style="fill:#1f77b4;stroke:#1f77b4;" x="164.375948" xlink:href="#md071d55cfa" y="37.825289"/>
     <use style="fill:#1f77b4;stroke:#1f77b4;" x="165.174803" xlink:href="#md071d55cfa" y="91.736033"/>
     <use style="fill:#1f77b4;stroke:#1f77b4;" x="165.973658" xlink:href="#md071d55cfa" y="100.721157"/>
     <use style="fill:#1f77b4;stroke:#1f77b4;" x="166.772513" xlink:href="#md071d55cfa" y="100.721157"/>
     <use style="fill:#1f77b4;stroke:#1f77b4;" x="167.571367" xlink:href="#md071d55cfa" y="100.721157"/>
     <use style="fill:#1f77b4;stroke:#1f77b4;" x="168.370222" xlink:href="#md071d55cfa" y="91.736033"/>
     <use style="fill:#1f77b4;stroke:#1f77b4;" x="169.169077" xlink:href="#md071d55cfa" y="73.765785"/>
     <use style="fill:#1f77b4;stroke:#1f77b4;" x="169.967931" xlink:href="#md071d55cfa" y="91.736033"/>
     <use style="fill:#1f77b4;stroke:#1f77b4;" x="170.766786" xlink:href="#md071d55cfa" y="73.765785"/>
     <use style="fill:#1f77b4;stroke:#1f77b4;" x="171.565641" xlink:href="#md071d55cfa" y="91.736033"/>
     <use style="fill:#1f77b4;stroke:#1f77b4;" x="172.364495" xlink:href="#md071d55cfa" y="91.736033"/>
     <use style="fill:#1f77b4;stroke:#1f77b4;" x="173.16335" xlink:href="#md071d55cfa" y="105.213719"/>
     <use style="fill:#1f77b4;stroke:#1f77b4;" x="173.962205" xlink:href="#md071d55cfa" y="91.736033"/>
     <use style="fill:#1f77b4;stroke:#1f77b4;" x="174.761059" xlink:href="#md071d55cfa" y="91.736033"/>
     <use style="fill:#1f77b4;stroke:#1f77b4;" x="175.559914" xlink:href="#md071d55cfa" y="100.721157"/>
     <use style="fill:#1f77b4;stroke:#1f77b4;" x="176.358769" xlink:href="#md071d55cfa" y="91.736033"/>
     <use style="fill:#1f77b4;stroke:#1f77b4;" x="177.157623" xlink:href="#md071d55cfa" y="73.765785"/>
     <use style="fill:#1f77b4;stroke:#1f77b4;" x="177.956478" xlink:href="#md071d55cfa" y="91.736033"/>
     <use style="fill:#1f77b4;stroke:#1f77b4;" x="178.755333" xlink:href="#md071d55cfa" y="100.721157"/>
     <use style="fill:#1f77b4;stroke:#1f77b4;" x="179.554188" xlink:href="#md071d55cfa" y="73.765785"/>
     <use style="fill:#1f77b4;stroke:#1f77b4;" x="180.353042" xlink:href="#md071d55cfa" y="91.736033"/>
     <use style="fill:#1f77b4;stroke:#1f77b4;" x="181.151897" xlink:href="#md071d55cfa" y="100.721157"/>
     <use style="fill:#1f77b4;stroke:#1f77b4;" x="181.950752" xlink:href="#md071d55cfa" y="91.736033"/>
     <use style="fill:#1f77b4;stroke:#1f77b4;" x="182.749606" xlink:href="#md071d55cfa" y="100.721157"/>
     <use style="fill:#1f77b4;stroke:#1f77b4;" x="183.548461" xlink:href="#md071d55cfa" y="91.736033"/>
     <use style="fill:#1f77b4;stroke:#1f77b4;" x="184.347316" xlink:href="#md071d55cfa" y="73.765785"/>
     <use style="fill:#1f77b4;stroke:#1f77b4;" x="185.14617" xlink:href="#md071d55cfa" y="37.825289"/>
     <use style="fill:#1f77b4;stroke:#1f77b4;" x="185.945025" xlink:href="#md071d55cfa" y="91.736033"/>
     <use style="fill:#1f77b4;stroke:#1f77b4;" x="186.74388" xlink:href="#md071d55cfa" y="91.736033"/>
     <use style="fill:#1f77b4;stroke:#1f77b4;" x="187.542734" xlink:href="#md071d55cfa" y="109.706281"/>
     <use style="fill:#1f77b4;stroke:#1f77b4;" x="188.341589" xlink:href="#md071d55cfa" y="91.736033"/>
     <use style="fill:#1f77b4;stroke:#1f77b4;" x="189.140444" xlink:href="#md071d55cfa" y="73.765785"/>
     <use style="fill:#1f77b4;stroke:#1f77b4;" x="189.939298" xlink:href="#md071d55cfa" y="73.765785"/>
     <use style="fill:#1f77b4;stroke:#1f77b4;" x="190.738153" xlink:href="#md071d55cfa" y="73.765785"/>
     <use style="fill:#1f77b4;stroke:#1f77b4;" x="191.537008" xlink:href="#md071d55cfa" y="100.721157"/>
     <use style="fill:#1f77b4;stroke:#1f77b4;" x="192.335863" xlink:href="#md071d55cfa" y="73.765785"/>
     <use style="fill:#1f77b4;stroke:#1f77b4;" x="193.134717" xlink:href="#md071d55cfa" y="37.825289"/>
     <use style="fill:#1f77b4;stroke:#1f77b4;" x="193.933572" xlink:href="#md071d55cfa" y="91.736033"/>
     <use style="fill:#1f77b4;stroke:#1f77b4;" x="194.732427" xlink:href="#md071d55cfa" y="91.736033"/>
     <use style="fill:#1f77b4;stroke:#1f77b4;" x="195.531281" xlink:href="#md071d55cfa" y="91.736033"/>
     <use style="fill:#1f77b4;stroke:#1f77b4;" x="196.330136" xlink:href="#md071d55cfa" y="109.706281"/>
     <use style="fill:#1f77b4;stroke:#1f77b4;" x="197.128991" xlink:href="#md071d55cfa" y="73.765785"/>
     <use style="fill:#1f77b4;stroke:#1f77b4;" x="197.927845" xlink:href="#md071d55cfa" y="91.736033"/>
     <use style="fill:#1f77b4;stroke:#1f77b4;" x="198.7267" xlink:href="#md071d55cfa" y="73.765785"/>
     <use style="fill:#1f77b4;stroke:#1f77b4;" x="199.525555" xlink:href="#md071d55cfa" y="91.736033"/>
     <use style="fill:#1f77b4;stroke:#1f77b4;" x="200.324409" xlink:href="#md071d55cfa" y="100.721157"/>
     <use style="fill:#1f77b4;stroke:#1f77b4;" x="201.123264" xlink:href="#md071d55cfa" y="91.736033"/>
     <use style="fill:#1f77b4;stroke:#1f77b4;" x="201.922119" xlink:href="#md071d55cfa" y="100.721157"/>
     <use style="fill:#1f77b4;stroke:#1f77b4;" x="202.720974" xlink:href="#md071d55cfa" y="109.706281"/>
     <use style="fill:#1f77b4;stroke:#1f77b4;" x="203.519828" xlink:href="#md071d55cfa" y="100.721157"/>
     <use style="fill:#1f77b4;stroke:#1f77b4;" x="204.318683" xlink:href="#md071d55cfa" y="73.765785"/>
     <use style="fill:#1f77b4;stroke:#1f77b4;" x="205.117538" xlink:href="#md071d55cfa" y="91.736033"/>
     <use style="fill:#1f77b4;stroke:#1f77b4;" x="205.916392" xlink:href="#md071d55cfa" y="37.825289"/>
     <use style="fill:#1f77b4;stroke:#1f77b4;" x="206.715247" xlink:href="#md071d55cfa" y="37.825289"/>
     <use style="fill:#1f77b4;stroke:#1f77b4;" x="207.514102" xlink:href="#md071d55cfa" y="91.736033"/>
     <use style="fill:#1f77b4;stroke:#1f77b4;" x="208.312956" xlink:href="#md071d55cfa" y="73.765785"/>
     <use style="fill:#1f77b4;stroke:#1f77b4;" x="209.111811" xlink:href="#md071d55cfa" y="91.736033"/>
     <use style="fill:#1f77b4;stroke:#1f77b4;" x="209.910666" xlink:href="#md071d55cfa" y="73.765785"/>
     <use style="fill:#1f77b4;stroke:#1f77b4;" x="210.70952" xlink:href="#md071d55cfa" y="91.736033"/>
     <use style="fill:#1f77b4;stroke:#1f77b4;" x="211.508375" xlink:href="#md071d55cfa" y="109.706281"/>
     <use style="fill:#1f77b4;stroke:#1f77b4;" x="212.30723" xlink:href="#md071d55cfa" y="91.736033"/>
     <use style="fill:#1f77b4;stroke:#1f77b4;" x="213.106084" xlink:href="#md071d55cfa" y="91.736033"/>
     <use style="fill:#1f77b4;stroke:#1f77b4;" x="213.904939" xlink:href="#md071d55cfa" y="91.736033"/>
     <use style="fill:#1f77b4;stroke:#1f77b4;" x="214.703794" xlink:href="#md071d55cfa" y="91.736033"/>
     <use style="fill:#1f77b4;stroke:#1f77b4;" x="215.502649" xlink:href="#md071d55cfa" y="91.736033"/>
     <use style="fill:#1f77b4;stroke:#1f77b4;" x="216.301503" xlink:href="#md071d55cfa" y="109.706281"/>
     <use style="fill:#1f77b4;stroke:#1f77b4;" x="217.100358" xlink:href="#md071d55cfa" y="91.736033"/>
     <use style="fill:#1f77b4;stroke:#1f77b4;" x="217.899213" xlink:href="#md071d55cfa" y="73.765785"/>
     <use style="fill:#1f77b4;stroke:#1f77b4;" x="218.698067" xlink:href="#md071d55cfa" y="91.736033"/>
     <use style="fill:#1f77b4;stroke:#1f77b4;" x="219.496922" xlink:href="#md071d55cfa" y="109.706281"/>
     <use style="fill:#1f77b4;stroke:#1f77b4;" x="220.295777" xlink:href="#md071d55cfa" y="73.765785"/>
     <use style="fill:#1f77b4;stroke:#1f77b4;" x="221.094631" xlink:href="#md071d55cfa" y="91.736033"/>
     <use style="fill:#1f77b4;stroke:#1f77b4;" x="221.893486" xlink:href="#md071d55cfa" y="91.736033"/>
     <use style="fill:#1f77b4;stroke:#1f77b4;" x="222.692341" xlink:href="#md071d55cfa" y="73.765785"/>
     <use style="fill:#1f77b4;stroke:#1f77b4;" x="223.491195" xlink:href="#md071d55cfa" y="91.736033"/>
     <use style="fill:#1f77b4;stroke:#1f77b4;" x="224.29005" xlink:href="#md071d55cfa" y="91.736033"/>
     <use style="fill:#1f77b4;stroke:#1f77b4;" x="225.088905" xlink:href="#md071d55cfa" y="91.736033"/>
     <use style="fill:#1f77b4;stroke:#1f77b4;" x="225.887759" xlink:href="#md071d55cfa" y="91.736033"/>
     <use style="fill:#1f77b4;stroke:#1f77b4;" x="226.686614" xlink:href="#md071d55cfa" y="73.765785"/>
     <use style="fill:#1f77b4;stroke:#1f77b4;" x="227.485469" xlink:href="#md071d55cfa" y="73.765785"/>
     <use style="fill:#1f77b4;stroke:#1f77b4;" x="228.284324" xlink:href="#md071d55cfa" y="73.765785"/>
     <use style="fill:#1f77b4;stroke:#1f77b4;" x="229.083178" xlink:href="#md071d55cfa" y="91.736033"/>
     <use style="fill:#1f77b4;stroke:#1f77b4;" x="229.882033" xlink:href="#md071d55cfa" y="91.736033"/>
     <use style="fill:#1f77b4;stroke:#1f77b4;" x="230.680888" xlink:href="#md071d55cfa" y="91.736033"/>
     <use style="fill:#1f77b4;stroke:#1f77b4;" x="231.479742" xlink:href="#md071d55cfa" y="91.736033"/>
     <use style="fill:#1f77b4;stroke:#1f77b4;" x="232.278597" xlink:href="#md071d55cfa" y="37.825289"/>
     <use style="fill:#1f77b4;stroke:#1f77b4;" x="233.077452" xlink:href="#md071d55cfa" y="73.765785"/>
     <use style="fill:#1f77b4;stroke:#1f77b4;" x="233.876306" xlink:href="#md071d55cfa" y="91.736033"/>
     <use style="fill:#1f77b4;stroke:#1f77b4;" x="234.675161" xlink:href="#md071d55cfa" y="109.706281"/>
     <use style="fill:#1f77b4;stroke:#1f77b4;" x="235.474016" xlink:href="#md071d55cfa" y="33.332727"/>
     <use style="fill:#1f77b4;stroke:#1f77b4;" x="236.27287" xlink:href="#md071d55cfa" y="91.736033"/>
     <use style="fill:#1f77b4;stroke:#1f77b4;" x="237.071725" xlink:href="#md071d55cfa" y="91.736033"/>
     <use style="fill:#1f77b4;stroke:#1f77b4;" x="237.87058" xlink:href="#md071d55cfa" y="91.736033"/>
     <use style="fill:#1f77b4;stroke:#1f77b4;" x="238.669435" xlink:href="#md071d55cfa" y="73.765785"/>
     <use style="fill:#1f77b4;stroke:#1f77b4;" x="239.468289" xlink:href="#md071d55cfa" y="37.825289"/>
     <use style="fill:#1f77b4;stroke:#1f77b4;" x="240.267144" xlink:href="#md071d55cfa" y="91.736033"/>
     <use style="fill:#1f77b4;stroke:#1f77b4;" x="241.065999" xlink:href="#md071d55cfa" y="91.736033"/>
     <use style="fill:#1f77b4;stroke:#1f77b4;" x="241.864853" xlink:href="#md071d55cfa" y="91.736033"/>
     <use style="fill:#1f77b4;stroke:#1f77b4;" x="242.663708" xlink:href="#md071d55cfa" y="91.736033"/>
     <use style="fill:#1f77b4;stroke:#1f77b4;" x="243.462563" xlink:href="#md071d55cfa" y="91.736033"/>
     <use style="fill:#1f77b4;stroke:#1f77b4;" x="244.261417" xlink:href="#md071d55cfa" y="91.736033"/>
     <use style="fill:#1f77b4;stroke:#1f77b4;" x="245.060272" xlink:href="#md071d55cfa" y="107.46"/>
     <use style="fill:#1f77b4;stroke:#1f77b4;" x="245.859127" xlink:href="#md071d55cfa" y="100.721157"/>
     <use style="fill:#1f77b4;stroke:#1f77b4;" x="246.657981" xlink:href="#md071d55cfa" y="73.765785"/>
     <use style="fill:#1f77b4;stroke:#1f77b4;" x="247.456836" xlink:href="#md071d55cfa" y="91.736033"/>
     <use style="fill:#1f77b4;stroke:#1f77b4;" x="248.255691" xlink:href="#md071d55cfa" y="91.736033"/>
     <use style="fill:#1f77b4;stroke:#1f77b4;" x="249.054545" xlink:href="#md071d55cfa" y="91.736033"/>
    </g>
   </g>
   <g id="patch_3">
    <path d="M 36 189 
L 36 25.92 
" style="fill:none;stroke:#000000;stroke-linecap:square;stroke-linejoin:miter;stroke-width:0.8;"/>
   </g>
   <g id="patch_4">
    <path d="M 259.2 189 
L 259.2 25.92 
" style="fill:none;stroke:#000000;stroke-linecap:square;stroke-linejoin:miter;stroke-width:0.8;"/>
   </g>
   <g id="patch_5">
    <path d="M 36 189 
L 259.2 189 
" style="fill:none;stroke:#000000;stroke-linecap:square;stroke-linejoin:miter;stroke-width:0.8;"/>
   </g>
   <g id="patch_6">
    <path d="M 36 25.92 
L 259.2 25.92 
" style="fill:none;stroke:#000000;stroke-linecap:square;stroke-linejoin:miter;stroke-width:0.8;"/>
   </g>
  </g>
 </g>
 <defs>
  <clipPath id="pbf7d25ec3e">
   <rect height="163.08" width="223.2" x="36" y="25.92"/>
  </clipPath>
 </defs>
</svg>
