<?xml version="1.0" encoding="utf-8" standalone="no"?>
<!DOCTYPE svg PUBLIC "-//W3C//DTD SVG 1.1//EN"
  "http://www.w3.org/Graphics/SVG/1.1/DTD/svg11.dtd">
<!-- Created with matplotlib (https://matplotlib.org/) -->
<svg height="247.985312pt" version="1.1" viewBox="0 0 376.748002 247.985312" width="376.748002pt" xmlns="http://www.w3.org/2000/svg" xmlns:xlink="http://www.w3.org/1999/xlink">
 <defs>
  <style type="text/css">
*{stroke-linecap:butt;stroke-linejoin:round;}
  </style>
 </defs>
 <g id="figure_1">
  <g id="patch_1">
   <path d="M 0 247.985312 
L 376.748002 247.985312 
L 376.748002 0 
L 0 0 
z
" style="fill:none;"/>
  </g>
  <g id="axes_1">
   <g id="patch_2">
    <path d="M 33.145313 224.64 
L 367.945312 224.64 
L 367.945312 7.2 
L 33.145313 7.2 
z
" style="fill:#ffffff;"/>
   </g>
   <g id="matplotlib.axis_1">
    <g id="xtick_1">
     <g id="line2d_1">
      <defs>
       <path d="M 0 0 
L 0 3.5 
" id="m476038c1a5" style="stroke:#000000;stroke-width:0.8;"/>
      </defs>
      <g>
       <use style="stroke:#000000;stroke-width:0.8;" x="48.363494" xlink:href="#m476038c1a5" y="224.64"/>
      </g>
     </g>
     <g id="text_1">
      <!-- 0.0000 -->
      <defs>
       <path d="M 4.15625 35.296875 
Q 4.15625 48 6.765625 55.734375 
Q 9.375 63.484375 14.515625 67.671875 
Q 19.671875 71.875 27.484375 71.875 
Q 33.25 71.875 37.59375 69.546875 
Q 41.9375 67.234375 44.765625 62.859375 
Q 47.609375 58.5 49.21875 52.21875 
Q 50.828125 45.953125 50.828125 35.296875 
Q 50.828125 22.703125 48.234375 14.96875 
Q 45.65625 7.234375 40.5 3 
Q 35.359375 -1.21875 27.484375 -1.21875 
Q 17.140625 -1.21875 11.234375 6.203125 
Q 4.15625 15.140625 4.15625 35.296875 
z
M 13.1875 35.296875 
Q 13.1875 17.671875 17.3125 11.828125 
Q 21.4375 6 27.484375 6 
Q 33.546875 6 37.671875 11.859375 
Q 41.796875 17.71875 41.796875 35.296875 
Q 41.796875 52.984375 37.671875 58.78125 
Q 33.546875 64.59375 27.390625 64.59375 
Q 21.34375 64.59375 17.71875 59.46875 
Q 13.1875 52.9375 13.1875 35.296875 
z
" id="ArialMT-48"/>
       <path d="M 9.078125 0 
L 9.078125 10.015625 
L 19.09375 10.015625 
L 19.09375 0 
z
" id="ArialMT-46"/>
      </defs>
      <g transform="translate(33.072088 238.797812)scale(0.1 -0.1)">
       <use xlink:href="#ArialMT-48"/>
       <use x="55.615234" xlink:href="#ArialMT-46"/>
       <use x="83.398438" xlink:href="#ArialMT-48"/>
       <use x="139.013672" xlink:href="#ArialMT-48"/>
       <use x="194.628906" xlink:href="#ArialMT-48"/>
       <use x="250.244141" xlink:href="#ArialMT-48"/>
      </g>
     </g>
    </g>
    <g id="xtick_2">
     <g id="line2d_2">
      <g>
       <use style="stroke:#000000;stroke-width:0.8;" x="86.600132" xlink:href="#m476038c1a5" y="224.64"/>
      </g>
     </g>
     <g id="text_2">
      <!-- 0.0025 -->
      <defs>
       <path d="M 50.34375 8.453125 
L 50.34375 0 
L 3.03125 0 
Q 2.9375 3.171875 4.046875 6.109375 
Q 5.859375 10.9375 9.828125 15.625 
Q 13.8125 20.3125 21.34375 26.46875 
Q 33.015625 36.03125 37.109375 41.625 
Q 41.21875 47.21875 41.21875 52.203125 
Q 41.21875 57.421875 37.46875 61 
Q 33.734375 64.59375 27.734375 64.59375 
Q 21.390625 64.59375 17.578125 60.78125 
Q 13.765625 56.984375 13.71875 50.25 
L 4.6875 51.171875 
Q 5.609375 61.28125 11.65625 66.578125 
Q 17.71875 71.875 27.9375 71.875 
Q 38.234375 71.875 44.234375 66.15625 
Q 50.25 60.453125 50.25 52 
Q 50.25 47.703125 48.484375 43.546875 
Q 46.734375 39.40625 42.65625 34.8125 
Q 38.578125 30.21875 29.109375 22.21875 
Q 21.1875 15.578125 18.9375 13.203125 
Q 16.703125 10.84375 15.234375 8.453125 
z
" id="ArialMT-50"/>
       <path d="M 4.15625 18.75 
L 13.375 19.53125 
Q 14.40625 12.796875 18.140625 9.390625 
Q 21.875 6 27.15625 6 
Q 33.5 6 37.890625 10.78125 
Q 42.28125 15.578125 42.28125 23.484375 
Q 42.28125 31 38.0625 35.34375 
Q 33.84375 39.703125 27 39.703125 
Q 22.75 39.703125 19.328125 37.765625 
Q 15.921875 35.84375 13.96875 32.765625 
L 5.71875 33.84375 
L 12.640625 70.609375 
L 48.25 70.609375 
L 48.25 62.203125 
L 19.671875 62.203125 
L 15.828125 42.96875 
Q 22.265625 47.46875 29.34375 47.46875 
Q 38.71875 47.46875 45.15625 40.96875 
Q 51.609375 34.46875 51.609375 24.265625 
Q 51.609375 14.546875 45.953125 7.46875 
Q 39.0625 -1.21875 27.15625 -1.21875 
Q 17.390625 -1.21875 11.203125 4.25 
Q 5.03125 9.71875 4.15625 18.75 
z
" id="ArialMT-53"/>
      </defs>
      <g transform="translate(71.308726 238.797812)scale(0.1 -0.1)">
       <use xlink:href="#ArialMT-48"/>
       <use x="55.615234" xlink:href="#ArialMT-46"/>
       <use x="83.398438" xlink:href="#ArialMT-48"/>
       <use x="139.013672" xlink:href="#ArialMT-48"/>
       <use x="194.628906" xlink:href="#ArialMT-50"/>
       <use x="250.244141" xlink:href="#ArialMT-53"/>
      </g>
     </g>
    </g>
    <g id="xtick_3">
     <g id="line2d_3">
      <g>
       <use style="stroke:#000000;stroke-width:0.8;" x="124.83677" xlink:href="#m476038c1a5" y="224.64"/>
      </g>
     </g>
     <g id="text_3">
      <!-- 0.0050 -->
      <g transform="translate(109.545364 238.797812)scale(0.1 -0.1)">
       <use xlink:href="#ArialMT-48"/>
       <use x="55.615234" xlink:href="#ArialMT-46"/>
       <use x="83.398438" xlink:href="#ArialMT-48"/>
       <use x="139.013672" xlink:href="#ArialMT-48"/>
       <use x="194.628906" xlink:href="#ArialMT-53"/>
       <use x="250.244141" xlink:href="#ArialMT-48"/>
      </g>
     </g>
    </g>
    <g id="xtick_4">
     <g id="line2d_4">
      <g>
       <use style="stroke:#000000;stroke-width:0.8;" x="163.073408" xlink:href="#m476038c1a5" y="224.64"/>
      </g>
     </g>
     <g id="text_4">
      <!-- 0.0075 -->
      <defs>
       <path d="M 4.734375 62.203125 
L 4.734375 70.65625 
L 51.078125 70.65625 
L 51.078125 63.8125 
Q 44.234375 56.546875 37.515625 44.484375 
Q 30.8125 32.421875 27.15625 19.671875 
Q 24.515625 10.6875 23.78125 0 
L 14.75 0 
Q 14.890625 8.453125 18.0625 20.40625 
Q 21.234375 32.375 27.171875 43.484375 
Q 33.109375 54.59375 39.796875 62.203125 
z
" id="ArialMT-55"/>
      </defs>
      <g transform="translate(147.782001 238.797812)scale(0.1 -0.1)">
       <use xlink:href="#ArialMT-48"/>
       <use x="55.615234" xlink:href="#ArialMT-46"/>
       <use x="83.398438" xlink:href="#ArialMT-48"/>
       <use x="139.013672" xlink:href="#ArialMT-48"/>
       <use x="194.628906" xlink:href="#ArialMT-55"/>
       <use x="250.244141" xlink:href="#ArialMT-53"/>
      </g>
     </g>
    </g>
    <g id="xtick_5">
     <g id="line2d_5">
      <g>
       <use style="stroke:#000000;stroke-width:0.8;" x="201.310045" xlink:href="#m476038c1a5" y="224.64"/>
      </g>
     </g>
     <g id="text_5">
      <!-- 0.0100 -->
      <defs>
       <path d="M 37.25 0 
L 28.46875 0 
L 28.46875 56 
Q 25.296875 52.984375 20.140625 49.953125 
Q 14.984375 46.921875 10.890625 45.40625 
L 10.890625 53.90625 
Q 18.265625 57.375 23.78125 62.296875 
Q 29.296875 67.234375 31.59375 71.875 
L 37.25 71.875 
z
" id="ArialMT-49"/>
      </defs>
      <g transform="translate(186.018639 238.797812)scale(0.1 -0.1)">
       <use xlink:href="#ArialMT-48"/>
       <use x="55.615234" xlink:href="#ArialMT-46"/>
       <use x="83.398438" xlink:href="#ArialMT-48"/>
       <use x="139.013672" xlink:href="#ArialMT-49"/>
       <use x="194.628906" xlink:href="#ArialMT-48"/>
       <use x="250.244141" xlink:href="#ArialMT-48"/>
      </g>
     </g>
    </g>
    <g id="xtick_6">
     <g id="line2d_6">
      <g>
       <use style="stroke:#000000;stroke-width:0.8;" x="239.546683" xlink:href="#m476038c1a5" y="224.64"/>
      </g>
     </g>
     <g id="text_6">
      <!-- 0.0125 -->
      <g transform="translate(224.255277 238.797812)scale(0.1 -0.1)">
       <use xlink:href="#ArialMT-48"/>
       <use x="55.615234" xlink:href="#ArialMT-46"/>
       <use x="83.398438" xlink:href="#ArialMT-48"/>
       <use x="139.013672" xlink:href="#ArialMT-49"/>
       <use x="194.628906" xlink:href="#ArialMT-50"/>
       <use x="250.244141" xlink:href="#ArialMT-53"/>
      </g>
     </g>
    </g>
    <g id="xtick_7">
     <g id="line2d_7">
      <g>
       <use style="stroke:#000000;stroke-width:0.8;" x="277.783321" xlink:href="#m476038c1a5" y="224.64"/>
      </g>
     </g>
     <g id="text_7">
      <!-- 0.0150 -->
      <g transform="translate(262.491914 238.797812)scale(0.1 -0.1)">
       <use xlink:href="#ArialMT-48"/>
       <use x="55.615234" xlink:href="#ArialMT-46"/>
       <use x="83.398438" xlink:href="#ArialMT-48"/>
       <use x="139.013672" xlink:href="#ArialMT-49"/>
       <use x="194.628906" xlink:href="#ArialMT-53"/>
       <use x="250.244141" xlink:href="#ArialMT-48"/>
      </g>
     </g>
    </g>
    <g id="xtick_8">
     <g id="line2d_8">
      <g>
       <use style="stroke:#000000;stroke-width:0.8;" x="316.019958" xlink:href="#m476038c1a5" y="224.64"/>
      </g>
     </g>
     <g id="text_8">
      <!-- 0.0175 -->
      <g transform="translate(300.728552 238.797812)scale(0.1 -0.1)">
       <use xlink:href="#ArialMT-48"/>
       <use x="55.615234" xlink:href="#ArialMT-46"/>
       <use x="83.398438" xlink:href="#ArialMT-48"/>
       <use x="139.013672" xlink:href="#ArialMT-49"/>
       <use x="194.628906" xlink:href="#ArialMT-55"/>
       <use x="250.244141" xlink:href="#ArialMT-53"/>
      </g>
     </g>
    </g>
    <g id="xtick_9">
     <g id="line2d_9">
      <g>
       <use style="stroke:#000000;stroke-width:0.8;" x="354.256596" xlink:href="#m476038c1a5" y="224.64"/>
      </g>
     </g>
     <g id="text_9">
      <!-- 0.0200 -->
      <g transform="translate(338.96519 238.797812)scale(0.1 -0.1)">
       <use xlink:href="#ArialMT-48"/>
       <use x="55.615234" xlink:href="#ArialMT-46"/>
       <use x="83.398438" xlink:href="#ArialMT-48"/>
       <use x="139.013672" xlink:href="#ArialMT-50"/>
       <use x="194.628906" xlink:href="#ArialMT-48"/>
       <use x="250.244141" xlink:href="#ArialMT-48"/>
      </g>
     </g>
    </g>
   </g>
   <g id="matplotlib.axis_2">
    <g id="ytick_1">
     <g id="line2d_10">
      <defs>
       <path d="M 0 0 
L -3.5 0 
" id="m7545478561" style="stroke:#000000;stroke-width:0.8;"/>
      </defs>
      <g>
       <use style="stroke:#000000;stroke-width:0.8;" x="33.145313" xlink:href="#m7545478561" y="214.756364"/>
      </g>
     </g>
     <g id="text_10">
      <!-- 0 -->
      <g transform="translate(20.584375 218.33527)scale(0.1 -0.1)">
       <use xlink:href="#ArialMT-48"/>
      </g>
     </g>
    </g>
    <g id="ytick_2">
     <g id="line2d_11">
      <g>
       <use style="stroke:#000000;stroke-width:0.8;" x="33.145313" xlink:href="#m7545478561" y="179.526538"/>
      </g>
     </g>
     <g id="text_11">
      <!-- 1 -->
      <g transform="translate(20.584375 183.105444)scale(0.1 -0.1)">
       <use xlink:href="#ArialMT-49"/>
      </g>
     </g>
    </g>
    <g id="ytick_3">
     <g id="line2d_12">
      <g>
       <use style="stroke:#000000;stroke-width:0.8;" x="33.145313" xlink:href="#m7545478561" y="144.296712"/>
      </g>
     </g>
     <g id="text_12">
      <!-- 2 -->
      <g transform="translate(20.584375 147.875618)scale(0.1 -0.1)">
       <use xlink:href="#ArialMT-50"/>
      </g>
     </g>
    </g>
    <g id="ytick_4">
     <g id="line2d_13">
      <g>
       <use style="stroke:#000000;stroke-width:0.8;" x="33.145313" xlink:href="#m7545478561" y="109.066886"/>
      </g>
     </g>
     <g id="text_13">
      <!-- 3 -->
      <defs>
       <path d="M 4.203125 18.890625 
L 12.984375 20.0625 
Q 14.5 12.59375 18.140625 9.296875 
Q 21.78125 6 27 6 
Q 33.203125 6 37.46875 10.296875 
Q 41.75 14.59375 41.75 20.953125 
Q 41.75 27 37.796875 30.921875 
Q 33.84375 34.859375 27.734375 34.859375 
Q 25.25 34.859375 21.53125 33.890625 
L 22.515625 41.609375 
Q 23.390625 41.5 23.921875 41.5 
Q 29.546875 41.5 34.03125 44.421875 
Q 38.53125 47.359375 38.53125 53.46875 
Q 38.53125 58.296875 35.25 61.46875 
Q 31.984375 64.65625 26.8125 64.65625 
Q 21.6875 64.65625 18.265625 61.421875 
Q 14.84375 58.203125 13.875 51.765625 
L 5.078125 53.328125 
Q 6.6875 62.15625 12.390625 67.015625 
Q 18.109375 71.875 26.609375 71.875 
Q 32.46875 71.875 37.390625 69.359375 
Q 42.328125 66.84375 44.9375 62.5 
Q 47.5625 58.15625 47.5625 53.265625 
Q 47.5625 48.640625 45.0625 44.828125 
Q 42.578125 41.015625 37.703125 38.765625 
Q 44.046875 37.3125 47.5625 32.6875 
Q 51.078125 28.078125 51.078125 21.140625 
Q 51.078125 11.765625 44.234375 5.25 
Q 37.40625 -1.265625 26.953125 -1.265625 
Q 17.53125 -1.265625 11.296875 4.34375 
Q 5.078125 9.96875 4.203125 18.890625 
z
" id="ArialMT-51"/>
      </defs>
      <g transform="translate(20.584375 112.645793)scale(0.1 -0.1)">
       <use xlink:href="#ArialMT-51"/>
      </g>
     </g>
    </g>
    <g id="ytick_5">
     <g id="line2d_14">
      <g>
       <use style="stroke:#000000;stroke-width:0.8;" x="33.145313" xlink:href="#m7545478561" y="73.837061"/>
      </g>
     </g>
     <g id="text_14">
      <!-- 4 -->
      <defs>
       <path d="M 32.328125 0 
L 32.328125 17.140625 
L 1.265625 17.140625 
L 1.265625 25.203125 
L 33.9375 71.578125 
L 41.109375 71.578125 
L 41.109375 25.203125 
L 50.78125 25.203125 
L 50.78125 17.140625 
L 41.109375 17.140625 
L 41.109375 0 
z
M 32.328125 25.203125 
L 32.328125 57.46875 
L 9.90625 25.203125 
z
" id="ArialMT-52"/>
      </defs>
      <g transform="translate(20.584375 77.415967)scale(0.1 -0.1)">
       <use xlink:href="#ArialMT-52"/>
      </g>
     </g>
    </g>
    <g id="ytick_6">
     <g id="line2d_15">
      <g>
       <use style="stroke:#000000;stroke-width:0.8;" x="33.145313" xlink:href="#m7545478561" y="38.607235"/>
      </g>
     </g>
     <g id="text_15">
      <!-- 5 -->
      <g transform="translate(20.584375 42.186141)scale(0.1 -0.1)">
       <use xlink:href="#ArialMT-53"/>
      </g>
     </g>
    </g>
    <g id="text_16">
     <!-- Current (uA) -->
     <defs>
      <path d="M 58.796875 25.09375 
L 68.265625 22.703125 
Q 65.28125 11.03125 57.546875 4.90625 
Q 49.8125 -1.21875 38.625 -1.21875 
Q 27.046875 -1.21875 19.796875 3.484375 
Q 12.546875 8.203125 8.765625 17.140625 
Q 4.984375 26.078125 4.984375 36.328125 
Q 4.984375 47.515625 9.25 55.828125 
Q 13.53125 64.15625 21.40625 68.46875 
Q 29.296875 72.796875 38.765625 72.796875 
Q 49.515625 72.796875 56.828125 67.328125 
Q 64.15625 61.859375 67.046875 51.953125 
L 57.71875 49.75 
Q 55.21875 57.5625 50.484375 61.125 
Q 45.75 64.703125 38.578125 64.703125 
Q 30.328125 64.703125 24.78125 60.734375 
Q 19.234375 56.78125 16.984375 50.109375 
Q 14.75 43.453125 14.75 36.375 
Q 14.75 27.25 17.40625 20.4375 
Q 20.0625 13.625 25.671875 10.25 
Q 31.296875 6.890625 37.84375 6.890625 
Q 45.796875 6.890625 51.3125 11.46875 
Q 56.84375 16.0625 58.796875 25.09375 
z
" id="ArialMT-67"/>
      <path d="M 40.578125 0 
L 40.578125 7.625 
Q 34.515625 -1.171875 24.125 -1.171875 
Q 19.53125 -1.171875 15.546875 0.578125 
Q 11.578125 2.34375 9.640625 5 
Q 7.71875 7.671875 6.9375 11.53125 
Q 6.390625 14.109375 6.390625 19.734375 
L 6.390625 51.859375 
L 15.1875 51.859375 
L 15.1875 23.09375 
Q 15.1875 16.21875 15.71875 13.8125 
Q 16.546875 10.359375 19.234375 8.375 
Q 21.921875 6.390625 25.875 6.390625 
Q 29.828125 6.390625 33.296875 8.421875 
Q 36.765625 10.453125 38.203125 13.9375 
Q 39.65625 17.4375 39.65625 24.078125 
L 39.65625 51.859375 
L 48.4375 51.859375 
L 48.4375 0 
z
" id="ArialMT-117"/>
      <path d="M 6.5 0 
L 6.5 51.859375 
L 14.40625 51.859375 
L 14.40625 44 
Q 17.4375 49.515625 20 51.265625 
Q 22.5625 53.03125 25.640625 53.03125 
Q 30.078125 53.03125 34.671875 50.203125 
L 31.640625 42.046875 
Q 28.421875 43.953125 25.203125 43.953125 
Q 22.3125 43.953125 20.015625 42.21875 
Q 17.71875 40.484375 16.75 37.40625 
Q 15.28125 32.71875 15.28125 27.15625 
L 15.28125 0 
z
" id="ArialMT-114"/>
      <path d="M 42.09375 16.703125 
L 51.171875 15.578125 
Q 49.03125 7.625 43.21875 3.21875 
Q 37.40625 -1.171875 28.375 -1.171875 
Q 17 -1.171875 10.328125 5.828125 
Q 3.65625 12.84375 3.65625 25.484375 
Q 3.65625 38.578125 10.390625 45.796875 
Q 17.140625 53.03125 27.875 53.03125 
Q 38.28125 53.03125 44.875 45.953125 
Q 51.46875 38.875 51.46875 26.03125 
Q 51.46875 25.25 51.421875 23.6875 
L 12.75 23.6875 
Q 13.234375 15.140625 17.578125 10.59375 
Q 21.921875 6.0625 28.421875 6.0625 
Q 33.25 6.0625 36.671875 8.59375 
Q 40.09375 11.140625 42.09375 16.703125 
z
M 13.234375 30.90625 
L 42.1875 30.90625 
Q 41.609375 37.453125 38.875 40.71875 
Q 34.671875 45.796875 27.984375 45.796875 
Q 21.921875 45.796875 17.796875 41.75 
Q 13.671875 37.703125 13.234375 30.90625 
z
" id="ArialMT-101"/>
      <path d="M 6.59375 0 
L 6.59375 51.859375 
L 14.5 51.859375 
L 14.5 44.484375 
Q 20.21875 53.03125 31 53.03125 
Q 35.6875 53.03125 39.625 51.34375 
Q 43.5625 49.65625 45.515625 46.921875 
Q 47.46875 44.1875 48.25 40.4375 
Q 48.734375 37.984375 48.734375 31.890625 
L 48.734375 0 
L 39.9375 0 
L 39.9375 31.546875 
Q 39.9375 36.921875 38.90625 39.578125 
Q 37.890625 42.234375 35.28125 43.8125 
Q 32.671875 45.40625 29.15625 45.40625 
Q 23.53125 45.40625 19.453125 41.84375 
Q 15.375 38.28125 15.375 28.328125 
L 15.375 0 
z
" id="ArialMT-110"/>
      <path d="M 25.78125 7.859375 
L 27.046875 0.09375 
Q 23.34375 -0.6875 20.40625 -0.6875 
Q 15.625 -0.6875 12.984375 0.828125 
Q 10.359375 2.34375 9.28125 4.8125 
Q 8.203125 7.28125 8.203125 15.1875 
L 8.203125 45.015625 
L 1.765625 45.015625 
L 1.765625 51.859375 
L 8.203125 51.859375 
L 8.203125 64.703125 
L 16.9375 69.96875 
L 16.9375 51.859375 
L 25.78125 51.859375 
L 25.78125 45.015625 
L 16.9375 45.015625 
L 16.9375 14.703125 
Q 16.9375 10.9375 17.40625 9.859375 
Q 17.875 8.796875 18.921875 8.15625 
Q 19.96875 7.515625 21.921875 7.515625 
Q 23.390625 7.515625 25.78125 7.859375 
z
" id="ArialMT-116"/>
      <path id="ArialMT-32"/>
      <path d="M 23.390625 -21.046875 
Q 16.109375 -11.859375 11.078125 0.4375 
Q 6.0625 12.75 6.0625 25.921875 
Q 6.0625 37.546875 9.8125 48.1875 
Q 14.203125 60.546875 23.390625 72.796875 
L 29.6875 72.796875 
Q 23.78125 62.640625 21.875 58.296875 
Q 18.890625 51.5625 17.1875 44.234375 
Q 15.09375 35.109375 15.09375 25.875 
Q 15.09375 2.390625 29.6875 -21.046875 
z
" id="ArialMT-40"/>
      <path d="M -0.140625 0 
L 27.34375 71.578125 
L 37.546875 71.578125 
L 66.84375 0 
L 56.0625 0 
L 47.703125 21.6875 
L 17.78125 21.6875 
L 9.90625 0 
z
M 20.515625 29.390625 
L 44.78125 29.390625 
L 37.3125 49.21875 
Q 33.890625 58.25 32.234375 64.0625 
Q 30.859375 57.171875 28.375 50.390625 
z
" id="ArialMT-65"/>
      <path d="M 12.359375 -21.046875 
L 6.0625 -21.046875 
Q 20.65625 2.390625 20.65625 25.875 
Q 20.65625 35.0625 18.5625 44.09375 
Q 16.890625 51.421875 13.921875 58.15625 
Q 12.015625 62.546875 6.0625 72.796875 
L 12.359375 72.796875 
Q 21.53125 60.546875 25.921875 48.1875 
Q 29.6875 37.546875 29.6875 25.921875 
Q 29.6875 12.75 24.625 0.4375 
Q 19.578125 -11.859375 12.359375 -21.046875 
z
" id="ArialMT-41"/>
     </defs>
     <g transform="translate(14.479687 143.425469)rotate(-90)scale(0.1 -0.1)">
      <use xlink:href="#ArialMT-67"/>
      <use x="72.216797" xlink:href="#ArialMT-117"/>
      <use x="127.832031" xlink:href="#ArialMT-114"/>
      <use x="161.132812" xlink:href="#ArialMT-114"/>
      <use x="194.433594" xlink:href="#ArialMT-101"/>
      <use x="250.048828" xlink:href="#ArialMT-110"/>
      <use x="305.664062" xlink:href="#ArialMT-116"/>
      <use x="333.447266" xlink:href="#ArialMT-32"/>
      <use x="361.230469" xlink:href="#ArialMT-40"/>
      <use x="394.53125" xlink:href="#ArialMT-117"/>
      <use x="450.146484" xlink:href="#ArialMT-65"/>
      <use x="516.845703" xlink:href="#ArialMT-41"/>
     </g>
    </g>
   </g>
   <g id="line2d_16">
    <path clip-path="url(#pcc12a0c24f)" d="M 48.363494 214.756364 
L 57.540287 214.756364 
L 59.069753 214.635831 
L 60.599218 214.756364 
L 63.658149 214.756364 
L 65.187615 213.792106 
L 66.71708 210.899335 
L 68.246546 210.899335 
L 69.776011 210.417206 
L 72.834942 210.417206 
L 74.364408 207.042306 
L 77.423339 207.042306 
L 78.952805 206.078049 
L 82.011736 206.078049 
L 83.541201 203.185277 
L 86.600132 203.185277 
L 88.129598 201.256763 
L 91.188529 201.256763 
L 92.717994 198.84612 
L 94.24746 199.087184 
L 95.776925 199.087184 
L 97.306391 195.47122 
L 100.365322 195.47122 
L 101.894787 193.542705 
L 103.424253 194.506962 
L 104.953718 194.506962 
L 106.483184 191.614191 
L 109.542115 191.614191 
L 111.07158 189.685676 
L 114.130511 189.685676 
L 115.659977 187.757162 
L 117.189442 187.757162 
L 118.718908 187.275033 
L 121.777839 183.900133 
L 123.307304 183.900133 
L 124.83677 182.453747 
L 126.366235 182.935876 
L 127.895701 182.453747 
L 129.425166 180.043104 
L 130.954632 180.043104 
L 132.484097 179.922572 
L 134.013563 178.11459 
L 137.072494 178.11459 
L 138.601959 175.945011 
L 140.131425 175.221818 
L 141.66089 175.221818 
L 143.190356 174.016497 
L 144.719821 173.293304 
L 146.249287 173.775432 
L 147.778752 171.364789 
L 149.308218 171.364789 
L 150.837683 171.123725 
L 152.367149 171.364789 
L 153.896614 169.918404 
L 155.42608 169.918404 
L 158.485011 167.025632 
L 160.014477 167.025632 
L 161.543942 166.543503 
L 164.602873 164.13286 
L 166.132339 164.614989 
L 167.661804 161.842749 
L 169.19127 161.360621 
L 170.720735 161.842749 
L 172.250201 159.552639 
L 175.309132 159.07051 
L 176.838597 157.38306 
L 178.368063 157.744656 
L 179.897528 157.262528 
L 181.426994 132.794501 
L 182.956459 135.205144 
L 184.485925 155.092949 
L 186.01539 132.794501 
L 189.074321 132.794501 
L 190.603787 127.973215 
L 193.662718 127.973215 
L 195.192183 118.330643 
L 196.721649 127.973215 
L 198.251114 127.370554 
L 199.78058 118.330643 
L 205.898442 118.330643 
L 207.427907 117.727982 
L 208.957373 115.92 
L 212.016304 115.92 
L 213.545769 113.509357 
L 216.6047 113.509357 
L 218.134166 108.688071 
L 221.193097 108.688071 
L 222.722562 99.045499 
L 224.252028 107.482749 
L 225.781493 99.045499 
L 234.958286 99.045499 
L 236.487752 94.224213 
L 239.546683 94.224213 
L 241.076148 96.634856 
L 242.605614 93.621552 
L 244.13508 91.81357 
L 245.664545 94.224213 
L 247.194011 89.402927 
L 251.782407 89.402927 
L 253.311873 88.800266 
L 254.841338 86.992284 
L 256.370804 79.760355 
L 260.9592 79.760355 
L 262.488666 77.349712 
L 264.018131 77.349712 
L 265.547597 74.939069 
L 268.606528 74.939069 
L 270.135993 70.117783 
L 271.665459 70.117783 
L 273.194924 73.733747 
L 274.72439 70.117783 
L 277.783321 70.117783 
L 279.312786 67.70714 
L 280.842252 60.475211 
L 282.371717 67.70714 
L 283.901183 60.475211 
L 288.489579 60.475211 
L 290.019045 58.064568 
L 291.54851 59.269889 
L 293.077976 55.653925 
L 294.607441 59.269889 
L 296.136907 55.653925 
L 297.666372 54.448603 
L 299.195838 50.832639 
L 302.254769 50.832639 
L 303.784234 49.627317 
L 305.3137 49.627317 
L 306.843165 41.190067 
L 308.372631 41.190067 
L 309.902096 46.011353 
L 311.431562 41.190067 
L 316.019958 41.190067 
L 317.549424 38.779424 
L 319.078889 38.779424 
L 320.608355 36.36878 
L 322.13782 36.36878 
L 323.667286 38.779424 
L 325.196752 36.36878 
L 326.726217 31.547494 
L 328.255683 33.958137 
L 329.785148 31.547494 
L 331.314614 30.342173 
L 332.844079 30.342173 
L 334.373545 31.547494 
L 335.90301 29.136851 
L 338.961941 29.136851 
L 340.491407 21.904922 
L 343.550338 21.904922 
L 345.079803 19.494279 
L 346.609269 21.904922 
L 348.138734 20.699601 
L 349.6682 17.083636 
L 351.197665 19.494279 
L 352.727131 17.083636 
L 352.727131 17.083636 
" style="fill:none;stroke:#1f77b4;stroke-linecap:square;stroke-width:1.5;"/>
    <defs>
     <path d="M 0 1.5 
C 0.397805 1.5 0.77937 1.341951 1.06066 1.06066 
C 1.341951 0.77937 1.5 0.397805 1.5 0 
C 1.5 -0.397805 1.341951 -0.77937 1.06066 -1.06066 
C 0.77937 -1.341951 0.397805 -1.5 0 -1.5 
C -0.397805 -1.5 -0.77937 -1.341951 -1.06066 -1.06066 
C -1.341951 -0.77937 -1.5 -0.397805 -1.5 0 
C -1.5 0.397805 -1.341951 0.77937 -1.06066 1.06066 
C -0.77937 1.341951 -0.397805 1.5 0 1.5 
z
" id="mbdb6b580d8" style="stroke:#1f77b4;"/>
    </defs>
    <g clip-path="url(#pcc12a0c24f)">
     <use style="fill:#1f77b4;stroke:#1f77b4;" x="48.363494" xlink:href="#mbdb6b580d8" y="214.756364"/>
     <use style="fill:#1f77b4;stroke:#1f77b4;" x="49.89296" xlink:href="#mbdb6b580d8" y="214.756364"/>
     <use style="fill:#1f77b4;stroke:#1f77b4;" x="51.422425" xlink:href="#mbdb6b580d8" y="214.756364"/>
     <use style="fill:#1f77b4;stroke:#1f77b4;" x="52.951891" xlink:href="#mbdb6b580d8" y="214.756364"/>
     <use style="fill:#1f77b4;stroke:#1f77b4;" x="54.481356" xlink:href="#mbdb6b580d8" y="214.756364"/>
     <use style="fill:#1f77b4;stroke:#1f77b4;" x="56.010822" xlink:href="#mbdb6b580d8" y="214.756364"/>
     <use style="fill:#1f77b4;stroke:#1f77b4;" x="57.540287" xlink:href="#mbdb6b580d8" y="214.756364"/>
     <use style="fill:#1f77b4;stroke:#1f77b4;" x="59.069753" xlink:href="#mbdb6b580d8" y="214.635831"/>
     <use style="fill:#1f77b4;stroke:#1f77b4;" x="60.599218" xlink:href="#mbdb6b580d8" y="214.756364"/>
     <use style="fill:#1f77b4;stroke:#1f77b4;" x="62.128684" xlink:href="#mbdb6b580d8" y="214.756364"/>
     <use style="fill:#1f77b4;stroke:#1f77b4;" x="63.658149" xlink:href="#mbdb6b580d8" y="214.756364"/>
     <use style="fill:#1f77b4;stroke:#1f77b4;" x="65.187615" xlink:href="#mbdb6b580d8" y="213.792106"/>
     <use style="fill:#1f77b4;stroke:#1f77b4;" x="66.71708" xlink:href="#mbdb6b580d8" y="210.899335"/>
     <use style="fill:#1f77b4;stroke:#1f77b4;" x="68.246546" xlink:href="#mbdb6b580d8" y="210.899335"/>
     <use style="fill:#1f77b4;stroke:#1f77b4;" x="69.776011" xlink:href="#mbdb6b580d8" y="210.417206"/>
     <use style="fill:#1f77b4;stroke:#1f77b4;" x="71.305477" xlink:href="#mbdb6b580d8" y="210.417206"/>
     <use style="fill:#1f77b4;stroke:#1f77b4;" x="72.834942" xlink:href="#mbdb6b580d8" y="210.417206"/>
     <use style="fill:#1f77b4;stroke:#1f77b4;" x="74.364408" xlink:href="#mbdb6b580d8" y="207.042306"/>
     <use style="fill:#1f77b4;stroke:#1f77b4;" x="75.893873" xlink:href="#mbdb6b580d8" y="207.042306"/>
     <use style="fill:#1f77b4;stroke:#1f77b4;" x="77.423339" xlink:href="#mbdb6b580d8" y="207.042306"/>
     <use style="fill:#1f77b4;stroke:#1f77b4;" x="78.952805" xlink:href="#mbdb6b580d8" y="206.078049"/>
     <use style="fill:#1f77b4;stroke:#1f77b4;" x="80.48227" xlink:href="#mbdb6b580d8" y="206.078049"/>
     <use style="fill:#1f77b4;stroke:#1f77b4;" x="82.011736" xlink:href="#mbdb6b580d8" y="206.078049"/>
     <use style="fill:#1f77b4;stroke:#1f77b4;" x="83.541201" xlink:href="#mbdb6b580d8" y="203.185277"/>
     <use style="fill:#1f77b4;stroke:#1f77b4;" x="85.070667" xlink:href="#mbdb6b580d8" y="203.185277"/>
     <use style="fill:#1f77b4;stroke:#1f77b4;" x="86.600132" xlink:href="#mbdb6b580d8" y="203.185277"/>
     <use style="fill:#1f77b4;stroke:#1f77b4;" x="88.129598" xlink:href="#mbdb6b580d8" y="201.256763"/>
     <use style="fill:#1f77b4;stroke:#1f77b4;" x="89.659063" xlink:href="#mbdb6b580d8" y="201.256763"/>
     <use style="fill:#1f77b4;stroke:#1f77b4;" x="91.188529" xlink:href="#mbdb6b580d8" y="201.256763"/>
     <use style="fill:#1f77b4;stroke:#1f77b4;" x="92.717994" xlink:href="#mbdb6b580d8" y="198.84612"/>
     <use style="fill:#1f77b4;stroke:#1f77b4;" x="94.24746" xlink:href="#mbdb6b580d8" y="199.087184"/>
     <use style="fill:#1f77b4;stroke:#1f77b4;" x="95.776925" xlink:href="#mbdb6b580d8" y="199.087184"/>
     <use style="fill:#1f77b4;stroke:#1f77b4;" x="97.306391" xlink:href="#mbdb6b580d8" y="195.47122"/>
     <use style="fill:#1f77b4;stroke:#1f77b4;" x="98.835856" xlink:href="#mbdb6b580d8" y="195.47122"/>
     <use style="fill:#1f77b4;stroke:#1f77b4;" x="100.365322" xlink:href="#mbdb6b580d8" y="195.47122"/>
     <use style="fill:#1f77b4;stroke:#1f77b4;" x="101.894787" xlink:href="#mbdb6b580d8" y="193.542705"/>
     <use style="fill:#1f77b4;stroke:#1f77b4;" x="103.424253" xlink:href="#mbdb6b580d8" y="194.506962"/>
     <use style="fill:#1f77b4;stroke:#1f77b4;" x="104.953718" xlink:href="#mbdb6b580d8" y="194.506962"/>
     <use style="fill:#1f77b4;stroke:#1f77b4;" x="106.483184" xlink:href="#mbdb6b580d8" y="191.614191"/>
     <use style="fill:#1f77b4;stroke:#1f77b4;" x="108.012649" xlink:href="#mbdb6b580d8" y="191.614191"/>
     <use style="fill:#1f77b4;stroke:#1f77b4;" x="109.542115" xlink:href="#mbdb6b580d8" y="191.614191"/>
     <use style="fill:#1f77b4;stroke:#1f77b4;" x="111.07158" xlink:href="#mbdb6b580d8" y="189.685676"/>
     <use style="fill:#1f77b4;stroke:#1f77b4;" x="112.601046" xlink:href="#mbdb6b580d8" y="189.685676"/>
     <use style="fill:#1f77b4;stroke:#1f77b4;" x="114.130511" xlink:href="#mbdb6b580d8" y="189.685676"/>
     <use style="fill:#1f77b4;stroke:#1f77b4;" x="115.659977" xlink:href="#mbdb6b580d8" y="187.757162"/>
     <use style="fill:#1f77b4;stroke:#1f77b4;" x="117.189442" xlink:href="#mbdb6b580d8" y="187.757162"/>
     <use style="fill:#1f77b4;stroke:#1f77b4;" x="118.718908" xlink:href="#mbdb6b580d8" y="187.275033"/>
     <use style="fill:#1f77b4;stroke:#1f77b4;" x="120.248373" xlink:href="#mbdb6b580d8" y="185.587583"/>
     <use style="fill:#1f77b4;stroke:#1f77b4;" x="121.777839" xlink:href="#mbdb6b580d8" y="183.900133"/>
     <use style="fill:#1f77b4;stroke:#1f77b4;" x="123.307304" xlink:href="#mbdb6b580d8" y="183.900133"/>
     <use style="fill:#1f77b4;stroke:#1f77b4;" x="124.83677" xlink:href="#mbdb6b580d8" y="182.453747"/>
     <use style="fill:#1f77b4;stroke:#1f77b4;" x="126.366235" xlink:href="#mbdb6b580d8" y="182.935876"/>
     <use style="fill:#1f77b4;stroke:#1f77b4;" x="127.895701" xlink:href="#mbdb6b580d8" y="182.453747"/>
     <use style="fill:#1f77b4;stroke:#1f77b4;" x="129.425166" xlink:href="#mbdb6b580d8" y="180.043104"/>
     <use style="fill:#1f77b4;stroke:#1f77b4;" x="130.954632" xlink:href="#mbdb6b580d8" y="180.043104"/>
     <use style="fill:#1f77b4;stroke:#1f77b4;" x="132.484097" xlink:href="#mbdb6b580d8" y="179.922572"/>
     <use style="fill:#1f77b4;stroke:#1f77b4;" x="134.013563" xlink:href="#mbdb6b580d8" y="178.11459"/>
     <use style="fill:#1f77b4;stroke:#1f77b4;" x="135.543028" xlink:href="#mbdb6b580d8" y="178.11459"/>
     <use style="fill:#1f77b4;stroke:#1f77b4;" x="137.072494" xlink:href="#mbdb6b580d8" y="178.11459"/>
     <use style="fill:#1f77b4;stroke:#1f77b4;" x="138.601959" xlink:href="#mbdb6b580d8" y="175.945011"/>
     <use style="fill:#1f77b4;stroke:#1f77b4;" x="140.131425" xlink:href="#mbdb6b580d8" y="175.221818"/>
     <use style="fill:#1f77b4;stroke:#1f77b4;" x="141.66089" xlink:href="#mbdb6b580d8" y="175.221818"/>
     <use style="fill:#1f77b4;stroke:#1f77b4;" x="143.190356" xlink:href="#mbdb6b580d8" y="174.016497"/>
     <use style="fill:#1f77b4;stroke:#1f77b4;" x="144.719821" xlink:href="#mbdb6b580d8" y="173.293304"/>
     <use style="fill:#1f77b4;stroke:#1f77b4;" x="146.249287" xlink:href="#mbdb6b580d8" y="173.775432"/>
     <use style="fill:#1f77b4;stroke:#1f77b4;" x="147.778752" xlink:href="#mbdb6b580d8" y="171.364789"/>
     <use style="fill:#1f77b4;stroke:#1f77b4;" x="149.308218" xlink:href="#mbdb6b580d8" y="171.364789"/>
     <use style="fill:#1f77b4;stroke:#1f77b4;" x="150.837683" xlink:href="#mbdb6b580d8" y="171.123725"/>
     <use style="fill:#1f77b4;stroke:#1f77b4;" x="152.367149" xlink:href="#mbdb6b580d8" y="171.364789"/>
     <use style="fill:#1f77b4;stroke:#1f77b4;" x="153.896614" xlink:href="#mbdb6b580d8" y="169.918404"/>
     <use style="fill:#1f77b4;stroke:#1f77b4;" x="155.42608" xlink:href="#mbdb6b580d8" y="169.918404"/>
     <use style="fill:#1f77b4;stroke:#1f77b4;" x="156.955545" xlink:href="#mbdb6b580d8" y="168.472018"/>
     <use style="fill:#1f77b4;stroke:#1f77b4;" x="158.485011" xlink:href="#mbdb6b580d8" y="167.025632"/>
     <use style="fill:#1f77b4;stroke:#1f77b4;" x="160.014477" xlink:href="#mbdb6b580d8" y="167.025632"/>
     <use style="fill:#1f77b4;stroke:#1f77b4;" x="161.543942" xlink:href="#mbdb6b580d8" y="166.543503"/>
     <use style="fill:#1f77b4;stroke:#1f77b4;" x="163.073408" xlink:href="#mbdb6b580d8" y="165.338182"/>
     <use style="fill:#1f77b4;stroke:#1f77b4;" x="164.602873" xlink:href="#mbdb6b580d8" y="164.13286"/>
     <use style="fill:#1f77b4;stroke:#1f77b4;" x="166.132339" xlink:href="#mbdb6b580d8" y="164.614989"/>
     <use style="fill:#1f77b4;stroke:#1f77b4;" x="167.661804" xlink:href="#mbdb6b580d8" y="161.842749"/>
     <use style="fill:#1f77b4;stroke:#1f77b4;" x="169.19127" xlink:href="#mbdb6b580d8" y="161.360621"/>
     <use style="fill:#1f77b4;stroke:#1f77b4;" x="170.720735" xlink:href="#mbdb6b580d8" y="161.842749"/>
     <use style="fill:#1f77b4;stroke:#1f77b4;" x="172.250201" xlink:href="#mbdb6b580d8" y="159.552639"/>
     <use style="fill:#1f77b4;stroke:#1f77b4;" x="173.779666" xlink:href="#mbdb6b580d8" y="159.311574"/>
     <use style="fill:#1f77b4;stroke:#1f77b4;" x="175.309132" xlink:href="#mbdb6b580d8" y="159.07051"/>
     <use style="fill:#1f77b4;stroke:#1f77b4;" x="176.838597" xlink:href="#mbdb6b580d8" y="157.38306"/>
     <use style="fill:#1f77b4;stroke:#1f77b4;" x="178.368063" xlink:href="#mbdb6b580d8" y="157.744656"/>
     <use style="fill:#1f77b4;stroke:#1f77b4;" x="179.897528" xlink:href="#mbdb6b580d8" y="157.262528"/>
     <use style="fill:#1f77b4;stroke:#1f77b4;" x="181.426994" xlink:href="#mbdb6b580d8" y="132.794501"/>
     <use style="fill:#1f77b4;stroke:#1f77b4;" x="182.956459" xlink:href="#mbdb6b580d8" y="135.205144"/>
     <use style="fill:#1f77b4;stroke:#1f77b4;" x="184.485925" xlink:href="#mbdb6b580d8" y="155.092949"/>
     <use style="fill:#1f77b4;stroke:#1f77b4;" x="186.01539" xlink:href="#mbdb6b580d8" y="132.794501"/>
     <use style="fill:#1f77b4;stroke:#1f77b4;" x="187.544856" xlink:href="#mbdb6b580d8" y="132.794501"/>
     <use style="fill:#1f77b4;stroke:#1f77b4;" x="189.074321" xlink:href="#mbdb6b580d8" y="132.794501"/>
     <use style="fill:#1f77b4;stroke:#1f77b4;" x="190.603787" xlink:href="#mbdb6b580d8" y="127.973215"/>
     <use style="fill:#1f77b4;stroke:#1f77b4;" x="192.133252" xlink:href="#mbdb6b580d8" y="127.973215"/>
     <use style="fill:#1f77b4;stroke:#1f77b4;" x="193.662718" xlink:href="#mbdb6b580d8" y="127.973215"/>
     <use style="fill:#1f77b4;stroke:#1f77b4;" x="195.192183" xlink:href="#mbdb6b580d8" y="118.330643"/>
     <use style="fill:#1f77b4;stroke:#1f77b4;" x="196.721649" xlink:href="#mbdb6b580d8" y="127.973215"/>
     <use style="fill:#1f77b4;stroke:#1f77b4;" x="198.251114" xlink:href="#mbdb6b580d8" y="127.370554"/>
     <use style="fill:#1f77b4;stroke:#1f77b4;" x="199.78058" xlink:href="#mbdb6b580d8" y="118.330643"/>
     <use style="fill:#1f77b4;stroke:#1f77b4;" x="201.310045" xlink:href="#mbdb6b580d8" y="118.330643"/>
     <use style="fill:#1f77b4;stroke:#1f77b4;" x="202.839511" xlink:href="#mbdb6b580d8" y="118.330643"/>
     <use style="fill:#1f77b4;stroke:#1f77b4;" x="204.368976" xlink:href="#mbdb6b580d8" y="118.330643"/>
     <use style="fill:#1f77b4;stroke:#1f77b4;" x="205.898442" xlink:href="#mbdb6b580d8" y="118.330643"/>
     <use style="fill:#1f77b4;stroke:#1f77b4;" x="207.427907" xlink:href="#mbdb6b580d8" y="117.727982"/>
     <use style="fill:#1f77b4;stroke:#1f77b4;" x="208.957373" xlink:href="#mbdb6b580d8" y="115.92"/>
     <use style="fill:#1f77b4;stroke:#1f77b4;" x="210.486838" xlink:href="#mbdb6b580d8" y="115.92"/>
     <use style="fill:#1f77b4;stroke:#1f77b4;" x="212.016304" xlink:href="#mbdb6b580d8" y="115.92"/>
     <use style="fill:#1f77b4;stroke:#1f77b4;" x="213.545769" xlink:href="#mbdb6b580d8" y="113.509357"/>
     <use style="fill:#1f77b4;stroke:#1f77b4;" x="215.075235" xlink:href="#mbdb6b580d8" y="113.509357"/>
     <use style="fill:#1f77b4;stroke:#1f77b4;" x="216.6047" xlink:href="#mbdb6b580d8" y="113.509357"/>
     <use style="fill:#1f77b4;stroke:#1f77b4;" x="218.134166" xlink:href="#mbdb6b580d8" y="108.688071"/>
     <use style="fill:#1f77b4;stroke:#1f77b4;" x="219.663631" xlink:href="#mbdb6b580d8" y="108.688071"/>
     <use style="fill:#1f77b4;stroke:#1f77b4;" x="221.193097" xlink:href="#mbdb6b580d8" y="108.688071"/>
     <use style="fill:#1f77b4;stroke:#1f77b4;" x="222.722562" xlink:href="#mbdb6b580d8" y="99.045499"/>
     <use style="fill:#1f77b4;stroke:#1f77b4;" x="224.252028" xlink:href="#mbdb6b580d8" y="107.482749"/>
     <use style="fill:#1f77b4;stroke:#1f77b4;" x="225.781493" xlink:href="#mbdb6b580d8" y="99.045499"/>
     <use style="fill:#1f77b4;stroke:#1f77b4;" x="227.310959" xlink:href="#mbdb6b580d8" y="99.045499"/>
     <use style="fill:#1f77b4;stroke:#1f77b4;" x="228.840424" xlink:href="#mbdb6b580d8" y="99.045499"/>
     <use style="fill:#1f77b4;stroke:#1f77b4;" x="230.36989" xlink:href="#mbdb6b580d8" y="99.045499"/>
     <use style="fill:#1f77b4;stroke:#1f77b4;" x="231.899355" xlink:href="#mbdb6b580d8" y="99.045499"/>
     <use style="fill:#1f77b4;stroke:#1f77b4;" x="233.428821" xlink:href="#mbdb6b580d8" y="99.045499"/>
     <use style="fill:#1f77b4;stroke:#1f77b4;" x="234.958286" xlink:href="#mbdb6b580d8" y="99.045499"/>
     <use style="fill:#1f77b4;stroke:#1f77b4;" x="236.487752" xlink:href="#mbdb6b580d8" y="94.224213"/>
     <use style="fill:#1f77b4;stroke:#1f77b4;" x="238.017217" xlink:href="#mbdb6b580d8" y="94.224213"/>
     <use style="fill:#1f77b4;stroke:#1f77b4;" x="239.546683" xlink:href="#mbdb6b580d8" y="94.224213"/>
     <use style="fill:#1f77b4;stroke:#1f77b4;" x="241.076148" xlink:href="#mbdb6b580d8" y="96.634856"/>
     <use style="fill:#1f77b4;stroke:#1f77b4;" x="242.605614" xlink:href="#mbdb6b580d8" y="93.621552"/>
     <use style="fill:#1f77b4;stroke:#1f77b4;" x="244.13508" xlink:href="#mbdb6b580d8" y="91.81357"/>
     <use style="fill:#1f77b4;stroke:#1f77b4;" x="245.664545" xlink:href="#mbdb6b580d8" y="94.224213"/>
     <use style="fill:#1f77b4;stroke:#1f77b4;" x="247.194011" xlink:href="#mbdb6b580d8" y="89.402927"/>
     <use style="fill:#1f77b4;stroke:#1f77b4;" x="248.723476" xlink:href="#mbdb6b580d8" y="89.402927"/>
     <use style="fill:#1f77b4;stroke:#1f77b4;" x="250.252942" xlink:href="#mbdb6b580d8" y="89.402927"/>
     <use style="fill:#1f77b4;stroke:#1f77b4;" x="251.782407" xlink:href="#mbdb6b580d8" y="89.402927"/>
     <use style="fill:#1f77b4;stroke:#1f77b4;" x="253.311873" xlink:href="#mbdb6b580d8" y="88.800266"/>
     <use style="fill:#1f77b4;stroke:#1f77b4;" x="254.841338" xlink:href="#mbdb6b580d8" y="86.992284"/>
     <use style="fill:#1f77b4;stroke:#1f77b4;" x="256.370804" xlink:href="#mbdb6b580d8" y="79.760355"/>
     <use style="fill:#1f77b4;stroke:#1f77b4;" x="257.900269" xlink:href="#mbdb6b580d8" y="79.760355"/>
     <use style="fill:#1f77b4;stroke:#1f77b4;" x="259.429735" xlink:href="#mbdb6b580d8" y="79.760355"/>
     <use style="fill:#1f77b4;stroke:#1f77b4;" x="260.9592" xlink:href="#mbdb6b580d8" y="79.760355"/>
     <use style="fill:#1f77b4;stroke:#1f77b4;" x="262.488666" xlink:href="#mbdb6b580d8" y="77.349712"/>
     <use style="fill:#1f77b4;stroke:#1f77b4;" x="264.018131" xlink:href="#mbdb6b580d8" y="77.349712"/>
     <use style="fill:#1f77b4;stroke:#1f77b4;" x="265.547597" xlink:href="#mbdb6b580d8" y="74.939069"/>
     <use style="fill:#1f77b4;stroke:#1f77b4;" x="267.077062" xlink:href="#mbdb6b580d8" y="74.939069"/>
     <use style="fill:#1f77b4;stroke:#1f77b4;" x="268.606528" xlink:href="#mbdb6b580d8" y="74.939069"/>
     <use style="fill:#1f77b4;stroke:#1f77b4;" x="270.135993" xlink:href="#mbdb6b580d8" y="70.117783"/>
     <use style="fill:#1f77b4;stroke:#1f77b4;" x="271.665459" xlink:href="#mbdb6b580d8" y="70.117783"/>
     <use style="fill:#1f77b4;stroke:#1f77b4;" x="273.194924" xlink:href="#mbdb6b580d8" y="73.733747"/>
     <use style="fill:#1f77b4;stroke:#1f77b4;" x="274.72439" xlink:href="#mbdb6b580d8" y="70.117783"/>
     <use style="fill:#1f77b4;stroke:#1f77b4;" x="276.253855" xlink:href="#mbdb6b580d8" y="70.117783"/>
     <use style="fill:#1f77b4;stroke:#1f77b4;" x="277.783321" xlink:href="#mbdb6b580d8" y="70.117783"/>
     <use style="fill:#1f77b4;stroke:#1f77b4;" x="279.312786" xlink:href="#mbdb6b580d8" y="67.70714"/>
     <use style="fill:#1f77b4;stroke:#1f77b4;" x="280.842252" xlink:href="#mbdb6b580d8" y="60.475211"/>
     <use style="fill:#1f77b4;stroke:#1f77b4;" x="282.371717" xlink:href="#mbdb6b580d8" y="67.70714"/>
     <use style="fill:#1f77b4;stroke:#1f77b4;" x="283.901183" xlink:href="#mbdb6b580d8" y="60.475211"/>
     <use style="fill:#1f77b4;stroke:#1f77b4;" x="285.430648" xlink:href="#mbdb6b580d8" y="60.475211"/>
     <use style="fill:#1f77b4;stroke:#1f77b4;" x="286.960114" xlink:href="#mbdb6b580d8" y="60.475211"/>
     <use style="fill:#1f77b4;stroke:#1f77b4;" x="288.489579" xlink:href="#mbdb6b580d8" y="60.475211"/>
     <use style="fill:#1f77b4;stroke:#1f77b4;" x="290.019045" xlink:href="#mbdb6b580d8" y="58.064568"/>
     <use style="fill:#1f77b4;stroke:#1f77b4;" x="291.54851" xlink:href="#mbdb6b580d8" y="59.269889"/>
     <use style="fill:#1f77b4;stroke:#1f77b4;" x="293.077976" xlink:href="#mbdb6b580d8" y="55.653925"/>
     <use style="fill:#1f77b4;stroke:#1f77b4;" x="294.607441" xlink:href="#mbdb6b580d8" y="59.269889"/>
     <use style="fill:#1f77b4;stroke:#1f77b4;" x="296.136907" xlink:href="#mbdb6b580d8" y="55.653925"/>
     <use style="fill:#1f77b4;stroke:#1f77b4;" x="297.666372" xlink:href="#mbdb6b580d8" y="54.448603"/>
     <use style="fill:#1f77b4;stroke:#1f77b4;" x="299.195838" xlink:href="#mbdb6b580d8" y="50.832639"/>
     <use style="fill:#1f77b4;stroke:#1f77b4;" x="300.725303" xlink:href="#mbdb6b580d8" y="50.832639"/>
     <use style="fill:#1f77b4;stroke:#1f77b4;" x="302.254769" xlink:href="#mbdb6b580d8" y="50.832639"/>
     <use style="fill:#1f77b4;stroke:#1f77b4;" x="303.784234" xlink:href="#mbdb6b580d8" y="49.627317"/>
     <use style="fill:#1f77b4;stroke:#1f77b4;" x="305.3137" xlink:href="#mbdb6b580d8" y="49.627317"/>
     <use style="fill:#1f77b4;stroke:#1f77b4;" x="306.843165" xlink:href="#mbdb6b580d8" y="41.190067"/>
     <use style="fill:#1f77b4;stroke:#1f77b4;" x="308.372631" xlink:href="#mbdb6b580d8" y="41.190067"/>
     <use style="fill:#1f77b4;stroke:#1f77b4;" x="309.902096" xlink:href="#mbdb6b580d8" y="46.011353"/>
     <use style="fill:#1f77b4;stroke:#1f77b4;" x="311.431562" xlink:href="#mbdb6b580d8" y="41.190067"/>
     <use style="fill:#1f77b4;stroke:#1f77b4;" x="312.961027" xlink:href="#mbdb6b580d8" y="41.190067"/>
     <use style="fill:#1f77b4;stroke:#1f77b4;" x="314.490493" xlink:href="#mbdb6b580d8" y="41.190067"/>
     <use style="fill:#1f77b4;stroke:#1f77b4;" x="316.019958" xlink:href="#mbdb6b580d8" y="41.190067"/>
     <use style="fill:#1f77b4;stroke:#1f77b4;" x="317.549424" xlink:href="#mbdb6b580d8" y="38.779424"/>
     <use style="fill:#1f77b4;stroke:#1f77b4;" x="319.078889" xlink:href="#mbdb6b580d8" y="38.779424"/>
     <use style="fill:#1f77b4;stroke:#1f77b4;" x="320.608355" xlink:href="#mbdb6b580d8" y="36.36878"/>
     <use style="fill:#1f77b4;stroke:#1f77b4;" x="322.13782" xlink:href="#mbdb6b580d8" y="36.36878"/>
     <use style="fill:#1f77b4;stroke:#1f77b4;" x="323.667286" xlink:href="#mbdb6b580d8" y="38.779424"/>
     <use style="fill:#1f77b4;stroke:#1f77b4;" x="325.196752" xlink:href="#mbdb6b580d8" y="36.36878"/>
     <use style="fill:#1f77b4;stroke:#1f77b4;" x="326.726217" xlink:href="#mbdb6b580d8" y="31.547494"/>
     <use style="fill:#1f77b4;stroke:#1f77b4;" x="328.255683" xlink:href="#mbdb6b580d8" y="33.958137"/>
     <use style="fill:#1f77b4;stroke:#1f77b4;" x="329.785148" xlink:href="#mbdb6b580d8" y="31.547494"/>
     <use style="fill:#1f77b4;stroke:#1f77b4;" x="331.314614" xlink:href="#mbdb6b580d8" y="30.342173"/>
     <use style="fill:#1f77b4;stroke:#1f77b4;" x="332.844079" xlink:href="#mbdb6b580d8" y="30.342173"/>
     <use style="fill:#1f77b4;stroke:#1f77b4;" x="334.373545" xlink:href="#mbdb6b580d8" y="31.547494"/>
     <use style="fill:#1f77b4;stroke:#1f77b4;" x="335.90301" xlink:href="#mbdb6b580d8" y="29.136851"/>
     <use style="fill:#1f77b4;stroke:#1f77b4;" x="337.432476" xlink:href="#mbdb6b580d8" y="29.136851"/>
     <use style="fill:#1f77b4;stroke:#1f77b4;" x="338.961941" xlink:href="#mbdb6b580d8" y="29.136851"/>
     <use style="fill:#1f77b4;stroke:#1f77b4;" x="340.491407" xlink:href="#mbdb6b580d8" y="21.904922"/>
     <use style="fill:#1f77b4;stroke:#1f77b4;" x="342.020872" xlink:href="#mbdb6b580d8" y="21.904922"/>
     <use style="fill:#1f77b4;stroke:#1f77b4;" x="343.550338" xlink:href="#mbdb6b580d8" y="21.904922"/>
     <use style="fill:#1f77b4;stroke:#1f77b4;" x="345.079803" xlink:href="#mbdb6b580d8" y="19.494279"/>
     <use style="fill:#1f77b4;stroke:#1f77b4;" x="346.609269" xlink:href="#mbdb6b580d8" y="21.904922"/>
     <use style="fill:#1f77b4;stroke:#1f77b4;" x="348.138734" xlink:href="#mbdb6b580d8" y="20.699601"/>
     <use style="fill:#1f77b4;stroke:#1f77b4;" x="349.6682" xlink:href="#mbdb6b580d8" y="17.083636"/>
     <use style="fill:#1f77b4;stroke:#1f77b4;" x="351.197665" xlink:href="#mbdb6b580d8" y="19.494279"/>
     <use style="fill:#1f77b4;stroke:#1f77b4;" x="352.727131" xlink:href="#mbdb6b580d8" y="17.083636"/>
    </g>
   </g>
   <g id="patch_3">
    <path d="M 33.145313 224.64 
L 33.145313 7.2 
" style="fill:none;stroke:#000000;stroke-linecap:square;stroke-linejoin:miter;stroke-width:0.8;"/>
   </g>
   <g id="patch_4">
    <path d="M 367.945312 224.64 
L 367.945312 7.2 
" style="fill:none;stroke:#000000;stroke-linecap:square;stroke-linejoin:miter;stroke-width:0.8;"/>
   </g>
   <g id="patch_5">
    <path d="M 33.145313 224.64 
L 367.945312 224.64 
" style="fill:none;stroke:#000000;stroke-linecap:square;stroke-linejoin:miter;stroke-width:0.8;"/>
   </g>
   <g id="patch_6">
    <path d="M 33.145313 7.2 
L 367.945312 7.2 
" style="fill:none;stroke:#000000;stroke-linecap:square;stroke-linejoin:miter;stroke-width:0.8;"/>
   </g>
  </g>
 </g>
 <defs>
  <clipPath id="pcc12a0c24f">
   <rect height="217.44" width="334.8" x="33.145313" y="7.2"/>
  </clipPath>
 </defs>
</svg>
