<?xml version="1.0" encoding="utf-8" standalone="no"?>
<!DOCTYPE svg PUBLIC "-//W3C//DTD SVG 1.1//EN"
  "http://www.w3.org/Graphics/SVG/1.1/DTD/svg11.dtd">
<!-- Created with matplotlib (https://matplotlib.org/) -->
<svg height="207.009688pt" version="1.1" viewBox="0 0 271.884375 207.009688" width="271.884375pt" xmlns="http://www.w3.org/2000/svg" xmlns:xlink="http://www.w3.org/1999/xlink">
 <defs>
  <style type="text/css">
*{stroke-linecap:butt;stroke-linejoin:round;}
  </style>
 </defs>
 <g id="figure_1">
  <g id="patch_1">
   <path d="M 0 207.009688 
L 271.884375 207.009688 
L 271.884375 0 
L 0 0 
z
" style="fill:none;"/>
  </g>
  <g id="axes_1">
   <g id="patch_2">
    <path d="M 41.484375 170.28 
L 264.684375 170.28 
L 264.684375 7.2 
L 41.484375 7.2 
z
" style="fill:#ffffff;"/>
   </g>
   <g id="matplotlib.axis_1">
    <g id="xtick_1">
     <g id="line2d_1">
      <path clip-path="url(#p5784c84aa4)" d="M 51.62983 170.28 
L 51.62983 7.2 
" style="fill:none;stroke:#b0b0b0;stroke-linecap:square;stroke-opacity:0.3;stroke-width:0.8;"/>
     </g>
     <g id="line2d_2">
      <defs>
       <path d="M 0 0 
L 0 3.5 
" id="m13c8f29a0f" style="stroke:#000000;stroke-width:0.8;"/>
      </defs>
      <g>
       <use style="stroke:#000000;stroke-width:0.8;" x="51.62983" xlink:href="#m13c8f29a0f" y="170.28"/>
      </g>
     </g>
     <g id="text_1">
      <!-- 0 -->
      <defs>
       <path d="M 4.15625 35.296875 
Q 4.15625 48 6.765625 55.734375 
Q 9.375 63.484375 14.515625 67.671875 
Q 19.671875 71.875 27.484375 71.875 
Q 33.25 71.875 37.59375 69.546875 
Q 41.9375 67.234375 44.765625 62.859375 
Q 47.609375 58.5 49.21875 52.21875 
Q 50.828125 45.953125 50.828125 35.296875 
Q 50.828125 22.703125 48.234375 14.96875 
Q 45.65625 7.234375 40.5 3 
Q 35.359375 -1.21875 27.484375 -1.21875 
Q 17.140625 -1.21875 11.234375 6.203125 
Q 4.15625 15.140625 4.15625 35.296875 
z
M 13.1875 35.296875 
Q 13.1875 17.671875 17.3125 11.828125 
Q 21.4375 6 27.484375 6 
Q 33.546875 6 37.671875 11.859375 
Q 41.796875 17.71875 41.796875 35.296875 
Q 41.796875 52.984375 37.671875 58.78125 
Q 33.546875 64.59375 27.390625 64.59375 
Q 21.34375 64.59375 17.71875 59.46875 
Q 13.1875 52.9375 13.1875 35.296875 
z
" id="ArialMT-48"/>
      </defs>
      <g transform="translate(48.849361 184.437813)scale(0.1 -0.1)">
       <use xlink:href="#ArialMT-48"/>
      </g>
     </g>
    </g>
    <g id="xtick_2">
     <g id="line2d_3">
      <path clip-path="url(#p5784c84aa4)" d="M 91.572564 170.28 
L 91.572564 7.2 
" style="fill:none;stroke:#b0b0b0;stroke-linecap:square;stroke-opacity:0.3;stroke-width:0.8;"/>
     </g>
     <g id="line2d_4">
      <g>
       <use style="stroke:#000000;stroke-width:0.8;" x="91.572564" xlink:href="#m13c8f29a0f" y="170.28"/>
      </g>
     </g>
     <g id="text_2">
      <!-- 50 -->
      <defs>
       <path d="M 4.15625 18.75 
L 13.375 19.53125 
Q 14.40625 12.796875 18.140625 9.390625 
Q 21.875 6 27.15625 6 
Q 33.5 6 37.890625 10.78125 
Q 42.28125 15.578125 42.28125 23.484375 
Q 42.28125 31 38.0625 35.34375 
Q 33.84375 39.703125 27 39.703125 
Q 22.75 39.703125 19.328125 37.765625 
Q 15.921875 35.84375 13.96875 32.765625 
L 5.71875 33.84375 
L 12.640625 70.609375 
L 48.25 70.609375 
L 48.25 62.203125 
L 19.671875 62.203125 
L 15.828125 42.96875 
Q 22.265625 47.46875 29.34375 47.46875 
Q 38.71875 47.46875 45.15625 40.96875 
Q 51.609375 34.46875 51.609375 24.265625 
Q 51.609375 14.546875 45.953125 7.46875 
Q 39.0625 -1.21875 27.15625 -1.21875 
Q 17.390625 -1.21875 11.203125 4.25 
Q 5.03125 9.71875 4.15625 18.75 
z
" id="ArialMT-53"/>
      </defs>
      <g transform="translate(86.011626 184.437813)scale(0.1 -0.1)">
       <use xlink:href="#ArialMT-53"/>
       <use x="55.615234" xlink:href="#ArialMT-48"/>
      </g>
     </g>
    </g>
    <g id="xtick_3">
     <g id="line2d_5">
      <path clip-path="url(#p5784c84aa4)" d="M 131.515298 170.28 
L 131.515298 7.2 
" style="fill:none;stroke:#b0b0b0;stroke-linecap:square;stroke-opacity:0.3;stroke-width:0.8;"/>
     </g>
     <g id="line2d_6">
      <g>
       <use style="stroke:#000000;stroke-width:0.8;" x="131.515298" xlink:href="#m13c8f29a0f" y="170.28"/>
      </g>
     </g>
     <g id="text_3">
      <!-- 100 -->
      <defs>
       <path d="M 37.25 0 
L 28.46875 0 
L 28.46875 56 
Q 25.296875 52.984375 20.140625 49.953125 
Q 14.984375 46.921875 10.890625 45.40625 
L 10.890625 53.90625 
Q 18.265625 57.375 23.78125 62.296875 
Q 29.296875 67.234375 31.59375 71.875 
L 37.25 71.875 
z
" id="ArialMT-49"/>
      </defs>
      <g transform="translate(123.173892 184.437813)scale(0.1 -0.1)">
       <use xlink:href="#ArialMT-49"/>
       <use x="55.615234" xlink:href="#ArialMT-48"/>
       <use x="111.230469" xlink:href="#ArialMT-48"/>
      </g>
     </g>
    </g>
    <g id="xtick_4">
     <g id="line2d_7">
      <path clip-path="url(#p5784c84aa4)" d="M 171.458033 170.28 
L 171.458033 7.2 
" style="fill:none;stroke:#b0b0b0;stroke-linecap:square;stroke-opacity:0.3;stroke-width:0.8;"/>
     </g>
     <g id="line2d_8">
      <g>
       <use style="stroke:#000000;stroke-width:0.8;" x="171.458033" xlink:href="#m13c8f29a0f" y="170.28"/>
      </g>
     </g>
     <g id="text_4">
      <!-- 150 -->
      <g transform="translate(163.116627 184.437813)scale(0.1 -0.1)">
       <use xlink:href="#ArialMT-49"/>
       <use x="55.615234" xlink:href="#ArialMT-53"/>
       <use x="111.230469" xlink:href="#ArialMT-48"/>
      </g>
     </g>
    </g>
    <g id="xtick_5">
     <g id="line2d_9">
      <path clip-path="url(#p5784c84aa4)" d="M 211.400767 170.28 
L 211.400767 7.2 
" style="fill:none;stroke:#b0b0b0;stroke-linecap:square;stroke-opacity:0.3;stroke-width:0.8;"/>
     </g>
     <g id="line2d_10">
      <g>
       <use style="stroke:#000000;stroke-width:0.8;" x="211.400767" xlink:href="#m13c8f29a0f" y="170.28"/>
      </g>
     </g>
     <g id="text_5">
      <!-- 200 -->
      <defs>
       <path d="M 50.34375 8.453125 
L 50.34375 0 
L 3.03125 0 
Q 2.9375 3.171875 4.046875 6.109375 
Q 5.859375 10.9375 9.828125 15.625 
Q 13.8125 20.3125 21.34375 26.46875 
Q 33.015625 36.03125 37.109375 41.625 
Q 41.21875 47.21875 41.21875 52.203125 
Q 41.21875 57.421875 37.46875 61 
Q 33.734375 64.59375 27.734375 64.59375 
Q 21.390625 64.59375 17.578125 60.78125 
Q 13.765625 56.984375 13.71875 50.25 
L 4.6875 51.171875 
Q 5.609375 61.28125 11.65625 66.578125 
Q 17.71875 71.875 27.9375 71.875 
Q 38.234375 71.875 44.234375 66.15625 
Q 50.25 60.453125 50.25 52 
Q 50.25 47.703125 48.484375 43.546875 
Q 46.734375 39.40625 42.65625 34.8125 
Q 38.578125 30.21875 29.109375 22.21875 
Q 21.1875 15.578125 18.9375 13.203125 
Q 16.703125 10.84375 15.234375 8.453125 
z
" id="ArialMT-50"/>
      </defs>
      <g transform="translate(203.059361 184.437813)scale(0.1 -0.1)">
       <use xlink:href="#ArialMT-50"/>
       <use x="55.615234" xlink:href="#ArialMT-48"/>
       <use x="111.230469" xlink:href="#ArialMT-48"/>
      </g>
     </g>
    </g>
    <g id="xtick_6">
     <g id="line2d_11">
      <path clip-path="url(#p5784c84aa4)" d="M 251.343502 170.28 
L 251.343502 7.2 
" style="fill:none;stroke:#b0b0b0;stroke-linecap:square;stroke-opacity:0.3;stroke-width:0.8;"/>
     </g>
     <g id="line2d_12">
      <g>
       <use style="stroke:#000000;stroke-width:0.8;" x="251.343502" xlink:href="#m13c8f29a0f" y="170.28"/>
      </g>
     </g>
     <g id="text_6">
      <!-- 250 -->
      <g transform="translate(243.002095 184.437813)scale(0.1 -0.1)">
       <use xlink:href="#ArialMT-50"/>
       <use x="55.615234" xlink:href="#ArialMT-53"/>
       <use x="111.230469" xlink:href="#ArialMT-48"/>
      </g>
     </g>
    </g>
    <g id="text_7">
     <!-- Tsh (cycles) -->
     <defs>
      <path d="M 25.921875 0 
L 25.921875 63.140625 
L 2.34375 63.140625 
L 2.34375 71.578125 
L 59.078125 71.578125 
L 59.078125 63.140625 
L 35.40625 63.140625 
L 35.40625 0 
z
" id="ArialMT-84"/>
      <path d="M 3.078125 15.484375 
L 11.765625 16.84375 
Q 12.5 11.625 15.84375 8.84375 
Q 19.1875 6.0625 25.203125 6.0625 
Q 31.25 6.0625 34.171875 8.515625 
Q 37.109375 10.984375 37.109375 14.3125 
Q 37.109375 17.28125 34.515625 19 
Q 32.71875 20.171875 25.53125 21.96875 
Q 15.875 24.421875 12.140625 26.203125 
Q 8.40625 27.984375 6.46875 31.125 
Q 4.546875 34.28125 4.546875 38.09375 
Q 4.546875 41.546875 6.125 44.5 
Q 7.71875 47.46875 10.453125 49.421875 
Q 12.5 50.921875 16.03125 51.96875 
Q 19.578125 53.03125 23.640625 53.03125 
Q 29.734375 53.03125 34.34375 51.265625 
Q 38.96875 49.515625 41.15625 46.5 
Q 43.359375 43.5 44.1875 38.484375 
L 35.59375 37.3125 
Q 35.015625 41.3125 32.203125 43.546875 
Q 29.390625 45.796875 24.265625 45.796875 
Q 18.21875 45.796875 15.625 43.796875 
Q 13.03125 41.796875 13.03125 39.109375 
Q 13.03125 37.40625 14.109375 36.03125 
Q 15.1875 34.625 17.484375 33.6875 
Q 18.796875 33.203125 25.25 31.453125 
Q 34.578125 28.953125 38.25 27.359375 
Q 41.9375 25.78125 44.03125 22.75 
Q 46.140625 19.734375 46.140625 15.234375 
Q 46.140625 10.84375 43.578125 6.953125 
Q 41.015625 3.078125 36.171875 0.953125 
Q 31.34375 -1.171875 25.25 -1.171875 
Q 15.140625 -1.171875 9.84375 3.03125 
Q 4.546875 7.234375 3.078125 15.484375 
z
" id="ArialMT-115"/>
      <path d="M 6.59375 0 
L 6.59375 71.578125 
L 15.375 71.578125 
L 15.375 45.90625 
Q 21.53125 53.03125 30.90625 53.03125 
Q 36.671875 53.03125 40.921875 50.75 
Q 45.171875 48.484375 47 44.484375 
Q 48.828125 40.484375 48.828125 32.859375 
L 48.828125 0 
L 40.046875 0 
L 40.046875 32.859375 
Q 40.046875 39.453125 37.1875 42.453125 
Q 34.328125 45.453125 29.109375 45.453125 
Q 25.203125 45.453125 21.75 43.421875 
Q 18.3125 41.40625 16.84375 37.9375 
Q 15.375 34.46875 15.375 28.375 
L 15.375 0 
z
" id="ArialMT-104"/>
      <path id="ArialMT-32"/>
      <path d="M 23.390625 -21.046875 
Q 16.109375 -11.859375 11.078125 0.4375 
Q 6.0625 12.75 6.0625 25.921875 
Q 6.0625 37.546875 9.8125 48.1875 
Q 14.203125 60.546875 23.390625 72.796875 
L 29.6875 72.796875 
Q 23.78125 62.640625 21.875 58.296875 
Q 18.890625 51.5625 17.1875 44.234375 
Q 15.09375 35.109375 15.09375 25.875 
Q 15.09375 2.390625 29.6875 -21.046875 
z
" id="ArialMT-40"/>
      <path d="M 40.4375 19 
L 49.078125 17.875 
Q 47.65625 8.9375 41.8125 3.875 
Q 35.984375 -1.171875 27.484375 -1.171875 
Q 16.84375 -1.171875 10.375 5.78125 
Q 3.90625 12.75 3.90625 25.734375 
Q 3.90625 34.125 6.6875 40.421875 
Q 9.46875 46.734375 15.15625 49.875 
Q 20.84375 53.03125 27.546875 53.03125 
Q 35.984375 53.03125 41.359375 48.75 
Q 46.734375 44.484375 48.25 36.625 
L 39.703125 35.296875 
Q 38.484375 40.53125 35.375 43.15625 
Q 32.28125 45.796875 27.875 45.796875 
Q 21.234375 45.796875 17.078125 41.03125 
Q 12.9375 36.28125 12.9375 25.984375 
Q 12.9375 15.53125 16.9375 10.796875 
Q 20.953125 6.0625 27.390625 6.0625 
Q 32.5625 6.0625 36.03125 9.234375 
Q 39.5 12.40625 40.4375 19 
z
" id="ArialMT-99"/>
      <path d="M 6.203125 -19.96875 
L 5.21875 -11.71875 
Q 8.109375 -12.5 10.25 -12.5 
Q 13.1875 -12.5 14.9375 -11.515625 
Q 16.703125 -10.546875 17.828125 -8.796875 
Q 18.65625 -7.46875 20.515625 -2.25 
Q 20.75 -1.515625 21.296875 -0.09375 
L 1.609375 51.859375 
L 11.078125 51.859375 
L 21.875 21.828125 
Q 23.96875 16.109375 25.640625 9.8125 
Q 27.15625 15.875 29.25 21.625 
L 40.328125 51.859375 
L 49.125 51.859375 
L 29.390625 -0.875 
Q 26.21875 -9.421875 24.46875 -12.640625 
Q 22.125 -17 19.09375 -19.015625 
Q 16.0625 -21.046875 11.859375 -21.046875 
Q 9.328125 -21.046875 6.203125 -19.96875 
z
" id="ArialMT-121"/>
      <path d="M 6.390625 0 
L 6.390625 71.578125 
L 15.1875 71.578125 
L 15.1875 0 
z
" id="ArialMT-108"/>
      <path d="M 42.09375 16.703125 
L 51.171875 15.578125 
Q 49.03125 7.625 43.21875 3.21875 
Q 37.40625 -1.171875 28.375 -1.171875 
Q 17 -1.171875 10.328125 5.828125 
Q 3.65625 12.84375 3.65625 25.484375 
Q 3.65625 38.578125 10.390625 45.796875 
Q 17.140625 53.03125 27.875 53.03125 
Q 38.28125 53.03125 44.875 45.953125 
Q 51.46875 38.875 51.46875 26.03125 
Q 51.46875 25.25 51.421875 23.6875 
L 12.75 23.6875 
Q 13.234375 15.140625 17.578125 10.59375 
Q 21.921875 6.0625 28.421875 6.0625 
Q 33.25 6.0625 36.671875 8.59375 
Q 40.09375 11.140625 42.09375 16.703125 
z
M 13.234375 30.90625 
L 42.1875 30.90625 
Q 41.609375 37.453125 38.875 40.71875 
Q 34.671875 45.796875 27.984375 45.796875 
Q 21.921875 45.796875 17.796875 41.75 
Q 13.671875 37.703125 13.234375 30.90625 
z
" id="ArialMT-101"/>
      <path d="M 12.359375 -21.046875 
L 6.0625 -21.046875 
Q 20.65625 2.390625 20.65625 25.875 
Q 20.65625 35.0625 18.5625 44.09375 
Q 16.890625 51.421875 13.921875 58.15625 
Q 12.015625 62.546875 6.0625 72.796875 
L 12.359375 72.796875 
Q 21.53125 60.546875 25.921875 48.1875 
Q 29.6875 37.546875 29.6875 25.921875 
Q 29.6875 12.75 24.625 0.4375 
Q 19.578125 -11.859375 12.359375 -21.046875 
z
" id="ArialMT-41"/>
     </defs>
     <g transform="translate(126.148438 197.705)scale(0.1 -0.1)">
      <use xlink:href="#ArialMT-84"/>
      <use x="60.912109" xlink:href="#ArialMT-115"/>
      <use x="110.912109" xlink:href="#ArialMT-104"/>
      <use x="166.527344" xlink:href="#ArialMT-32"/>
      <use x="194.310547" xlink:href="#ArialMT-40"/>
      <use x="227.611328" xlink:href="#ArialMT-99"/>
      <use x="277.611328" xlink:href="#ArialMT-121"/>
      <use x="327.611328" xlink:href="#ArialMT-99"/>
      <use x="377.611328" xlink:href="#ArialMT-108"/>
      <use x="399.828125" xlink:href="#ArialMT-101"/>
      <use x="455.443359" xlink:href="#ArialMT-115"/>
      <use x="505.443359" xlink:href="#ArialMT-41"/>
     </g>
    </g>
   </g>
   <g id="matplotlib.axis_2">
    <g id="ytick_1">
     <g id="line2d_13">
      <path clip-path="url(#p5784c84aa4)" d="M 41.484375 162.867273 
L 264.684375 162.867273 
" style="fill:none;stroke:#b0b0b0;stroke-linecap:square;stroke-opacity:0.3;stroke-width:0.8;"/>
     </g>
     <g id="line2d_14">
      <defs>
       <path d="M 0 0 
L -3.5 0 
" id="mfb19d6a669" style="stroke:#000000;stroke-width:0.8;"/>
      </defs>
      <g>
       <use style="stroke:#000000;stroke-width:0.8;" x="41.484375" xlink:href="#mfb19d6a669" y="162.867273"/>
      </g>
     </g>
     <g id="text_8">
      <!-- 0.0 -->
      <defs>
       <path d="M 9.078125 0 
L 9.078125 10.015625 
L 19.09375 10.015625 
L 19.09375 0 
z
" id="ArialMT-46"/>
      </defs>
      <g transform="translate(20.584375 166.446179)scale(0.1 -0.1)">
       <use xlink:href="#ArialMT-48"/>
       <use x="55.615234" xlink:href="#ArialMT-46"/>
       <use x="83.398438" xlink:href="#ArialMT-48"/>
      </g>
     </g>
    </g>
    <g id="ytick_2">
     <g id="line2d_15">
      <path clip-path="url(#p5784c84aa4)" d="M 41.484375 134.358927 
L 264.684375 134.358927 
" style="fill:none;stroke:#b0b0b0;stroke-linecap:square;stroke-opacity:0.3;stroke-width:0.8;"/>
     </g>
     <g id="line2d_16">
      <g>
       <use style="stroke:#000000;stroke-width:0.8;" x="41.484375" xlink:href="#mfb19d6a669" y="134.358927"/>
      </g>
     </g>
     <g id="text_9">
      <!-- 0.2 -->
      <g transform="translate(20.584375 137.937833)scale(0.1 -0.1)">
       <use xlink:href="#ArialMT-48"/>
       <use x="55.615234" xlink:href="#ArialMT-46"/>
       <use x="83.398438" xlink:href="#ArialMT-50"/>
      </g>
     </g>
    </g>
    <g id="ytick_3">
     <g id="line2d_17">
      <path clip-path="url(#p5784c84aa4)" d="M 41.484375 105.850581 
L 264.684375 105.850581 
" style="fill:none;stroke:#b0b0b0;stroke-linecap:square;stroke-opacity:0.3;stroke-width:0.8;"/>
     </g>
     <g id="line2d_18">
      <g>
       <use style="stroke:#000000;stroke-width:0.8;" x="41.484375" xlink:href="#mfb19d6a669" y="105.850581"/>
      </g>
     </g>
     <g id="text_10">
      <!-- 0.4 -->
      <defs>
       <path d="M 32.328125 0 
L 32.328125 17.140625 
L 1.265625 17.140625 
L 1.265625 25.203125 
L 33.9375 71.578125 
L 41.109375 71.578125 
L 41.109375 25.203125 
L 50.78125 25.203125 
L 50.78125 17.140625 
L 41.109375 17.140625 
L 41.109375 0 
z
M 32.328125 25.203125 
L 32.328125 57.46875 
L 9.90625 25.203125 
z
" id="ArialMT-52"/>
      </defs>
      <g transform="translate(20.584375 109.429487)scale(0.1 -0.1)">
       <use xlink:href="#ArialMT-48"/>
       <use x="55.615234" xlink:href="#ArialMT-46"/>
       <use x="83.398438" xlink:href="#ArialMT-52"/>
      </g>
     </g>
    </g>
    <g id="ytick_4">
     <g id="line2d_19">
      <path clip-path="url(#p5784c84aa4)" d="M 41.484375 77.342235 
L 264.684375 77.342235 
" style="fill:none;stroke:#b0b0b0;stroke-linecap:square;stroke-opacity:0.3;stroke-width:0.8;"/>
     </g>
     <g id="line2d_20">
      <g>
       <use style="stroke:#000000;stroke-width:0.8;" x="41.484375" xlink:href="#mfb19d6a669" y="77.342235"/>
      </g>
     </g>
     <g id="text_11">
      <!-- 0.6 -->
      <defs>
       <path d="M 49.75 54.046875 
L 41.015625 53.375 
Q 39.84375 58.546875 37.703125 60.890625 
Q 34.125 64.65625 28.90625 64.65625 
Q 24.703125 64.65625 21.53125 62.3125 
Q 17.390625 59.28125 14.984375 53.46875 
Q 12.59375 47.65625 12.5 36.921875 
Q 15.671875 41.75 20.265625 44.09375 
Q 24.859375 46.4375 29.890625 46.4375 
Q 38.671875 46.4375 44.84375 39.96875 
Q 51.03125 33.5 51.03125 23.25 
Q 51.03125 16.5 48.125 10.71875 
Q 45.21875 4.9375 40.140625 1.859375 
Q 35.0625 -1.21875 28.609375 -1.21875 
Q 17.625 -1.21875 10.6875 6.859375 
Q 3.765625 14.9375 3.765625 33.5 
Q 3.765625 54.25 11.421875 63.671875 
Q 18.109375 71.875 29.4375 71.875 
Q 37.890625 71.875 43.28125 67.140625 
Q 48.6875 62.40625 49.75 54.046875 
z
M 13.875 23.1875 
Q 13.875 18.65625 15.796875 14.5 
Q 17.71875 10.359375 21.1875 8.171875 
Q 24.65625 6 28.46875 6 
Q 34.03125 6 38.03125 10.484375 
Q 42.046875 14.984375 42.046875 22.703125 
Q 42.046875 30.125 38.078125 34.390625 
Q 34.125 38.671875 28.125 38.671875 
Q 22.171875 38.671875 18.015625 34.390625 
Q 13.875 30.125 13.875 23.1875 
z
" id="ArialMT-54"/>
      </defs>
      <g transform="translate(20.584375 80.921141)scale(0.1 -0.1)">
       <use xlink:href="#ArialMT-48"/>
       <use x="55.615234" xlink:href="#ArialMT-46"/>
       <use x="83.398438" xlink:href="#ArialMT-54"/>
      </g>
     </g>
    </g>
    <g id="ytick_5">
     <g id="line2d_21">
      <path clip-path="url(#p5784c84aa4)" d="M 41.484375 48.833889 
L 264.684375 48.833889 
" style="fill:none;stroke:#b0b0b0;stroke-linecap:square;stroke-opacity:0.3;stroke-width:0.8;"/>
     </g>
     <g id="line2d_22">
      <g>
       <use style="stroke:#000000;stroke-width:0.8;" x="41.484375" xlink:href="#mfb19d6a669" y="48.833889"/>
      </g>
     </g>
     <g id="text_12">
      <!-- 0.8 -->
      <defs>
       <path d="M 17.671875 38.8125 
Q 12.203125 40.828125 9.5625 44.53125 
Q 6.9375 48.25 6.9375 53.421875 
Q 6.9375 61.234375 12.546875 66.546875 
Q 18.171875 71.875 27.484375 71.875 
Q 36.859375 71.875 42.578125 66.421875 
Q 48.296875 60.984375 48.296875 53.171875 
Q 48.296875 48.1875 45.671875 44.5 
Q 43.0625 40.828125 37.75 38.8125 
Q 44.34375 36.671875 47.78125 31.875 
Q 51.21875 27.09375 51.21875 20.453125 
Q 51.21875 11.28125 44.71875 5.03125 
Q 38.234375 -1.21875 27.640625 -1.21875 
Q 17.046875 -1.21875 10.546875 5.046875 
Q 4.046875 11.328125 4.046875 20.703125 
Q 4.046875 27.6875 7.59375 32.390625 
Q 11.140625 37.109375 17.671875 38.8125 
z
M 15.921875 53.71875 
Q 15.921875 48.640625 19.1875 45.40625 
Q 22.46875 42.1875 27.6875 42.1875 
Q 32.765625 42.1875 36.015625 45.375 
Q 39.265625 48.578125 39.265625 53.21875 
Q 39.265625 58.0625 35.90625 61.359375 
Q 32.5625 64.65625 27.59375 64.65625 
Q 22.5625 64.65625 19.234375 61.421875 
Q 15.921875 58.203125 15.921875 53.71875 
z
M 13.09375 20.65625 
Q 13.09375 16.890625 14.875 13.375 
Q 16.65625 9.859375 20.171875 7.921875 
Q 23.6875 6 27.734375 6 
Q 34.03125 6 38.125 10.046875 
Q 42.234375 14.109375 42.234375 20.359375 
Q 42.234375 26.703125 38.015625 30.859375 
Q 33.796875 35.015625 27.4375 35.015625 
Q 21.234375 35.015625 17.15625 30.90625 
Q 13.09375 26.8125 13.09375 20.65625 
z
" id="ArialMT-56"/>
      </defs>
      <g transform="translate(20.584375 52.412796)scale(0.1 -0.1)">
       <use xlink:href="#ArialMT-48"/>
       <use x="55.615234" xlink:href="#ArialMT-46"/>
       <use x="83.398438" xlink:href="#ArialMT-56"/>
      </g>
     </g>
    </g>
    <g id="ytick_6">
     <g id="line2d_23">
      <path clip-path="url(#p5784c84aa4)" d="M 41.484375 20.325543 
L 264.684375 20.325543 
" style="fill:none;stroke:#b0b0b0;stroke-linecap:square;stroke-opacity:0.3;stroke-width:0.8;"/>
     </g>
     <g id="line2d_24">
      <g>
       <use style="stroke:#000000;stroke-width:0.8;" x="41.484375" xlink:href="#mfb19d6a669" y="20.325543"/>
      </g>
     </g>
     <g id="text_13">
      <!-- 1.0 -->
      <g transform="translate(20.584375 23.90445)scale(0.1 -0.1)">
       <use xlink:href="#ArialMT-49"/>
       <use x="55.615234" xlink:href="#ArialMT-46"/>
       <use x="83.398438" xlink:href="#ArialMT-48"/>
      </g>
     </g>
    </g>
    <g id="text_14">
     <!-- Current (uA) -->
     <defs>
      <path d="M 58.796875 25.09375 
L 68.265625 22.703125 
Q 65.28125 11.03125 57.546875 4.90625 
Q 49.8125 -1.21875 38.625 -1.21875 
Q 27.046875 -1.21875 19.796875 3.484375 
Q 12.546875 8.203125 8.765625 17.140625 
Q 4.984375 26.078125 4.984375 36.328125 
Q 4.984375 47.515625 9.25 55.828125 
Q 13.53125 64.15625 21.40625 68.46875 
Q 29.296875 72.796875 38.765625 72.796875 
Q 49.515625 72.796875 56.828125 67.328125 
Q 64.15625 61.859375 67.046875 51.953125 
L 57.71875 49.75 
Q 55.21875 57.5625 50.484375 61.125 
Q 45.75 64.703125 38.578125 64.703125 
Q 30.328125 64.703125 24.78125 60.734375 
Q 19.234375 56.78125 16.984375 50.109375 
Q 14.75 43.453125 14.75 36.375 
Q 14.75 27.25 17.40625 20.4375 
Q 20.0625 13.625 25.671875 10.25 
Q 31.296875 6.890625 37.84375 6.890625 
Q 45.796875 6.890625 51.3125 11.46875 
Q 56.84375 16.0625 58.796875 25.09375 
z
" id="ArialMT-67"/>
      <path d="M 40.578125 0 
L 40.578125 7.625 
Q 34.515625 -1.171875 24.125 -1.171875 
Q 19.53125 -1.171875 15.546875 0.578125 
Q 11.578125 2.34375 9.640625 5 
Q 7.71875 7.671875 6.9375 11.53125 
Q 6.390625 14.109375 6.390625 19.734375 
L 6.390625 51.859375 
L 15.1875 51.859375 
L 15.1875 23.09375 
Q 15.1875 16.21875 15.71875 13.8125 
Q 16.546875 10.359375 19.234375 8.375 
Q 21.921875 6.390625 25.875 6.390625 
Q 29.828125 6.390625 33.296875 8.421875 
Q 36.765625 10.453125 38.203125 13.9375 
Q 39.65625 17.4375 39.65625 24.078125 
L 39.65625 51.859375 
L 48.4375 51.859375 
L 48.4375 0 
z
" id="ArialMT-117"/>
      <path d="M 6.5 0 
L 6.5 51.859375 
L 14.40625 51.859375 
L 14.40625 44 
Q 17.4375 49.515625 20 51.265625 
Q 22.5625 53.03125 25.640625 53.03125 
Q 30.078125 53.03125 34.671875 50.203125 
L 31.640625 42.046875 
Q 28.421875 43.953125 25.203125 43.953125 
Q 22.3125 43.953125 20.015625 42.21875 
Q 17.71875 40.484375 16.75 37.40625 
Q 15.28125 32.71875 15.28125 27.15625 
L 15.28125 0 
z
" id="ArialMT-114"/>
      <path d="M 6.59375 0 
L 6.59375 51.859375 
L 14.5 51.859375 
L 14.5 44.484375 
Q 20.21875 53.03125 31 53.03125 
Q 35.6875 53.03125 39.625 51.34375 
Q 43.5625 49.65625 45.515625 46.921875 
Q 47.46875 44.1875 48.25 40.4375 
Q 48.734375 37.984375 48.734375 31.890625 
L 48.734375 0 
L 39.9375 0 
L 39.9375 31.546875 
Q 39.9375 36.921875 38.90625 39.578125 
Q 37.890625 42.234375 35.28125 43.8125 
Q 32.671875 45.40625 29.15625 45.40625 
Q 23.53125 45.40625 19.453125 41.84375 
Q 15.375 38.28125 15.375 28.328125 
L 15.375 0 
z
" id="ArialMT-110"/>
      <path d="M 25.78125 7.859375 
L 27.046875 0.09375 
Q 23.34375 -0.6875 20.40625 -0.6875 
Q 15.625 -0.6875 12.984375 0.828125 
Q 10.359375 2.34375 9.28125 4.8125 
Q 8.203125 7.28125 8.203125 15.1875 
L 8.203125 45.015625 
L 1.765625 45.015625 
L 1.765625 51.859375 
L 8.203125 51.859375 
L 8.203125 64.703125 
L 16.9375 69.96875 
L 16.9375 51.859375 
L 25.78125 51.859375 
L 25.78125 45.015625 
L 16.9375 45.015625 
L 16.9375 14.703125 
Q 16.9375 10.9375 17.40625 9.859375 
Q 17.875 8.796875 18.921875 8.15625 
Q 19.96875 7.515625 21.921875 7.515625 
Q 23.390625 7.515625 25.78125 7.859375 
z
" id="ArialMT-116"/>
      <path d="M -0.140625 0 
L 27.34375 71.578125 
L 37.546875 71.578125 
L 66.84375 0 
L 56.0625 0 
L 47.703125 21.6875 
L 17.78125 21.6875 
L 9.90625 0 
z
M 20.515625 29.390625 
L 44.78125 29.390625 
L 37.3125 49.21875 
Q 33.890625 58.25 32.234375 64.0625 
Q 30.859375 57.171875 28.375 50.390625 
z
" id="ArialMT-65"/>
     </defs>
     <g transform="translate(14.479687 116.245469)rotate(-90)scale(0.1 -0.1)">
      <use xlink:href="#ArialMT-67"/>
      <use x="72.216797" xlink:href="#ArialMT-117"/>
      <use x="127.832031" xlink:href="#ArialMT-114"/>
      <use x="161.132812" xlink:href="#ArialMT-114"/>
      <use x="194.433594" xlink:href="#ArialMT-101"/>
      <use x="250.048828" xlink:href="#ArialMT-110"/>
      <use x="305.664062" xlink:href="#ArialMT-116"/>
      <use x="333.447266" xlink:href="#ArialMT-32"/>
      <use x="361.230469" xlink:href="#ArialMT-40"/>
      <use x="394.53125" xlink:href="#ArialMT-117"/>
      <use x="450.146484" xlink:href="#ArialMT-65"/>
      <use x="516.845703" xlink:href="#ArialMT-41"/>
     </g>
    </g>
   </g>
   <g id="line2d_25">
    <path clip-path="url(#p5784c84aa4)" d="M 51.62983 162.867273 
L 68.405778 162.867273 
L 70.003487 147.261531 
L 71.601197 139.45866 
L 72.400051 129.705072 
L 73.198906 123.852919 
L 73.997761 116.050048 
L 74.796616 115.562368 
L 75.59547 108.247177 
L 76.394325 112.148612 
L 77.19318 96.542871 
L 77.992034 92.641435 
L 78.790889 84.838565 
L 79.589744 84.838565 
L 80.388598 82.887847 
L 81.187453 77.035694 
L 82.785162 77.035694 
L 83.584017 69.232823 
L 85.181726 65.331388 
L 85.980581 65.331388 
L 86.779436 162.867273 
L 87.578291 61.429952 
L 88.377145 53.627081 
L 89.176 53.627081 
L 90.773709 49.725646 
L 91.572564 53.627081 
L 92.371419 49.725646 
L 93.170273 49.725646 
L 94.767983 45.824211 
L 95.566837 45.824211 
L 96.365692 38.02134 
L 97.164547 44.848852 
L 97.963401 38.02134 
L 98.762256 43.873493 
L 99.561111 36.070622 
L 100.359966 34.119904 
L 101.15882 38.02134 
L 102.75653 36.070622 
L 103.555384 34.119904 
L 104.354239 30.218469 
L 105.153094 37.53366 
L 105.951948 33.144545 
L 106.750803 34.119904 
L 107.549658 30.218469 
L 108.348512 30.218469 
L 109.147367 32.169187 
L 109.946222 30.218469 
L 111.543931 22.415598 
L 112.342786 22.415598 
L 113.141641 28.267751 
L 113.940495 30.218469 
L 114.73935 22.415598 
L 116.337059 22.415598 
L 117.135914 28.267751 
L 117.934769 30.218469 
L 119.532478 28.267751 
L 120.331333 22.415598 
L 121.130187 22.415598 
L 121.929042 28.267751 
L 122.727897 29.730789 
L 123.526752 22.415598 
L 124.325606 28.267751 
L 125.124461 22.415598 
L 125.923316 28.267751 
L 126.72217 28.267751 
L 127.521025 22.415598 
L 128.31988 30.218469 
L 129.118734 28.267751 
L 129.917589 22.415598 
L 130.716444 21.440239 
L 131.515298 28.267751 
L 132.314153 20.46488 
L 133.113008 26.317033 
L 133.911862 20.46488 
L 134.710717 22.415598 
L 135.509572 29.730789 
L 136.308427 28.267751 
L 137.107281 22.415598 
L 137.906136 22.415598 
L 138.704991 29.24311 
L 139.503845 26.317033 
L 140.3027 28.267751 
L 141.101555 22.415598 
L 142.699264 22.415598 
L 143.498119 18.514163 
L 144.296973 22.415598 
L 145.095828 20.46488 
L 145.894683 22.415598 
L 146.693537 22.415598 
L 147.492392 21.440239 
L 148.291247 22.415598 
L 149.090102 22.415598 
L 149.888956 20.46488 
L 150.687811 22.415598 
L 152.28552 22.415598 
L 153.084375 20.46488 
L 153.88323 20.46488 
L 154.682084 14.612727 
L 155.480939 26.317033 
L 156.279794 22.415598 
L 157.078648 22.415598 
L 158.676358 20.46488 
L 160.274067 22.415598 
L 161.072922 21.440239 
L 161.871777 16.563445 
L 162.670631 20.46488 
L 163.469486 22.415598 
L 165.067195 22.415598 
L 166.664905 21.440239 
L 167.463759 22.415598 
L 168.262614 26.317033 
L 169.061469 22.415598 
L 169.860323 28.267751 
L 170.659178 28.267751 
L 171.458033 21.927919 
L 172.256888 21.440239 
L 173.055742 22.415598 
L 177.050016 22.415598 
L 177.84887 21.440239 
L 178.647725 22.415598 
L 180.245434 22.415598 
L 181.044289 21.927919 
L 181.843144 22.415598 
L 182.641998 22.415598 
L 183.440853 20.46488 
L 185.038563 20.46488 
L 185.837417 21.440239 
L 186.636272 18.026483 
L 187.435127 21.440239 
L 189.032836 19.489522 
L 189.831691 22.415598 
L 190.630545 21.927919 
L 191.4294 20.46488 
L 192.228255 18.514163 
L 193.027109 22.415598 
L 193.825964 20.46488 
L 194.624819 22.415598 
L 195.423673 22.415598 
L 196.222528 28.267751 
L 197.021383 22.415598 
L 198.619092 22.415598 
L 199.417947 20.46488 
L 200.216802 20.46488 
L 201.015656 18.514163 
L 201.814511 22.415598 
L 202.613366 17.538804 
L 203.41222 20.46488 
L 204.211075 21.927919 
L 205.00993 20.46488 
L 205.808784 22.415598 
L 206.607639 18.514163 
L 207.406494 22.415598 
L 209.803058 22.415598 
L 211.400767 18.514163 
L 212.199622 21.440239 
L 212.998477 20.46488 
L 213.797331 22.415598 
L 214.596186 21.927919 
L 215.395041 22.415598 
L 216.193895 21.440239 
L 216.99275 22.415598 
L 218.590459 22.415598 
L 219.389314 21.440239 
L 220.188169 22.415598 
L 220.987024 20.46488 
L 221.785878 22.415598 
L 222.584733 21.440239 
L 223.383588 22.415598 
L 224.182442 21.440239 
L 224.981297 22.415598 
L 227.377861 22.415598 
L 228.176716 20.46488 
L 229.774425 22.415598 
L 230.57328 21.440239 
L 231.372134 18.514163 
L 232.170989 21.440239 
L 232.969844 21.440239 
L 233.768699 22.415598 
L 234.567553 16.563445 
L 235.366408 18.514163 
L 236.165263 18.514163 
L 236.964117 16.563445 
L 237.762972 18.514163 
L 238.561827 22.415598 
L 239.360681 20.46488 
L 240.159536 20.46488 
L 240.958391 22.415598 
L 241.757245 20.46488 
L 243.354955 20.46488 
L 244.15381 18.514163 
L 244.952664 36.070622 
L 245.751519 17.538804 
L 246.550374 16.563445 
L 247.349228 16.563445 
L 248.148083 20.46488 
L 248.946938 22.415598 
L 249.745792 18.514163 
L 250.544647 22.415598 
L 252.142356 21.440239 
L 252.941211 18.514163 
L 254.53892 18.514163 
L 254.53892 18.514163 
" style="fill:none;stroke:#1f77b4;stroke-linecap:square;stroke-width:1.5;"/>
    <defs>
     <path d="M 0 1.5 
C 0.397805 1.5 0.77937 1.341951 1.06066 1.06066 
C 1.341951 0.77937 1.5 0.397805 1.5 0 
C 1.5 -0.397805 1.341951 -0.77937 1.06066 -1.06066 
C 0.77937 -1.341951 0.397805 -1.5 0 -1.5 
C -0.397805 -1.5 -0.77937 -1.341951 -1.06066 -1.06066 
C -1.341951 -0.77937 -1.5 -0.397805 -1.5 0 
C -1.5 0.397805 -1.341951 0.77937 -1.06066 1.06066 
C -0.77937 1.341951 -0.397805 1.5 0 1.5 
z
" id="mb9f1352e0e" style="stroke:#1f77b4;"/>
    </defs>
    <g clip-path="url(#p5784c84aa4)">
     <use style="fill:#1f77b4;stroke:#1f77b4;" x="51.62983" xlink:href="#mb9f1352e0e" y="162.867273"/>
     <use style="fill:#1f77b4;stroke:#1f77b4;" x="52.428684" xlink:href="#mb9f1352e0e" y="162.867273"/>
     <use style="fill:#1f77b4;stroke:#1f77b4;" x="53.227539" xlink:href="#mb9f1352e0e" y="162.867273"/>
     <use style="fill:#1f77b4;stroke:#1f77b4;" x="54.026394" xlink:href="#mb9f1352e0e" y="162.867273"/>
     <use style="fill:#1f77b4;stroke:#1f77b4;" x="54.825248" xlink:href="#mb9f1352e0e" y="162.867273"/>
     <use style="fill:#1f77b4;stroke:#1f77b4;" x="55.624103" xlink:href="#mb9f1352e0e" y="162.867273"/>
     <use style="fill:#1f77b4;stroke:#1f77b4;" x="56.422958" xlink:href="#mb9f1352e0e" y="162.867273"/>
     <use style="fill:#1f77b4;stroke:#1f77b4;" x="57.221812" xlink:href="#mb9f1352e0e" y="162.867273"/>
     <use style="fill:#1f77b4;stroke:#1f77b4;" x="58.020667" xlink:href="#mb9f1352e0e" y="162.867273"/>
     <use style="fill:#1f77b4;stroke:#1f77b4;" x="58.819522" xlink:href="#mb9f1352e0e" y="162.867273"/>
     <use style="fill:#1f77b4;stroke:#1f77b4;" x="59.618376" xlink:href="#mb9f1352e0e" y="162.867273"/>
     <use style="fill:#1f77b4;stroke:#1f77b4;" x="60.417231" xlink:href="#mb9f1352e0e" y="162.867273"/>
     <use style="fill:#1f77b4;stroke:#1f77b4;" x="61.216086" xlink:href="#mb9f1352e0e" y="162.867273"/>
     <use style="fill:#1f77b4;stroke:#1f77b4;" x="62.01494" xlink:href="#mb9f1352e0e" y="162.867273"/>
     <use style="fill:#1f77b4;stroke:#1f77b4;" x="62.813795" xlink:href="#mb9f1352e0e" y="162.867273"/>
     <use style="fill:#1f77b4;stroke:#1f77b4;" x="63.61265" xlink:href="#mb9f1352e0e" y="162.867273"/>
     <use style="fill:#1f77b4;stroke:#1f77b4;" x="64.411505" xlink:href="#mb9f1352e0e" y="162.867273"/>
     <use style="fill:#1f77b4;stroke:#1f77b4;" x="65.210359" xlink:href="#mb9f1352e0e" y="162.867273"/>
     <use style="fill:#1f77b4;stroke:#1f77b4;" x="66.009214" xlink:href="#mb9f1352e0e" y="162.867273"/>
     <use style="fill:#1f77b4;stroke:#1f77b4;" x="66.808069" xlink:href="#mb9f1352e0e" y="162.867273"/>
     <use style="fill:#1f77b4;stroke:#1f77b4;" x="67.606923" xlink:href="#mb9f1352e0e" y="162.867273"/>
     <use style="fill:#1f77b4;stroke:#1f77b4;" x="68.405778" xlink:href="#mb9f1352e0e" y="162.867273"/>
     <use style="fill:#1f77b4;stroke:#1f77b4;" x="69.204633" xlink:href="#mb9f1352e0e" y="155.064402"/>
     <use style="fill:#1f77b4;stroke:#1f77b4;" x="70.003487" xlink:href="#mb9f1352e0e" y="147.261531"/>
     <use style="fill:#1f77b4;stroke:#1f77b4;" x="70.802342" xlink:href="#mb9f1352e0e" y="143.360096"/>
     <use style="fill:#1f77b4;stroke:#1f77b4;" x="71.601197" xlink:href="#mb9f1352e0e" y="139.45866"/>
     <use style="fill:#1f77b4;stroke:#1f77b4;" x="72.400051" xlink:href="#mb9f1352e0e" y="129.705072"/>
     <use style="fill:#1f77b4;stroke:#1f77b4;" x="73.198906" xlink:href="#mb9f1352e0e" y="123.852919"/>
     <use style="fill:#1f77b4;stroke:#1f77b4;" x="73.997761" xlink:href="#mb9f1352e0e" y="116.050048"/>
     <use style="fill:#1f77b4;stroke:#1f77b4;" x="74.796616" xlink:href="#mb9f1352e0e" y="115.562368"/>
     <use style="fill:#1f77b4;stroke:#1f77b4;" x="75.59547" xlink:href="#mb9f1352e0e" y="108.247177"/>
     <use style="fill:#1f77b4;stroke:#1f77b4;" x="76.394325" xlink:href="#mb9f1352e0e" y="112.148612"/>
     <use style="fill:#1f77b4;stroke:#1f77b4;" x="77.19318" xlink:href="#mb9f1352e0e" y="96.542871"/>
     <use style="fill:#1f77b4;stroke:#1f77b4;" x="77.992034" xlink:href="#mb9f1352e0e" y="92.641435"/>
     <use style="fill:#1f77b4;stroke:#1f77b4;" x="78.790889" xlink:href="#mb9f1352e0e" y="84.838565"/>
     <use style="fill:#1f77b4;stroke:#1f77b4;" x="79.589744" xlink:href="#mb9f1352e0e" y="84.838565"/>
     <use style="fill:#1f77b4;stroke:#1f77b4;" x="80.388598" xlink:href="#mb9f1352e0e" y="82.887847"/>
     <use style="fill:#1f77b4;stroke:#1f77b4;" x="81.187453" xlink:href="#mb9f1352e0e" y="77.035694"/>
     <use style="fill:#1f77b4;stroke:#1f77b4;" x="81.986308" xlink:href="#mb9f1352e0e" y="77.035694"/>
     <use style="fill:#1f77b4;stroke:#1f77b4;" x="82.785162" xlink:href="#mb9f1352e0e" y="77.035694"/>
     <use style="fill:#1f77b4;stroke:#1f77b4;" x="83.584017" xlink:href="#mb9f1352e0e" y="69.232823"/>
     <use style="fill:#1f77b4;stroke:#1f77b4;" x="84.382872" xlink:href="#mb9f1352e0e" y="67.282105"/>
     <use style="fill:#1f77b4;stroke:#1f77b4;" x="85.181726" xlink:href="#mb9f1352e0e" y="65.331388"/>
     <use style="fill:#1f77b4;stroke:#1f77b4;" x="85.980581" xlink:href="#mb9f1352e0e" y="65.331388"/>
     <use style="fill:#1f77b4;stroke:#1f77b4;" x="86.779436" xlink:href="#mb9f1352e0e" y="162.867273"/>
     <use style="fill:#1f77b4;stroke:#1f77b4;" x="87.578291" xlink:href="#mb9f1352e0e" y="61.429952"/>
     <use style="fill:#1f77b4;stroke:#1f77b4;" x="88.377145" xlink:href="#mb9f1352e0e" y="53.627081"/>
     <use style="fill:#1f77b4;stroke:#1f77b4;" x="89.176" xlink:href="#mb9f1352e0e" y="53.627081"/>
     <use style="fill:#1f77b4;stroke:#1f77b4;" x="89.974855" xlink:href="#mb9f1352e0e" y="51.676364"/>
     <use style="fill:#1f77b4;stroke:#1f77b4;" x="90.773709" xlink:href="#mb9f1352e0e" y="49.725646"/>
     <use style="fill:#1f77b4;stroke:#1f77b4;" x="91.572564" xlink:href="#mb9f1352e0e" y="53.627081"/>
     <use style="fill:#1f77b4;stroke:#1f77b4;" x="92.371419" xlink:href="#mb9f1352e0e" y="49.725646"/>
     <use style="fill:#1f77b4;stroke:#1f77b4;" x="93.170273" xlink:href="#mb9f1352e0e" y="49.725646"/>
     <use style="fill:#1f77b4;stroke:#1f77b4;" x="93.969128" xlink:href="#mb9f1352e0e" y="47.774928"/>
     <use style="fill:#1f77b4;stroke:#1f77b4;" x="94.767983" xlink:href="#mb9f1352e0e" y="45.824211"/>
     <use style="fill:#1f77b4;stroke:#1f77b4;" x="95.566837" xlink:href="#mb9f1352e0e" y="45.824211"/>
     <use style="fill:#1f77b4;stroke:#1f77b4;" x="96.365692" xlink:href="#mb9f1352e0e" y="38.02134"/>
     <use style="fill:#1f77b4;stroke:#1f77b4;" x="97.164547" xlink:href="#mb9f1352e0e" y="44.848852"/>
     <use style="fill:#1f77b4;stroke:#1f77b4;" x="97.963401" xlink:href="#mb9f1352e0e" y="38.02134"/>
     <use style="fill:#1f77b4;stroke:#1f77b4;" x="98.762256" xlink:href="#mb9f1352e0e" y="43.873493"/>
     <use style="fill:#1f77b4;stroke:#1f77b4;" x="99.561111" xlink:href="#mb9f1352e0e" y="36.070622"/>
     <use style="fill:#1f77b4;stroke:#1f77b4;" x="100.359966" xlink:href="#mb9f1352e0e" y="34.119904"/>
     <use style="fill:#1f77b4;stroke:#1f77b4;" x="101.15882" xlink:href="#mb9f1352e0e" y="38.02134"/>
     <use style="fill:#1f77b4;stroke:#1f77b4;" x="101.957675" xlink:href="#mb9f1352e0e" y="37.045981"/>
     <use style="fill:#1f77b4;stroke:#1f77b4;" x="102.75653" xlink:href="#mb9f1352e0e" y="36.070622"/>
     <use style="fill:#1f77b4;stroke:#1f77b4;" x="103.555384" xlink:href="#mb9f1352e0e" y="34.119904"/>
     <use style="fill:#1f77b4;stroke:#1f77b4;" x="104.354239" xlink:href="#mb9f1352e0e" y="30.218469"/>
     <use style="fill:#1f77b4;stroke:#1f77b4;" x="105.153094" xlink:href="#mb9f1352e0e" y="37.53366"/>
     <use style="fill:#1f77b4;stroke:#1f77b4;" x="105.951948" xlink:href="#mb9f1352e0e" y="33.144545"/>
     <use style="fill:#1f77b4;stroke:#1f77b4;" x="106.750803" xlink:href="#mb9f1352e0e" y="34.119904"/>
     <use style="fill:#1f77b4;stroke:#1f77b4;" x="107.549658" xlink:href="#mb9f1352e0e" y="30.218469"/>
     <use style="fill:#1f77b4;stroke:#1f77b4;" x="108.348512" xlink:href="#mb9f1352e0e" y="30.218469"/>
     <use style="fill:#1f77b4;stroke:#1f77b4;" x="109.147367" xlink:href="#mb9f1352e0e" y="32.169187"/>
     <use style="fill:#1f77b4;stroke:#1f77b4;" x="109.946222" xlink:href="#mb9f1352e0e" y="30.218469"/>
     <use style="fill:#1f77b4;stroke:#1f77b4;" x="110.745077" xlink:href="#mb9f1352e0e" y="26.317033"/>
     <use style="fill:#1f77b4;stroke:#1f77b4;" x="111.543931" xlink:href="#mb9f1352e0e" y="22.415598"/>
     <use style="fill:#1f77b4;stroke:#1f77b4;" x="112.342786" xlink:href="#mb9f1352e0e" y="22.415598"/>
     <use style="fill:#1f77b4;stroke:#1f77b4;" x="113.141641" xlink:href="#mb9f1352e0e" y="28.267751"/>
     <use style="fill:#1f77b4;stroke:#1f77b4;" x="113.940495" xlink:href="#mb9f1352e0e" y="30.218469"/>
     <use style="fill:#1f77b4;stroke:#1f77b4;" x="114.73935" xlink:href="#mb9f1352e0e" y="22.415598"/>
     <use style="fill:#1f77b4;stroke:#1f77b4;" x="115.538205" xlink:href="#mb9f1352e0e" y="22.415598"/>
     <use style="fill:#1f77b4;stroke:#1f77b4;" x="116.337059" xlink:href="#mb9f1352e0e" y="22.415598"/>
     <use style="fill:#1f77b4;stroke:#1f77b4;" x="117.135914" xlink:href="#mb9f1352e0e" y="28.267751"/>
     <use style="fill:#1f77b4;stroke:#1f77b4;" x="117.934769" xlink:href="#mb9f1352e0e" y="30.218469"/>
     <use style="fill:#1f77b4;stroke:#1f77b4;" x="118.733623" xlink:href="#mb9f1352e0e" y="29.24311"/>
     <use style="fill:#1f77b4;stroke:#1f77b4;" x="119.532478" xlink:href="#mb9f1352e0e" y="28.267751"/>
     <use style="fill:#1f77b4;stroke:#1f77b4;" x="120.331333" xlink:href="#mb9f1352e0e" y="22.415598"/>
     <use style="fill:#1f77b4;stroke:#1f77b4;" x="121.130187" xlink:href="#mb9f1352e0e" y="22.415598"/>
     <use style="fill:#1f77b4;stroke:#1f77b4;" x="121.929042" xlink:href="#mb9f1352e0e" y="28.267751"/>
     <use style="fill:#1f77b4;stroke:#1f77b4;" x="122.727897" xlink:href="#mb9f1352e0e" y="29.730789"/>
     <use style="fill:#1f77b4;stroke:#1f77b4;" x="123.526752" xlink:href="#mb9f1352e0e" y="22.415598"/>
     <use style="fill:#1f77b4;stroke:#1f77b4;" x="124.325606" xlink:href="#mb9f1352e0e" y="28.267751"/>
     <use style="fill:#1f77b4;stroke:#1f77b4;" x="125.124461" xlink:href="#mb9f1352e0e" y="22.415598"/>
     <use style="fill:#1f77b4;stroke:#1f77b4;" x="125.923316" xlink:href="#mb9f1352e0e" y="28.267751"/>
     <use style="fill:#1f77b4;stroke:#1f77b4;" x="126.72217" xlink:href="#mb9f1352e0e" y="28.267751"/>
     <use style="fill:#1f77b4;stroke:#1f77b4;" x="127.521025" xlink:href="#mb9f1352e0e" y="22.415598"/>
     <use style="fill:#1f77b4;stroke:#1f77b4;" x="128.31988" xlink:href="#mb9f1352e0e" y="30.218469"/>
     <use style="fill:#1f77b4;stroke:#1f77b4;" x="129.118734" xlink:href="#mb9f1352e0e" y="28.267751"/>
     <use style="fill:#1f77b4;stroke:#1f77b4;" x="129.917589" xlink:href="#mb9f1352e0e" y="22.415598"/>
     <use style="fill:#1f77b4;stroke:#1f77b4;" x="130.716444" xlink:href="#mb9f1352e0e" y="21.440239"/>
     <use style="fill:#1f77b4;stroke:#1f77b4;" x="131.515298" xlink:href="#mb9f1352e0e" y="28.267751"/>
     <use style="fill:#1f77b4;stroke:#1f77b4;" x="132.314153" xlink:href="#mb9f1352e0e" y="20.46488"/>
     <use style="fill:#1f77b4;stroke:#1f77b4;" x="133.113008" xlink:href="#mb9f1352e0e" y="26.317033"/>
     <use style="fill:#1f77b4;stroke:#1f77b4;" x="133.911862" xlink:href="#mb9f1352e0e" y="20.46488"/>
     <use style="fill:#1f77b4;stroke:#1f77b4;" x="134.710717" xlink:href="#mb9f1352e0e" y="22.415598"/>
     <use style="fill:#1f77b4;stroke:#1f77b4;" x="135.509572" xlink:href="#mb9f1352e0e" y="29.730789"/>
     <use style="fill:#1f77b4;stroke:#1f77b4;" x="136.308427" xlink:href="#mb9f1352e0e" y="28.267751"/>
     <use style="fill:#1f77b4;stroke:#1f77b4;" x="137.107281" xlink:href="#mb9f1352e0e" y="22.415598"/>
     <use style="fill:#1f77b4;stroke:#1f77b4;" x="137.906136" xlink:href="#mb9f1352e0e" y="22.415598"/>
     <use style="fill:#1f77b4;stroke:#1f77b4;" x="138.704991" xlink:href="#mb9f1352e0e" y="29.24311"/>
     <use style="fill:#1f77b4;stroke:#1f77b4;" x="139.503845" xlink:href="#mb9f1352e0e" y="26.317033"/>
     <use style="fill:#1f77b4;stroke:#1f77b4;" x="140.3027" xlink:href="#mb9f1352e0e" y="28.267751"/>
     <use style="fill:#1f77b4;stroke:#1f77b4;" x="141.101555" xlink:href="#mb9f1352e0e" y="22.415598"/>
     <use style="fill:#1f77b4;stroke:#1f77b4;" x="141.900409" xlink:href="#mb9f1352e0e" y="22.415598"/>
     <use style="fill:#1f77b4;stroke:#1f77b4;" x="142.699264" xlink:href="#mb9f1352e0e" y="22.415598"/>
     <use style="fill:#1f77b4;stroke:#1f77b4;" x="143.498119" xlink:href="#mb9f1352e0e" y="18.514163"/>
     <use style="fill:#1f77b4;stroke:#1f77b4;" x="144.296973" xlink:href="#mb9f1352e0e" y="22.415598"/>
     <use style="fill:#1f77b4;stroke:#1f77b4;" x="145.095828" xlink:href="#mb9f1352e0e" y="20.46488"/>
     <use style="fill:#1f77b4;stroke:#1f77b4;" x="145.894683" xlink:href="#mb9f1352e0e" y="22.415598"/>
     <use style="fill:#1f77b4;stroke:#1f77b4;" x="146.693537" xlink:href="#mb9f1352e0e" y="22.415598"/>
     <use style="fill:#1f77b4;stroke:#1f77b4;" x="147.492392" xlink:href="#mb9f1352e0e" y="21.440239"/>
     <use style="fill:#1f77b4;stroke:#1f77b4;" x="148.291247" xlink:href="#mb9f1352e0e" y="22.415598"/>
     <use style="fill:#1f77b4;stroke:#1f77b4;" x="149.090102" xlink:href="#mb9f1352e0e" y="22.415598"/>
     <use style="fill:#1f77b4;stroke:#1f77b4;" x="149.888956" xlink:href="#mb9f1352e0e" y="20.46488"/>
     <use style="fill:#1f77b4;stroke:#1f77b4;" x="150.687811" xlink:href="#mb9f1352e0e" y="22.415598"/>
     <use style="fill:#1f77b4;stroke:#1f77b4;" x="151.486666" xlink:href="#mb9f1352e0e" y="22.415598"/>
     <use style="fill:#1f77b4;stroke:#1f77b4;" x="152.28552" xlink:href="#mb9f1352e0e" y="22.415598"/>
     <use style="fill:#1f77b4;stroke:#1f77b4;" x="153.084375" xlink:href="#mb9f1352e0e" y="20.46488"/>
     <use style="fill:#1f77b4;stroke:#1f77b4;" x="153.88323" xlink:href="#mb9f1352e0e" y="20.46488"/>
     <use style="fill:#1f77b4;stroke:#1f77b4;" x="154.682084" xlink:href="#mb9f1352e0e" y="14.612727"/>
     <use style="fill:#1f77b4;stroke:#1f77b4;" x="155.480939" xlink:href="#mb9f1352e0e" y="26.317033"/>
     <use style="fill:#1f77b4;stroke:#1f77b4;" x="156.279794" xlink:href="#mb9f1352e0e" y="22.415598"/>
     <use style="fill:#1f77b4;stroke:#1f77b4;" x="157.078648" xlink:href="#mb9f1352e0e" y="22.415598"/>
     <use style="fill:#1f77b4;stroke:#1f77b4;" x="157.877503" xlink:href="#mb9f1352e0e" y="21.440239"/>
     <use style="fill:#1f77b4;stroke:#1f77b4;" x="158.676358" xlink:href="#mb9f1352e0e" y="20.46488"/>
     <use style="fill:#1f77b4;stroke:#1f77b4;" x="159.475213" xlink:href="#mb9f1352e0e" y="21.440239"/>
     <use style="fill:#1f77b4;stroke:#1f77b4;" x="160.274067" xlink:href="#mb9f1352e0e" y="22.415598"/>
     <use style="fill:#1f77b4;stroke:#1f77b4;" x="161.072922" xlink:href="#mb9f1352e0e" y="21.440239"/>
     <use style="fill:#1f77b4;stroke:#1f77b4;" x="161.871777" xlink:href="#mb9f1352e0e" y="16.563445"/>
     <use style="fill:#1f77b4;stroke:#1f77b4;" x="162.670631" xlink:href="#mb9f1352e0e" y="20.46488"/>
     <use style="fill:#1f77b4;stroke:#1f77b4;" x="163.469486" xlink:href="#mb9f1352e0e" y="22.415598"/>
     <use style="fill:#1f77b4;stroke:#1f77b4;" x="164.268341" xlink:href="#mb9f1352e0e" y="22.415598"/>
     <use style="fill:#1f77b4;stroke:#1f77b4;" x="165.067195" xlink:href="#mb9f1352e0e" y="22.415598"/>
     <use style="fill:#1f77b4;stroke:#1f77b4;" x="165.86605" xlink:href="#mb9f1352e0e" y="21.927919"/>
     <use style="fill:#1f77b4;stroke:#1f77b4;" x="166.664905" xlink:href="#mb9f1352e0e" y="21.440239"/>
     <use style="fill:#1f77b4;stroke:#1f77b4;" x="167.463759" xlink:href="#mb9f1352e0e" y="22.415598"/>
     <use style="fill:#1f77b4;stroke:#1f77b4;" x="168.262614" xlink:href="#mb9f1352e0e" y="26.317033"/>
     <use style="fill:#1f77b4;stroke:#1f77b4;" x="169.061469" xlink:href="#mb9f1352e0e" y="22.415598"/>
     <use style="fill:#1f77b4;stroke:#1f77b4;" x="169.860323" xlink:href="#mb9f1352e0e" y="28.267751"/>
     <use style="fill:#1f77b4;stroke:#1f77b4;" x="170.659178" xlink:href="#mb9f1352e0e" y="28.267751"/>
     <use style="fill:#1f77b4;stroke:#1f77b4;" x="171.458033" xlink:href="#mb9f1352e0e" y="21.927919"/>
     <use style="fill:#1f77b4;stroke:#1f77b4;" x="172.256888" xlink:href="#mb9f1352e0e" y="21.440239"/>
     <use style="fill:#1f77b4;stroke:#1f77b4;" x="173.055742" xlink:href="#mb9f1352e0e" y="22.415598"/>
     <use style="fill:#1f77b4;stroke:#1f77b4;" x="173.854597" xlink:href="#mb9f1352e0e" y="22.415598"/>
     <use style="fill:#1f77b4;stroke:#1f77b4;" x="174.653452" xlink:href="#mb9f1352e0e" y="22.415598"/>
     <use style="fill:#1f77b4;stroke:#1f77b4;" x="175.452306" xlink:href="#mb9f1352e0e" y="22.415598"/>
     <use style="fill:#1f77b4;stroke:#1f77b4;" x="176.251161" xlink:href="#mb9f1352e0e" y="22.415598"/>
     <use style="fill:#1f77b4;stroke:#1f77b4;" x="177.050016" xlink:href="#mb9f1352e0e" y="22.415598"/>
     <use style="fill:#1f77b4;stroke:#1f77b4;" x="177.84887" xlink:href="#mb9f1352e0e" y="21.440239"/>
     <use style="fill:#1f77b4;stroke:#1f77b4;" x="178.647725" xlink:href="#mb9f1352e0e" y="22.415598"/>
     <use style="fill:#1f77b4;stroke:#1f77b4;" x="179.44658" xlink:href="#mb9f1352e0e" y="22.415598"/>
     <use style="fill:#1f77b4;stroke:#1f77b4;" x="180.245434" xlink:href="#mb9f1352e0e" y="22.415598"/>
     <use style="fill:#1f77b4;stroke:#1f77b4;" x="181.044289" xlink:href="#mb9f1352e0e" y="21.927919"/>
     <use style="fill:#1f77b4;stroke:#1f77b4;" x="181.843144" xlink:href="#mb9f1352e0e" y="22.415598"/>
     <use style="fill:#1f77b4;stroke:#1f77b4;" x="182.641998" xlink:href="#mb9f1352e0e" y="22.415598"/>
     <use style="fill:#1f77b4;stroke:#1f77b4;" x="183.440853" xlink:href="#mb9f1352e0e" y="20.46488"/>
     <use style="fill:#1f77b4;stroke:#1f77b4;" x="184.239708" xlink:href="#mb9f1352e0e" y="20.46488"/>
     <use style="fill:#1f77b4;stroke:#1f77b4;" x="185.038563" xlink:href="#mb9f1352e0e" y="20.46488"/>
     <use style="fill:#1f77b4;stroke:#1f77b4;" x="185.837417" xlink:href="#mb9f1352e0e" y="21.440239"/>
     <use style="fill:#1f77b4;stroke:#1f77b4;" x="186.636272" xlink:href="#mb9f1352e0e" y="18.026483"/>
     <use style="fill:#1f77b4;stroke:#1f77b4;" x="187.435127" xlink:href="#mb9f1352e0e" y="21.440239"/>
     <use style="fill:#1f77b4;stroke:#1f77b4;" x="188.233981" xlink:href="#mb9f1352e0e" y="20.46488"/>
     <use style="fill:#1f77b4;stroke:#1f77b4;" x="189.032836" xlink:href="#mb9f1352e0e" y="19.489522"/>
     <use style="fill:#1f77b4;stroke:#1f77b4;" x="189.831691" xlink:href="#mb9f1352e0e" y="22.415598"/>
     <use style="fill:#1f77b4;stroke:#1f77b4;" x="190.630545" xlink:href="#mb9f1352e0e" y="21.927919"/>
     <use style="fill:#1f77b4;stroke:#1f77b4;" x="191.4294" xlink:href="#mb9f1352e0e" y="20.46488"/>
     <use style="fill:#1f77b4;stroke:#1f77b4;" x="192.228255" xlink:href="#mb9f1352e0e" y="18.514163"/>
     <use style="fill:#1f77b4;stroke:#1f77b4;" x="193.027109" xlink:href="#mb9f1352e0e" y="22.415598"/>
     <use style="fill:#1f77b4;stroke:#1f77b4;" x="193.825964" xlink:href="#mb9f1352e0e" y="20.46488"/>
     <use style="fill:#1f77b4;stroke:#1f77b4;" x="194.624819" xlink:href="#mb9f1352e0e" y="22.415598"/>
     <use style="fill:#1f77b4;stroke:#1f77b4;" x="195.423673" xlink:href="#mb9f1352e0e" y="22.415598"/>
     <use style="fill:#1f77b4;stroke:#1f77b4;" x="196.222528" xlink:href="#mb9f1352e0e" y="28.267751"/>
     <use style="fill:#1f77b4;stroke:#1f77b4;" x="197.021383" xlink:href="#mb9f1352e0e" y="22.415598"/>
     <use style="fill:#1f77b4;stroke:#1f77b4;" x="197.820238" xlink:href="#mb9f1352e0e" y="22.415598"/>
     <use style="fill:#1f77b4;stroke:#1f77b4;" x="198.619092" xlink:href="#mb9f1352e0e" y="22.415598"/>
     <use style="fill:#1f77b4;stroke:#1f77b4;" x="199.417947" xlink:href="#mb9f1352e0e" y="20.46488"/>
     <use style="fill:#1f77b4;stroke:#1f77b4;" x="200.216802" xlink:href="#mb9f1352e0e" y="20.46488"/>
     <use style="fill:#1f77b4;stroke:#1f77b4;" x="201.015656" xlink:href="#mb9f1352e0e" y="18.514163"/>
     <use style="fill:#1f77b4;stroke:#1f77b4;" x="201.814511" xlink:href="#mb9f1352e0e" y="22.415598"/>
     <use style="fill:#1f77b4;stroke:#1f77b4;" x="202.613366" xlink:href="#mb9f1352e0e" y="17.538804"/>
     <use style="fill:#1f77b4;stroke:#1f77b4;" x="203.41222" xlink:href="#mb9f1352e0e" y="20.46488"/>
     <use style="fill:#1f77b4;stroke:#1f77b4;" x="204.211075" xlink:href="#mb9f1352e0e" y="21.927919"/>
     <use style="fill:#1f77b4;stroke:#1f77b4;" x="205.00993" xlink:href="#mb9f1352e0e" y="20.46488"/>
     <use style="fill:#1f77b4;stroke:#1f77b4;" x="205.808784" xlink:href="#mb9f1352e0e" y="22.415598"/>
     <use style="fill:#1f77b4;stroke:#1f77b4;" x="206.607639" xlink:href="#mb9f1352e0e" y="18.514163"/>
     <use style="fill:#1f77b4;stroke:#1f77b4;" x="207.406494" xlink:href="#mb9f1352e0e" y="22.415598"/>
     <use style="fill:#1f77b4;stroke:#1f77b4;" x="208.205349" xlink:href="#mb9f1352e0e" y="22.415598"/>
     <use style="fill:#1f77b4;stroke:#1f77b4;" x="209.004203" xlink:href="#mb9f1352e0e" y="22.415598"/>
     <use style="fill:#1f77b4;stroke:#1f77b4;" x="209.803058" xlink:href="#mb9f1352e0e" y="22.415598"/>
     <use style="fill:#1f77b4;stroke:#1f77b4;" x="210.601913" xlink:href="#mb9f1352e0e" y="20.46488"/>
     <use style="fill:#1f77b4;stroke:#1f77b4;" x="211.400767" xlink:href="#mb9f1352e0e" y="18.514163"/>
     <use style="fill:#1f77b4;stroke:#1f77b4;" x="212.199622" xlink:href="#mb9f1352e0e" y="21.440239"/>
     <use style="fill:#1f77b4;stroke:#1f77b4;" x="212.998477" xlink:href="#mb9f1352e0e" y="20.46488"/>
     <use style="fill:#1f77b4;stroke:#1f77b4;" x="213.797331" xlink:href="#mb9f1352e0e" y="22.415598"/>
     <use style="fill:#1f77b4;stroke:#1f77b4;" x="214.596186" xlink:href="#mb9f1352e0e" y="21.927919"/>
     <use style="fill:#1f77b4;stroke:#1f77b4;" x="215.395041" xlink:href="#mb9f1352e0e" y="22.415598"/>
     <use style="fill:#1f77b4;stroke:#1f77b4;" x="216.193895" xlink:href="#mb9f1352e0e" y="21.440239"/>
     <use style="fill:#1f77b4;stroke:#1f77b4;" x="216.99275" xlink:href="#mb9f1352e0e" y="22.415598"/>
     <use style="fill:#1f77b4;stroke:#1f77b4;" x="217.791605" xlink:href="#mb9f1352e0e" y="22.415598"/>
     <use style="fill:#1f77b4;stroke:#1f77b4;" x="218.590459" xlink:href="#mb9f1352e0e" y="22.415598"/>
     <use style="fill:#1f77b4;stroke:#1f77b4;" x="219.389314" xlink:href="#mb9f1352e0e" y="21.440239"/>
     <use style="fill:#1f77b4;stroke:#1f77b4;" x="220.188169" xlink:href="#mb9f1352e0e" y="22.415598"/>
     <use style="fill:#1f77b4;stroke:#1f77b4;" x="220.987024" xlink:href="#mb9f1352e0e" y="20.46488"/>
     <use style="fill:#1f77b4;stroke:#1f77b4;" x="221.785878" xlink:href="#mb9f1352e0e" y="22.415598"/>
     <use style="fill:#1f77b4;stroke:#1f77b4;" x="222.584733" xlink:href="#mb9f1352e0e" y="21.440239"/>
     <use style="fill:#1f77b4;stroke:#1f77b4;" x="223.383588" xlink:href="#mb9f1352e0e" y="22.415598"/>
     <use style="fill:#1f77b4;stroke:#1f77b4;" x="224.182442" xlink:href="#mb9f1352e0e" y="21.440239"/>
     <use style="fill:#1f77b4;stroke:#1f77b4;" x="224.981297" xlink:href="#mb9f1352e0e" y="22.415598"/>
     <use style="fill:#1f77b4;stroke:#1f77b4;" x="225.780152" xlink:href="#mb9f1352e0e" y="22.415598"/>
     <use style="fill:#1f77b4;stroke:#1f77b4;" x="226.579006" xlink:href="#mb9f1352e0e" y="22.415598"/>
     <use style="fill:#1f77b4;stroke:#1f77b4;" x="227.377861" xlink:href="#mb9f1352e0e" y="22.415598"/>
     <use style="fill:#1f77b4;stroke:#1f77b4;" x="228.176716" xlink:href="#mb9f1352e0e" y="20.46488"/>
     <use style="fill:#1f77b4;stroke:#1f77b4;" x="228.97557" xlink:href="#mb9f1352e0e" y="21.440239"/>
     <use style="fill:#1f77b4;stroke:#1f77b4;" x="229.774425" xlink:href="#mb9f1352e0e" y="22.415598"/>
     <use style="fill:#1f77b4;stroke:#1f77b4;" x="230.57328" xlink:href="#mb9f1352e0e" y="21.440239"/>
     <use style="fill:#1f77b4;stroke:#1f77b4;" x="231.372134" xlink:href="#mb9f1352e0e" y="18.514163"/>
     <use style="fill:#1f77b4;stroke:#1f77b4;" x="232.170989" xlink:href="#mb9f1352e0e" y="21.440239"/>
     <use style="fill:#1f77b4;stroke:#1f77b4;" x="232.969844" xlink:href="#mb9f1352e0e" y="21.440239"/>
     <use style="fill:#1f77b4;stroke:#1f77b4;" x="233.768699" xlink:href="#mb9f1352e0e" y="22.415598"/>
     <use style="fill:#1f77b4;stroke:#1f77b4;" x="234.567553" xlink:href="#mb9f1352e0e" y="16.563445"/>
     <use style="fill:#1f77b4;stroke:#1f77b4;" x="235.366408" xlink:href="#mb9f1352e0e" y="18.514163"/>
     <use style="fill:#1f77b4;stroke:#1f77b4;" x="236.165263" xlink:href="#mb9f1352e0e" y="18.514163"/>
     <use style="fill:#1f77b4;stroke:#1f77b4;" x="236.964117" xlink:href="#mb9f1352e0e" y="16.563445"/>
     <use style="fill:#1f77b4;stroke:#1f77b4;" x="237.762972" xlink:href="#mb9f1352e0e" y="18.514163"/>
     <use style="fill:#1f77b4;stroke:#1f77b4;" x="238.561827" xlink:href="#mb9f1352e0e" y="22.415598"/>
     <use style="fill:#1f77b4;stroke:#1f77b4;" x="239.360681" xlink:href="#mb9f1352e0e" y="20.46488"/>
     <use style="fill:#1f77b4;stroke:#1f77b4;" x="240.159536" xlink:href="#mb9f1352e0e" y="20.46488"/>
     <use style="fill:#1f77b4;stroke:#1f77b4;" x="240.958391" xlink:href="#mb9f1352e0e" y="22.415598"/>
     <use style="fill:#1f77b4;stroke:#1f77b4;" x="241.757245" xlink:href="#mb9f1352e0e" y="20.46488"/>
     <use style="fill:#1f77b4;stroke:#1f77b4;" x="242.5561" xlink:href="#mb9f1352e0e" y="20.46488"/>
     <use style="fill:#1f77b4;stroke:#1f77b4;" x="243.354955" xlink:href="#mb9f1352e0e" y="20.46488"/>
     <use style="fill:#1f77b4;stroke:#1f77b4;" x="244.15381" xlink:href="#mb9f1352e0e" y="18.514163"/>
     <use style="fill:#1f77b4;stroke:#1f77b4;" x="244.952664" xlink:href="#mb9f1352e0e" y="36.070622"/>
     <use style="fill:#1f77b4;stroke:#1f77b4;" x="245.751519" xlink:href="#mb9f1352e0e" y="17.538804"/>
     <use style="fill:#1f77b4;stroke:#1f77b4;" x="246.550374" xlink:href="#mb9f1352e0e" y="16.563445"/>
     <use style="fill:#1f77b4;stroke:#1f77b4;" x="247.349228" xlink:href="#mb9f1352e0e" y="16.563445"/>
     <use style="fill:#1f77b4;stroke:#1f77b4;" x="248.148083" xlink:href="#mb9f1352e0e" y="20.46488"/>
     <use style="fill:#1f77b4;stroke:#1f77b4;" x="248.946938" xlink:href="#mb9f1352e0e" y="22.415598"/>
     <use style="fill:#1f77b4;stroke:#1f77b4;" x="249.745792" xlink:href="#mb9f1352e0e" y="18.514163"/>
     <use style="fill:#1f77b4;stroke:#1f77b4;" x="250.544647" xlink:href="#mb9f1352e0e" y="22.415598"/>
     <use style="fill:#1f77b4;stroke:#1f77b4;" x="251.343502" xlink:href="#mb9f1352e0e" y="21.927919"/>
     <use style="fill:#1f77b4;stroke:#1f77b4;" x="252.142356" xlink:href="#mb9f1352e0e" y="21.440239"/>
     <use style="fill:#1f77b4;stroke:#1f77b4;" x="252.941211" xlink:href="#mb9f1352e0e" y="18.514163"/>
     <use style="fill:#1f77b4;stroke:#1f77b4;" x="253.740066" xlink:href="#mb9f1352e0e" y="18.514163"/>
     <use style="fill:#1f77b4;stroke:#1f77b4;" x="254.53892" xlink:href="#mb9f1352e0e" y="18.514163"/>
    </g>
   </g>
   <g id="patch_3">
    <path d="M 41.484375 170.28 
L 41.484375 7.2 
" style="fill:none;stroke:#000000;stroke-linecap:square;stroke-linejoin:miter;stroke-width:0.8;"/>
   </g>
   <g id="patch_4">
    <path d="M 264.684375 170.28 
L 264.684375 7.2 
" style="fill:none;stroke:#000000;stroke-linecap:square;stroke-linejoin:miter;stroke-width:0.8;"/>
   </g>
   <g id="patch_5">
    <path d="M 41.484375 170.28 
L 264.684375 170.28 
" style="fill:none;stroke:#000000;stroke-linecap:square;stroke-linejoin:miter;stroke-width:0.8;"/>
   </g>
   <g id="patch_6">
    <path d="M 41.484375 7.2 
L 264.684375 7.2 
" style="fill:none;stroke:#000000;stroke-linecap:square;stroke-linejoin:miter;stroke-width:0.8;"/>
   </g>
  </g>
 </g>
 <defs>
  <clipPath id="p5784c84aa4">
   <rect height="163.08" width="223.2" x="41.484375" y="7.2"/>
  </clipPath>
 </defs>
</svg>
