<?xml version="1.0" encoding="utf-8" standalone="no"?>
<!DOCTYPE svg PUBLIC "-//W3C//DTD SVG 1.1//EN"
  "http://www.w3.org/Graphics/SVG/1.1/DTD/svg11.dtd">
<!-- Created with matplotlib (https://matplotlib.org/) -->
<svg height="207.009688pt" version="1.1" viewBox="0 0 277.445312 207.009688" width="277.445312pt" xmlns="http://www.w3.org/2000/svg" xmlns:xlink="http://www.w3.org/1999/xlink">
 <defs>
  <style type="text/css">
*{stroke-linecap:butt;stroke-linejoin:round;}
  </style>
 </defs>
 <g id="figure_1">
  <g id="patch_1">
   <path d="M 0 207.009688 
L 277.445312 207.009688 
L 277.445312 0 
L 0 0 
z
" style="fill:none;"/>
  </g>
  <g id="axes_1">
   <g id="patch_2">
    <path d="M 47.045313 170.28 
L 270.245313 170.28 
L 270.245313 7.2 
L 47.045313 7.2 
z
" style="fill:#ffffff;"/>
   </g>
   <g id="matplotlib.axis_1">
    <g id="xtick_1">
     <g id="line2d_1">
      <path clip-path="url(#pcc4dca23c5)" d="M 57.190767 170.28 
L 57.190767 7.2 
" style="fill:none;stroke:#b0b0b0;stroke-linecap:square;stroke-opacity:0.3;stroke-width:0.8;"/>
     </g>
     <g id="line2d_2">
      <defs>
       <path d="M 0 0 
L 0 3.5 
" id="mcca233e8c3" style="stroke:#000000;stroke-width:0.8;"/>
      </defs>
      <g>
       <use style="stroke:#000000;stroke-width:0.8;" x="57.190767" xlink:href="#mcca233e8c3" y="170.28"/>
      </g>
     </g>
     <g id="text_1">
      <!-- 0 -->
      <defs>
       <path d="M 4.15625 35.296875 
Q 4.15625 48 6.765625 55.734375 
Q 9.375 63.484375 14.515625 67.671875 
Q 19.671875 71.875 27.484375 71.875 
Q 33.25 71.875 37.59375 69.546875 
Q 41.9375 67.234375 44.765625 62.859375 
Q 47.609375 58.5 49.21875 52.21875 
Q 50.828125 45.953125 50.828125 35.296875 
Q 50.828125 22.703125 48.234375 14.96875 
Q 45.65625 7.234375 40.5 3 
Q 35.359375 -1.21875 27.484375 -1.21875 
Q 17.140625 -1.21875 11.234375 6.203125 
Q 4.15625 15.140625 4.15625 35.296875 
z
M 13.1875 35.296875 
Q 13.1875 17.671875 17.3125 11.828125 
Q 21.4375 6 27.484375 6 
Q 33.546875 6 37.671875 11.859375 
Q 41.796875 17.71875 41.796875 35.296875 
Q 41.796875 52.984375 37.671875 58.78125 
Q 33.546875 64.59375 27.390625 64.59375 
Q 21.34375 64.59375 17.71875 59.46875 
Q 13.1875 52.9375 13.1875 35.296875 
z
" id="ArialMT-48"/>
      </defs>
      <g transform="translate(54.410298 184.437813)scale(0.1 -0.1)">
       <use xlink:href="#ArialMT-48"/>
      </g>
     </g>
    </g>
    <g id="xtick_2">
     <g id="line2d_3">
      <path clip-path="url(#pcc4dca23c5)" d="M 97.133501 170.28 
L 97.133501 7.2 
" style="fill:none;stroke:#b0b0b0;stroke-linecap:square;stroke-opacity:0.3;stroke-width:0.8;"/>
     </g>
     <g id="line2d_4">
      <g>
       <use style="stroke:#000000;stroke-width:0.8;" x="97.133501" xlink:href="#mcca233e8c3" y="170.28"/>
      </g>
     </g>
     <g id="text_2">
      <!-- 50 -->
      <defs>
       <path d="M 4.15625 18.75 
L 13.375 19.53125 
Q 14.40625 12.796875 18.140625 9.390625 
Q 21.875 6 27.15625 6 
Q 33.5 6 37.890625 10.78125 
Q 42.28125 15.578125 42.28125 23.484375 
Q 42.28125 31 38.0625 35.34375 
Q 33.84375 39.703125 27 39.703125 
Q 22.75 39.703125 19.328125 37.765625 
Q 15.921875 35.84375 13.96875 32.765625 
L 5.71875 33.84375 
L 12.640625 70.609375 
L 48.25 70.609375 
L 48.25 62.203125 
L 19.671875 62.203125 
L 15.828125 42.96875 
Q 22.265625 47.46875 29.34375 47.46875 
Q 38.71875 47.46875 45.15625 40.96875 
Q 51.609375 34.46875 51.609375 24.265625 
Q 51.609375 14.546875 45.953125 7.46875 
Q 39.0625 -1.21875 27.15625 -1.21875 
Q 17.390625 -1.21875 11.203125 4.25 
Q 5.03125 9.71875 4.15625 18.75 
z
" id="ArialMT-53"/>
      </defs>
      <g transform="translate(91.572564 184.437813)scale(0.1 -0.1)">
       <use xlink:href="#ArialMT-53"/>
       <use x="55.615234" xlink:href="#ArialMT-48"/>
      </g>
     </g>
    </g>
    <g id="xtick_3">
     <g id="line2d_5">
      <path clip-path="url(#pcc4dca23c5)" d="M 137.076236 170.28 
L 137.076236 7.2 
" style="fill:none;stroke:#b0b0b0;stroke-linecap:square;stroke-opacity:0.3;stroke-width:0.8;"/>
     </g>
     <g id="line2d_6">
      <g>
       <use style="stroke:#000000;stroke-width:0.8;" x="137.076236" xlink:href="#mcca233e8c3" y="170.28"/>
      </g>
     </g>
     <g id="text_3">
      <!-- 100 -->
      <defs>
       <path d="M 37.25 0 
L 28.46875 0 
L 28.46875 56 
Q 25.296875 52.984375 20.140625 49.953125 
Q 14.984375 46.921875 10.890625 45.40625 
L 10.890625 53.90625 
Q 18.265625 57.375 23.78125 62.296875 
Q 29.296875 67.234375 31.59375 71.875 
L 37.25 71.875 
z
" id="ArialMT-49"/>
      </defs>
      <g transform="translate(128.73483 184.437813)scale(0.1 -0.1)">
       <use xlink:href="#ArialMT-49"/>
       <use x="55.615234" xlink:href="#ArialMT-48"/>
       <use x="111.230469" xlink:href="#ArialMT-48"/>
      </g>
     </g>
    </g>
    <g id="xtick_4">
     <g id="line2d_7">
      <path clip-path="url(#pcc4dca23c5)" d="M 177.01897 170.28 
L 177.01897 7.2 
" style="fill:none;stroke:#b0b0b0;stroke-linecap:square;stroke-opacity:0.3;stroke-width:0.8;"/>
     </g>
     <g id="line2d_8">
      <g>
       <use style="stroke:#000000;stroke-width:0.8;" x="177.01897" xlink:href="#mcca233e8c3" y="170.28"/>
      </g>
     </g>
     <g id="text_4">
      <!-- 150 -->
      <g transform="translate(168.677564 184.437813)scale(0.1 -0.1)">
       <use xlink:href="#ArialMT-49"/>
       <use x="55.615234" xlink:href="#ArialMT-53"/>
       <use x="111.230469" xlink:href="#ArialMT-48"/>
      </g>
     </g>
    </g>
    <g id="xtick_5">
     <g id="line2d_9">
      <path clip-path="url(#pcc4dca23c5)" d="M 216.961705 170.28 
L 216.961705 7.2 
" style="fill:none;stroke:#b0b0b0;stroke-linecap:square;stroke-opacity:0.3;stroke-width:0.8;"/>
     </g>
     <g id="line2d_10">
      <g>
       <use style="stroke:#000000;stroke-width:0.8;" x="216.961705" xlink:href="#mcca233e8c3" y="170.28"/>
      </g>
     </g>
     <g id="text_5">
      <!-- 200 -->
      <defs>
       <path d="M 50.34375 8.453125 
L 50.34375 0 
L 3.03125 0 
Q 2.9375 3.171875 4.046875 6.109375 
Q 5.859375 10.9375 9.828125 15.625 
Q 13.8125 20.3125 21.34375 26.46875 
Q 33.015625 36.03125 37.109375 41.625 
Q 41.21875 47.21875 41.21875 52.203125 
Q 41.21875 57.421875 37.46875 61 
Q 33.734375 64.59375 27.734375 64.59375 
Q 21.390625 64.59375 17.578125 60.78125 
Q 13.765625 56.984375 13.71875 50.25 
L 4.6875 51.171875 
Q 5.609375 61.28125 11.65625 66.578125 
Q 17.71875 71.875 27.9375 71.875 
Q 38.234375 71.875 44.234375 66.15625 
Q 50.25 60.453125 50.25 52 
Q 50.25 47.703125 48.484375 43.546875 
Q 46.734375 39.40625 42.65625 34.8125 
Q 38.578125 30.21875 29.109375 22.21875 
Q 21.1875 15.578125 18.9375 13.203125 
Q 16.703125 10.84375 15.234375 8.453125 
z
" id="ArialMT-50"/>
      </defs>
      <g transform="translate(208.620299 184.437813)scale(0.1 -0.1)">
       <use xlink:href="#ArialMT-50"/>
       <use x="55.615234" xlink:href="#ArialMT-48"/>
       <use x="111.230469" xlink:href="#ArialMT-48"/>
      </g>
     </g>
    </g>
    <g id="xtick_6">
     <g id="line2d_11">
      <path clip-path="url(#pcc4dca23c5)" d="M 256.904439 170.28 
L 256.904439 7.2 
" style="fill:none;stroke:#b0b0b0;stroke-linecap:square;stroke-opacity:0.3;stroke-width:0.8;"/>
     </g>
     <g id="line2d_12">
      <g>
       <use style="stroke:#000000;stroke-width:0.8;" x="256.904439" xlink:href="#mcca233e8c3" y="170.28"/>
      </g>
     </g>
     <g id="text_6">
      <!-- 250 -->
      <g transform="translate(248.563033 184.437813)scale(0.1 -0.1)">
       <use xlink:href="#ArialMT-50"/>
       <use x="55.615234" xlink:href="#ArialMT-53"/>
       <use x="111.230469" xlink:href="#ArialMT-48"/>
      </g>
     </g>
    </g>
    <g id="text_7">
     <!-- Tsh (cycles) -->
     <defs>
      <path d="M 25.921875 0 
L 25.921875 63.140625 
L 2.34375 63.140625 
L 2.34375 71.578125 
L 59.078125 71.578125 
L 59.078125 63.140625 
L 35.40625 63.140625 
L 35.40625 0 
z
" id="ArialMT-84"/>
      <path d="M 3.078125 15.484375 
L 11.765625 16.84375 
Q 12.5 11.625 15.84375 8.84375 
Q 19.1875 6.0625 25.203125 6.0625 
Q 31.25 6.0625 34.171875 8.515625 
Q 37.109375 10.984375 37.109375 14.3125 
Q 37.109375 17.28125 34.515625 19 
Q 32.71875 20.171875 25.53125 21.96875 
Q 15.875 24.421875 12.140625 26.203125 
Q 8.40625 27.984375 6.46875 31.125 
Q 4.546875 34.28125 4.546875 38.09375 
Q 4.546875 41.546875 6.125 44.5 
Q 7.71875 47.46875 10.453125 49.421875 
Q 12.5 50.921875 16.03125 51.96875 
Q 19.578125 53.03125 23.640625 53.03125 
Q 29.734375 53.03125 34.34375 51.265625 
Q 38.96875 49.515625 41.15625 46.5 
Q 43.359375 43.5 44.1875 38.484375 
L 35.59375 37.3125 
Q 35.015625 41.3125 32.203125 43.546875 
Q 29.390625 45.796875 24.265625 45.796875 
Q 18.21875 45.796875 15.625 43.796875 
Q 13.03125 41.796875 13.03125 39.109375 
Q 13.03125 37.40625 14.109375 36.03125 
Q 15.1875 34.625 17.484375 33.6875 
Q 18.796875 33.203125 25.25 31.453125 
Q 34.578125 28.953125 38.25 27.359375 
Q 41.9375 25.78125 44.03125 22.75 
Q 46.140625 19.734375 46.140625 15.234375 
Q 46.140625 10.84375 43.578125 6.953125 
Q 41.015625 3.078125 36.171875 0.953125 
Q 31.34375 -1.171875 25.25 -1.171875 
Q 15.140625 -1.171875 9.84375 3.03125 
Q 4.546875 7.234375 3.078125 15.484375 
z
" id="ArialMT-115"/>
      <path d="M 6.59375 0 
L 6.59375 71.578125 
L 15.375 71.578125 
L 15.375 45.90625 
Q 21.53125 53.03125 30.90625 53.03125 
Q 36.671875 53.03125 40.921875 50.75 
Q 45.171875 48.484375 47 44.484375 
Q 48.828125 40.484375 48.828125 32.859375 
L 48.828125 0 
L 40.046875 0 
L 40.046875 32.859375 
Q 40.046875 39.453125 37.1875 42.453125 
Q 34.328125 45.453125 29.109375 45.453125 
Q 25.203125 45.453125 21.75 43.421875 
Q 18.3125 41.40625 16.84375 37.9375 
Q 15.375 34.46875 15.375 28.375 
L 15.375 0 
z
" id="ArialMT-104"/>
      <path id="ArialMT-32"/>
      <path d="M 23.390625 -21.046875 
Q 16.109375 -11.859375 11.078125 0.4375 
Q 6.0625 12.75 6.0625 25.921875 
Q 6.0625 37.546875 9.8125 48.1875 
Q 14.203125 60.546875 23.390625 72.796875 
L 29.6875 72.796875 
Q 23.78125 62.640625 21.875 58.296875 
Q 18.890625 51.5625 17.1875 44.234375 
Q 15.09375 35.109375 15.09375 25.875 
Q 15.09375 2.390625 29.6875 -21.046875 
z
" id="ArialMT-40"/>
      <path d="M 40.4375 19 
L 49.078125 17.875 
Q 47.65625 8.9375 41.8125 3.875 
Q 35.984375 -1.171875 27.484375 -1.171875 
Q 16.84375 -1.171875 10.375 5.78125 
Q 3.90625 12.75 3.90625 25.734375 
Q 3.90625 34.125 6.6875 40.421875 
Q 9.46875 46.734375 15.15625 49.875 
Q 20.84375 53.03125 27.546875 53.03125 
Q 35.984375 53.03125 41.359375 48.75 
Q 46.734375 44.484375 48.25 36.625 
L 39.703125 35.296875 
Q 38.484375 40.53125 35.375 43.15625 
Q 32.28125 45.796875 27.875 45.796875 
Q 21.234375 45.796875 17.078125 41.03125 
Q 12.9375 36.28125 12.9375 25.984375 
Q 12.9375 15.53125 16.9375 10.796875 
Q 20.953125 6.0625 27.390625 6.0625 
Q 32.5625 6.0625 36.03125 9.234375 
Q 39.5 12.40625 40.4375 19 
z
" id="ArialMT-99"/>
      <path d="M 6.203125 -19.96875 
L 5.21875 -11.71875 
Q 8.109375 -12.5 10.25 -12.5 
Q 13.1875 -12.5 14.9375 -11.515625 
Q 16.703125 -10.546875 17.828125 -8.796875 
Q 18.65625 -7.46875 20.515625 -2.25 
Q 20.75 -1.515625 21.296875 -0.09375 
L 1.609375 51.859375 
L 11.078125 51.859375 
L 21.875 21.828125 
Q 23.96875 16.109375 25.640625 9.8125 
Q 27.15625 15.875 29.25 21.625 
L 40.328125 51.859375 
L 49.125 51.859375 
L 29.390625 -0.875 
Q 26.21875 -9.421875 24.46875 -12.640625 
Q 22.125 -17 19.09375 -19.015625 
Q 16.0625 -21.046875 11.859375 -21.046875 
Q 9.328125 -21.046875 6.203125 -19.96875 
z
" id="ArialMT-121"/>
      <path d="M 6.390625 0 
L 6.390625 71.578125 
L 15.1875 71.578125 
L 15.1875 0 
z
" id="ArialMT-108"/>
      <path d="M 42.09375 16.703125 
L 51.171875 15.578125 
Q 49.03125 7.625 43.21875 3.21875 
Q 37.40625 -1.171875 28.375 -1.171875 
Q 17 -1.171875 10.328125 5.828125 
Q 3.65625 12.84375 3.65625 25.484375 
Q 3.65625 38.578125 10.390625 45.796875 
Q 17.140625 53.03125 27.875 53.03125 
Q 38.28125 53.03125 44.875 45.953125 
Q 51.46875 38.875 51.46875 26.03125 
Q 51.46875 25.25 51.421875 23.6875 
L 12.75 23.6875 
Q 13.234375 15.140625 17.578125 10.59375 
Q 21.921875 6.0625 28.421875 6.0625 
Q 33.25 6.0625 36.671875 8.59375 
Q 40.09375 11.140625 42.09375 16.703125 
z
M 13.234375 30.90625 
L 42.1875 30.90625 
Q 41.609375 37.453125 38.875 40.71875 
Q 34.671875 45.796875 27.984375 45.796875 
Q 21.921875 45.796875 17.796875 41.75 
Q 13.671875 37.703125 13.234375 30.90625 
z
" id="ArialMT-101"/>
      <path d="M 12.359375 -21.046875 
L 6.0625 -21.046875 
Q 20.65625 2.390625 20.65625 25.875 
Q 20.65625 35.0625 18.5625 44.09375 
Q 16.890625 51.421875 13.921875 58.15625 
Q 12.015625 62.546875 6.0625 72.796875 
L 12.359375 72.796875 
Q 21.53125 60.546875 25.921875 48.1875 
Q 29.6875 37.546875 29.6875 25.921875 
Q 29.6875 12.75 24.625 0.4375 
Q 19.578125 -11.859375 12.359375 -21.046875 
z
" id="ArialMT-41"/>
     </defs>
     <g transform="translate(131.709375 197.705)scale(0.1 -0.1)">
      <use xlink:href="#ArialMT-84"/>
      <use x="60.912109" xlink:href="#ArialMT-115"/>
      <use x="110.912109" xlink:href="#ArialMT-104"/>
      <use x="166.527344" xlink:href="#ArialMT-32"/>
      <use x="194.310547" xlink:href="#ArialMT-40"/>
      <use x="227.611328" xlink:href="#ArialMT-99"/>
      <use x="277.611328" xlink:href="#ArialMT-121"/>
      <use x="327.611328" xlink:href="#ArialMT-99"/>
      <use x="377.611328" xlink:href="#ArialMT-108"/>
      <use x="399.828125" xlink:href="#ArialMT-101"/>
      <use x="455.443359" xlink:href="#ArialMT-115"/>
      <use x="505.443359" xlink:href="#ArialMT-41"/>
     </g>
    </g>
   </g>
   <g id="matplotlib.axis_2">
    <g id="ytick_1">
     <g id="line2d_13">
      <path clip-path="url(#pcc4dca23c5)" d="M 47.045313 162.867273 
L 270.245313 162.867273 
" style="fill:none;stroke:#b0b0b0;stroke-linecap:square;stroke-opacity:0.3;stroke-width:0.8;"/>
     </g>
     <g id="line2d_14">
      <defs>
       <path d="M 0 0 
L -3.5 0 
" id="mc49055a8b9" style="stroke:#000000;stroke-width:0.8;"/>
      </defs>
      <g>
       <use style="stroke:#000000;stroke-width:0.8;" x="47.045313" xlink:href="#mc49055a8b9" y="162.867273"/>
      </g>
     </g>
     <g id="text_8">
      <!-- 0.00 -->
      <defs>
       <path d="M 9.078125 0 
L 9.078125 10.015625 
L 19.09375 10.015625 
L 19.09375 0 
z
" id="ArialMT-46"/>
      </defs>
      <g transform="translate(20.584375 166.446179)scale(0.1 -0.1)">
       <use xlink:href="#ArialMT-48"/>
       <use x="55.615234" xlink:href="#ArialMT-46"/>
       <use x="83.398438" xlink:href="#ArialMT-48"/>
       <use x="139.013672" xlink:href="#ArialMT-48"/>
      </g>
     </g>
    </g>
    <g id="ytick_2">
     <g id="line2d_15">
      <path clip-path="url(#pcc4dca23c5)" d="M 47.045313 130.039481 
L 270.245313 130.039481 
" style="fill:none;stroke:#b0b0b0;stroke-linecap:square;stroke-opacity:0.3;stroke-width:0.8;"/>
     </g>
     <g id="line2d_16">
      <g>
       <use style="stroke:#000000;stroke-width:0.8;" x="47.045313" xlink:href="#mc49055a8b9" y="130.039481"/>
      </g>
     </g>
     <g id="text_9">
      <!-- 0.05 -->
      <g transform="translate(20.584375 133.618387)scale(0.1 -0.1)">
       <use xlink:href="#ArialMT-48"/>
       <use x="55.615234" xlink:href="#ArialMT-46"/>
       <use x="83.398438" xlink:href="#ArialMT-48"/>
       <use x="139.013672" xlink:href="#ArialMT-53"/>
      </g>
     </g>
    </g>
    <g id="ytick_3">
     <g id="line2d_17">
      <path clip-path="url(#pcc4dca23c5)" d="M 47.045313 97.211688 
L 270.245313 97.211688 
" style="fill:none;stroke:#b0b0b0;stroke-linecap:square;stroke-opacity:0.3;stroke-width:0.8;"/>
     </g>
     <g id="line2d_18">
      <g>
       <use style="stroke:#000000;stroke-width:0.8;" x="47.045313" xlink:href="#mc49055a8b9" y="97.211688"/>
      </g>
     </g>
     <g id="text_10">
      <!-- 0.10 -->
      <g transform="translate(20.584375 100.790595)scale(0.1 -0.1)">
       <use xlink:href="#ArialMT-48"/>
       <use x="55.615234" xlink:href="#ArialMT-46"/>
       <use x="83.398438" xlink:href="#ArialMT-49"/>
       <use x="139.013672" xlink:href="#ArialMT-48"/>
      </g>
     </g>
    </g>
    <g id="ytick_4">
     <g id="line2d_19">
      <path clip-path="url(#pcc4dca23c5)" d="M 47.045313 64.383896 
L 270.245313 64.383896 
" style="fill:none;stroke:#b0b0b0;stroke-linecap:square;stroke-opacity:0.3;stroke-width:0.8;"/>
     </g>
     <g id="line2d_20">
      <g>
       <use style="stroke:#000000;stroke-width:0.8;" x="47.045313" xlink:href="#mc49055a8b9" y="64.383896"/>
      </g>
     </g>
     <g id="text_11">
      <!-- 0.15 -->
      <g transform="translate(20.584375 67.962802)scale(0.1 -0.1)">
       <use xlink:href="#ArialMT-48"/>
       <use x="55.615234" xlink:href="#ArialMT-46"/>
       <use x="83.398438" xlink:href="#ArialMT-49"/>
       <use x="139.013672" xlink:href="#ArialMT-53"/>
      </g>
     </g>
    </g>
    <g id="ytick_5">
     <g id="line2d_21">
      <path clip-path="url(#pcc4dca23c5)" d="M 47.045313 31.556104 
L 270.245313 31.556104 
" style="fill:none;stroke:#b0b0b0;stroke-linecap:square;stroke-opacity:0.3;stroke-width:0.8;"/>
     </g>
     <g id="line2d_22">
      <g>
       <use style="stroke:#000000;stroke-width:0.8;" x="47.045313" xlink:href="#mc49055a8b9" y="31.556104"/>
      </g>
     </g>
     <g id="text_12">
      <!-- 0.20 -->
      <g transform="translate(20.584375 35.13501)scale(0.1 -0.1)">
       <use xlink:href="#ArialMT-48"/>
       <use x="55.615234" xlink:href="#ArialMT-46"/>
       <use x="83.398438" xlink:href="#ArialMT-50"/>
       <use x="139.013672" xlink:href="#ArialMT-48"/>
      </g>
     </g>
    </g>
    <g id="text_13">
     <!-- Current (uA) -->
     <defs>
      <path d="M 58.796875 25.09375 
L 68.265625 22.703125 
Q 65.28125 11.03125 57.546875 4.90625 
Q 49.8125 -1.21875 38.625 -1.21875 
Q 27.046875 -1.21875 19.796875 3.484375 
Q 12.546875 8.203125 8.765625 17.140625 
Q 4.984375 26.078125 4.984375 36.328125 
Q 4.984375 47.515625 9.25 55.828125 
Q 13.53125 64.15625 21.40625 68.46875 
Q 29.296875 72.796875 38.765625 72.796875 
Q 49.515625 72.796875 56.828125 67.328125 
Q 64.15625 61.859375 67.046875 51.953125 
L 57.71875 49.75 
Q 55.21875 57.5625 50.484375 61.125 
Q 45.75 64.703125 38.578125 64.703125 
Q 30.328125 64.703125 24.78125 60.734375 
Q 19.234375 56.78125 16.984375 50.109375 
Q 14.75 43.453125 14.75 36.375 
Q 14.75 27.25 17.40625 20.4375 
Q 20.0625 13.625 25.671875 10.25 
Q 31.296875 6.890625 37.84375 6.890625 
Q 45.796875 6.890625 51.3125 11.46875 
Q 56.84375 16.0625 58.796875 25.09375 
z
" id="ArialMT-67"/>
      <path d="M 40.578125 0 
L 40.578125 7.625 
Q 34.515625 -1.171875 24.125 -1.171875 
Q 19.53125 -1.171875 15.546875 0.578125 
Q 11.578125 2.34375 9.640625 5 
Q 7.71875 7.671875 6.9375 11.53125 
Q 6.390625 14.109375 6.390625 19.734375 
L 6.390625 51.859375 
L 15.1875 51.859375 
L 15.1875 23.09375 
Q 15.1875 16.21875 15.71875 13.8125 
Q 16.546875 10.359375 19.234375 8.375 
Q 21.921875 6.390625 25.875 6.390625 
Q 29.828125 6.390625 33.296875 8.421875 
Q 36.765625 10.453125 38.203125 13.9375 
Q 39.65625 17.4375 39.65625 24.078125 
L 39.65625 51.859375 
L 48.4375 51.859375 
L 48.4375 0 
z
" id="ArialMT-117"/>
      <path d="M 6.5 0 
L 6.5 51.859375 
L 14.40625 51.859375 
L 14.40625 44 
Q 17.4375 49.515625 20 51.265625 
Q 22.5625 53.03125 25.640625 53.03125 
Q 30.078125 53.03125 34.671875 50.203125 
L 31.640625 42.046875 
Q 28.421875 43.953125 25.203125 43.953125 
Q 22.3125 43.953125 20.015625 42.21875 
Q 17.71875 40.484375 16.75 37.40625 
Q 15.28125 32.71875 15.28125 27.15625 
L 15.28125 0 
z
" id="ArialMT-114"/>
      <path d="M 6.59375 0 
L 6.59375 51.859375 
L 14.5 51.859375 
L 14.5 44.484375 
Q 20.21875 53.03125 31 53.03125 
Q 35.6875 53.03125 39.625 51.34375 
Q 43.5625 49.65625 45.515625 46.921875 
Q 47.46875 44.1875 48.25 40.4375 
Q 48.734375 37.984375 48.734375 31.890625 
L 48.734375 0 
L 39.9375 0 
L 39.9375 31.546875 
Q 39.9375 36.921875 38.90625 39.578125 
Q 37.890625 42.234375 35.28125 43.8125 
Q 32.671875 45.40625 29.15625 45.40625 
Q 23.53125 45.40625 19.453125 41.84375 
Q 15.375 38.28125 15.375 28.328125 
L 15.375 0 
z
" id="ArialMT-110"/>
      <path d="M 25.78125 7.859375 
L 27.046875 0.09375 
Q 23.34375 -0.6875 20.40625 -0.6875 
Q 15.625 -0.6875 12.984375 0.828125 
Q 10.359375 2.34375 9.28125 4.8125 
Q 8.203125 7.28125 8.203125 15.1875 
L 8.203125 45.015625 
L 1.765625 45.015625 
L 1.765625 51.859375 
L 8.203125 51.859375 
L 8.203125 64.703125 
L 16.9375 69.96875 
L 16.9375 51.859375 
L 25.78125 51.859375 
L 25.78125 45.015625 
L 16.9375 45.015625 
L 16.9375 14.703125 
Q 16.9375 10.9375 17.40625 9.859375 
Q 17.875 8.796875 18.921875 8.15625 
Q 19.96875 7.515625 21.921875 7.515625 
Q 23.390625 7.515625 25.78125 7.859375 
z
" id="ArialMT-116"/>
      <path d="M -0.140625 0 
L 27.34375 71.578125 
L 37.546875 71.578125 
L 66.84375 0 
L 56.0625 0 
L 47.703125 21.6875 
L 17.78125 21.6875 
L 9.90625 0 
z
M 20.515625 29.390625 
L 44.78125 29.390625 
L 37.3125 49.21875 
Q 33.890625 58.25 32.234375 64.0625 
Q 30.859375 57.171875 28.375 50.390625 
z
" id="ArialMT-65"/>
     </defs>
     <g transform="translate(14.479687 116.245469)rotate(-90)scale(0.1 -0.1)">
      <use xlink:href="#ArialMT-67"/>
      <use x="72.216797" xlink:href="#ArialMT-117"/>
      <use x="127.832031" xlink:href="#ArialMT-114"/>
      <use x="161.132812" xlink:href="#ArialMT-114"/>
      <use x="194.433594" xlink:href="#ArialMT-101"/>
      <use x="250.048828" xlink:href="#ArialMT-110"/>
      <use x="305.664062" xlink:href="#ArialMT-116"/>
      <use x="333.447266" xlink:href="#ArialMT-32"/>
      <use x="361.230469" xlink:href="#ArialMT-40"/>
      <use x="394.53125" xlink:href="#ArialMT-117"/>
      <use x="450.146484" xlink:href="#ArialMT-65"/>
      <use x="516.845703" xlink:href="#ArialMT-41"/>
     </g>
    </g>
   </g>
   <g id="line2d_23">
    <path clip-path="url(#pcc4dca23c5)" d="M 57.190767 162.867273 
L 98.731211 162.867273 
L 99.530066 158.374711 
L 100.32892 126.926777 
L 101.127775 153.882149 
L 101.92663 90.986281 
L 102.725484 144.897025 
L 103.524339 126.926777 
L 104.323194 126.926777 
L 105.122048 90.986281 
L 106.719758 90.986281 
L 107.518612 126.926777 
L 108.317467 90.986281 
L 109.116322 73.016033 
L 109.915176 82.001157 
L 110.714031 88.74 
L 111.512886 90.986281 
L 113.90945 90.986281 
L 114.708305 86.493719 
L 115.507159 90.986281 
L 118.702578 90.986281 
L 119.501433 86.493719 
L 120.300287 90.986281 
L 121.099142 82.001157 
L 121.897997 90.986281 
L 122.696852 73.016033 
L 123.495706 73.016033 
L 124.294561 90.986281 
L 125.093416 82.001157 
L 125.89227 82.001157 
L 126.691125 90.986281 
L 128.288834 55.045785 
L 129.087689 73.016033 
L 129.886544 73.016033 
L 130.685398 55.045785 
L 131.484253 73.016033 
L 133.081962 73.016033 
L 133.880817 55.045785 
L 134.679672 55.045785 
L 135.478527 88.74 
L 136.277381 55.045785 
L 137.076236 73.016033 
L 137.875091 73.016033 
L 138.673945 19.105289 
L 139.4728 55.045785 
L 140.271655 73.016033 
L 141.070509 19.105289 
L 141.869364 55.045785 
L 142.668219 73.016033 
L 143.467073 55.045785 
L 144.265928 19.105289 
L 145.064783 86.493719 
L 145.863637 73.016033 
L 147.461347 73.016033 
L 148.260202 55.045785 
L 149.059056 19.105289 
L 149.857911 73.016033 
L 150.656766 73.016033 
L 151.45562 88.74 
L 152.254475 73.016033 
L 153.05333 55.045785 
L 153.852184 82.001157 
L 154.651039 55.045785 
L 155.449894 73.016033 
L 157.047603 73.016033 
L 157.846458 19.105289 
L 158.645313 73.016033 
L 159.444167 82.001157 
L 160.243022 55.045785 
L 161.840731 88.74 
L 162.639586 55.045785 
L 163.438441 90.986281 
L 164.237295 73.016033 
L 165.03615 19.105289 
L 165.835005 73.016033 
L 166.633859 90.986281 
L 167.432714 73.016033 
L 168.231569 82.001157 
L 169.030423 82.001157 
L 169.829278 55.045785 
L 170.628133 73.016033 
L 172.225842 73.016033 
L 173.024697 82.001157 
L 173.823552 73.016033 
L 174.622406 55.045785 
L 175.421261 19.105289 
L 176.220116 73.016033 
L 177.01897 82.001157 
L 178.61668 82.001157 
L 179.415534 73.016033 
L 180.214389 55.045785 
L 181.013244 73.016033 
L 181.812098 55.045785 
L 182.610953 73.016033 
L 183.409808 73.016033 
L 184.208663 86.493719 
L 185.007517 73.016033 
L 185.806372 73.016033 
L 186.605227 82.001157 
L 187.404081 73.016033 
L 188.202936 55.045785 
L 189.001791 73.016033 
L 189.800645 82.001157 
L 190.5995 55.045785 
L 191.398355 73.016033 
L 192.197209 82.001157 
L 192.996064 73.016033 
L 193.794919 82.001157 
L 194.593773 73.016033 
L 195.392628 55.045785 
L 196.191483 19.105289 
L 196.990338 73.016033 
L 197.789192 73.016033 
L 198.588047 90.986281 
L 200.185756 55.045785 
L 201.783466 55.045785 
L 202.58232 82.001157 
L 203.381175 55.045785 
L 204.18003 19.105289 
L 204.978884 73.016033 
L 206.576594 73.016033 
L 207.375449 90.986281 
L 208.174303 55.045785 
L 208.973158 73.016033 
L 209.772013 55.045785 
L 210.570867 73.016033 
L 211.369722 82.001157 
L 212.168577 73.016033 
L 213.766286 90.986281 
L 214.565141 82.001157 
L 215.363995 55.045785 
L 216.16285 73.016033 
L 216.961705 19.105289 
L 217.760559 19.105289 
L 218.559414 73.016033 
L 219.358269 55.045785 
L 220.157124 73.016033 
L 220.955978 55.045785 
L 222.553688 90.986281 
L 223.352542 73.016033 
L 226.547961 73.016033 
L 227.346816 90.986281 
L 228.944525 55.045785 
L 230.542234 90.986281 
L 231.341089 55.045785 
L 232.139944 73.016033 
L 232.938799 73.016033 
L 233.737653 55.045785 
L 234.536508 73.016033 
L 236.933072 73.016033 
L 237.731927 55.045785 
L 239.329636 55.045785 
L 240.128491 73.016033 
L 242.525055 73.016033 
L 243.323909 19.105289 
L 244.122764 55.045785 
L 245.720474 90.986281 
L 246.519328 14.612727 
L 247.318183 73.016033 
L 248.915892 73.016033 
L 249.714747 55.045785 
L 250.513602 19.105289 
L 251.312456 73.016033 
L 255.30673 73.016033 
L 256.105585 88.74 
L 256.904439 82.001157 
L 257.703294 55.045785 
L 258.502149 73.016033 
L 260.099858 73.016033 
L 260.099858 73.016033 
" style="fill:none;stroke:#1f77b4;stroke-linecap:square;stroke-width:1.5;"/>
    <defs>
     <path d="M 0 1.5 
C 0.397805 1.5 0.77937 1.341951 1.06066 1.06066 
C 1.341951 0.77937 1.5 0.397805 1.5 0 
C 1.5 -0.397805 1.341951 -0.77937 1.06066 -1.06066 
C 0.77937 -1.341951 0.397805 -1.5 0 -1.5 
C -0.397805 -1.5 -0.77937 -1.341951 -1.06066 -1.06066 
C -1.341951 -0.77937 -1.5 -0.397805 -1.5 0 
C -1.5 0.397805 -1.341951 0.77937 -1.06066 1.06066 
C -0.77937 1.341951 -0.397805 1.5 0 1.5 
z
" id="m82c3e1f160" style="stroke:#1f77b4;"/>
    </defs>
    <g clip-path="url(#pcc4dca23c5)">
     <use style="fill:#1f77b4;stroke:#1f77b4;" x="57.190767" xlink:href="#m82c3e1f160" y="162.867273"/>
     <use style="fill:#1f77b4;stroke:#1f77b4;" x="57.989622" xlink:href="#m82c3e1f160" y="162.867273"/>
     <use style="fill:#1f77b4;stroke:#1f77b4;" x="58.788476" xlink:href="#m82c3e1f160" y="162.867273"/>
     <use style="fill:#1f77b4;stroke:#1f77b4;" x="59.587331" xlink:href="#m82c3e1f160" y="162.867273"/>
     <use style="fill:#1f77b4;stroke:#1f77b4;" x="60.386186" xlink:href="#m82c3e1f160" y="162.867273"/>
     <use style="fill:#1f77b4;stroke:#1f77b4;" x="61.18504" xlink:href="#m82c3e1f160" y="162.867273"/>
     <use style="fill:#1f77b4;stroke:#1f77b4;" x="61.983895" xlink:href="#m82c3e1f160" y="162.867273"/>
     <use style="fill:#1f77b4;stroke:#1f77b4;" x="62.78275" xlink:href="#m82c3e1f160" y="162.867273"/>
     <use style="fill:#1f77b4;stroke:#1f77b4;" x="63.581605" xlink:href="#m82c3e1f160" y="162.867273"/>
     <use style="fill:#1f77b4;stroke:#1f77b4;" x="64.380459" xlink:href="#m82c3e1f160" y="162.867273"/>
     <use style="fill:#1f77b4;stroke:#1f77b4;" x="65.179314" xlink:href="#m82c3e1f160" y="162.867273"/>
     <use style="fill:#1f77b4;stroke:#1f77b4;" x="65.978169" xlink:href="#m82c3e1f160" y="162.867273"/>
     <use style="fill:#1f77b4;stroke:#1f77b4;" x="66.777023" xlink:href="#m82c3e1f160" y="162.867273"/>
     <use style="fill:#1f77b4;stroke:#1f77b4;" x="67.575878" xlink:href="#m82c3e1f160" y="162.867273"/>
     <use style="fill:#1f77b4;stroke:#1f77b4;" x="68.374733" xlink:href="#m82c3e1f160" y="162.867273"/>
     <use style="fill:#1f77b4;stroke:#1f77b4;" x="69.173587" xlink:href="#m82c3e1f160" y="162.867273"/>
     <use style="fill:#1f77b4;stroke:#1f77b4;" x="69.972442" xlink:href="#m82c3e1f160" y="162.867273"/>
     <use style="fill:#1f77b4;stroke:#1f77b4;" x="70.771297" xlink:href="#m82c3e1f160" y="162.867273"/>
     <use style="fill:#1f77b4;stroke:#1f77b4;" x="71.570151" xlink:href="#m82c3e1f160" y="162.867273"/>
     <use style="fill:#1f77b4;stroke:#1f77b4;" x="72.369006" xlink:href="#m82c3e1f160" y="162.867273"/>
     <use style="fill:#1f77b4;stroke:#1f77b4;" x="73.167861" xlink:href="#m82c3e1f160" y="162.867273"/>
     <use style="fill:#1f77b4;stroke:#1f77b4;" x="73.966716" xlink:href="#m82c3e1f160" y="162.867273"/>
     <use style="fill:#1f77b4;stroke:#1f77b4;" x="74.76557" xlink:href="#m82c3e1f160" y="162.867273"/>
     <use style="fill:#1f77b4;stroke:#1f77b4;" x="75.564425" xlink:href="#m82c3e1f160" y="162.867273"/>
     <use style="fill:#1f77b4;stroke:#1f77b4;" x="76.36328" xlink:href="#m82c3e1f160" y="162.867273"/>
     <use style="fill:#1f77b4;stroke:#1f77b4;" x="77.162134" xlink:href="#m82c3e1f160" y="162.867273"/>
     <use style="fill:#1f77b4;stroke:#1f77b4;" x="77.960989" xlink:href="#m82c3e1f160" y="162.867273"/>
     <use style="fill:#1f77b4;stroke:#1f77b4;" x="78.759844" xlink:href="#m82c3e1f160" y="162.867273"/>
     <use style="fill:#1f77b4;stroke:#1f77b4;" x="79.558698" xlink:href="#m82c3e1f160" y="162.867273"/>
     <use style="fill:#1f77b4;stroke:#1f77b4;" x="80.357553" xlink:href="#m82c3e1f160" y="162.867273"/>
     <use style="fill:#1f77b4;stroke:#1f77b4;" x="81.156408" xlink:href="#m82c3e1f160" y="162.867273"/>
     <use style="fill:#1f77b4;stroke:#1f77b4;" x="81.955262" xlink:href="#m82c3e1f160" y="162.867273"/>
     <use style="fill:#1f77b4;stroke:#1f77b4;" x="82.754117" xlink:href="#m82c3e1f160" y="162.867273"/>
     <use style="fill:#1f77b4;stroke:#1f77b4;" x="83.552972" xlink:href="#m82c3e1f160" y="162.867273"/>
     <use style="fill:#1f77b4;stroke:#1f77b4;" x="84.351826" xlink:href="#m82c3e1f160" y="162.867273"/>
     <use style="fill:#1f77b4;stroke:#1f77b4;" x="85.150681" xlink:href="#m82c3e1f160" y="162.867273"/>
     <use style="fill:#1f77b4;stroke:#1f77b4;" x="85.949536" xlink:href="#m82c3e1f160" y="162.867273"/>
     <use style="fill:#1f77b4;stroke:#1f77b4;" x="86.748391" xlink:href="#m82c3e1f160" y="162.867273"/>
     <use style="fill:#1f77b4;stroke:#1f77b4;" x="87.547245" xlink:href="#m82c3e1f160" y="162.867273"/>
     <use style="fill:#1f77b4;stroke:#1f77b4;" x="88.3461" xlink:href="#m82c3e1f160" y="162.867273"/>
     <use style="fill:#1f77b4;stroke:#1f77b4;" x="89.144955" xlink:href="#m82c3e1f160" y="162.867273"/>
     <use style="fill:#1f77b4;stroke:#1f77b4;" x="89.943809" xlink:href="#m82c3e1f160" y="162.867273"/>
     <use style="fill:#1f77b4;stroke:#1f77b4;" x="90.742664" xlink:href="#m82c3e1f160" y="162.867273"/>
     <use style="fill:#1f77b4;stroke:#1f77b4;" x="91.541519" xlink:href="#m82c3e1f160" y="162.867273"/>
     <use style="fill:#1f77b4;stroke:#1f77b4;" x="92.340373" xlink:href="#m82c3e1f160" y="162.867273"/>
     <use style="fill:#1f77b4;stroke:#1f77b4;" x="93.139228" xlink:href="#m82c3e1f160" y="162.867273"/>
     <use style="fill:#1f77b4;stroke:#1f77b4;" x="93.938083" xlink:href="#m82c3e1f160" y="162.867273"/>
     <use style="fill:#1f77b4;stroke:#1f77b4;" x="94.736937" xlink:href="#m82c3e1f160" y="162.867273"/>
     <use style="fill:#1f77b4;stroke:#1f77b4;" x="95.535792" xlink:href="#m82c3e1f160" y="162.867273"/>
     <use style="fill:#1f77b4;stroke:#1f77b4;" x="96.334647" xlink:href="#m82c3e1f160" y="162.867273"/>
     <use style="fill:#1f77b4;stroke:#1f77b4;" x="97.133501" xlink:href="#m82c3e1f160" y="162.867273"/>
     <use style="fill:#1f77b4;stroke:#1f77b4;" x="97.932356" xlink:href="#m82c3e1f160" y="162.867273"/>
     <use style="fill:#1f77b4;stroke:#1f77b4;" x="98.731211" xlink:href="#m82c3e1f160" y="162.867273"/>
     <use style="fill:#1f77b4;stroke:#1f77b4;" x="99.530066" xlink:href="#m82c3e1f160" y="158.374711"/>
     <use style="fill:#1f77b4;stroke:#1f77b4;" x="100.32892" xlink:href="#m82c3e1f160" y="126.926777"/>
     <use style="fill:#1f77b4;stroke:#1f77b4;" x="101.127775" xlink:href="#m82c3e1f160" y="153.882149"/>
     <use style="fill:#1f77b4;stroke:#1f77b4;" x="101.92663" xlink:href="#m82c3e1f160" y="90.986281"/>
     <use style="fill:#1f77b4;stroke:#1f77b4;" x="102.725484" xlink:href="#m82c3e1f160" y="144.897025"/>
     <use style="fill:#1f77b4;stroke:#1f77b4;" x="103.524339" xlink:href="#m82c3e1f160" y="126.926777"/>
     <use style="fill:#1f77b4;stroke:#1f77b4;" x="104.323194" xlink:href="#m82c3e1f160" y="126.926777"/>
     <use style="fill:#1f77b4;stroke:#1f77b4;" x="105.122048" xlink:href="#m82c3e1f160" y="90.986281"/>
     <use style="fill:#1f77b4;stroke:#1f77b4;" x="105.920903" xlink:href="#m82c3e1f160" y="90.986281"/>
     <use style="fill:#1f77b4;stroke:#1f77b4;" x="106.719758" xlink:href="#m82c3e1f160" y="90.986281"/>
     <use style="fill:#1f77b4;stroke:#1f77b4;" x="107.518612" xlink:href="#m82c3e1f160" y="126.926777"/>
     <use style="fill:#1f77b4;stroke:#1f77b4;" x="108.317467" xlink:href="#m82c3e1f160" y="90.986281"/>
     <use style="fill:#1f77b4;stroke:#1f77b4;" x="109.116322" xlink:href="#m82c3e1f160" y="73.016033"/>
     <use style="fill:#1f77b4;stroke:#1f77b4;" x="109.915176" xlink:href="#m82c3e1f160" y="82.001157"/>
     <use style="fill:#1f77b4;stroke:#1f77b4;" x="110.714031" xlink:href="#m82c3e1f160" y="88.74"/>
     <use style="fill:#1f77b4;stroke:#1f77b4;" x="111.512886" xlink:href="#m82c3e1f160" y="90.986281"/>
     <use style="fill:#1f77b4;stroke:#1f77b4;" x="112.311741" xlink:href="#m82c3e1f160" y="90.986281"/>
     <use style="fill:#1f77b4;stroke:#1f77b4;" x="113.110595" xlink:href="#m82c3e1f160" y="90.986281"/>
     <use style="fill:#1f77b4;stroke:#1f77b4;" x="113.90945" xlink:href="#m82c3e1f160" y="90.986281"/>
     <use style="fill:#1f77b4;stroke:#1f77b4;" x="114.708305" xlink:href="#m82c3e1f160" y="86.493719"/>
     <use style="fill:#1f77b4;stroke:#1f77b4;" x="115.507159" xlink:href="#m82c3e1f160" y="90.986281"/>
     <use style="fill:#1f77b4;stroke:#1f77b4;" x="116.306014" xlink:href="#m82c3e1f160" y="90.986281"/>
     <use style="fill:#1f77b4;stroke:#1f77b4;" x="117.104869" xlink:href="#m82c3e1f160" y="90.986281"/>
     <use style="fill:#1f77b4;stroke:#1f77b4;" x="117.903723" xlink:href="#m82c3e1f160" y="90.986281"/>
     <use style="fill:#1f77b4;stroke:#1f77b4;" x="118.702578" xlink:href="#m82c3e1f160" y="90.986281"/>
     <use style="fill:#1f77b4;stroke:#1f77b4;" x="119.501433" xlink:href="#m82c3e1f160" y="86.493719"/>
     <use style="fill:#1f77b4;stroke:#1f77b4;" x="120.300287" xlink:href="#m82c3e1f160" y="90.986281"/>
     <use style="fill:#1f77b4;stroke:#1f77b4;" x="121.099142" xlink:href="#m82c3e1f160" y="82.001157"/>
     <use style="fill:#1f77b4;stroke:#1f77b4;" x="121.897997" xlink:href="#m82c3e1f160" y="90.986281"/>
     <use style="fill:#1f77b4;stroke:#1f77b4;" x="122.696852" xlink:href="#m82c3e1f160" y="73.016033"/>
     <use style="fill:#1f77b4;stroke:#1f77b4;" x="123.495706" xlink:href="#m82c3e1f160" y="73.016033"/>
     <use style="fill:#1f77b4;stroke:#1f77b4;" x="124.294561" xlink:href="#m82c3e1f160" y="90.986281"/>
     <use style="fill:#1f77b4;stroke:#1f77b4;" x="125.093416" xlink:href="#m82c3e1f160" y="82.001157"/>
     <use style="fill:#1f77b4;stroke:#1f77b4;" x="125.89227" xlink:href="#m82c3e1f160" y="82.001157"/>
     <use style="fill:#1f77b4;stroke:#1f77b4;" x="126.691125" xlink:href="#m82c3e1f160" y="90.986281"/>
     <use style="fill:#1f77b4;stroke:#1f77b4;" x="127.48998" xlink:href="#m82c3e1f160" y="73.016033"/>
     <use style="fill:#1f77b4;stroke:#1f77b4;" x="128.288834" xlink:href="#m82c3e1f160" y="55.045785"/>
     <use style="fill:#1f77b4;stroke:#1f77b4;" x="129.087689" xlink:href="#m82c3e1f160" y="73.016033"/>
     <use style="fill:#1f77b4;stroke:#1f77b4;" x="129.886544" xlink:href="#m82c3e1f160" y="73.016033"/>
     <use style="fill:#1f77b4;stroke:#1f77b4;" x="130.685398" xlink:href="#m82c3e1f160" y="55.045785"/>
     <use style="fill:#1f77b4;stroke:#1f77b4;" x="131.484253" xlink:href="#m82c3e1f160" y="73.016033"/>
     <use style="fill:#1f77b4;stroke:#1f77b4;" x="132.283108" xlink:href="#m82c3e1f160" y="73.016033"/>
     <use style="fill:#1f77b4;stroke:#1f77b4;" x="133.081962" xlink:href="#m82c3e1f160" y="73.016033"/>
     <use style="fill:#1f77b4;stroke:#1f77b4;" x="133.880817" xlink:href="#m82c3e1f160" y="55.045785"/>
     <use style="fill:#1f77b4;stroke:#1f77b4;" x="134.679672" xlink:href="#m82c3e1f160" y="55.045785"/>
     <use style="fill:#1f77b4;stroke:#1f77b4;" x="135.478527" xlink:href="#m82c3e1f160" y="88.74"/>
     <use style="fill:#1f77b4;stroke:#1f77b4;" x="136.277381" xlink:href="#m82c3e1f160" y="55.045785"/>
     <use style="fill:#1f77b4;stroke:#1f77b4;" x="137.076236" xlink:href="#m82c3e1f160" y="73.016033"/>
     <use style="fill:#1f77b4;stroke:#1f77b4;" x="137.875091" xlink:href="#m82c3e1f160" y="73.016033"/>
     <use style="fill:#1f77b4;stroke:#1f77b4;" x="138.673945" xlink:href="#m82c3e1f160" y="19.105289"/>
     <use style="fill:#1f77b4;stroke:#1f77b4;" x="139.4728" xlink:href="#m82c3e1f160" y="55.045785"/>
     <use style="fill:#1f77b4;stroke:#1f77b4;" x="140.271655" xlink:href="#m82c3e1f160" y="73.016033"/>
     <use style="fill:#1f77b4;stroke:#1f77b4;" x="141.070509" xlink:href="#m82c3e1f160" y="19.105289"/>
     <use style="fill:#1f77b4;stroke:#1f77b4;" x="141.869364" xlink:href="#m82c3e1f160" y="55.045785"/>
     <use style="fill:#1f77b4;stroke:#1f77b4;" x="142.668219" xlink:href="#m82c3e1f160" y="73.016033"/>
     <use style="fill:#1f77b4;stroke:#1f77b4;" x="143.467073" xlink:href="#m82c3e1f160" y="55.045785"/>
     <use style="fill:#1f77b4;stroke:#1f77b4;" x="144.265928" xlink:href="#m82c3e1f160" y="19.105289"/>
     <use style="fill:#1f77b4;stroke:#1f77b4;" x="145.064783" xlink:href="#m82c3e1f160" y="86.493719"/>
     <use style="fill:#1f77b4;stroke:#1f77b4;" x="145.863637" xlink:href="#m82c3e1f160" y="73.016033"/>
     <use style="fill:#1f77b4;stroke:#1f77b4;" x="146.662492" xlink:href="#m82c3e1f160" y="73.016033"/>
     <use style="fill:#1f77b4;stroke:#1f77b4;" x="147.461347" xlink:href="#m82c3e1f160" y="73.016033"/>
     <use style="fill:#1f77b4;stroke:#1f77b4;" x="148.260202" xlink:href="#m82c3e1f160" y="55.045785"/>
     <use style="fill:#1f77b4;stroke:#1f77b4;" x="149.059056" xlink:href="#m82c3e1f160" y="19.105289"/>
     <use style="fill:#1f77b4;stroke:#1f77b4;" x="149.857911" xlink:href="#m82c3e1f160" y="73.016033"/>
     <use style="fill:#1f77b4;stroke:#1f77b4;" x="150.656766" xlink:href="#m82c3e1f160" y="73.016033"/>
     <use style="fill:#1f77b4;stroke:#1f77b4;" x="151.45562" xlink:href="#m82c3e1f160" y="88.74"/>
     <use style="fill:#1f77b4;stroke:#1f77b4;" x="152.254475" xlink:href="#m82c3e1f160" y="73.016033"/>
     <use style="fill:#1f77b4;stroke:#1f77b4;" x="153.05333" xlink:href="#m82c3e1f160" y="55.045785"/>
     <use style="fill:#1f77b4;stroke:#1f77b4;" x="153.852184" xlink:href="#m82c3e1f160" y="82.001157"/>
     <use style="fill:#1f77b4;stroke:#1f77b4;" x="154.651039" xlink:href="#m82c3e1f160" y="55.045785"/>
     <use style="fill:#1f77b4;stroke:#1f77b4;" x="155.449894" xlink:href="#m82c3e1f160" y="73.016033"/>
     <use style="fill:#1f77b4;stroke:#1f77b4;" x="156.248748" xlink:href="#m82c3e1f160" y="73.016033"/>
     <use style="fill:#1f77b4;stroke:#1f77b4;" x="157.047603" xlink:href="#m82c3e1f160" y="73.016033"/>
     <use style="fill:#1f77b4;stroke:#1f77b4;" x="157.846458" xlink:href="#m82c3e1f160" y="19.105289"/>
     <use style="fill:#1f77b4;stroke:#1f77b4;" x="158.645313" xlink:href="#m82c3e1f160" y="73.016033"/>
     <use style="fill:#1f77b4;stroke:#1f77b4;" x="159.444167" xlink:href="#m82c3e1f160" y="82.001157"/>
     <use style="fill:#1f77b4;stroke:#1f77b4;" x="160.243022" xlink:href="#m82c3e1f160" y="55.045785"/>
     <use style="fill:#1f77b4;stroke:#1f77b4;" x="161.041877" xlink:href="#m82c3e1f160" y="73.016033"/>
     <use style="fill:#1f77b4;stroke:#1f77b4;" x="161.840731" xlink:href="#m82c3e1f160" y="88.74"/>
     <use style="fill:#1f77b4;stroke:#1f77b4;" x="162.639586" xlink:href="#m82c3e1f160" y="55.045785"/>
     <use style="fill:#1f77b4;stroke:#1f77b4;" x="163.438441" xlink:href="#m82c3e1f160" y="90.986281"/>
     <use style="fill:#1f77b4;stroke:#1f77b4;" x="164.237295" xlink:href="#m82c3e1f160" y="73.016033"/>
     <use style="fill:#1f77b4;stroke:#1f77b4;" x="165.03615" xlink:href="#m82c3e1f160" y="19.105289"/>
     <use style="fill:#1f77b4;stroke:#1f77b4;" x="165.835005" xlink:href="#m82c3e1f160" y="73.016033"/>
     <use style="fill:#1f77b4;stroke:#1f77b4;" x="166.633859" xlink:href="#m82c3e1f160" y="90.986281"/>
     <use style="fill:#1f77b4;stroke:#1f77b4;" x="167.432714" xlink:href="#m82c3e1f160" y="73.016033"/>
     <use style="fill:#1f77b4;stroke:#1f77b4;" x="168.231569" xlink:href="#m82c3e1f160" y="82.001157"/>
     <use style="fill:#1f77b4;stroke:#1f77b4;" x="169.030423" xlink:href="#m82c3e1f160" y="82.001157"/>
     <use style="fill:#1f77b4;stroke:#1f77b4;" x="169.829278" xlink:href="#m82c3e1f160" y="55.045785"/>
     <use style="fill:#1f77b4;stroke:#1f77b4;" x="170.628133" xlink:href="#m82c3e1f160" y="73.016033"/>
     <use style="fill:#1f77b4;stroke:#1f77b4;" x="171.426988" xlink:href="#m82c3e1f160" y="73.016033"/>
     <use style="fill:#1f77b4;stroke:#1f77b4;" x="172.225842" xlink:href="#m82c3e1f160" y="73.016033"/>
     <use style="fill:#1f77b4;stroke:#1f77b4;" x="173.024697" xlink:href="#m82c3e1f160" y="82.001157"/>
     <use style="fill:#1f77b4;stroke:#1f77b4;" x="173.823552" xlink:href="#m82c3e1f160" y="73.016033"/>
     <use style="fill:#1f77b4;stroke:#1f77b4;" x="174.622406" xlink:href="#m82c3e1f160" y="55.045785"/>
     <use style="fill:#1f77b4;stroke:#1f77b4;" x="175.421261" xlink:href="#m82c3e1f160" y="19.105289"/>
     <use style="fill:#1f77b4;stroke:#1f77b4;" x="176.220116" xlink:href="#m82c3e1f160" y="73.016033"/>
     <use style="fill:#1f77b4;stroke:#1f77b4;" x="177.01897" xlink:href="#m82c3e1f160" y="82.001157"/>
     <use style="fill:#1f77b4;stroke:#1f77b4;" x="177.817825" xlink:href="#m82c3e1f160" y="82.001157"/>
     <use style="fill:#1f77b4;stroke:#1f77b4;" x="178.61668" xlink:href="#m82c3e1f160" y="82.001157"/>
     <use style="fill:#1f77b4;stroke:#1f77b4;" x="179.415534" xlink:href="#m82c3e1f160" y="73.016033"/>
     <use style="fill:#1f77b4;stroke:#1f77b4;" x="180.214389" xlink:href="#m82c3e1f160" y="55.045785"/>
     <use style="fill:#1f77b4;stroke:#1f77b4;" x="181.013244" xlink:href="#m82c3e1f160" y="73.016033"/>
     <use style="fill:#1f77b4;stroke:#1f77b4;" x="181.812098" xlink:href="#m82c3e1f160" y="55.045785"/>
     <use style="fill:#1f77b4;stroke:#1f77b4;" x="182.610953" xlink:href="#m82c3e1f160" y="73.016033"/>
     <use style="fill:#1f77b4;stroke:#1f77b4;" x="183.409808" xlink:href="#m82c3e1f160" y="73.016033"/>
     <use style="fill:#1f77b4;stroke:#1f77b4;" x="184.208663" xlink:href="#m82c3e1f160" y="86.493719"/>
     <use style="fill:#1f77b4;stroke:#1f77b4;" x="185.007517" xlink:href="#m82c3e1f160" y="73.016033"/>
     <use style="fill:#1f77b4;stroke:#1f77b4;" x="185.806372" xlink:href="#m82c3e1f160" y="73.016033"/>
     <use style="fill:#1f77b4;stroke:#1f77b4;" x="186.605227" xlink:href="#m82c3e1f160" y="82.001157"/>
     <use style="fill:#1f77b4;stroke:#1f77b4;" x="187.404081" xlink:href="#m82c3e1f160" y="73.016033"/>
     <use style="fill:#1f77b4;stroke:#1f77b4;" x="188.202936" xlink:href="#m82c3e1f160" y="55.045785"/>
     <use style="fill:#1f77b4;stroke:#1f77b4;" x="189.001791" xlink:href="#m82c3e1f160" y="73.016033"/>
     <use style="fill:#1f77b4;stroke:#1f77b4;" x="189.800645" xlink:href="#m82c3e1f160" y="82.001157"/>
     <use style="fill:#1f77b4;stroke:#1f77b4;" x="190.5995" xlink:href="#m82c3e1f160" y="55.045785"/>
     <use style="fill:#1f77b4;stroke:#1f77b4;" x="191.398355" xlink:href="#m82c3e1f160" y="73.016033"/>
     <use style="fill:#1f77b4;stroke:#1f77b4;" x="192.197209" xlink:href="#m82c3e1f160" y="82.001157"/>
     <use style="fill:#1f77b4;stroke:#1f77b4;" x="192.996064" xlink:href="#m82c3e1f160" y="73.016033"/>
     <use style="fill:#1f77b4;stroke:#1f77b4;" x="193.794919" xlink:href="#m82c3e1f160" y="82.001157"/>
     <use style="fill:#1f77b4;stroke:#1f77b4;" x="194.593773" xlink:href="#m82c3e1f160" y="73.016033"/>
     <use style="fill:#1f77b4;stroke:#1f77b4;" x="195.392628" xlink:href="#m82c3e1f160" y="55.045785"/>
     <use style="fill:#1f77b4;stroke:#1f77b4;" x="196.191483" xlink:href="#m82c3e1f160" y="19.105289"/>
     <use style="fill:#1f77b4;stroke:#1f77b4;" x="196.990338" xlink:href="#m82c3e1f160" y="73.016033"/>
     <use style="fill:#1f77b4;stroke:#1f77b4;" x="197.789192" xlink:href="#m82c3e1f160" y="73.016033"/>
     <use style="fill:#1f77b4;stroke:#1f77b4;" x="198.588047" xlink:href="#m82c3e1f160" y="90.986281"/>
     <use style="fill:#1f77b4;stroke:#1f77b4;" x="199.386902" xlink:href="#m82c3e1f160" y="73.016033"/>
     <use style="fill:#1f77b4;stroke:#1f77b4;" x="200.185756" xlink:href="#m82c3e1f160" y="55.045785"/>
     <use style="fill:#1f77b4;stroke:#1f77b4;" x="200.984611" xlink:href="#m82c3e1f160" y="55.045785"/>
     <use style="fill:#1f77b4;stroke:#1f77b4;" x="201.783466" xlink:href="#m82c3e1f160" y="55.045785"/>
     <use style="fill:#1f77b4;stroke:#1f77b4;" x="202.58232" xlink:href="#m82c3e1f160" y="82.001157"/>
     <use style="fill:#1f77b4;stroke:#1f77b4;" x="203.381175" xlink:href="#m82c3e1f160" y="55.045785"/>
     <use style="fill:#1f77b4;stroke:#1f77b4;" x="204.18003" xlink:href="#m82c3e1f160" y="19.105289"/>
     <use style="fill:#1f77b4;stroke:#1f77b4;" x="204.978884" xlink:href="#m82c3e1f160" y="73.016033"/>
     <use style="fill:#1f77b4;stroke:#1f77b4;" x="205.777739" xlink:href="#m82c3e1f160" y="73.016033"/>
     <use style="fill:#1f77b4;stroke:#1f77b4;" x="206.576594" xlink:href="#m82c3e1f160" y="73.016033"/>
     <use style="fill:#1f77b4;stroke:#1f77b4;" x="207.375449" xlink:href="#m82c3e1f160" y="90.986281"/>
     <use style="fill:#1f77b4;stroke:#1f77b4;" x="208.174303" xlink:href="#m82c3e1f160" y="55.045785"/>
     <use style="fill:#1f77b4;stroke:#1f77b4;" x="208.973158" xlink:href="#m82c3e1f160" y="73.016033"/>
     <use style="fill:#1f77b4;stroke:#1f77b4;" x="209.772013" xlink:href="#m82c3e1f160" y="55.045785"/>
     <use style="fill:#1f77b4;stroke:#1f77b4;" x="210.570867" xlink:href="#m82c3e1f160" y="73.016033"/>
     <use style="fill:#1f77b4;stroke:#1f77b4;" x="211.369722" xlink:href="#m82c3e1f160" y="82.001157"/>
     <use style="fill:#1f77b4;stroke:#1f77b4;" x="212.168577" xlink:href="#m82c3e1f160" y="73.016033"/>
     <use style="fill:#1f77b4;stroke:#1f77b4;" x="212.967431" xlink:href="#m82c3e1f160" y="82.001157"/>
     <use style="fill:#1f77b4;stroke:#1f77b4;" x="213.766286" xlink:href="#m82c3e1f160" y="90.986281"/>
     <use style="fill:#1f77b4;stroke:#1f77b4;" x="214.565141" xlink:href="#m82c3e1f160" y="82.001157"/>
     <use style="fill:#1f77b4;stroke:#1f77b4;" x="215.363995" xlink:href="#m82c3e1f160" y="55.045785"/>
     <use style="fill:#1f77b4;stroke:#1f77b4;" x="216.16285" xlink:href="#m82c3e1f160" y="73.016033"/>
     <use style="fill:#1f77b4;stroke:#1f77b4;" x="216.961705" xlink:href="#m82c3e1f160" y="19.105289"/>
     <use style="fill:#1f77b4;stroke:#1f77b4;" x="217.760559" xlink:href="#m82c3e1f160" y="19.105289"/>
     <use style="fill:#1f77b4;stroke:#1f77b4;" x="218.559414" xlink:href="#m82c3e1f160" y="73.016033"/>
     <use style="fill:#1f77b4;stroke:#1f77b4;" x="219.358269" xlink:href="#m82c3e1f160" y="55.045785"/>
     <use style="fill:#1f77b4;stroke:#1f77b4;" x="220.157124" xlink:href="#m82c3e1f160" y="73.016033"/>
     <use style="fill:#1f77b4;stroke:#1f77b4;" x="220.955978" xlink:href="#m82c3e1f160" y="55.045785"/>
     <use style="fill:#1f77b4;stroke:#1f77b4;" x="221.754833" xlink:href="#m82c3e1f160" y="73.016033"/>
     <use style="fill:#1f77b4;stroke:#1f77b4;" x="222.553688" xlink:href="#m82c3e1f160" y="90.986281"/>
     <use style="fill:#1f77b4;stroke:#1f77b4;" x="223.352542" xlink:href="#m82c3e1f160" y="73.016033"/>
     <use style="fill:#1f77b4;stroke:#1f77b4;" x="224.151397" xlink:href="#m82c3e1f160" y="73.016033"/>
     <use style="fill:#1f77b4;stroke:#1f77b4;" x="224.950252" xlink:href="#m82c3e1f160" y="73.016033"/>
     <use style="fill:#1f77b4;stroke:#1f77b4;" x="225.749106" xlink:href="#m82c3e1f160" y="73.016033"/>
     <use style="fill:#1f77b4;stroke:#1f77b4;" x="226.547961" xlink:href="#m82c3e1f160" y="73.016033"/>
     <use style="fill:#1f77b4;stroke:#1f77b4;" x="227.346816" xlink:href="#m82c3e1f160" y="90.986281"/>
     <use style="fill:#1f77b4;stroke:#1f77b4;" x="228.14567" xlink:href="#m82c3e1f160" y="73.016033"/>
     <use style="fill:#1f77b4;stroke:#1f77b4;" x="228.944525" xlink:href="#m82c3e1f160" y="55.045785"/>
     <use style="fill:#1f77b4;stroke:#1f77b4;" x="229.74338" xlink:href="#m82c3e1f160" y="73.016033"/>
     <use style="fill:#1f77b4;stroke:#1f77b4;" x="230.542234" xlink:href="#m82c3e1f160" y="90.986281"/>
     <use style="fill:#1f77b4;stroke:#1f77b4;" x="231.341089" xlink:href="#m82c3e1f160" y="55.045785"/>
     <use style="fill:#1f77b4;stroke:#1f77b4;" x="232.139944" xlink:href="#m82c3e1f160" y="73.016033"/>
     <use style="fill:#1f77b4;stroke:#1f77b4;" x="232.938799" xlink:href="#m82c3e1f160" y="73.016033"/>
     <use style="fill:#1f77b4;stroke:#1f77b4;" x="233.737653" xlink:href="#m82c3e1f160" y="55.045785"/>
     <use style="fill:#1f77b4;stroke:#1f77b4;" x="234.536508" xlink:href="#m82c3e1f160" y="73.016033"/>
     <use style="fill:#1f77b4;stroke:#1f77b4;" x="235.335363" xlink:href="#m82c3e1f160" y="73.016033"/>
     <use style="fill:#1f77b4;stroke:#1f77b4;" x="236.134217" xlink:href="#m82c3e1f160" y="73.016033"/>
     <use style="fill:#1f77b4;stroke:#1f77b4;" x="236.933072" xlink:href="#m82c3e1f160" y="73.016033"/>
     <use style="fill:#1f77b4;stroke:#1f77b4;" x="237.731927" xlink:href="#m82c3e1f160" y="55.045785"/>
     <use style="fill:#1f77b4;stroke:#1f77b4;" x="238.530781" xlink:href="#m82c3e1f160" y="55.045785"/>
     <use style="fill:#1f77b4;stroke:#1f77b4;" x="239.329636" xlink:href="#m82c3e1f160" y="55.045785"/>
     <use style="fill:#1f77b4;stroke:#1f77b4;" x="240.128491" xlink:href="#m82c3e1f160" y="73.016033"/>
     <use style="fill:#1f77b4;stroke:#1f77b4;" x="240.927345" xlink:href="#m82c3e1f160" y="73.016033"/>
     <use style="fill:#1f77b4;stroke:#1f77b4;" x="241.7262" xlink:href="#m82c3e1f160" y="73.016033"/>
     <use style="fill:#1f77b4;stroke:#1f77b4;" x="242.525055" xlink:href="#m82c3e1f160" y="73.016033"/>
     <use style="fill:#1f77b4;stroke:#1f77b4;" x="243.323909" xlink:href="#m82c3e1f160" y="19.105289"/>
     <use style="fill:#1f77b4;stroke:#1f77b4;" x="244.122764" xlink:href="#m82c3e1f160" y="55.045785"/>
     <use style="fill:#1f77b4;stroke:#1f77b4;" x="244.921619" xlink:href="#m82c3e1f160" y="73.016033"/>
     <use style="fill:#1f77b4;stroke:#1f77b4;" x="245.720474" xlink:href="#m82c3e1f160" y="90.986281"/>
     <use style="fill:#1f77b4;stroke:#1f77b4;" x="246.519328" xlink:href="#m82c3e1f160" y="14.612727"/>
     <use style="fill:#1f77b4;stroke:#1f77b4;" x="247.318183" xlink:href="#m82c3e1f160" y="73.016033"/>
     <use style="fill:#1f77b4;stroke:#1f77b4;" x="248.117038" xlink:href="#m82c3e1f160" y="73.016033"/>
     <use style="fill:#1f77b4;stroke:#1f77b4;" x="248.915892" xlink:href="#m82c3e1f160" y="73.016033"/>
     <use style="fill:#1f77b4;stroke:#1f77b4;" x="249.714747" xlink:href="#m82c3e1f160" y="55.045785"/>
     <use style="fill:#1f77b4;stroke:#1f77b4;" x="250.513602" xlink:href="#m82c3e1f160" y="19.105289"/>
     <use style="fill:#1f77b4;stroke:#1f77b4;" x="251.312456" xlink:href="#m82c3e1f160" y="73.016033"/>
     <use style="fill:#1f77b4;stroke:#1f77b4;" x="252.111311" xlink:href="#m82c3e1f160" y="73.016033"/>
     <use style="fill:#1f77b4;stroke:#1f77b4;" x="252.910166" xlink:href="#m82c3e1f160" y="73.016033"/>
     <use style="fill:#1f77b4;stroke:#1f77b4;" x="253.70902" xlink:href="#m82c3e1f160" y="73.016033"/>
     <use style="fill:#1f77b4;stroke:#1f77b4;" x="254.507875" xlink:href="#m82c3e1f160" y="73.016033"/>
     <use style="fill:#1f77b4;stroke:#1f77b4;" x="255.30673" xlink:href="#m82c3e1f160" y="73.016033"/>
     <use style="fill:#1f77b4;stroke:#1f77b4;" x="256.105585" xlink:href="#m82c3e1f160" y="88.74"/>
     <use style="fill:#1f77b4;stroke:#1f77b4;" x="256.904439" xlink:href="#m82c3e1f160" y="82.001157"/>
     <use style="fill:#1f77b4;stroke:#1f77b4;" x="257.703294" xlink:href="#m82c3e1f160" y="55.045785"/>
     <use style="fill:#1f77b4;stroke:#1f77b4;" x="258.502149" xlink:href="#m82c3e1f160" y="73.016033"/>
     <use style="fill:#1f77b4;stroke:#1f77b4;" x="259.301003" xlink:href="#m82c3e1f160" y="73.016033"/>
     <use style="fill:#1f77b4;stroke:#1f77b4;" x="260.099858" xlink:href="#m82c3e1f160" y="73.016033"/>
    </g>
   </g>
   <g id="patch_3">
    <path d="M 47.045313 170.28 
L 47.045313 7.2 
" style="fill:none;stroke:#000000;stroke-linecap:square;stroke-linejoin:miter;stroke-width:0.8;"/>
   </g>
   <g id="patch_4">
    <path d="M 270.245313 170.28 
L 270.245313 7.2 
" style="fill:none;stroke:#000000;stroke-linecap:square;stroke-linejoin:miter;stroke-width:0.8;"/>
   </g>
   <g id="patch_5">
    <path d="M 47.045313 170.28 
L 270.245313 170.28 
" style="fill:none;stroke:#000000;stroke-linecap:square;stroke-linejoin:miter;stroke-width:0.8;"/>
   </g>
   <g id="patch_6">
    <path d="M 47.045313 7.2 
L 270.245313 7.2 
" style="fill:none;stroke:#000000;stroke-linecap:square;stroke-linejoin:miter;stroke-width:0.8;"/>
   </g>
  </g>
 </g>
 <defs>
  <clipPath id="pcc4dca23c5">
   <rect height="163.08" width="223.2" x="47.045313" y="7.2"/>
  </clipPath>
 </defs>
</svg>
