<?xml version="1.0" encoding="utf-8" standalone="no"?>
<!DOCTYPE svg PUBLIC "-//W3C//DTD SVG 1.1//EN"
  "http://www.w3.org/Graphics/SVG/1.1/DTD/svg11.dtd">
<!-- Created with matplotlib (https://matplotlib.org/) -->
<svg height="207.009688pt" version="1.1" viewBox="0 0 271.884375 207.009688" width="271.884375pt" xmlns="http://www.w3.org/2000/svg" xmlns:xlink="http://www.w3.org/1999/xlink">
 <defs>
  <style type="text/css">
*{stroke-linecap:butt;stroke-linejoin:round;}
  </style>
 </defs>
 <g id="figure_1">
  <g id="patch_1">
   <path d="M 0 207.009688 
L 271.884375 207.009688 
L 271.884375 0 
L 0 0 
z
" style="fill:none;"/>
  </g>
  <g id="axes_1">
   <g id="patch_2">
    <path d="M 41.484375 170.28 
L 264.684375 170.28 
L 264.684375 7.2 
L 41.484375 7.2 
z
" style="fill:#ffffff;"/>
   </g>
   <g id="matplotlib.axis_1">
    <g id="xtick_1">
     <g id="line2d_1">
      <path clip-path="url(#p4a97eecc0a)" d="M 51.62983 170.28 
L 51.62983 7.2 
" style="fill:none;stroke:#b0b0b0;stroke-linecap:square;stroke-opacity:0.3;stroke-width:0.8;"/>
     </g>
     <g id="line2d_2">
      <defs>
       <path d="M 0 0 
L 0 3.5 
" id="m5b1b99b5b5" style="stroke:#000000;stroke-width:0.8;"/>
      </defs>
      <g>
       <use style="stroke:#000000;stroke-width:0.8;" x="51.62983" xlink:href="#m5b1b99b5b5" y="170.28"/>
      </g>
     </g>
     <g id="text_1">
      <!-- 0 -->
      <defs>
       <path d="M 4.15625 35.296875 
Q 4.15625 48 6.765625 55.734375 
Q 9.375 63.484375 14.515625 67.671875 
Q 19.671875 71.875 27.484375 71.875 
Q 33.25 71.875 37.59375 69.546875 
Q 41.9375 67.234375 44.765625 62.859375 
Q 47.609375 58.5 49.21875 52.21875 
Q 50.828125 45.953125 50.828125 35.296875 
Q 50.828125 22.703125 48.234375 14.96875 
Q 45.65625 7.234375 40.5 3 
Q 35.359375 -1.21875 27.484375 -1.21875 
Q 17.140625 -1.21875 11.234375 6.203125 
Q 4.15625 15.140625 4.15625 35.296875 
z
M 13.1875 35.296875 
Q 13.1875 17.671875 17.3125 11.828125 
Q 21.4375 6 27.484375 6 
Q 33.546875 6 37.671875 11.859375 
Q 41.796875 17.71875 41.796875 35.296875 
Q 41.796875 52.984375 37.671875 58.78125 
Q 33.546875 64.59375 27.390625 64.59375 
Q 21.34375 64.59375 17.71875 59.46875 
Q 13.1875 52.9375 13.1875 35.296875 
z
" id="ArialMT-48"/>
      </defs>
      <g transform="translate(48.849361 184.437813)scale(0.1 -0.1)">
       <use xlink:href="#ArialMT-48"/>
      </g>
     </g>
    </g>
    <g id="xtick_2">
     <g id="line2d_3">
      <path clip-path="url(#p4a97eecc0a)" d="M 91.572564 170.28 
L 91.572564 7.2 
" style="fill:none;stroke:#b0b0b0;stroke-linecap:square;stroke-opacity:0.3;stroke-width:0.8;"/>
     </g>
     <g id="line2d_4">
      <g>
       <use style="stroke:#000000;stroke-width:0.8;" x="91.572564" xlink:href="#m5b1b99b5b5" y="170.28"/>
      </g>
     </g>
     <g id="text_2">
      <!-- 50 -->
      <defs>
       <path d="M 4.15625 18.75 
L 13.375 19.53125 
Q 14.40625 12.796875 18.140625 9.390625 
Q 21.875 6 27.15625 6 
Q 33.5 6 37.890625 10.78125 
Q 42.28125 15.578125 42.28125 23.484375 
Q 42.28125 31 38.0625 35.34375 
Q 33.84375 39.703125 27 39.703125 
Q 22.75 39.703125 19.328125 37.765625 
Q 15.921875 35.84375 13.96875 32.765625 
L 5.71875 33.84375 
L 12.640625 70.609375 
L 48.25 70.609375 
L 48.25 62.203125 
L 19.671875 62.203125 
L 15.828125 42.96875 
Q 22.265625 47.46875 29.34375 47.46875 
Q 38.71875 47.46875 45.15625 40.96875 
Q 51.609375 34.46875 51.609375 24.265625 
Q 51.609375 14.546875 45.953125 7.46875 
Q 39.0625 -1.21875 27.15625 -1.21875 
Q 17.390625 -1.21875 11.203125 4.25 
Q 5.03125 9.71875 4.15625 18.75 
z
" id="ArialMT-53"/>
      </defs>
      <g transform="translate(86.011626 184.437813)scale(0.1 -0.1)">
       <use xlink:href="#ArialMT-53"/>
       <use x="55.615234" xlink:href="#ArialMT-48"/>
      </g>
     </g>
    </g>
    <g id="xtick_3">
     <g id="line2d_5">
      <path clip-path="url(#p4a97eecc0a)" d="M 131.515298 170.28 
L 131.515298 7.2 
" style="fill:none;stroke:#b0b0b0;stroke-linecap:square;stroke-opacity:0.3;stroke-width:0.8;"/>
     </g>
     <g id="line2d_6">
      <g>
       <use style="stroke:#000000;stroke-width:0.8;" x="131.515298" xlink:href="#m5b1b99b5b5" y="170.28"/>
      </g>
     </g>
     <g id="text_3">
      <!-- 100 -->
      <defs>
       <path d="M 37.25 0 
L 28.46875 0 
L 28.46875 56 
Q 25.296875 52.984375 20.140625 49.953125 
Q 14.984375 46.921875 10.890625 45.40625 
L 10.890625 53.90625 
Q 18.265625 57.375 23.78125 62.296875 
Q 29.296875 67.234375 31.59375 71.875 
L 37.25 71.875 
z
" id="ArialMT-49"/>
      </defs>
      <g transform="translate(123.173892 184.437813)scale(0.1 -0.1)">
       <use xlink:href="#ArialMT-49"/>
       <use x="55.615234" xlink:href="#ArialMT-48"/>
       <use x="111.230469" xlink:href="#ArialMT-48"/>
      </g>
     </g>
    </g>
    <g id="xtick_4">
     <g id="line2d_7">
      <path clip-path="url(#p4a97eecc0a)" d="M 171.458033 170.28 
L 171.458033 7.2 
" style="fill:none;stroke:#b0b0b0;stroke-linecap:square;stroke-opacity:0.3;stroke-width:0.8;"/>
     </g>
     <g id="line2d_8">
      <g>
       <use style="stroke:#000000;stroke-width:0.8;" x="171.458033" xlink:href="#m5b1b99b5b5" y="170.28"/>
      </g>
     </g>
     <g id="text_4">
      <!-- 150 -->
      <g transform="translate(163.116627 184.437813)scale(0.1 -0.1)">
       <use xlink:href="#ArialMT-49"/>
       <use x="55.615234" xlink:href="#ArialMT-53"/>
       <use x="111.230469" xlink:href="#ArialMT-48"/>
      </g>
     </g>
    </g>
    <g id="xtick_5">
     <g id="line2d_9">
      <path clip-path="url(#p4a97eecc0a)" d="M 211.400767 170.28 
L 211.400767 7.2 
" style="fill:none;stroke:#b0b0b0;stroke-linecap:square;stroke-opacity:0.3;stroke-width:0.8;"/>
     </g>
     <g id="line2d_10">
      <g>
       <use style="stroke:#000000;stroke-width:0.8;" x="211.400767" xlink:href="#m5b1b99b5b5" y="170.28"/>
      </g>
     </g>
     <g id="text_5">
      <!-- 200 -->
      <defs>
       <path d="M 50.34375 8.453125 
L 50.34375 0 
L 3.03125 0 
Q 2.9375 3.171875 4.046875 6.109375 
Q 5.859375 10.9375 9.828125 15.625 
Q 13.8125 20.3125 21.34375 26.46875 
Q 33.015625 36.03125 37.109375 41.625 
Q 41.21875 47.21875 41.21875 52.203125 
Q 41.21875 57.421875 37.46875 61 
Q 33.734375 64.59375 27.734375 64.59375 
Q 21.390625 64.59375 17.578125 60.78125 
Q 13.765625 56.984375 13.71875 50.25 
L 4.6875 51.171875 
Q 5.609375 61.28125 11.65625 66.578125 
Q 17.71875 71.875 27.9375 71.875 
Q 38.234375 71.875 44.234375 66.15625 
Q 50.25 60.453125 50.25 52 
Q 50.25 47.703125 48.484375 43.546875 
Q 46.734375 39.40625 42.65625 34.8125 
Q 38.578125 30.21875 29.109375 22.21875 
Q 21.1875 15.578125 18.9375 13.203125 
Q 16.703125 10.84375 15.234375 8.453125 
z
" id="ArialMT-50"/>
      </defs>
      <g transform="translate(203.059361 184.437813)scale(0.1 -0.1)">
       <use xlink:href="#ArialMT-50"/>
       <use x="55.615234" xlink:href="#ArialMT-48"/>
       <use x="111.230469" xlink:href="#ArialMT-48"/>
      </g>
     </g>
    </g>
    <g id="xtick_6">
     <g id="line2d_11">
      <path clip-path="url(#p4a97eecc0a)" d="M 251.343502 170.28 
L 251.343502 7.2 
" style="fill:none;stroke:#b0b0b0;stroke-linecap:square;stroke-opacity:0.3;stroke-width:0.8;"/>
     </g>
     <g id="line2d_12">
      <g>
       <use style="stroke:#000000;stroke-width:0.8;" x="251.343502" xlink:href="#m5b1b99b5b5" y="170.28"/>
      </g>
     </g>
     <g id="text_6">
      <!-- 250 -->
      <g transform="translate(243.002095 184.437813)scale(0.1 -0.1)">
       <use xlink:href="#ArialMT-50"/>
       <use x="55.615234" xlink:href="#ArialMT-53"/>
       <use x="111.230469" xlink:href="#ArialMT-48"/>
      </g>
     </g>
    </g>
    <g id="text_7">
     <!-- Tsh (cycles) -->
     <defs>
      <path d="M 25.921875 0 
L 25.921875 63.140625 
L 2.34375 63.140625 
L 2.34375 71.578125 
L 59.078125 71.578125 
L 59.078125 63.140625 
L 35.40625 63.140625 
L 35.40625 0 
z
" id="ArialMT-84"/>
      <path d="M 3.078125 15.484375 
L 11.765625 16.84375 
Q 12.5 11.625 15.84375 8.84375 
Q 19.1875 6.0625 25.203125 6.0625 
Q 31.25 6.0625 34.171875 8.515625 
Q 37.109375 10.984375 37.109375 14.3125 
Q 37.109375 17.28125 34.515625 19 
Q 32.71875 20.171875 25.53125 21.96875 
Q 15.875 24.421875 12.140625 26.203125 
Q 8.40625 27.984375 6.46875 31.125 
Q 4.546875 34.28125 4.546875 38.09375 
Q 4.546875 41.546875 6.125 44.5 
Q 7.71875 47.46875 10.453125 49.421875 
Q 12.5 50.921875 16.03125 51.96875 
Q 19.578125 53.03125 23.640625 53.03125 
Q 29.734375 53.03125 34.34375 51.265625 
Q 38.96875 49.515625 41.15625 46.5 
Q 43.359375 43.5 44.1875 38.484375 
L 35.59375 37.3125 
Q 35.015625 41.3125 32.203125 43.546875 
Q 29.390625 45.796875 24.265625 45.796875 
Q 18.21875 45.796875 15.625 43.796875 
Q 13.03125 41.796875 13.03125 39.109375 
Q 13.03125 37.40625 14.109375 36.03125 
Q 15.1875 34.625 17.484375 33.6875 
Q 18.796875 33.203125 25.25 31.453125 
Q 34.578125 28.953125 38.25 27.359375 
Q 41.9375 25.78125 44.03125 22.75 
Q 46.140625 19.734375 46.140625 15.234375 
Q 46.140625 10.84375 43.578125 6.953125 
Q 41.015625 3.078125 36.171875 0.953125 
Q 31.34375 -1.171875 25.25 -1.171875 
Q 15.140625 -1.171875 9.84375 3.03125 
Q 4.546875 7.234375 3.078125 15.484375 
z
" id="ArialMT-115"/>
      <path d="M 6.59375 0 
L 6.59375 71.578125 
L 15.375 71.578125 
L 15.375 45.90625 
Q 21.53125 53.03125 30.90625 53.03125 
Q 36.671875 53.03125 40.921875 50.75 
Q 45.171875 48.484375 47 44.484375 
Q 48.828125 40.484375 48.828125 32.859375 
L 48.828125 0 
L 40.046875 0 
L 40.046875 32.859375 
Q 40.046875 39.453125 37.1875 42.453125 
Q 34.328125 45.453125 29.109375 45.453125 
Q 25.203125 45.453125 21.75 43.421875 
Q 18.3125 41.40625 16.84375 37.9375 
Q 15.375 34.46875 15.375 28.375 
L 15.375 0 
z
" id="ArialMT-104"/>
      <path id="ArialMT-32"/>
      <path d="M 23.390625 -21.046875 
Q 16.109375 -11.859375 11.078125 0.4375 
Q 6.0625 12.75 6.0625 25.921875 
Q 6.0625 37.546875 9.8125 48.1875 
Q 14.203125 60.546875 23.390625 72.796875 
L 29.6875 72.796875 
Q 23.78125 62.640625 21.875 58.296875 
Q 18.890625 51.5625 17.1875 44.234375 
Q 15.09375 35.109375 15.09375 25.875 
Q 15.09375 2.390625 29.6875 -21.046875 
z
" id="ArialMT-40"/>
      <path d="M 40.4375 19 
L 49.078125 17.875 
Q 47.65625 8.9375 41.8125 3.875 
Q 35.984375 -1.171875 27.484375 -1.171875 
Q 16.84375 -1.171875 10.375 5.78125 
Q 3.90625 12.75 3.90625 25.734375 
Q 3.90625 34.125 6.6875 40.421875 
Q 9.46875 46.734375 15.15625 49.875 
Q 20.84375 53.03125 27.546875 53.03125 
Q 35.984375 53.03125 41.359375 48.75 
Q 46.734375 44.484375 48.25 36.625 
L 39.703125 35.296875 
Q 38.484375 40.53125 35.375 43.15625 
Q 32.28125 45.796875 27.875 45.796875 
Q 21.234375 45.796875 17.078125 41.03125 
Q 12.9375 36.28125 12.9375 25.984375 
Q 12.9375 15.53125 16.9375 10.796875 
Q 20.953125 6.0625 27.390625 6.0625 
Q 32.5625 6.0625 36.03125 9.234375 
Q 39.5 12.40625 40.4375 19 
z
" id="ArialMT-99"/>
      <path d="M 6.203125 -19.96875 
L 5.21875 -11.71875 
Q 8.109375 -12.5 10.25 -12.5 
Q 13.1875 -12.5 14.9375 -11.515625 
Q 16.703125 -10.546875 17.828125 -8.796875 
Q 18.65625 -7.46875 20.515625 -2.25 
Q 20.75 -1.515625 21.296875 -0.09375 
L 1.609375 51.859375 
L 11.078125 51.859375 
L 21.875 21.828125 
Q 23.96875 16.109375 25.640625 9.8125 
Q 27.15625 15.875 29.25 21.625 
L 40.328125 51.859375 
L 49.125 51.859375 
L 29.390625 -0.875 
Q 26.21875 -9.421875 24.46875 -12.640625 
Q 22.125 -17 19.09375 -19.015625 
Q 16.0625 -21.046875 11.859375 -21.046875 
Q 9.328125 -21.046875 6.203125 -19.96875 
z
" id="ArialMT-121"/>
      <path d="M 6.390625 0 
L 6.390625 71.578125 
L 15.1875 71.578125 
L 15.1875 0 
z
" id="ArialMT-108"/>
      <path d="M 42.09375 16.703125 
L 51.171875 15.578125 
Q 49.03125 7.625 43.21875 3.21875 
Q 37.40625 -1.171875 28.375 -1.171875 
Q 17 -1.171875 10.328125 5.828125 
Q 3.65625 12.84375 3.65625 25.484375 
Q 3.65625 38.578125 10.390625 45.796875 
Q 17.140625 53.03125 27.875 53.03125 
Q 38.28125 53.03125 44.875 45.953125 
Q 51.46875 38.875 51.46875 26.03125 
Q 51.46875 25.25 51.421875 23.6875 
L 12.75 23.6875 
Q 13.234375 15.140625 17.578125 10.59375 
Q 21.921875 6.0625 28.421875 6.0625 
Q 33.25 6.0625 36.671875 8.59375 
Q 40.09375 11.140625 42.09375 16.703125 
z
M 13.234375 30.90625 
L 42.1875 30.90625 
Q 41.609375 37.453125 38.875 40.71875 
Q 34.671875 45.796875 27.984375 45.796875 
Q 21.921875 45.796875 17.796875 41.75 
Q 13.671875 37.703125 13.234375 30.90625 
z
" id="ArialMT-101"/>
      <path d="M 12.359375 -21.046875 
L 6.0625 -21.046875 
Q 20.65625 2.390625 20.65625 25.875 
Q 20.65625 35.0625 18.5625 44.09375 
Q 16.890625 51.421875 13.921875 58.15625 
Q 12.015625 62.546875 6.0625 72.796875 
L 12.359375 72.796875 
Q 21.53125 60.546875 25.921875 48.1875 
Q 29.6875 37.546875 29.6875 25.921875 
Q 29.6875 12.75 24.625 0.4375 
Q 19.578125 -11.859375 12.359375 -21.046875 
z
" id="ArialMT-41"/>
     </defs>
     <g transform="translate(126.148438 197.705)scale(0.1 -0.1)">
      <use xlink:href="#ArialMT-84"/>
      <use x="60.912109" xlink:href="#ArialMT-115"/>
      <use x="110.912109" xlink:href="#ArialMT-104"/>
      <use x="166.527344" xlink:href="#ArialMT-32"/>
      <use x="194.310547" xlink:href="#ArialMT-40"/>
      <use x="227.611328" xlink:href="#ArialMT-99"/>
      <use x="277.611328" xlink:href="#ArialMT-121"/>
      <use x="327.611328" xlink:href="#ArialMT-99"/>
      <use x="377.611328" xlink:href="#ArialMT-108"/>
      <use x="399.828125" xlink:href="#ArialMT-101"/>
      <use x="455.443359" xlink:href="#ArialMT-115"/>
      <use x="505.443359" xlink:href="#ArialMT-41"/>
     </g>
    </g>
   </g>
   <g id="matplotlib.axis_2">
    <g id="ytick_1">
     <g id="line2d_13">
      <path clip-path="url(#p4a97eecc0a)" d="M 41.484375 162.867273 
L 264.684375 162.867273 
" style="fill:none;stroke:#b0b0b0;stroke-linecap:square;stroke-opacity:0.3;stroke-width:0.8;"/>
     </g>
     <g id="line2d_14">
      <defs>
       <path d="M 0 0 
L -3.5 0 
" id="m672fcb6a0d" style="stroke:#000000;stroke-width:0.8;"/>
      </defs>
      <g>
       <use style="stroke:#000000;stroke-width:0.8;" x="41.484375" xlink:href="#m672fcb6a0d" y="162.867273"/>
      </g>
     </g>
     <g id="text_8">
      <!-- 0.0 -->
      <defs>
       <path d="M 9.078125 0 
L 9.078125 10.015625 
L 19.09375 10.015625 
L 19.09375 0 
z
" id="ArialMT-46"/>
      </defs>
      <g transform="translate(20.584375 166.446179)scale(0.1 -0.1)">
       <use xlink:href="#ArialMT-48"/>
       <use x="55.615234" xlink:href="#ArialMT-46"/>
       <use x="83.398438" xlink:href="#ArialMT-48"/>
      </g>
     </g>
    </g>
    <g id="ytick_2">
     <g id="line2d_15">
      <path clip-path="url(#p4a97eecc0a)" d="M 41.484375 138.659068 
L 264.684375 138.659068 
" style="fill:none;stroke:#b0b0b0;stroke-linecap:square;stroke-opacity:0.3;stroke-width:0.8;"/>
     </g>
     <g id="line2d_16">
      <g>
       <use style="stroke:#000000;stroke-width:0.8;" x="41.484375" xlink:href="#m672fcb6a0d" y="138.659068"/>
      </g>
     </g>
     <g id="text_9">
      <!-- 0.5 -->
      <g transform="translate(20.584375 142.237975)scale(0.1 -0.1)">
       <use xlink:href="#ArialMT-48"/>
       <use x="55.615234" xlink:href="#ArialMT-46"/>
       <use x="83.398438" xlink:href="#ArialMT-53"/>
      </g>
     </g>
    </g>
    <g id="ytick_3">
     <g id="line2d_17">
      <path clip-path="url(#p4a97eecc0a)" d="M 41.484375 114.450864 
L 264.684375 114.450864 
" style="fill:none;stroke:#b0b0b0;stroke-linecap:square;stroke-opacity:0.3;stroke-width:0.8;"/>
     </g>
     <g id="line2d_18">
      <g>
       <use style="stroke:#000000;stroke-width:0.8;" x="41.484375" xlink:href="#m672fcb6a0d" y="114.450864"/>
      </g>
     </g>
     <g id="text_10">
      <!-- 1.0 -->
      <g transform="translate(20.584375 118.02977)scale(0.1 -0.1)">
       <use xlink:href="#ArialMT-49"/>
       <use x="55.615234" xlink:href="#ArialMT-46"/>
       <use x="83.398438" xlink:href="#ArialMT-48"/>
      </g>
     </g>
    </g>
    <g id="ytick_4">
     <g id="line2d_19">
      <path clip-path="url(#p4a97eecc0a)" d="M 41.484375 90.24266 
L 264.684375 90.24266 
" style="fill:none;stroke:#b0b0b0;stroke-linecap:square;stroke-opacity:0.3;stroke-width:0.8;"/>
     </g>
     <g id="line2d_20">
      <g>
       <use style="stroke:#000000;stroke-width:0.8;" x="41.484375" xlink:href="#m672fcb6a0d" y="90.24266"/>
      </g>
     </g>
     <g id="text_11">
      <!-- 1.5 -->
      <g transform="translate(20.584375 93.821566)scale(0.1 -0.1)">
       <use xlink:href="#ArialMT-49"/>
       <use x="55.615234" xlink:href="#ArialMT-46"/>
       <use x="83.398438" xlink:href="#ArialMT-53"/>
      </g>
     </g>
    </g>
    <g id="ytick_5">
     <g id="line2d_21">
      <path clip-path="url(#p4a97eecc0a)" d="M 41.484375 66.034455 
L 264.684375 66.034455 
" style="fill:none;stroke:#b0b0b0;stroke-linecap:square;stroke-opacity:0.3;stroke-width:0.8;"/>
     </g>
     <g id="line2d_22">
      <g>
       <use style="stroke:#000000;stroke-width:0.8;" x="41.484375" xlink:href="#m672fcb6a0d" y="66.034455"/>
      </g>
     </g>
     <g id="text_12">
      <!-- 2.0 -->
      <g transform="translate(20.584375 69.613362)scale(0.1 -0.1)">
       <use xlink:href="#ArialMT-50"/>
       <use x="55.615234" xlink:href="#ArialMT-46"/>
       <use x="83.398438" xlink:href="#ArialMT-48"/>
      </g>
     </g>
    </g>
    <g id="ytick_6">
     <g id="line2d_23">
      <path clip-path="url(#p4a97eecc0a)" d="M 41.484375 41.826251 
L 264.684375 41.826251 
" style="fill:none;stroke:#b0b0b0;stroke-linecap:square;stroke-opacity:0.3;stroke-width:0.8;"/>
     </g>
     <g id="line2d_24">
      <g>
       <use style="stroke:#000000;stroke-width:0.8;" x="41.484375" xlink:href="#m672fcb6a0d" y="41.826251"/>
      </g>
     </g>
     <g id="text_13">
      <!-- 2.5 -->
      <g transform="translate(20.584375 45.405157)scale(0.1 -0.1)">
       <use xlink:href="#ArialMT-50"/>
       <use x="55.615234" xlink:href="#ArialMT-46"/>
       <use x="83.398438" xlink:href="#ArialMT-53"/>
      </g>
     </g>
    </g>
    <g id="ytick_7">
     <g id="line2d_25">
      <path clip-path="url(#p4a97eecc0a)" d="M 41.484375 17.618047 
L 264.684375 17.618047 
" style="fill:none;stroke:#b0b0b0;stroke-linecap:square;stroke-opacity:0.3;stroke-width:0.8;"/>
     </g>
     <g id="line2d_26">
      <g>
       <use style="stroke:#000000;stroke-width:0.8;" x="41.484375" xlink:href="#m672fcb6a0d" y="17.618047"/>
      </g>
     </g>
     <g id="text_14">
      <!-- 3.0 -->
      <defs>
       <path d="M 4.203125 18.890625 
L 12.984375 20.0625 
Q 14.5 12.59375 18.140625 9.296875 
Q 21.78125 6 27 6 
Q 33.203125 6 37.46875 10.296875 
Q 41.75 14.59375 41.75 20.953125 
Q 41.75 27 37.796875 30.921875 
Q 33.84375 34.859375 27.734375 34.859375 
Q 25.25 34.859375 21.53125 33.890625 
L 22.515625 41.609375 
Q 23.390625 41.5 23.921875 41.5 
Q 29.546875 41.5 34.03125 44.421875 
Q 38.53125 47.359375 38.53125 53.46875 
Q 38.53125 58.296875 35.25 61.46875 
Q 31.984375 64.65625 26.8125 64.65625 
Q 21.6875 64.65625 18.265625 61.421875 
Q 14.84375 58.203125 13.875 51.765625 
L 5.078125 53.328125 
Q 6.6875 62.15625 12.390625 67.015625 
Q 18.109375 71.875 26.609375 71.875 
Q 32.46875 71.875 37.390625 69.359375 
Q 42.328125 66.84375 44.9375 62.5 
Q 47.5625 58.15625 47.5625 53.265625 
Q 47.5625 48.640625 45.0625 44.828125 
Q 42.578125 41.015625 37.703125 38.765625 
Q 44.046875 37.3125 47.5625 32.6875 
Q 51.078125 28.078125 51.078125 21.140625 
Q 51.078125 11.765625 44.234375 5.25 
Q 37.40625 -1.265625 26.953125 -1.265625 
Q 17.53125 -1.265625 11.296875 4.34375 
Q 5.078125 9.96875 4.203125 18.890625 
z
" id="ArialMT-51"/>
      </defs>
      <g transform="translate(20.584375 21.196953)scale(0.1 -0.1)">
       <use xlink:href="#ArialMT-51"/>
       <use x="55.615234" xlink:href="#ArialMT-46"/>
       <use x="83.398438" xlink:href="#ArialMT-48"/>
      </g>
     </g>
    </g>
    <g id="text_15">
     <!-- Current (uA) -->
     <defs>
      <path d="M 58.796875 25.09375 
L 68.265625 22.703125 
Q 65.28125 11.03125 57.546875 4.90625 
Q 49.8125 -1.21875 38.625 -1.21875 
Q 27.046875 -1.21875 19.796875 3.484375 
Q 12.546875 8.203125 8.765625 17.140625 
Q 4.984375 26.078125 4.984375 36.328125 
Q 4.984375 47.515625 9.25 55.828125 
Q 13.53125 64.15625 21.40625 68.46875 
Q 29.296875 72.796875 38.765625 72.796875 
Q 49.515625 72.796875 56.828125 67.328125 
Q 64.15625 61.859375 67.046875 51.953125 
L 57.71875 49.75 
Q 55.21875 57.5625 50.484375 61.125 
Q 45.75 64.703125 38.578125 64.703125 
Q 30.328125 64.703125 24.78125 60.734375 
Q 19.234375 56.78125 16.984375 50.109375 
Q 14.75 43.453125 14.75 36.375 
Q 14.75 27.25 17.40625 20.4375 
Q 20.0625 13.625 25.671875 10.25 
Q 31.296875 6.890625 37.84375 6.890625 
Q 45.796875 6.890625 51.3125 11.46875 
Q 56.84375 16.0625 58.796875 25.09375 
z
" id="ArialMT-67"/>
      <path d="M 40.578125 0 
L 40.578125 7.625 
Q 34.515625 -1.171875 24.125 -1.171875 
Q 19.53125 -1.171875 15.546875 0.578125 
Q 11.578125 2.34375 9.640625 5 
Q 7.71875 7.671875 6.9375 11.53125 
Q 6.390625 14.109375 6.390625 19.734375 
L 6.390625 51.859375 
L 15.1875 51.859375 
L 15.1875 23.09375 
Q 15.1875 16.21875 15.71875 13.8125 
Q 16.546875 10.359375 19.234375 8.375 
Q 21.921875 6.390625 25.875 6.390625 
Q 29.828125 6.390625 33.296875 8.421875 
Q 36.765625 10.453125 38.203125 13.9375 
Q 39.65625 17.4375 39.65625 24.078125 
L 39.65625 51.859375 
L 48.4375 51.859375 
L 48.4375 0 
z
" id="ArialMT-117"/>
      <path d="M 6.5 0 
L 6.5 51.859375 
L 14.40625 51.859375 
L 14.40625 44 
Q 17.4375 49.515625 20 51.265625 
Q 22.5625 53.03125 25.640625 53.03125 
Q 30.078125 53.03125 34.671875 50.203125 
L 31.640625 42.046875 
Q 28.421875 43.953125 25.203125 43.953125 
Q 22.3125 43.953125 20.015625 42.21875 
Q 17.71875 40.484375 16.75 37.40625 
Q 15.28125 32.71875 15.28125 27.15625 
L 15.28125 0 
z
" id="ArialMT-114"/>
      <path d="M 6.59375 0 
L 6.59375 51.859375 
L 14.5 51.859375 
L 14.5 44.484375 
Q 20.21875 53.03125 31 53.03125 
Q 35.6875 53.03125 39.625 51.34375 
Q 43.5625 49.65625 45.515625 46.921875 
Q 47.46875 44.1875 48.25 40.4375 
Q 48.734375 37.984375 48.734375 31.890625 
L 48.734375 0 
L 39.9375 0 
L 39.9375 31.546875 
Q 39.9375 36.921875 38.90625 39.578125 
Q 37.890625 42.234375 35.28125 43.8125 
Q 32.671875 45.40625 29.15625 45.40625 
Q 23.53125 45.40625 19.453125 41.84375 
Q 15.375 38.28125 15.375 28.328125 
L 15.375 0 
z
" id="ArialMT-110"/>
      <path d="M 25.78125 7.859375 
L 27.046875 0.09375 
Q 23.34375 -0.6875 20.40625 -0.6875 
Q 15.625 -0.6875 12.984375 0.828125 
Q 10.359375 2.34375 9.28125 4.8125 
Q 8.203125 7.28125 8.203125 15.1875 
L 8.203125 45.015625 
L 1.765625 45.015625 
L 1.765625 51.859375 
L 8.203125 51.859375 
L 8.203125 64.703125 
L 16.9375 69.96875 
L 16.9375 51.859375 
L 25.78125 51.859375 
L 25.78125 45.015625 
L 16.9375 45.015625 
L 16.9375 14.703125 
Q 16.9375 10.9375 17.40625 9.859375 
Q 17.875 8.796875 18.921875 8.15625 
Q 19.96875 7.515625 21.921875 7.515625 
Q 23.390625 7.515625 25.78125 7.859375 
z
" id="ArialMT-116"/>
      <path d="M -0.140625 0 
L 27.34375 71.578125 
L 37.546875 71.578125 
L 66.84375 0 
L 56.0625 0 
L 47.703125 21.6875 
L 17.78125 21.6875 
L 9.90625 0 
z
M 20.515625 29.390625 
L 44.78125 29.390625 
L 37.3125 49.21875 
Q 33.890625 58.25 32.234375 64.0625 
Q 30.859375 57.171875 28.375 50.390625 
z
" id="ArialMT-65"/>
     </defs>
     <g transform="translate(14.479687 116.245469)rotate(-90)scale(0.1 -0.1)">
      <use xlink:href="#ArialMT-67"/>
      <use x="72.216797" xlink:href="#ArialMT-117"/>
      <use x="127.832031" xlink:href="#ArialMT-114"/>
      <use x="161.132812" xlink:href="#ArialMT-114"/>
      <use x="194.433594" xlink:href="#ArialMT-101"/>
      <use x="250.048828" xlink:href="#ArialMT-110"/>
      <use x="305.664062" xlink:href="#ArialMT-116"/>
      <use x="333.447266" xlink:href="#ArialMT-32"/>
      <use x="361.230469" xlink:href="#ArialMT-40"/>
      <use x="394.53125" xlink:href="#ArialMT-117"/>
      <use x="450.146484" xlink:href="#ArialMT-65"/>
      <use x="516.845703" xlink:href="#ArialMT-41"/>
     </g>
    </g>
   </g>
   <g id="line2d_27">
    <path clip-path="url(#p4a97eecc0a)" d="M 51.62983 162.867273 
L 59.618376 162.867273 
L 60.417231 162.701625 
L 61.216086 152.26583 
L 62.813795 141.001798 
L 63.61265 131.062946 
L 64.411505 128.412585 
L 65.210359 122.449274 
L 66.009214 115.160782 
L 66.808069 111.682184 
L 68.405778 101.908979 
L 70.003487 92.46707 
L 70.802342 88.657176 
L 71.601197 82.196922 
L 72.400051 80.209152 
L 73.198906 77.724439 
L 73.997761 73.914545 
L 74.796616 72.589365 
L 75.59547 68.448177 
L 76.394325 65.632169 
L 77.19318 63.644398 
L 77.992034 59.668857 
L 78.790889 58.343677 
L 80.388598 53.208603 
L 81.187453 49.730005 
L 81.986308 50.392595 
L 82.785162 47.742235 
L 83.584017 47.742235 
L 84.382872 46.417054 
L 85.181726 43.766694 
L 85.980581 42.441513 
L 86.779436 162.867273 
L 87.578291 41.116333 
L 88.377145 41.116333 
L 89.176 37.140792 
L 89.974855 36.478202 
L 90.773709 33.330899 
L 91.572564 35.815612 
L 92.371419 35.815612 
L 93.170273 33.165251 
L 93.969128 31.177481 
L 94.767983 30.680538 
L 95.566837 30.514891 
L 96.365692 30.846186 
L 97.164547 30.514891 
L 97.963401 26.53935 
L 98.762256 27.86453 
L 99.561111 26.53935 
L 100.359966 25.87676 
L 101.15882 27.86453 
L 101.957675 25.545465 
L 102.75653 25.87676 
L 103.555384 26.53935 
L 104.354239 25.21417 
L 105.153094 26.53935 
L 105.951948 25.21417 
L 106.750803 25.21417 
L 108.348512 19.913448 
L 109.147367 26.53935 
L 109.946222 25.21417 
L 110.745077 22.563809 
L 111.543931 25.21417 
L 115.538205 25.21417 
L 116.337059 22.563809 
L 117.135914 25.21417 
L 117.934769 25.21417 
L 118.733623 21.238629 
L 119.532478 22.563809 
L 120.331333 20.576039 
L 121.130187 21.238629 
L 123.526752 21.238629 
L 124.325606 20.576039 
L 125.124461 21.238629 
L 125.923316 21.238629 
L 126.72217 20.576039 
L 127.521025 22.563809 
L 128.31988 21.238629 
L 129.118734 22.563809 
L 129.917589 21.238629 
L 131.515298 21.238629 
L 133.113008 19.913448 
L 133.911862 20.576039 
L 135.509572 20.576039 
L 136.308427 21.238629 
L 137.107281 21.238629 
L 137.906136 20.576039 
L 138.704991 20.576039 
L 139.503845 19.913448 
L 141.101555 19.913448 
L 142.699264 21.238629 
L 143.498119 19.913448 
L 144.296973 21.238629 
L 145.095828 21.238629 
L 145.894683 19.913448 
L 146.693537 20.244744 
L 147.492392 19.913448 
L 148.291247 19.913448 
L 149.090102 20.244744 
L 149.888956 19.913448 
L 150.687811 19.913448 
L 151.486666 20.576039 
L 152.28552 20.576039 
L 153.084375 20.244744 
L 153.88323 20.576039 
L 154.682084 19.913448 
L 155.480939 20.244744 
L 156.279794 20.244744 
L 157.078648 19.913448 
L 157.877503 19.913448 
L 158.676358 26.53935 
L 159.475213 19.913448 
L 160.274067 22.563809 
L 161.072922 20.079096 
L 161.871777 19.913448 
L 164.268341 19.913448 
L 165.067195 21.238629 
L 165.86605 19.913448 
L 166.664905 20.576039 
L 167.463759 19.913448 
L 169.061469 20.576039 
L 169.860323 19.913448 
L 170.659178 19.913448 
L 171.458033 20.244744 
L 172.256888 19.913448 
L 173.055742 20.576039 
L 173.854597 19.913448 
L 174.653452 19.913448 
L 175.452306 20.079096 
L 176.251161 20.576039 
L 177.050016 20.576039 
L 177.84887 19.913448 
L 178.647725 22.563809 
L 179.44658 21.238629 
L 180.245434 21.238629 
L 181.044289 20.576039 
L 182.641998 20.576039 
L 183.440853 19.913448 
L 184.239708 21.238629 
L 185.038563 25.21417 
L 185.837417 21.238629 
L 186.636272 22.563809 
L 188.233981 22.563809 
L 189.032836 20.244744 
L 189.831691 22.563809 
L 190.630545 20.576039 
L 192.228255 19.913448 
L 193.825964 19.913448 
L 194.624819 17.263088 
L 195.423673 19.913448 
L 197.021383 19.913448 
L 197.820238 20.244744 
L 198.619092 21.238629 
L 199.417947 20.079096 
L 200.216802 20.576039 
L 203.41222 20.576039 
L 204.211075 19.913448 
L 205.00993 19.913448 
L 205.808784 20.244744 
L 206.607639 19.913448 
L 209.803058 19.913448 
L 211.400767 14.612727 
L 212.199622 19.913448 
L 212.998477 19.913448 
L 213.797331 21.238629 
L 214.596186 20.244744 
L 215.395041 19.913448 
L 216.193895 20.576039 
L 216.99275 19.913448 
L 217.791605 19.913448 
L 218.590459 20.079096 
L 219.389314 19.913448 
L 220.188169 17.263088 
L 220.987024 20.576039 
L 221.785878 19.913448 
L 222.584733 19.913448 
L 223.383588 20.576039 
L 224.182442 19.913448 
L 229.774425 19.913448 
L 230.57328 20.576039 
L 231.372134 19.913448 
L 232.170989 17.263088 
L 232.969844 20.244744 
L 233.768699 19.913448 
L 234.567553 20.576039 
L 235.366408 19.913448 
L 236.165263 20.244744 
L 236.964117 22.563809 
L 237.762972 20.576039 
L 238.561827 22.563809 
L 239.360681 20.576039 
L 240.159536 22.563809 
L 240.958391 22.563809 
L 241.757245 25.21417 
L 242.5561 25.21417 
L 243.354955 22.563809 
L 244.952664 27.86453 
L 245.751519 21.238629 
L 246.550374 22.563809 
L 247.349228 22.563809 
L 248.148083 20.244744 
L 248.946938 20.576039 
L 249.745792 19.913448 
L 250.544647 20.079096 
L 251.343502 19.913448 
L 252.142356 19.913448 
L 252.941211 21.238629 
L 253.740066 20.576039 
L 254.53892 20.576039 
L 254.53892 20.576039 
" style="fill:none;stroke:#1f77b4;stroke-linecap:square;stroke-width:1.5;"/>
    <defs>
     <path d="M 0 1.5 
C 0.397805 1.5 0.77937 1.341951 1.06066 1.06066 
C 1.341951 0.77937 1.5 0.397805 1.5 0 
C 1.5 -0.397805 1.341951 -0.77937 1.06066 -1.06066 
C 0.77937 -1.341951 0.397805 -1.5 0 -1.5 
C -0.397805 -1.5 -0.77937 -1.341951 -1.06066 -1.06066 
C -1.341951 -0.77937 -1.5 -0.397805 -1.5 0 
C -1.5 0.397805 -1.341951 0.77937 -1.06066 1.06066 
C -0.77937 1.341951 -0.397805 1.5 0 1.5 
z
" id="m94109e314e" style="stroke:#1f77b4;"/>
    </defs>
    <g clip-path="url(#p4a97eecc0a)">
     <use style="fill:#1f77b4;stroke:#1f77b4;" x="51.62983" xlink:href="#m94109e314e" y="162.867273"/>
     <use style="fill:#1f77b4;stroke:#1f77b4;" x="52.428684" xlink:href="#m94109e314e" y="162.867273"/>
     <use style="fill:#1f77b4;stroke:#1f77b4;" x="53.227539" xlink:href="#m94109e314e" y="162.867273"/>
     <use style="fill:#1f77b4;stroke:#1f77b4;" x="54.026394" xlink:href="#m94109e314e" y="162.867273"/>
     <use style="fill:#1f77b4;stroke:#1f77b4;" x="54.825248" xlink:href="#m94109e314e" y="162.867273"/>
     <use style="fill:#1f77b4;stroke:#1f77b4;" x="55.624103" xlink:href="#m94109e314e" y="162.867273"/>
     <use style="fill:#1f77b4;stroke:#1f77b4;" x="56.422958" xlink:href="#m94109e314e" y="162.867273"/>
     <use style="fill:#1f77b4;stroke:#1f77b4;" x="57.221812" xlink:href="#m94109e314e" y="162.867273"/>
     <use style="fill:#1f77b4;stroke:#1f77b4;" x="58.020667" xlink:href="#m94109e314e" y="162.867273"/>
     <use style="fill:#1f77b4;stroke:#1f77b4;" x="58.819522" xlink:href="#m94109e314e" y="162.867273"/>
     <use style="fill:#1f77b4;stroke:#1f77b4;" x="59.618376" xlink:href="#m94109e314e" y="162.867273"/>
     <use style="fill:#1f77b4;stroke:#1f77b4;" x="60.417231" xlink:href="#m94109e314e" y="162.701625"/>
     <use style="fill:#1f77b4;stroke:#1f77b4;" x="61.216086" xlink:href="#m94109e314e" y="152.26583"/>
     <use style="fill:#1f77b4;stroke:#1f77b4;" x="62.01494" xlink:href="#m94109e314e" y="146.965109"/>
     <use style="fill:#1f77b4;stroke:#1f77b4;" x="62.813795" xlink:href="#m94109e314e" y="141.001798"/>
     <use style="fill:#1f77b4;stroke:#1f77b4;" x="63.61265" xlink:href="#m94109e314e" y="131.062946"/>
     <use style="fill:#1f77b4;stroke:#1f77b4;" x="64.411505" xlink:href="#m94109e314e" y="128.412585"/>
     <use style="fill:#1f77b4;stroke:#1f77b4;" x="65.210359" xlink:href="#m94109e314e" y="122.449274"/>
     <use style="fill:#1f77b4;stroke:#1f77b4;" x="66.009214" xlink:href="#m94109e314e" y="115.160782"/>
     <use style="fill:#1f77b4;stroke:#1f77b4;" x="66.808069" xlink:href="#m94109e314e" y="111.682184"/>
     <use style="fill:#1f77b4;stroke:#1f77b4;" x="67.606923" xlink:href="#m94109e314e" y="107.044053"/>
     <use style="fill:#1f77b4;stroke:#1f77b4;" x="68.405778" xlink:href="#m94109e314e" y="101.908979"/>
     <use style="fill:#1f77b4;stroke:#1f77b4;" x="69.204633" xlink:href="#m94109e314e" y="97.105201"/>
     <use style="fill:#1f77b4;stroke:#1f77b4;" x="70.003487" xlink:href="#m94109e314e" y="92.46707"/>
     <use style="fill:#1f77b4;stroke:#1f77b4;" x="70.802342" xlink:href="#m94109e314e" y="88.657176"/>
     <use style="fill:#1f77b4;stroke:#1f77b4;" x="71.601197" xlink:href="#m94109e314e" y="82.196922"/>
     <use style="fill:#1f77b4;stroke:#1f77b4;" x="72.400051" xlink:href="#m94109e314e" y="80.209152"/>
     <use style="fill:#1f77b4;stroke:#1f77b4;" x="73.198906" xlink:href="#m94109e314e" y="77.724439"/>
     <use style="fill:#1f77b4;stroke:#1f77b4;" x="73.997761" xlink:href="#m94109e314e" y="73.914545"/>
     <use style="fill:#1f77b4;stroke:#1f77b4;" x="74.796616" xlink:href="#m94109e314e" y="72.589365"/>
     <use style="fill:#1f77b4;stroke:#1f77b4;" x="75.59547" xlink:href="#m94109e314e" y="68.448177"/>
     <use style="fill:#1f77b4;stroke:#1f77b4;" x="76.394325" xlink:href="#m94109e314e" y="65.632169"/>
     <use style="fill:#1f77b4;stroke:#1f77b4;" x="77.19318" xlink:href="#m94109e314e" y="63.644398"/>
     <use style="fill:#1f77b4;stroke:#1f77b4;" x="77.992034" xlink:href="#m94109e314e" y="59.668857"/>
     <use style="fill:#1f77b4;stroke:#1f77b4;" x="78.790889" xlink:href="#m94109e314e" y="58.343677"/>
     <use style="fill:#1f77b4;stroke:#1f77b4;" x="79.589744" xlink:href="#m94109e314e" y="55.693316"/>
     <use style="fill:#1f77b4;stroke:#1f77b4;" x="80.388598" xlink:href="#m94109e314e" y="53.208603"/>
     <use style="fill:#1f77b4;stroke:#1f77b4;" x="81.187453" xlink:href="#m94109e314e" y="49.730005"/>
     <use style="fill:#1f77b4;stroke:#1f77b4;" x="81.986308" xlink:href="#m94109e314e" y="50.392595"/>
     <use style="fill:#1f77b4;stroke:#1f77b4;" x="82.785162" xlink:href="#m94109e314e" y="47.742235"/>
     <use style="fill:#1f77b4;stroke:#1f77b4;" x="83.584017" xlink:href="#m94109e314e" y="47.742235"/>
     <use style="fill:#1f77b4;stroke:#1f77b4;" x="84.382872" xlink:href="#m94109e314e" y="46.417054"/>
     <use style="fill:#1f77b4;stroke:#1f77b4;" x="85.181726" xlink:href="#m94109e314e" y="43.766694"/>
     <use style="fill:#1f77b4;stroke:#1f77b4;" x="85.980581" xlink:href="#m94109e314e" y="42.441513"/>
     <use style="fill:#1f77b4;stroke:#1f77b4;" x="86.779436" xlink:href="#m94109e314e" y="162.867273"/>
     <use style="fill:#1f77b4;stroke:#1f77b4;" x="87.578291" xlink:href="#m94109e314e" y="41.116333"/>
     <use style="fill:#1f77b4;stroke:#1f77b4;" x="88.377145" xlink:href="#m94109e314e" y="41.116333"/>
     <use style="fill:#1f77b4;stroke:#1f77b4;" x="89.176" xlink:href="#m94109e314e" y="37.140792"/>
     <use style="fill:#1f77b4;stroke:#1f77b4;" x="89.974855" xlink:href="#m94109e314e" y="36.478202"/>
     <use style="fill:#1f77b4;stroke:#1f77b4;" x="90.773709" xlink:href="#m94109e314e" y="33.330899"/>
     <use style="fill:#1f77b4;stroke:#1f77b4;" x="91.572564" xlink:href="#m94109e314e" y="35.815612"/>
     <use style="fill:#1f77b4;stroke:#1f77b4;" x="92.371419" xlink:href="#m94109e314e" y="35.815612"/>
     <use style="fill:#1f77b4;stroke:#1f77b4;" x="93.170273" xlink:href="#m94109e314e" y="33.165251"/>
     <use style="fill:#1f77b4;stroke:#1f77b4;" x="93.969128" xlink:href="#m94109e314e" y="31.177481"/>
     <use style="fill:#1f77b4;stroke:#1f77b4;" x="94.767983" xlink:href="#m94109e314e" y="30.680538"/>
     <use style="fill:#1f77b4;stroke:#1f77b4;" x="95.566837" xlink:href="#m94109e314e" y="30.514891"/>
     <use style="fill:#1f77b4;stroke:#1f77b4;" x="96.365692" xlink:href="#m94109e314e" y="30.846186"/>
     <use style="fill:#1f77b4;stroke:#1f77b4;" x="97.164547" xlink:href="#m94109e314e" y="30.514891"/>
     <use style="fill:#1f77b4;stroke:#1f77b4;" x="97.963401" xlink:href="#m94109e314e" y="26.53935"/>
     <use style="fill:#1f77b4;stroke:#1f77b4;" x="98.762256" xlink:href="#m94109e314e" y="27.86453"/>
     <use style="fill:#1f77b4;stroke:#1f77b4;" x="99.561111" xlink:href="#m94109e314e" y="26.53935"/>
     <use style="fill:#1f77b4;stroke:#1f77b4;" x="100.359966" xlink:href="#m94109e314e" y="25.87676"/>
     <use style="fill:#1f77b4;stroke:#1f77b4;" x="101.15882" xlink:href="#m94109e314e" y="27.86453"/>
     <use style="fill:#1f77b4;stroke:#1f77b4;" x="101.957675" xlink:href="#m94109e314e" y="25.545465"/>
     <use style="fill:#1f77b4;stroke:#1f77b4;" x="102.75653" xlink:href="#m94109e314e" y="25.87676"/>
     <use style="fill:#1f77b4;stroke:#1f77b4;" x="103.555384" xlink:href="#m94109e314e" y="26.53935"/>
     <use style="fill:#1f77b4;stroke:#1f77b4;" x="104.354239" xlink:href="#m94109e314e" y="25.21417"/>
     <use style="fill:#1f77b4;stroke:#1f77b4;" x="105.153094" xlink:href="#m94109e314e" y="26.53935"/>
     <use style="fill:#1f77b4;stroke:#1f77b4;" x="105.951948" xlink:href="#m94109e314e" y="25.21417"/>
     <use style="fill:#1f77b4;stroke:#1f77b4;" x="106.750803" xlink:href="#m94109e314e" y="25.21417"/>
     <use style="fill:#1f77b4;stroke:#1f77b4;" x="107.549658" xlink:href="#m94109e314e" y="22.563809"/>
     <use style="fill:#1f77b4;stroke:#1f77b4;" x="108.348512" xlink:href="#m94109e314e" y="19.913448"/>
     <use style="fill:#1f77b4;stroke:#1f77b4;" x="109.147367" xlink:href="#m94109e314e" y="26.53935"/>
     <use style="fill:#1f77b4;stroke:#1f77b4;" x="109.946222" xlink:href="#m94109e314e" y="25.21417"/>
     <use style="fill:#1f77b4;stroke:#1f77b4;" x="110.745077" xlink:href="#m94109e314e" y="22.563809"/>
     <use style="fill:#1f77b4;stroke:#1f77b4;" x="111.543931" xlink:href="#m94109e314e" y="25.21417"/>
     <use style="fill:#1f77b4;stroke:#1f77b4;" x="112.342786" xlink:href="#m94109e314e" y="25.21417"/>
     <use style="fill:#1f77b4;stroke:#1f77b4;" x="113.141641" xlink:href="#m94109e314e" y="25.21417"/>
     <use style="fill:#1f77b4;stroke:#1f77b4;" x="113.940495" xlink:href="#m94109e314e" y="25.21417"/>
     <use style="fill:#1f77b4;stroke:#1f77b4;" x="114.73935" xlink:href="#m94109e314e" y="25.21417"/>
     <use style="fill:#1f77b4;stroke:#1f77b4;" x="115.538205" xlink:href="#m94109e314e" y="25.21417"/>
     <use style="fill:#1f77b4;stroke:#1f77b4;" x="116.337059" xlink:href="#m94109e314e" y="22.563809"/>
     <use style="fill:#1f77b4;stroke:#1f77b4;" x="117.135914" xlink:href="#m94109e314e" y="25.21417"/>
     <use style="fill:#1f77b4;stroke:#1f77b4;" x="117.934769" xlink:href="#m94109e314e" y="25.21417"/>
     <use style="fill:#1f77b4;stroke:#1f77b4;" x="118.733623" xlink:href="#m94109e314e" y="21.238629"/>
     <use style="fill:#1f77b4;stroke:#1f77b4;" x="119.532478" xlink:href="#m94109e314e" y="22.563809"/>
     <use style="fill:#1f77b4;stroke:#1f77b4;" x="120.331333" xlink:href="#m94109e314e" y="20.576039"/>
     <use style="fill:#1f77b4;stroke:#1f77b4;" x="121.130187" xlink:href="#m94109e314e" y="21.238629"/>
     <use style="fill:#1f77b4;stroke:#1f77b4;" x="121.929042" xlink:href="#m94109e314e" y="21.238629"/>
     <use style="fill:#1f77b4;stroke:#1f77b4;" x="122.727897" xlink:href="#m94109e314e" y="21.238629"/>
     <use style="fill:#1f77b4;stroke:#1f77b4;" x="123.526752" xlink:href="#m94109e314e" y="21.238629"/>
     <use style="fill:#1f77b4;stroke:#1f77b4;" x="124.325606" xlink:href="#m94109e314e" y="20.576039"/>
     <use style="fill:#1f77b4;stroke:#1f77b4;" x="125.124461" xlink:href="#m94109e314e" y="21.238629"/>
     <use style="fill:#1f77b4;stroke:#1f77b4;" x="125.923316" xlink:href="#m94109e314e" y="21.238629"/>
     <use style="fill:#1f77b4;stroke:#1f77b4;" x="126.72217" xlink:href="#m94109e314e" y="20.576039"/>
     <use style="fill:#1f77b4;stroke:#1f77b4;" x="127.521025" xlink:href="#m94109e314e" y="22.563809"/>
     <use style="fill:#1f77b4;stroke:#1f77b4;" x="128.31988" xlink:href="#m94109e314e" y="21.238629"/>
     <use style="fill:#1f77b4;stroke:#1f77b4;" x="129.118734" xlink:href="#m94109e314e" y="22.563809"/>
     <use style="fill:#1f77b4;stroke:#1f77b4;" x="129.917589" xlink:href="#m94109e314e" y="21.238629"/>
     <use style="fill:#1f77b4;stroke:#1f77b4;" x="130.716444" xlink:href="#m94109e314e" y="21.238629"/>
     <use style="fill:#1f77b4;stroke:#1f77b4;" x="131.515298" xlink:href="#m94109e314e" y="21.238629"/>
     <use style="fill:#1f77b4;stroke:#1f77b4;" x="132.314153" xlink:href="#m94109e314e" y="20.576039"/>
     <use style="fill:#1f77b4;stroke:#1f77b4;" x="133.113008" xlink:href="#m94109e314e" y="19.913448"/>
     <use style="fill:#1f77b4;stroke:#1f77b4;" x="133.911862" xlink:href="#m94109e314e" y="20.576039"/>
     <use style="fill:#1f77b4;stroke:#1f77b4;" x="134.710717" xlink:href="#m94109e314e" y="20.576039"/>
     <use style="fill:#1f77b4;stroke:#1f77b4;" x="135.509572" xlink:href="#m94109e314e" y="20.576039"/>
     <use style="fill:#1f77b4;stroke:#1f77b4;" x="136.308427" xlink:href="#m94109e314e" y="21.238629"/>
     <use style="fill:#1f77b4;stroke:#1f77b4;" x="137.107281" xlink:href="#m94109e314e" y="21.238629"/>
     <use style="fill:#1f77b4;stroke:#1f77b4;" x="137.906136" xlink:href="#m94109e314e" y="20.576039"/>
     <use style="fill:#1f77b4;stroke:#1f77b4;" x="138.704991" xlink:href="#m94109e314e" y="20.576039"/>
     <use style="fill:#1f77b4;stroke:#1f77b4;" x="139.503845" xlink:href="#m94109e314e" y="19.913448"/>
     <use style="fill:#1f77b4;stroke:#1f77b4;" x="140.3027" xlink:href="#m94109e314e" y="19.913448"/>
     <use style="fill:#1f77b4;stroke:#1f77b4;" x="141.101555" xlink:href="#m94109e314e" y="19.913448"/>
     <use style="fill:#1f77b4;stroke:#1f77b4;" x="141.900409" xlink:href="#m94109e314e" y="20.576039"/>
     <use style="fill:#1f77b4;stroke:#1f77b4;" x="142.699264" xlink:href="#m94109e314e" y="21.238629"/>
     <use style="fill:#1f77b4;stroke:#1f77b4;" x="143.498119" xlink:href="#m94109e314e" y="19.913448"/>
     <use style="fill:#1f77b4;stroke:#1f77b4;" x="144.296973" xlink:href="#m94109e314e" y="21.238629"/>
     <use style="fill:#1f77b4;stroke:#1f77b4;" x="145.095828" xlink:href="#m94109e314e" y="21.238629"/>
     <use style="fill:#1f77b4;stroke:#1f77b4;" x="145.894683" xlink:href="#m94109e314e" y="19.913448"/>
     <use style="fill:#1f77b4;stroke:#1f77b4;" x="146.693537" xlink:href="#m94109e314e" y="20.244744"/>
     <use style="fill:#1f77b4;stroke:#1f77b4;" x="147.492392" xlink:href="#m94109e314e" y="19.913448"/>
     <use style="fill:#1f77b4;stroke:#1f77b4;" x="148.291247" xlink:href="#m94109e314e" y="19.913448"/>
     <use style="fill:#1f77b4;stroke:#1f77b4;" x="149.090102" xlink:href="#m94109e314e" y="20.244744"/>
     <use style="fill:#1f77b4;stroke:#1f77b4;" x="149.888956" xlink:href="#m94109e314e" y="19.913448"/>
     <use style="fill:#1f77b4;stroke:#1f77b4;" x="150.687811" xlink:href="#m94109e314e" y="19.913448"/>
     <use style="fill:#1f77b4;stroke:#1f77b4;" x="151.486666" xlink:href="#m94109e314e" y="20.576039"/>
     <use style="fill:#1f77b4;stroke:#1f77b4;" x="152.28552" xlink:href="#m94109e314e" y="20.576039"/>
     <use style="fill:#1f77b4;stroke:#1f77b4;" x="153.084375" xlink:href="#m94109e314e" y="20.244744"/>
     <use style="fill:#1f77b4;stroke:#1f77b4;" x="153.88323" xlink:href="#m94109e314e" y="20.576039"/>
     <use style="fill:#1f77b4;stroke:#1f77b4;" x="154.682084" xlink:href="#m94109e314e" y="19.913448"/>
     <use style="fill:#1f77b4;stroke:#1f77b4;" x="155.480939" xlink:href="#m94109e314e" y="20.244744"/>
     <use style="fill:#1f77b4;stroke:#1f77b4;" x="156.279794" xlink:href="#m94109e314e" y="20.244744"/>
     <use style="fill:#1f77b4;stroke:#1f77b4;" x="157.078648" xlink:href="#m94109e314e" y="19.913448"/>
     <use style="fill:#1f77b4;stroke:#1f77b4;" x="157.877503" xlink:href="#m94109e314e" y="19.913448"/>
     <use style="fill:#1f77b4;stroke:#1f77b4;" x="158.676358" xlink:href="#m94109e314e" y="26.53935"/>
     <use style="fill:#1f77b4;stroke:#1f77b4;" x="159.475213" xlink:href="#m94109e314e" y="19.913448"/>
     <use style="fill:#1f77b4;stroke:#1f77b4;" x="160.274067" xlink:href="#m94109e314e" y="22.563809"/>
     <use style="fill:#1f77b4;stroke:#1f77b4;" x="161.072922" xlink:href="#m94109e314e" y="20.079096"/>
     <use style="fill:#1f77b4;stroke:#1f77b4;" x="161.871777" xlink:href="#m94109e314e" y="19.913448"/>
     <use style="fill:#1f77b4;stroke:#1f77b4;" x="162.670631" xlink:href="#m94109e314e" y="19.913448"/>
     <use style="fill:#1f77b4;stroke:#1f77b4;" x="163.469486" xlink:href="#m94109e314e" y="19.913448"/>
     <use style="fill:#1f77b4;stroke:#1f77b4;" x="164.268341" xlink:href="#m94109e314e" y="19.913448"/>
     <use style="fill:#1f77b4;stroke:#1f77b4;" x="165.067195" xlink:href="#m94109e314e" y="21.238629"/>
     <use style="fill:#1f77b4;stroke:#1f77b4;" x="165.86605" xlink:href="#m94109e314e" y="19.913448"/>
     <use style="fill:#1f77b4;stroke:#1f77b4;" x="166.664905" xlink:href="#m94109e314e" y="20.576039"/>
     <use style="fill:#1f77b4;stroke:#1f77b4;" x="167.463759" xlink:href="#m94109e314e" y="19.913448"/>
     <use style="fill:#1f77b4;stroke:#1f77b4;" x="168.262614" xlink:href="#m94109e314e" y="20.244744"/>
     <use style="fill:#1f77b4;stroke:#1f77b4;" x="169.061469" xlink:href="#m94109e314e" y="20.576039"/>
     <use style="fill:#1f77b4;stroke:#1f77b4;" x="169.860323" xlink:href="#m94109e314e" y="19.913448"/>
     <use style="fill:#1f77b4;stroke:#1f77b4;" x="170.659178" xlink:href="#m94109e314e" y="19.913448"/>
     <use style="fill:#1f77b4;stroke:#1f77b4;" x="171.458033" xlink:href="#m94109e314e" y="20.244744"/>
     <use style="fill:#1f77b4;stroke:#1f77b4;" x="172.256888" xlink:href="#m94109e314e" y="19.913448"/>
     <use style="fill:#1f77b4;stroke:#1f77b4;" x="173.055742" xlink:href="#m94109e314e" y="20.576039"/>
     <use style="fill:#1f77b4;stroke:#1f77b4;" x="173.854597" xlink:href="#m94109e314e" y="19.913448"/>
     <use style="fill:#1f77b4;stroke:#1f77b4;" x="174.653452" xlink:href="#m94109e314e" y="19.913448"/>
     <use style="fill:#1f77b4;stroke:#1f77b4;" x="175.452306" xlink:href="#m94109e314e" y="20.079096"/>
     <use style="fill:#1f77b4;stroke:#1f77b4;" x="176.251161" xlink:href="#m94109e314e" y="20.576039"/>
     <use style="fill:#1f77b4;stroke:#1f77b4;" x="177.050016" xlink:href="#m94109e314e" y="20.576039"/>
     <use style="fill:#1f77b4;stroke:#1f77b4;" x="177.84887" xlink:href="#m94109e314e" y="19.913448"/>
     <use style="fill:#1f77b4;stroke:#1f77b4;" x="178.647725" xlink:href="#m94109e314e" y="22.563809"/>
     <use style="fill:#1f77b4;stroke:#1f77b4;" x="179.44658" xlink:href="#m94109e314e" y="21.238629"/>
     <use style="fill:#1f77b4;stroke:#1f77b4;" x="180.245434" xlink:href="#m94109e314e" y="21.238629"/>
     <use style="fill:#1f77b4;stroke:#1f77b4;" x="181.044289" xlink:href="#m94109e314e" y="20.576039"/>
     <use style="fill:#1f77b4;stroke:#1f77b4;" x="181.843144" xlink:href="#m94109e314e" y="20.576039"/>
     <use style="fill:#1f77b4;stroke:#1f77b4;" x="182.641998" xlink:href="#m94109e314e" y="20.576039"/>
     <use style="fill:#1f77b4;stroke:#1f77b4;" x="183.440853" xlink:href="#m94109e314e" y="19.913448"/>
     <use style="fill:#1f77b4;stroke:#1f77b4;" x="184.239708" xlink:href="#m94109e314e" y="21.238629"/>
     <use style="fill:#1f77b4;stroke:#1f77b4;" x="185.038563" xlink:href="#m94109e314e" y="25.21417"/>
     <use style="fill:#1f77b4;stroke:#1f77b4;" x="185.837417" xlink:href="#m94109e314e" y="21.238629"/>
     <use style="fill:#1f77b4;stroke:#1f77b4;" x="186.636272" xlink:href="#m94109e314e" y="22.563809"/>
     <use style="fill:#1f77b4;stroke:#1f77b4;" x="187.435127" xlink:href="#m94109e314e" y="22.563809"/>
     <use style="fill:#1f77b4;stroke:#1f77b4;" x="188.233981" xlink:href="#m94109e314e" y="22.563809"/>
     <use style="fill:#1f77b4;stroke:#1f77b4;" x="189.032836" xlink:href="#m94109e314e" y="20.244744"/>
     <use style="fill:#1f77b4;stroke:#1f77b4;" x="189.831691" xlink:href="#m94109e314e" y="22.563809"/>
     <use style="fill:#1f77b4;stroke:#1f77b4;" x="190.630545" xlink:href="#m94109e314e" y="20.576039"/>
     <use style="fill:#1f77b4;stroke:#1f77b4;" x="191.4294" xlink:href="#m94109e314e" y="20.244744"/>
     <use style="fill:#1f77b4;stroke:#1f77b4;" x="192.228255" xlink:href="#m94109e314e" y="19.913448"/>
     <use style="fill:#1f77b4;stroke:#1f77b4;" x="193.027109" xlink:href="#m94109e314e" y="19.913448"/>
     <use style="fill:#1f77b4;stroke:#1f77b4;" x="193.825964" xlink:href="#m94109e314e" y="19.913448"/>
     <use style="fill:#1f77b4;stroke:#1f77b4;" x="194.624819" xlink:href="#m94109e314e" y="17.263088"/>
     <use style="fill:#1f77b4;stroke:#1f77b4;" x="195.423673" xlink:href="#m94109e314e" y="19.913448"/>
     <use style="fill:#1f77b4;stroke:#1f77b4;" x="196.222528" xlink:href="#m94109e314e" y="19.913448"/>
     <use style="fill:#1f77b4;stroke:#1f77b4;" x="197.021383" xlink:href="#m94109e314e" y="19.913448"/>
     <use style="fill:#1f77b4;stroke:#1f77b4;" x="197.820238" xlink:href="#m94109e314e" y="20.244744"/>
     <use style="fill:#1f77b4;stroke:#1f77b4;" x="198.619092" xlink:href="#m94109e314e" y="21.238629"/>
     <use style="fill:#1f77b4;stroke:#1f77b4;" x="199.417947" xlink:href="#m94109e314e" y="20.079096"/>
     <use style="fill:#1f77b4;stroke:#1f77b4;" x="200.216802" xlink:href="#m94109e314e" y="20.576039"/>
     <use style="fill:#1f77b4;stroke:#1f77b4;" x="201.015656" xlink:href="#m94109e314e" y="20.576039"/>
     <use style="fill:#1f77b4;stroke:#1f77b4;" x="201.814511" xlink:href="#m94109e314e" y="20.576039"/>
     <use style="fill:#1f77b4;stroke:#1f77b4;" x="202.613366" xlink:href="#m94109e314e" y="20.576039"/>
     <use style="fill:#1f77b4;stroke:#1f77b4;" x="203.41222" xlink:href="#m94109e314e" y="20.576039"/>
     <use style="fill:#1f77b4;stroke:#1f77b4;" x="204.211075" xlink:href="#m94109e314e" y="19.913448"/>
     <use style="fill:#1f77b4;stroke:#1f77b4;" x="205.00993" xlink:href="#m94109e314e" y="19.913448"/>
     <use style="fill:#1f77b4;stroke:#1f77b4;" x="205.808784" xlink:href="#m94109e314e" y="20.244744"/>
     <use style="fill:#1f77b4;stroke:#1f77b4;" x="206.607639" xlink:href="#m94109e314e" y="19.913448"/>
     <use style="fill:#1f77b4;stroke:#1f77b4;" x="207.406494" xlink:href="#m94109e314e" y="19.913448"/>
     <use style="fill:#1f77b4;stroke:#1f77b4;" x="208.205349" xlink:href="#m94109e314e" y="19.913448"/>
     <use style="fill:#1f77b4;stroke:#1f77b4;" x="209.004203" xlink:href="#m94109e314e" y="19.913448"/>
     <use style="fill:#1f77b4;stroke:#1f77b4;" x="209.803058" xlink:href="#m94109e314e" y="19.913448"/>
     <use style="fill:#1f77b4;stroke:#1f77b4;" x="210.601913" xlink:href="#m94109e314e" y="17.263088"/>
     <use style="fill:#1f77b4;stroke:#1f77b4;" x="211.400767" xlink:href="#m94109e314e" y="14.612727"/>
     <use style="fill:#1f77b4;stroke:#1f77b4;" x="212.199622" xlink:href="#m94109e314e" y="19.913448"/>
     <use style="fill:#1f77b4;stroke:#1f77b4;" x="212.998477" xlink:href="#m94109e314e" y="19.913448"/>
     <use style="fill:#1f77b4;stroke:#1f77b4;" x="213.797331" xlink:href="#m94109e314e" y="21.238629"/>
     <use style="fill:#1f77b4;stroke:#1f77b4;" x="214.596186" xlink:href="#m94109e314e" y="20.244744"/>
     <use style="fill:#1f77b4;stroke:#1f77b4;" x="215.395041" xlink:href="#m94109e314e" y="19.913448"/>
     <use style="fill:#1f77b4;stroke:#1f77b4;" x="216.193895" xlink:href="#m94109e314e" y="20.576039"/>
     <use style="fill:#1f77b4;stroke:#1f77b4;" x="216.99275" xlink:href="#m94109e314e" y="19.913448"/>
     <use style="fill:#1f77b4;stroke:#1f77b4;" x="217.791605" xlink:href="#m94109e314e" y="19.913448"/>
     <use style="fill:#1f77b4;stroke:#1f77b4;" x="218.590459" xlink:href="#m94109e314e" y="20.079096"/>
     <use style="fill:#1f77b4;stroke:#1f77b4;" x="219.389314" xlink:href="#m94109e314e" y="19.913448"/>
     <use style="fill:#1f77b4;stroke:#1f77b4;" x="220.188169" xlink:href="#m94109e314e" y="17.263088"/>
     <use style="fill:#1f77b4;stroke:#1f77b4;" x="220.987024" xlink:href="#m94109e314e" y="20.576039"/>
     <use style="fill:#1f77b4;stroke:#1f77b4;" x="221.785878" xlink:href="#m94109e314e" y="19.913448"/>
     <use style="fill:#1f77b4;stroke:#1f77b4;" x="222.584733" xlink:href="#m94109e314e" y="19.913448"/>
     <use style="fill:#1f77b4;stroke:#1f77b4;" x="223.383588" xlink:href="#m94109e314e" y="20.576039"/>
     <use style="fill:#1f77b4;stroke:#1f77b4;" x="224.182442" xlink:href="#m94109e314e" y="19.913448"/>
     <use style="fill:#1f77b4;stroke:#1f77b4;" x="224.981297" xlink:href="#m94109e314e" y="19.913448"/>
     <use style="fill:#1f77b4;stroke:#1f77b4;" x="225.780152" xlink:href="#m94109e314e" y="19.913448"/>
     <use style="fill:#1f77b4;stroke:#1f77b4;" x="226.579006" xlink:href="#m94109e314e" y="19.913448"/>
     <use style="fill:#1f77b4;stroke:#1f77b4;" x="227.377861" xlink:href="#m94109e314e" y="19.913448"/>
     <use style="fill:#1f77b4;stroke:#1f77b4;" x="228.176716" xlink:href="#m94109e314e" y="19.913448"/>
     <use style="fill:#1f77b4;stroke:#1f77b4;" x="228.97557" xlink:href="#m94109e314e" y="19.913448"/>
     <use style="fill:#1f77b4;stroke:#1f77b4;" x="229.774425" xlink:href="#m94109e314e" y="19.913448"/>
     <use style="fill:#1f77b4;stroke:#1f77b4;" x="230.57328" xlink:href="#m94109e314e" y="20.576039"/>
     <use style="fill:#1f77b4;stroke:#1f77b4;" x="231.372134" xlink:href="#m94109e314e" y="19.913448"/>
     <use style="fill:#1f77b4;stroke:#1f77b4;" x="232.170989" xlink:href="#m94109e314e" y="17.263088"/>
     <use style="fill:#1f77b4;stroke:#1f77b4;" x="232.969844" xlink:href="#m94109e314e" y="20.244744"/>
     <use style="fill:#1f77b4;stroke:#1f77b4;" x="233.768699" xlink:href="#m94109e314e" y="19.913448"/>
     <use style="fill:#1f77b4;stroke:#1f77b4;" x="234.567553" xlink:href="#m94109e314e" y="20.576039"/>
     <use style="fill:#1f77b4;stroke:#1f77b4;" x="235.366408" xlink:href="#m94109e314e" y="19.913448"/>
     <use style="fill:#1f77b4;stroke:#1f77b4;" x="236.165263" xlink:href="#m94109e314e" y="20.244744"/>
     <use style="fill:#1f77b4;stroke:#1f77b4;" x="236.964117" xlink:href="#m94109e314e" y="22.563809"/>
     <use style="fill:#1f77b4;stroke:#1f77b4;" x="237.762972" xlink:href="#m94109e314e" y="20.576039"/>
     <use style="fill:#1f77b4;stroke:#1f77b4;" x="238.561827" xlink:href="#m94109e314e" y="22.563809"/>
     <use style="fill:#1f77b4;stroke:#1f77b4;" x="239.360681" xlink:href="#m94109e314e" y="20.576039"/>
     <use style="fill:#1f77b4;stroke:#1f77b4;" x="240.159536" xlink:href="#m94109e314e" y="22.563809"/>
     <use style="fill:#1f77b4;stroke:#1f77b4;" x="240.958391" xlink:href="#m94109e314e" y="22.563809"/>
     <use style="fill:#1f77b4;stroke:#1f77b4;" x="241.757245" xlink:href="#m94109e314e" y="25.21417"/>
     <use style="fill:#1f77b4;stroke:#1f77b4;" x="242.5561" xlink:href="#m94109e314e" y="25.21417"/>
     <use style="fill:#1f77b4;stroke:#1f77b4;" x="243.354955" xlink:href="#m94109e314e" y="22.563809"/>
     <use style="fill:#1f77b4;stroke:#1f77b4;" x="244.15381" xlink:href="#m94109e314e" y="25.21417"/>
     <use style="fill:#1f77b4;stroke:#1f77b4;" x="244.952664" xlink:href="#m94109e314e" y="27.86453"/>
     <use style="fill:#1f77b4;stroke:#1f77b4;" x="245.751519" xlink:href="#m94109e314e" y="21.238629"/>
     <use style="fill:#1f77b4;stroke:#1f77b4;" x="246.550374" xlink:href="#m94109e314e" y="22.563809"/>
     <use style="fill:#1f77b4;stroke:#1f77b4;" x="247.349228" xlink:href="#m94109e314e" y="22.563809"/>
     <use style="fill:#1f77b4;stroke:#1f77b4;" x="248.148083" xlink:href="#m94109e314e" y="20.244744"/>
     <use style="fill:#1f77b4;stroke:#1f77b4;" x="248.946938" xlink:href="#m94109e314e" y="20.576039"/>
     <use style="fill:#1f77b4;stroke:#1f77b4;" x="249.745792" xlink:href="#m94109e314e" y="19.913448"/>
     <use style="fill:#1f77b4;stroke:#1f77b4;" x="250.544647" xlink:href="#m94109e314e" y="20.079096"/>
     <use style="fill:#1f77b4;stroke:#1f77b4;" x="251.343502" xlink:href="#m94109e314e" y="19.913448"/>
     <use style="fill:#1f77b4;stroke:#1f77b4;" x="252.142356" xlink:href="#m94109e314e" y="19.913448"/>
     <use style="fill:#1f77b4;stroke:#1f77b4;" x="252.941211" xlink:href="#m94109e314e" y="21.238629"/>
     <use style="fill:#1f77b4;stroke:#1f77b4;" x="253.740066" xlink:href="#m94109e314e" y="20.576039"/>
     <use style="fill:#1f77b4;stroke:#1f77b4;" x="254.53892" xlink:href="#m94109e314e" y="20.576039"/>
    </g>
   </g>
   <g id="patch_3">
    <path d="M 41.484375 170.28 
L 41.484375 7.2 
" style="fill:none;stroke:#000000;stroke-linecap:square;stroke-linejoin:miter;stroke-width:0.8;"/>
   </g>
   <g id="patch_4">
    <path d="M 264.684375 170.28 
L 264.684375 7.2 
" style="fill:none;stroke:#000000;stroke-linecap:square;stroke-linejoin:miter;stroke-width:0.8;"/>
   </g>
   <g id="patch_5">
    <path d="M 41.484375 170.28 
L 264.684375 170.28 
" style="fill:none;stroke:#000000;stroke-linecap:square;stroke-linejoin:miter;stroke-width:0.8;"/>
   </g>
   <g id="patch_6">
    <path d="M 41.484375 7.2 
L 264.684375 7.2 
" style="fill:none;stroke:#000000;stroke-linecap:square;stroke-linejoin:miter;stroke-width:0.8;"/>
   </g>
  </g>
 </g>
 <defs>
  <clipPath id="p4a97eecc0a">
   <rect height="163.08" width="223.2" x="41.484375" y="7.2"/>
  </clipPath>
 </defs>
</svg>
