<?xml version="1.0" encoding="utf-8" standalone="no"?>
<!DOCTYPE svg PUBLIC "-//W3C//DTD SVG 1.1//EN"
  "http://www.w3.org/Graphics/SVG/1.1/DTD/svg11.dtd">
<!-- Created with matplotlib (https://matplotlib.org/) -->
<svg height="207.009688pt" version="1.1" viewBox="0 0 269.10625 207.009688" width="269.10625pt" xmlns="http://www.w3.org/2000/svg" xmlns:xlink="http://www.w3.org/1999/xlink">
 <defs>
  <style type="text/css">
*{stroke-linecap:butt;stroke-linejoin:round;}
  </style>
 </defs>
 <g id="figure_1">
  <g id="patch_1">
   <path d="M 0 207.009688 
L 269.10625 207.009688 
L 269.10625 0 
L 0 0 
z
" style="fill:none;"/>
  </g>
  <g id="axes_1">
   <g id="patch_2">
    <path d="M 38.70625 170.28 
L 261.90625 170.28 
L 261.90625 7.2 
L 38.70625 7.2 
z
" style="fill:#ffffff;"/>
   </g>
   <g id="matplotlib.axis_1">
    <g id="xtick_1">
     <g id="line2d_1">
      <path clip-path="url(#p2d2fccb712)" d="M 48.851705 170.28 
L 48.851705 7.2 
" style="fill:none;stroke:#b0b0b0;stroke-linecap:square;stroke-opacity:0.3;stroke-width:0.8;"/>
     </g>
     <g id="line2d_2">
      <defs>
       <path d="M 0 0 
L 0 3.5 
" id="m064cfda13f" style="stroke:#000000;stroke-width:0.8;"/>
      </defs>
      <g>
       <use style="stroke:#000000;stroke-width:0.8;" x="48.851705" xlink:href="#m064cfda13f" y="170.28"/>
      </g>
     </g>
     <g id="text_1">
      <!-- 0 -->
      <defs>
       <path d="M 4.15625 35.296875 
Q 4.15625 48 6.765625 55.734375 
Q 9.375 63.484375 14.515625 67.671875 
Q 19.671875 71.875 27.484375 71.875 
Q 33.25 71.875 37.59375 69.546875 
Q 41.9375 67.234375 44.765625 62.859375 
Q 47.609375 58.5 49.21875 52.21875 
Q 50.828125 45.953125 50.828125 35.296875 
Q 50.828125 22.703125 48.234375 14.96875 
Q 45.65625 7.234375 40.5 3 
Q 35.359375 -1.21875 27.484375 -1.21875 
Q 17.140625 -1.21875 11.234375 6.203125 
Q 4.15625 15.140625 4.15625 35.296875 
z
M 13.1875 35.296875 
Q 13.1875 17.671875 17.3125 11.828125 
Q 21.4375 6 27.484375 6 
Q 33.546875 6 37.671875 11.859375 
Q 41.796875 17.71875 41.796875 35.296875 
Q 41.796875 52.984375 37.671875 58.78125 
Q 33.546875 64.59375 27.390625 64.59375 
Q 21.34375 64.59375 17.71875 59.46875 
Q 13.1875 52.9375 13.1875 35.296875 
z
" id="ArialMT-48"/>
      </defs>
      <g transform="translate(46.071236 184.437813)scale(0.1 -0.1)">
       <use xlink:href="#ArialMT-48"/>
      </g>
     </g>
    </g>
    <g id="xtick_2">
     <g id="line2d_3">
      <path clip-path="url(#p2d2fccb712)" d="M 88.794439 170.28 
L 88.794439 7.2 
" style="fill:none;stroke:#b0b0b0;stroke-linecap:square;stroke-opacity:0.3;stroke-width:0.8;"/>
     </g>
     <g id="line2d_4">
      <g>
       <use style="stroke:#000000;stroke-width:0.8;" x="88.794439" xlink:href="#m064cfda13f" y="170.28"/>
      </g>
     </g>
     <g id="text_2">
      <!-- 50 -->
      <defs>
       <path d="M 4.15625 18.75 
L 13.375 19.53125 
Q 14.40625 12.796875 18.140625 9.390625 
Q 21.875 6 27.15625 6 
Q 33.5 6 37.890625 10.78125 
Q 42.28125 15.578125 42.28125 23.484375 
Q 42.28125 31 38.0625 35.34375 
Q 33.84375 39.703125 27 39.703125 
Q 22.75 39.703125 19.328125 37.765625 
Q 15.921875 35.84375 13.96875 32.765625 
L 5.71875 33.84375 
L 12.640625 70.609375 
L 48.25 70.609375 
L 48.25 62.203125 
L 19.671875 62.203125 
L 15.828125 42.96875 
Q 22.265625 47.46875 29.34375 47.46875 
Q 38.71875 47.46875 45.15625 40.96875 
Q 51.609375 34.46875 51.609375 24.265625 
Q 51.609375 14.546875 45.953125 7.46875 
Q 39.0625 -1.21875 27.15625 -1.21875 
Q 17.390625 -1.21875 11.203125 4.25 
Q 5.03125 9.71875 4.15625 18.75 
z
" id="ArialMT-53"/>
      </defs>
      <g transform="translate(83.233501 184.437813)scale(0.1 -0.1)">
       <use xlink:href="#ArialMT-53"/>
       <use x="55.615234" xlink:href="#ArialMT-48"/>
      </g>
     </g>
    </g>
    <g id="xtick_3">
     <g id="line2d_5">
      <path clip-path="url(#p2d2fccb712)" d="M 128.737173 170.28 
L 128.737173 7.2 
" style="fill:none;stroke:#b0b0b0;stroke-linecap:square;stroke-opacity:0.3;stroke-width:0.8;"/>
     </g>
     <g id="line2d_6">
      <g>
       <use style="stroke:#000000;stroke-width:0.8;" x="128.737173" xlink:href="#m064cfda13f" y="170.28"/>
      </g>
     </g>
     <g id="text_3">
      <!-- 100 -->
      <defs>
       <path d="M 37.25 0 
L 28.46875 0 
L 28.46875 56 
Q 25.296875 52.984375 20.140625 49.953125 
Q 14.984375 46.921875 10.890625 45.40625 
L 10.890625 53.90625 
Q 18.265625 57.375 23.78125 62.296875 
Q 29.296875 67.234375 31.59375 71.875 
L 37.25 71.875 
z
" id="ArialMT-49"/>
      </defs>
      <g transform="translate(120.395767 184.437813)scale(0.1 -0.1)">
       <use xlink:href="#ArialMT-49"/>
       <use x="55.615234" xlink:href="#ArialMT-48"/>
       <use x="111.230469" xlink:href="#ArialMT-48"/>
      </g>
     </g>
    </g>
    <g id="xtick_4">
     <g id="line2d_7">
      <path clip-path="url(#p2d2fccb712)" d="M 168.679908 170.28 
L 168.679908 7.2 
" style="fill:none;stroke:#b0b0b0;stroke-linecap:square;stroke-opacity:0.3;stroke-width:0.8;"/>
     </g>
     <g id="line2d_8">
      <g>
       <use style="stroke:#000000;stroke-width:0.8;" x="168.679908" xlink:href="#m064cfda13f" y="170.28"/>
      </g>
     </g>
     <g id="text_4">
      <!-- 150 -->
      <g transform="translate(160.338502 184.437813)scale(0.1 -0.1)">
       <use xlink:href="#ArialMT-49"/>
       <use x="55.615234" xlink:href="#ArialMT-53"/>
       <use x="111.230469" xlink:href="#ArialMT-48"/>
      </g>
     </g>
    </g>
    <g id="xtick_5">
     <g id="line2d_9">
      <path clip-path="url(#p2d2fccb712)" d="M 208.622642 170.28 
L 208.622642 7.2 
" style="fill:none;stroke:#b0b0b0;stroke-linecap:square;stroke-opacity:0.3;stroke-width:0.8;"/>
     </g>
     <g id="line2d_10">
      <g>
       <use style="stroke:#000000;stroke-width:0.8;" x="208.622642" xlink:href="#m064cfda13f" y="170.28"/>
      </g>
     </g>
     <g id="text_5">
      <!-- 200 -->
      <defs>
       <path d="M 50.34375 8.453125 
L 50.34375 0 
L 3.03125 0 
Q 2.9375 3.171875 4.046875 6.109375 
Q 5.859375 10.9375 9.828125 15.625 
Q 13.8125 20.3125 21.34375 26.46875 
Q 33.015625 36.03125 37.109375 41.625 
Q 41.21875 47.21875 41.21875 52.203125 
Q 41.21875 57.421875 37.46875 61 
Q 33.734375 64.59375 27.734375 64.59375 
Q 21.390625 64.59375 17.578125 60.78125 
Q 13.765625 56.984375 13.71875 50.25 
L 4.6875 51.171875 
Q 5.609375 61.28125 11.65625 66.578125 
Q 17.71875 71.875 27.9375 71.875 
Q 38.234375 71.875 44.234375 66.15625 
Q 50.25 60.453125 50.25 52 
Q 50.25 47.703125 48.484375 43.546875 
Q 46.734375 39.40625 42.65625 34.8125 
Q 38.578125 30.21875 29.109375 22.21875 
Q 21.1875 15.578125 18.9375 13.203125 
Q 16.703125 10.84375 15.234375 8.453125 
z
" id="ArialMT-50"/>
      </defs>
      <g transform="translate(200.281236 184.437813)scale(0.1 -0.1)">
       <use xlink:href="#ArialMT-50"/>
       <use x="55.615234" xlink:href="#ArialMT-48"/>
       <use x="111.230469" xlink:href="#ArialMT-48"/>
      </g>
     </g>
    </g>
    <g id="xtick_6">
     <g id="line2d_11">
      <path clip-path="url(#p2d2fccb712)" d="M 248.565377 170.28 
L 248.565377 7.2 
" style="fill:none;stroke:#b0b0b0;stroke-linecap:square;stroke-opacity:0.3;stroke-width:0.8;"/>
     </g>
     <g id="line2d_12">
      <g>
       <use style="stroke:#000000;stroke-width:0.8;" x="248.565377" xlink:href="#m064cfda13f" y="170.28"/>
      </g>
     </g>
     <g id="text_6">
      <!-- 250 -->
      <g transform="translate(240.22397 184.437813)scale(0.1 -0.1)">
       <use xlink:href="#ArialMT-50"/>
       <use x="55.615234" xlink:href="#ArialMT-53"/>
       <use x="111.230469" xlink:href="#ArialMT-48"/>
      </g>
     </g>
    </g>
    <g id="text_7">
     <!-- Tsh (cycles) -->
     <defs>
      <path d="M 25.921875 0 
L 25.921875 63.140625 
L 2.34375 63.140625 
L 2.34375 71.578125 
L 59.078125 71.578125 
L 59.078125 63.140625 
L 35.40625 63.140625 
L 35.40625 0 
z
" id="ArialMT-84"/>
      <path d="M 3.078125 15.484375 
L 11.765625 16.84375 
Q 12.5 11.625 15.84375 8.84375 
Q 19.1875 6.0625 25.203125 6.0625 
Q 31.25 6.0625 34.171875 8.515625 
Q 37.109375 10.984375 37.109375 14.3125 
Q 37.109375 17.28125 34.515625 19 
Q 32.71875 20.171875 25.53125 21.96875 
Q 15.875 24.421875 12.140625 26.203125 
Q 8.40625 27.984375 6.46875 31.125 
Q 4.546875 34.28125 4.546875 38.09375 
Q 4.546875 41.546875 6.125 44.5 
Q 7.71875 47.46875 10.453125 49.421875 
Q 12.5 50.921875 16.03125 51.96875 
Q 19.578125 53.03125 23.640625 53.03125 
Q 29.734375 53.03125 34.34375 51.265625 
Q 38.96875 49.515625 41.15625 46.5 
Q 43.359375 43.5 44.1875 38.484375 
L 35.59375 37.3125 
Q 35.015625 41.3125 32.203125 43.546875 
Q 29.390625 45.796875 24.265625 45.796875 
Q 18.21875 45.796875 15.625 43.796875 
Q 13.03125 41.796875 13.03125 39.109375 
Q 13.03125 37.40625 14.109375 36.03125 
Q 15.1875 34.625 17.484375 33.6875 
Q 18.796875 33.203125 25.25 31.453125 
Q 34.578125 28.953125 38.25 27.359375 
Q 41.9375 25.78125 44.03125 22.75 
Q 46.140625 19.734375 46.140625 15.234375 
Q 46.140625 10.84375 43.578125 6.953125 
Q 41.015625 3.078125 36.171875 0.953125 
Q 31.34375 -1.171875 25.25 -1.171875 
Q 15.140625 -1.171875 9.84375 3.03125 
Q 4.546875 7.234375 3.078125 15.484375 
z
" id="ArialMT-115"/>
      <path d="M 6.59375 0 
L 6.59375 71.578125 
L 15.375 71.578125 
L 15.375 45.90625 
Q 21.53125 53.03125 30.90625 53.03125 
Q 36.671875 53.03125 40.921875 50.75 
Q 45.171875 48.484375 47 44.484375 
Q 48.828125 40.484375 48.828125 32.859375 
L 48.828125 0 
L 40.046875 0 
L 40.046875 32.859375 
Q 40.046875 39.453125 37.1875 42.453125 
Q 34.328125 45.453125 29.109375 45.453125 
Q 25.203125 45.453125 21.75 43.421875 
Q 18.3125 41.40625 16.84375 37.9375 
Q 15.375 34.46875 15.375 28.375 
L 15.375 0 
z
" id="ArialMT-104"/>
      <path id="ArialMT-32"/>
      <path d="M 23.390625 -21.046875 
Q 16.109375 -11.859375 11.078125 0.4375 
Q 6.0625 12.75 6.0625 25.921875 
Q 6.0625 37.546875 9.8125 48.1875 
Q 14.203125 60.546875 23.390625 72.796875 
L 29.6875 72.796875 
Q 23.78125 62.640625 21.875 58.296875 
Q 18.890625 51.5625 17.1875 44.234375 
Q 15.09375 35.109375 15.09375 25.875 
Q 15.09375 2.390625 29.6875 -21.046875 
z
" id="ArialMT-40"/>
      <path d="M 40.4375 19 
L 49.078125 17.875 
Q 47.65625 8.9375 41.8125 3.875 
Q 35.984375 -1.171875 27.484375 -1.171875 
Q 16.84375 -1.171875 10.375 5.78125 
Q 3.90625 12.75 3.90625 25.734375 
Q 3.90625 34.125 6.6875 40.421875 
Q 9.46875 46.734375 15.15625 49.875 
Q 20.84375 53.03125 27.546875 53.03125 
Q 35.984375 53.03125 41.359375 48.75 
Q 46.734375 44.484375 48.25 36.625 
L 39.703125 35.296875 
Q 38.484375 40.53125 35.375 43.15625 
Q 32.28125 45.796875 27.875 45.796875 
Q 21.234375 45.796875 17.078125 41.03125 
Q 12.9375 36.28125 12.9375 25.984375 
Q 12.9375 15.53125 16.9375 10.796875 
Q 20.953125 6.0625 27.390625 6.0625 
Q 32.5625 6.0625 36.03125 9.234375 
Q 39.5 12.40625 40.4375 19 
z
" id="ArialMT-99"/>
      <path d="M 6.203125 -19.96875 
L 5.21875 -11.71875 
Q 8.109375 -12.5 10.25 -12.5 
Q 13.1875 -12.5 14.9375 -11.515625 
Q 16.703125 -10.546875 17.828125 -8.796875 
Q 18.65625 -7.46875 20.515625 -2.25 
Q 20.75 -1.515625 21.296875 -0.09375 
L 1.609375 51.859375 
L 11.078125 51.859375 
L 21.875 21.828125 
Q 23.96875 16.109375 25.640625 9.8125 
Q 27.15625 15.875 29.25 21.625 
L 40.328125 51.859375 
L 49.125 51.859375 
L 29.390625 -0.875 
Q 26.21875 -9.421875 24.46875 -12.640625 
Q 22.125 -17 19.09375 -19.015625 
Q 16.0625 -21.046875 11.859375 -21.046875 
Q 9.328125 -21.046875 6.203125 -19.96875 
z
" id="ArialMT-121"/>
      <path d="M 6.390625 0 
L 6.390625 71.578125 
L 15.1875 71.578125 
L 15.1875 0 
z
" id="ArialMT-108"/>
      <path d="M 42.09375 16.703125 
L 51.171875 15.578125 
Q 49.03125 7.625 43.21875 3.21875 
Q 37.40625 -1.171875 28.375 -1.171875 
Q 17 -1.171875 10.328125 5.828125 
Q 3.65625 12.84375 3.65625 25.484375 
Q 3.65625 38.578125 10.390625 45.796875 
Q 17.140625 53.03125 27.875 53.03125 
Q 38.28125 53.03125 44.875 45.953125 
Q 51.46875 38.875 51.46875 26.03125 
Q 51.46875 25.25 51.421875 23.6875 
L 12.75 23.6875 
Q 13.234375 15.140625 17.578125 10.59375 
Q 21.921875 6.0625 28.421875 6.0625 
Q 33.25 6.0625 36.671875 8.59375 
Q 40.09375 11.140625 42.09375 16.703125 
z
M 13.234375 30.90625 
L 42.1875 30.90625 
Q 41.609375 37.453125 38.875 40.71875 
Q 34.671875 45.796875 27.984375 45.796875 
Q 21.921875 45.796875 17.796875 41.75 
Q 13.671875 37.703125 13.234375 30.90625 
z
" id="ArialMT-101"/>
      <path d="M 12.359375 -21.046875 
L 6.0625 -21.046875 
Q 20.65625 2.390625 20.65625 25.875 
Q 20.65625 35.0625 18.5625 44.09375 
Q 16.890625 51.421875 13.921875 58.15625 
Q 12.015625 62.546875 6.0625 72.796875 
L 12.359375 72.796875 
Q 21.53125 60.546875 25.921875 48.1875 
Q 29.6875 37.546875 29.6875 25.921875 
Q 29.6875 12.75 24.625 0.4375 
Q 19.578125 -11.859375 12.359375 -21.046875 
z
" id="ArialMT-41"/>
     </defs>
     <g transform="translate(123.370313 197.705)scale(0.1 -0.1)">
      <use xlink:href="#ArialMT-84"/>
      <use x="60.912109" xlink:href="#ArialMT-115"/>
      <use x="110.912109" xlink:href="#ArialMT-104"/>
      <use x="166.527344" xlink:href="#ArialMT-32"/>
      <use x="194.310547" xlink:href="#ArialMT-40"/>
      <use x="227.611328" xlink:href="#ArialMT-99"/>
      <use x="277.611328" xlink:href="#ArialMT-121"/>
      <use x="327.611328" xlink:href="#ArialMT-99"/>
      <use x="377.611328" xlink:href="#ArialMT-108"/>
      <use x="399.828125" xlink:href="#ArialMT-101"/>
      <use x="455.443359" xlink:href="#ArialMT-115"/>
      <use x="505.443359" xlink:href="#ArialMT-41"/>
     </g>
    </g>
   </g>
   <g id="matplotlib.axis_2">
    <g id="ytick_1">
     <g id="line2d_13">
      <path clip-path="url(#p2d2fccb712)" d="M 38.70625 162.867273 
L 261.90625 162.867273 
" style="fill:none;stroke:#b0b0b0;stroke-linecap:square;stroke-opacity:0.3;stroke-width:0.8;"/>
     </g>
     <g id="line2d_14">
      <defs>
       <path d="M 0 0 
L -3.5 0 
" id="m6c143d164d" style="stroke:#000000;stroke-width:0.8;"/>
      </defs>
      <g>
       <use style="stroke:#000000;stroke-width:0.8;" x="38.70625" xlink:href="#m6c143d164d" y="162.867273"/>
      </g>
     </g>
     <g id="text_8">
      <!-- 0 -->
      <g transform="translate(26.145313 166.446179)scale(0.1 -0.1)">
       <use xlink:href="#ArialMT-48"/>
      </g>
     </g>
    </g>
    <g id="ytick_2">
     <g id="line2d_15">
      <path clip-path="url(#p2d2fccb712)" d="M 38.70625 139.858767 
L 261.90625 139.858767 
" style="fill:none;stroke:#b0b0b0;stroke-linecap:square;stroke-opacity:0.3;stroke-width:0.8;"/>
     </g>
     <g id="line2d_16">
      <g>
       <use style="stroke:#000000;stroke-width:0.8;" x="38.70625" xlink:href="#m6c143d164d" y="139.858767"/>
      </g>
     </g>
     <g id="text_9">
      <!-- 10 -->
      <g transform="translate(20.584375 143.437673)scale(0.1 -0.1)">
       <use xlink:href="#ArialMT-49"/>
       <use x="55.615234" xlink:href="#ArialMT-48"/>
      </g>
     </g>
    </g>
    <g id="ytick_3">
     <g id="line2d_17">
      <path clip-path="url(#p2d2fccb712)" d="M 38.70625 116.850261 
L 261.90625 116.850261 
" style="fill:none;stroke:#b0b0b0;stroke-linecap:square;stroke-opacity:0.3;stroke-width:0.8;"/>
     </g>
     <g id="line2d_18">
      <g>
       <use style="stroke:#000000;stroke-width:0.8;" x="38.70625" xlink:href="#m6c143d164d" y="116.850261"/>
      </g>
     </g>
     <g id="text_10">
      <!-- 20 -->
      <g transform="translate(20.584375 120.429168)scale(0.1 -0.1)">
       <use xlink:href="#ArialMT-50"/>
       <use x="55.615234" xlink:href="#ArialMT-48"/>
      </g>
     </g>
    </g>
    <g id="ytick_4">
     <g id="line2d_19">
      <path clip-path="url(#p2d2fccb712)" d="M 38.70625 93.841756 
L 261.90625 93.841756 
" style="fill:none;stroke:#b0b0b0;stroke-linecap:square;stroke-opacity:0.3;stroke-width:0.8;"/>
     </g>
     <g id="line2d_20">
      <g>
       <use style="stroke:#000000;stroke-width:0.8;" x="38.70625" xlink:href="#m6c143d164d" y="93.841756"/>
      </g>
     </g>
     <g id="text_11">
      <!-- 30 -->
      <defs>
       <path d="M 4.203125 18.890625 
L 12.984375 20.0625 
Q 14.5 12.59375 18.140625 9.296875 
Q 21.78125 6 27 6 
Q 33.203125 6 37.46875 10.296875 
Q 41.75 14.59375 41.75 20.953125 
Q 41.75 27 37.796875 30.921875 
Q 33.84375 34.859375 27.734375 34.859375 
Q 25.25 34.859375 21.53125 33.890625 
L 22.515625 41.609375 
Q 23.390625 41.5 23.921875 41.5 
Q 29.546875 41.5 34.03125 44.421875 
Q 38.53125 47.359375 38.53125 53.46875 
Q 38.53125 58.296875 35.25 61.46875 
Q 31.984375 64.65625 26.8125 64.65625 
Q 21.6875 64.65625 18.265625 61.421875 
Q 14.84375 58.203125 13.875 51.765625 
L 5.078125 53.328125 
Q 6.6875 62.15625 12.390625 67.015625 
Q 18.109375 71.875 26.609375 71.875 
Q 32.46875 71.875 37.390625 69.359375 
Q 42.328125 66.84375 44.9375 62.5 
Q 47.5625 58.15625 47.5625 53.265625 
Q 47.5625 48.640625 45.0625 44.828125 
Q 42.578125 41.015625 37.703125 38.765625 
Q 44.046875 37.3125 47.5625 32.6875 
Q 51.078125 28.078125 51.078125 21.140625 
Q 51.078125 11.765625 44.234375 5.25 
Q 37.40625 -1.265625 26.953125 -1.265625 
Q 17.53125 -1.265625 11.296875 4.34375 
Q 5.078125 9.96875 4.203125 18.890625 
z
" id="ArialMT-51"/>
      </defs>
      <g transform="translate(20.584375 97.420662)scale(0.1 -0.1)">
       <use xlink:href="#ArialMT-51"/>
       <use x="55.615234" xlink:href="#ArialMT-48"/>
      </g>
     </g>
    </g>
    <g id="ytick_5">
     <g id="line2d_21">
      <path clip-path="url(#p2d2fccb712)" d="M 38.70625 70.83325 
L 261.90625 70.83325 
" style="fill:none;stroke:#b0b0b0;stroke-linecap:square;stroke-opacity:0.3;stroke-width:0.8;"/>
     </g>
     <g id="line2d_22">
      <g>
       <use style="stroke:#000000;stroke-width:0.8;" x="38.70625" xlink:href="#m6c143d164d" y="70.83325"/>
      </g>
     </g>
     <g id="text_12">
      <!-- 40 -->
      <defs>
       <path d="M 32.328125 0 
L 32.328125 17.140625 
L 1.265625 17.140625 
L 1.265625 25.203125 
L 33.9375 71.578125 
L 41.109375 71.578125 
L 41.109375 25.203125 
L 50.78125 25.203125 
L 50.78125 17.140625 
L 41.109375 17.140625 
L 41.109375 0 
z
M 32.328125 25.203125 
L 32.328125 57.46875 
L 9.90625 25.203125 
z
" id="ArialMT-52"/>
      </defs>
      <g transform="translate(20.584375 74.412156)scale(0.1 -0.1)">
       <use xlink:href="#ArialMT-52"/>
       <use x="55.615234" xlink:href="#ArialMT-48"/>
      </g>
     </g>
    </g>
    <g id="ytick_6">
     <g id="line2d_23">
      <path clip-path="url(#p2d2fccb712)" d="M 38.70625 47.824744 
L 261.90625 47.824744 
" style="fill:none;stroke:#b0b0b0;stroke-linecap:square;stroke-opacity:0.3;stroke-width:0.8;"/>
     </g>
     <g id="line2d_24">
      <g>
       <use style="stroke:#000000;stroke-width:0.8;" x="38.70625" xlink:href="#m6c143d164d" y="47.824744"/>
      </g>
     </g>
     <g id="text_13">
      <!-- 50 -->
      <g transform="translate(20.584375 51.403651)scale(0.1 -0.1)">
       <use xlink:href="#ArialMT-53"/>
       <use x="55.615234" xlink:href="#ArialMT-48"/>
      </g>
     </g>
    </g>
    <g id="ytick_7">
     <g id="line2d_25">
      <path clip-path="url(#p2d2fccb712)" d="M 38.70625 24.816239 
L 261.90625 24.816239 
" style="fill:none;stroke:#b0b0b0;stroke-linecap:square;stroke-opacity:0.3;stroke-width:0.8;"/>
     </g>
     <g id="line2d_26">
      <g>
       <use style="stroke:#000000;stroke-width:0.8;" x="38.70625" xlink:href="#m6c143d164d" y="24.816239"/>
      </g>
     </g>
     <g id="text_14">
      <!-- 60 -->
      <defs>
       <path d="M 49.75 54.046875 
L 41.015625 53.375 
Q 39.84375 58.546875 37.703125 60.890625 
Q 34.125 64.65625 28.90625 64.65625 
Q 24.703125 64.65625 21.53125 62.3125 
Q 17.390625 59.28125 14.984375 53.46875 
Q 12.59375 47.65625 12.5 36.921875 
Q 15.671875 41.75 20.265625 44.09375 
Q 24.859375 46.4375 29.890625 46.4375 
Q 38.671875 46.4375 44.84375 39.96875 
Q 51.03125 33.5 51.03125 23.25 
Q 51.03125 16.5 48.125 10.71875 
Q 45.21875 4.9375 40.140625 1.859375 
Q 35.0625 -1.21875 28.609375 -1.21875 
Q 17.625 -1.21875 10.6875 6.859375 
Q 3.765625 14.9375 3.765625 33.5 
Q 3.765625 54.25 11.421875 63.671875 
Q 18.109375 71.875 29.4375 71.875 
Q 37.890625 71.875 43.28125 67.140625 
Q 48.6875 62.40625 49.75 54.046875 
z
M 13.875 23.1875 
Q 13.875 18.65625 15.796875 14.5 
Q 17.71875 10.359375 21.1875 8.171875 
Q 24.65625 6 28.46875 6 
Q 34.03125 6 38.03125 10.484375 
Q 42.046875 14.984375 42.046875 22.703125 
Q 42.046875 30.125 38.078125 34.390625 
Q 34.125 38.671875 28.125 38.671875 
Q 22.171875 38.671875 18.015625 34.390625 
Q 13.875 30.125 13.875 23.1875 
z
" id="ArialMT-54"/>
      </defs>
      <g transform="translate(20.584375 28.395145)scale(0.1 -0.1)">
       <use xlink:href="#ArialMT-54"/>
       <use x="55.615234" xlink:href="#ArialMT-48"/>
      </g>
     </g>
    </g>
    <g id="text_15">
     <!-- Current (uA) -->
     <defs>
      <path d="M 58.796875 25.09375 
L 68.265625 22.703125 
Q 65.28125 11.03125 57.546875 4.90625 
Q 49.8125 -1.21875 38.625 -1.21875 
Q 27.046875 -1.21875 19.796875 3.484375 
Q 12.546875 8.203125 8.765625 17.140625 
Q 4.984375 26.078125 4.984375 36.328125 
Q 4.984375 47.515625 9.25 55.828125 
Q 13.53125 64.15625 21.40625 68.46875 
Q 29.296875 72.796875 38.765625 72.796875 
Q 49.515625 72.796875 56.828125 67.328125 
Q 64.15625 61.859375 67.046875 51.953125 
L 57.71875 49.75 
Q 55.21875 57.5625 50.484375 61.125 
Q 45.75 64.703125 38.578125 64.703125 
Q 30.328125 64.703125 24.78125 60.734375 
Q 19.234375 56.78125 16.984375 50.109375 
Q 14.75 43.453125 14.75 36.375 
Q 14.75 27.25 17.40625 20.4375 
Q 20.0625 13.625 25.671875 10.25 
Q 31.296875 6.890625 37.84375 6.890625 
Q 45.796875 6.890625 51.3125 11.46875 
Q 56.84375 16.0625 58.796875 25.09375 
z
" id="ArialMT-67"/>
      <path d="M 40.578125 0 
L 40.578125 7.625 
Q 34.515625 -1.171875 24.125 -1.171875 
Q 19.53125 -1.171875 15.546875 0.578125 
Q 11.578125 2.34375 9.640625 5 
Q 7.71875 7.671875 6.9375 11.53125 
Q 6.390625 14.109375 6.390625 19.734375 
L 6.390625 51.859375 
L 15.1875 51.859375 
L 15.1875 23.09375 
Q 15.1875 16.21875 15.71875 13.8125 
Q 16.546875 10.359375 19.234375 8.375 
Q 21.921875 6.390625 25.875 6.390625 
Q 29.828125 6.390625 33.296875 8.421875 
Q 36.765625 10.453125 38.203125 13.9375 
Q 39.65625 17.4375 39.65625 24.078125 
L 39.65625 51.859375 
L 48.4375 51.859375 
L 48.4375 0 
z
" id="ArialMT-117"/>
      <path d="M 6.5 0 
L 6.5 51.859375 
L 14.40625 51.859375 
L 14.40625 44 
Q 17.4375 49.515625 20 51.265625 
Q 22.5625 53.03125 25.640625 53.03125 
Q 30.078125 53.03125 34.671875 50.203125 
L 31.640625 42.046875 
Q 28.421875 43.953125 25.203125 43.953125 
Q 22.3125 43.953125 20.015625 42.21875 
Q 17.71875 40.484375 16.75 37.40625 
Q 15.28125 32.71875 15.28125 27.15625 
L 15.28125 0 
z
" id="ArialMT-114"/>
      <path d="M 6.59375 0 
L 6.59375 51.859375 
L 14.5 51.859375 
L 14.5 44.484375 
Q 20.21875 53.03125 31 53.03125 
Q 35.6875 53.03125 39.625 51.34375 
Q 43.5625 49.65625 45.515625 46.921875 
Q 47.46875 44.1875 48.25 40.4375 
Q 48.734375 37.984375 48.734375 31.890625 
L 48.734375 0 
L 39.9375 0 
L 39.9375 31.546875 
Q 39.9375 36.921875 38.90625 39.578125 
Q 37.890625 42.234375 35.28125 43.8125 
Q 32.671875 45.40625 29.15625 45.40625 
Q 23.53125 45.40625 19.453125 41.84375 
Q 15.375 38.28125 15.375 28.328125 
L 15.375 0 
z
" id="ArialMT-110"/>
      <path d="M 25.78125 7.859375 
L 27.046875 0.09375 
Q 23.34375 -0.6875 20.40625 -0.6875 
Q 15.625 -0.6875 12.984375 0.828125 
Q 10.359375 2.34375 9.28125 4.8125 
Q 8.203125 7.28125 8.203125 15.1875 
L 8.203125 45.015625 
L 1.765625 45.015625 
L 1.765625 51.859375 
L 8.203125 51.859375 
L 8.203125 64.703125 
L 16.9375 69.96875 
L 16.9375 51.859375 
L 25.78125 51.859375 
L 25.78125 45.015625 
L 16.9375 45.015625 
L 16.9375 14.703125 
Q 16.9375 10.9375 17.40625 9.859375 
Q 17.875 8.796875 18.921875 8.15625 
Q 19.96875 7.515625 21.921875 7.515625 
Q 23.390625 7.515625 25.78125 7.859375 
z
" id="ArialMT-116"/>
      <path d="M -0.140625 0 
L 27.34375 71.578125 
L 37.546875 71.578125 
L 66.84375 0 
L 56.0625 0 
L 47.703125 21.6875 
L 17.78125 21.6875 
L 9.90625 0 
z
M 20.515625 29.390625 
L 44.78125 29.390625 
L 37.3125 49.21875 
Q 33.890625 58.25 32.234375 64.0625 
Q 30.859375 57.171875 28.375 50.390625 
z
" id="ArialMT-65"/>
     </defs>
     <g transform="translate(14.479687 116.245469)rotate(-90)scale(0.1 -0.1)">
      <use xlink:href="#ArialMT-67"/>
      <use x="72.216797" xlink:href="#ArialMT-117"/>
      <use x="127.832031" xlink:href="#ArialMT-114"/>
      <use x="161.132812" xlink:href="#ArialMT-114"/>
      <use x="194.433594" xlink:href="#ArialMT-101"/>
      <use x="250.048828" xlink:href="#ArialMT-110"/>
      <use x="305.664062" xlink:href="#ArialMT-116"/>
      <use x="333.447266" xlink:href="#ArialMT-32"/>
      <use x="361.230469" xlink:href="#ArialMT-40"/>
      <use x="394.53125" xlink:href="#ArialMT-117"/>
      <use x="450.146484" xlink:href="#ArialMT-65"/>
      <use x="516.845703" xlink:href="#ArialMT-41"/>
     </g>
    </g>
   </g>
   <g id="line2d_27">
    <path clip-path="url(#p2d2fccb712)" d="M 48.851705 162.867273 
L 50.449414 162.867273 
L 51.248269 107.239019 
L 52.047123 38.490893 
L 52.845978 15.137522 
L 53.644833 14.612727 
L 55.242542 22.747047 
L 56.041397 23.53424 
L 56.840251 23.271842 
L 57.639106 24.059035 
L 58.437961 23.009445 
L 60.03567 23.53424 
L 60.834525 24.059035 
L 61.63338 23.53424 
L 62.432234 24.059035 
L 63.231089 23.796637 
L 64.029944 23.009445 
L 64.828798 23.53424 
L 66.426508 23.53424 
L 67.225362 23.009445 
L 68.024217 23.009445 
L 68.823072 23.53424 
L 70.420781 24.059035 
L 72.018491 23.53424 
L 73.6162 24.583829 
L 74.415055 24.059035 
L 76.012764 23.53424 
L 76.811619 23.796637 
L 77.610473 24.846227 
L 78.409328 23.53424 
L 79.208183 24.583829 
L 80.007037 24.583829 
L 80.805892 23.796637 
L 81.604747 24.321432 
L 83.202456 24.846227 
L 84.001311 162.867273 
L 84.800166 24.321432 
L 85.59902 24.059035 
L 86.397875 24.583829 
L 87.19673 25.371022 
L 87.995584 24.583829 
L 89.593294 24.583829 
L 90.392148 24.059035 
L 91.191003 24.583829 
L 94.386422 24.583829 
L 95.185276 24.846227 
L 95.984131 24.583829 
L 96.782986 24.059035 
L 97.581841 24.583829 
L 98.380695 24.583829 
L 99.17955 24.059035 
L 99.978405 24.583829 
L 101.576114 24.059035 
L 102.374969 24.059035 
L 103.173823 23.796637 
L 103.972678 24.583829 
L 104.771533 24.321432 
L 105.570387 23.53424 
L 106.369242 24.059035 
L 107.168097 24.059035 
L 107.966952 24.583829 
L 108.765806 24.583829 
L 109.564661 24.059035 
L 110.363516 23.796637 
L 111.16237 24.583829 
L 112.76008 24.583829 
L 113.558934 24.846227 
L 114.357789 24.583829 
L 115.156644 24.059035 
L 115.955498 25.633419 
L 116.754353 25.895817 
L 117.553208 25.895817 
L 118.352062 27.207804 
L 119.150917 26.420611 
L 119.949772 26.158214 
L 120.748627 25.108624 
L 125.541755 25.108624 
L 126.340609 25.633419 
L 127.139464 23.53424 
L 127.938319 23.796637 
L 128.737173 24.583829 
L 129.536028 24.059035 
L 130.334883 24.583829 
L 131.133737 23.796637 
L 131.932592 23.796637 
L 132.731447 24.321432 
L 133.530302 23.796637 
L 134.329156 24.059035 
L 136.72572 24.059035 
L 137.524575 24.321432 
L 138.32343 24.059035 
L 139.122284 23.53424 
L 139.921139 24.059035 
L 140.719994 24.846227 
L 141.518848 24.583829 
L 144.714267 24.583829 
L 145.513122 23.796637 
L 146.311977 24.059035 
L 147.909686 25.108624 
L 148.708541 25.108624 
L 149.507395 23.53424 
L 150.30625 24.846227 
L 151.105105 24.583829 
L 151.903959 24.583829 
L 152.702814 25.108624 
L 153.501669 25.108624 
L 154.300523 24.583829 
L 155.099378 25.108624 
L 155.898233 24.846227 
L 159.093652 24.846227 
L 159.892506 24.583829 
L 160.691361 24.846227 
L 161.490216 24.583829 
L 162.28907 24.583829 
L 163.087925 24.846227 
L 163.88678 24.846227 
L 164.685634 24.583829 
L 165.484489 25.371022 
L 166.283344 24.583829 
L 167.082198 24.583829 
L 168.679908 25.108624 
L 169.478763 24.846227 
L 170.277617 24.846227 
L 171.076472 25.108624 
L 171.875327 24.583829 
L 173.473036 24.583829 
L 174.271891 24.846227 
L 175.070745 24.583829 
L 175.8696 25.108624 
L 176.668455 24.321432 
L 177.467309 25.108624 
L 178.266164 24.583829 
L 179.065019 24.846227 
L 179.863873 24.583829 
L 180.662728 24.059035 
L 181.461583 24.321432 
L 182.260438 24.846227 
L 183.059292 23.796637 
L 183.858147 24.059035 
L 184.657002 24.583829 
L 185.455856 24.583829 
L 186.254711 23.796637 
L 187.053566 24.059035 
L 187.85242 24.583829 
L 188.651275 23.796637 
L 189.45013 24.583829 
L 190.248984 23.796637 
L 191.047839 24.583829 
L 191.846694 24.583829 
L 192.645548 24.846227 
L 193.444403 24.059035 
L 195.042113 25.108624 
L 195.840967 25.108624 
L 196.639822 24.846227 
L 197.438677 24.321432 
L 198.237531 24.846227 
L 199.036386 24.583829 
L 199.835241 24.583829 
L 200.634095 25.108624 
L 201.43295 24.583829 
L 202.231805 25.108624 
L 205.427224 25.108624 
L 206.226078 24.846227 
L 207.024933 25.371022 
L 207.823788 24.846227 
L 208.622642 24.059035 
L 209.421497 24.583829 
L 212.616916 24.583829 
L 213.41577 24.846227 
L 214.214625 24.846227 
L 215.01348 25.633419 
L 215.812334 24.846227 
L 216.611189 24.583829 
L 218.208899 24.583829 
L 219.007753 24.059035 
L 219.806608 24.583829 
L 225.398591 24.583829 
L 226.197445 24.846227 
L 226.9963 24.583829 
L 227.795155 24.846227 
L 228.594009 24.583829 
L 229.392864 24.583829 
L 230.191719 24.846227 
L 230.990574 24.321432 
L 232.588283 24.846227 
L 233.387138 24.583829 
L 234.185992 24.059035 
L 234.984847 24.846227 
L 235.783702 24.583829 
L 236.582556 24.059035 
L 238.180266 24.059035 
L 238.97912 24.583829 
L 244.571103 24.583829 
L 245.369958 24.059035 
L 246.168813 24.583829 
L 246.967667 24.059035 
L 247.766522 24.059035 
L 248.565377 24.583829 
L 249.364231 24.059035 
L 250.163086 25.108624 
L 250.961941 25.895817 
L 251.760795 25.371022 
L 251.760795 25.371022 
" style="fill:none;stroke:#1f77b4;stroke-linecap:square;stroke-width:1.5;"/>
    <defs>
     <path d="M 0 1.5 
C 0.397805 1.5 0.77937 1.341951 1.06066 1.06066 
C 1.341951 0.77937 1.5 0.397805 1.5 0 
C 1.5 -0.397805 1.341951 -0.77937 1.06066 -1.06066 
C 0.77937 -1.341951 0.397805 -1.5 0 -1.5 
C -0.397805 -1.5 -0.77937 -1.341951 -1.06066 -1.06066 
C -1.341951 -0.77937 -1.5 -0.397805 -1.5 0 
C -1.5 0.397805 -1.341951 0.77937 -1.06066 1.06066 
C -0.77937 1.341951 -0.397805 1.5 0 1.5 
z
" id="ma23be883ac" style="stroke:#1f77b4;"/>
    </defs>
    <g clip-path="url(#p2d2fccb712)">
     <use style="fill:#1f77b4;stroke:#1f77b4;" x="48.851705" xlink:href="#ma23be883ac" y="162.867273"/>
     <use style="fill:#1f77b4;stroke:#1f77b4;" x="49.650559" xlink:href="#ma23be883ac" y="162.867273"/>
     <use style="fill:#1f77b4;stroke:#1f77b4;" x="50.449414" xlink:href="#ma23be883ac" y="162.867273"/>
     <use style="fill:#1f77b4;stroke:#1f77b4;" x="51.248269" xlink:href="#ma23be883ac" y="107.239019"/>
     <use style="fill:#1f77b4;stroke:#1f77b4;" x="52.047123" xlink:href="#ma23be883ac" y="38.490893"/>
     <use style="fill:#1f77b4;stroke:#1f77b4;" x="52.845978" xlink:href="#ma23be883ac" y="15.137522"/>
     <use style="fill:#1f77b4;stroke:#1f77b4;" x="53.644833" xlink:href="#ma23be883ac" y="14.612727"/>
     <use style="fill:#1f77b4;stroke:#1f77b4;" x="54.443687" xlink:href="#ma23be883ac" y="18.811086"/>
     <use style="fill:#1f77b4;stroke:#1f77b4;" x="55.242542" xlink:href="#ma23be883ac" y="22.747047"/>
     <use style="fill:#1f77b4;stroke:#1f77b4;" x="56.041397" xlink:href="#ma23be883ac" y="23.53424"/>
     <use style="fill:#1f77b4;stroke:#1f77b4;" x="56.840251" xlink:href="#ma23be883ac" y="23.271842"/>
     <use style="fill:#1f77b4;stroke:#1f77b4;" x="57.639106" xlink:href="#ma23be883ac" y="24.059035"/>
     <use style="fill:#1f77b4;stroke:#1f77b4;" x="58.437961" xlink:href="#ma23be883ac" y="23.009445"/>
     <use style="fill:#1f77b4;stroke:#1f77b4;" x="59.236815" xlink:href="#ma23be883ac" y="23.271842"/>
     <use style="fill:#1f77b4;stroke:#1f77b4;" x="60.03567" xlink:href="#ma23be883ac" y="23.53424"/>
     <use style="fill:#1f77b4;stroke:#1f77b4;" x="60.834525" xlink:href="#ma23be883ac" y="24.059035"/>
     <use style="fill:#1f77b4;stroke:#1f77b4;" x="61.63338" xlink:href="#ma23be883ac" y="23.53424"/>
     <use style="fill:#1f77b4;stroke:#1f77b4;" x="62.432234" xlink:href="#ma23be883ac" y="24.059035"/>
     <use style="fill:#1f77b4;stroke:#1f77b4;" x="63.231089" xlink:href="#ma23be883ac" y="23.796637"/>
     <use style="fill:#1f77b4;stroke:#1f77b4;" x="64.029944" xlink:href="#ma23be883ac" y="23.009445"/>
     <use style="fill:#1f77b4;stroke:#1f77b4;" x="64.828798" xlink:href="#ma23be883ac" y="23.53424"/>
     <use style="fill:#1f77b4;stroke:#1f77b4;" x="65.627653" xlink:href="#ma23be883ac" y="23.53424"/>
     <use style="fill:#1f77b4;stroke:#1f77b4;" x="66.426508" xlink:href="#ma23be883ac" y="23.53424"/>
     <use style="fill:#1f77b4;stroke:#1f77b4;" x="67.225362" xlink:href="#ma23be883ac" y="23.009445"/>
     <use style="fill:#1f77b4;stroke:#1f77b4;" x="68.024217" xlink:href="#ma23be883ac" y="23.009445"/>
     <use style="fill:#1f77b4;stroke:#1f77b4;" x="68.823072" xlink:href="#ma23be883ac" y="23.53424"/>
     <use style="fill:#1f77b4;stroke:#1f77b4;" x="69.621926" xlink:href="#ma23be883ac" y="23.796637"/>
     <use style="fill:#1f77b4;stroke:#1f77b4;" x="70.420781" xlink:href="#ma23be883ac" y="24.059035"/>
     <use style="fill:#1f77b4;stroke:#1f77b4;" x="71.219636" xlink:href="#ma23be883ac" y="23.796637"/>
     <use style="fill:#1f77b4;stroke:#1f77b4;" x="72.018491" xlink:href="#ma23be883ac" y="23.53424"/>
     <use style="fill:#1f77b4;stroke:#1f77b4;" x="72.817345" xlink:href="#ma23be883ac" y="24.059035"/>
     <use style="fill:#1f77b4;stroke:#1f77b4;" x="73.6162" xlink:href="#ma23be883ac" y="24.583829"/>
     <use style="fill:#1f77b4;stroke:#1f77b4;" x="74.415055" xlink:href="#ma23be883ac" y="24.059035"/>
     <use style="fill:#1f77b4;stroke:#1f77b4;" x="75.213909" xlink:href="#ma23be883ac" y="23.796637"/>
     <use style="fill:#1f77b4;stroke:#1f77b4;" x="76.012764" xlink:href="#ma23be883ac" y="23.53424"/>
     <use style="fill:#1f77b4;stroke:#1f77b4;" x="76.811619" xlink:href="#ma23be883ac" y="23.796637"/>
     <use style="fill:#1f77b4;stroke:#1f77b4;" x="77.610473" xlink:href="#ma23be883ac" y="24.846227"/>
     <use style="fill:#1f77b4;stroke:#1f77b4;" x="78.409328" xlink:href="#ma23be883ac" y="23.53424"/>
     <use style="fill:#1f77b4;stroke:#1f77b4;" x="79.208183" xlink:href="#ma23be883ac" y="24.583829"/>
     <use style="fill:#1f77b4;stroke:#1f77b4;" x="80.007037" xlink:href="#ma23be883ac" y="24.583829"/>
     <use style="fill:#1f77b4;stroke:#1f77b4;" x="80.805892" xlink:href="#ma23be883ac" y="23.796637"/>
     <use style="fill:#1f77b4;stroke:#1f77b4;" x="81.604747" xlink:href="#ma23be883ac" y="24.321432"/>
     <use style="fill:#1f77b4;stroke:#1f77b4;" x="82.403601" xlink:href="#ma23be883ac" y="24.583829"/>
     <use style="fill:#1f77b4;stroke:#1f77b4;" x="83.202456" xlink:href="#ma23be883ac" y="24.846227"/>
     <use style="fill:#1f77b4;stroke:#1f77b4;" x="84.001311" xlink:href="#ma23be883ac" y="162.867273"/>
     <use style="fill:#1f77b4;stroke:#1f77b4;" x="84.800166" xlink:href="#ma23be883ac" y="24.321432"/>
     <use style="fill:#1f77b4;stroke:#1f77b4;" x="85.59902" xlink:href="#ma23be883ac" y="24.059035"/>
     <use style="fill:#1f77b4;stroke:#1f77b4;" x="86.397875" xlink:href="#ma23be883ac" y="24.583829"/>
     <use style="fill:#1f77b4;stroke:#1f77b4;" x="87.19673" xlink:href="#ma23be883ac" y="25.371022"/>
     <use style="fill:#1f77b4;stroke:#1f77b4;" x="87.995584" xlink:href="#ma23be883ac" y="24.583829"/>
     <use style="fill:#1f77b4;stroke:#1f77b4;" x="88.794439" xlink:href="#ma23be883ac" y="24.583829"/>
     <use style="fill:#1f77b4;stroke:#1f77b4;" x="89.593294" xlink:href="#ma23be883ac" y="24.583829"/>
     <use style="fill:#1f77b4;stroke:#1f77b4;" x="90.392148" xlink:href="#ma23be883ac" y="24.059035"/>
     <use style="fill:#1f77b4;stroke:#1f77b4;" x="91.191003" xlink:href="#ma23be883ac" y="24.583829"/>
     <use style="fill:#1f77b4;stroke:#1f77b4;" x="91.989858" xlink:href="#ma23be883ac" y="24.583829"/>
     <use style="fill:#1f77b4;stroke:#1f77b4;" x="92.788712" xlink:href="#ma23be883ac" y="24.583829"/>
     <use style="fill:#1f77b4;stroke:#1f77b4;" x="93.587567" xlink:href="#ma23be883ac" y="24.583829"/>
     <use style="fill:#1f77b4;stroke:#1f77b4;" x="94.386422" xlink:href="#ma23be883ac" y="24.583829"/>
     <use style="fill:#1f77b4;stroke:#1f77b4;" x="95.185276" xlink:href="#ma23be883ac" y="24.846227"/>
     <use style="fill:#1f77b4;stroke:#1f77b4;" x="95.984131" xlink:href="#ma23be883ac" y="24.583829"/>
     <use style="fill:#1f77b4;stroke:#1f77b4;" x="96.782986" xlink:href="#ma23be883ac" y="24.059035"/>
     <use style="fill:#1f77b4;stroke:#1f77b4;" x="97.581841" xlink:href="#ma23be883ac" y="24.583829"/>
     <use style="fill:#1f77b4;stroke:#1f77b4;" x="98.380695" xlink:href="#ma23be883ac" y="24.583829"/>
     <use style="fill:#1f77b4;stroke:#1f77b4;" x="99.17955" xlink:href="#ma23be883ac" y="24.059035"/>
     <use style="fill:#1f77b4;stroke:#1f77b4;" x="99.978405" xlink:href="#ma23be883ac" y="24.583829"/>
     <use style="fill:#1f77b4;stroke:#1f77b4;" x="100.777259" xlink:href="#ma23be883ac" y="24.321432"/>
     <use style="fill:#1f77b4;stroke:#1f77b4;" x="101.576114" xlink:href="#ma23be883ac" y="24.059035"/>
     <use style="fill:#1f77b4;stroke:#1f77b4;" x="102.374969" xlink:href="#ma23be883ac" y="24.059035"/>
     <use style="fill:#1f77b4;stroke:#1f77b4;" x="103.173823" xlink:href="#ma23be883ac" y="23.796637"/>
     <use style="fill:#1f77b4;stroke:#1f77b4;" x="103.972678" xlink:href="#ma23be883ac" y="24.583829"/>
     <use style="fill:#1f77b4;stroke:#1f77b4;" x="104.771533" xlink:href="#ma23be883ac" y="24.321432"/>
     <use style="fill:#1f77b4;stroke:#1f77b4;" x="105.570387" xlink:href="#ma23be883ac" y="23.53424"/>
     <use style="fill:#1f77b4;stroke:#1f77b4;" x="106.369242" xlink:href="#ma23be883ac" y="24.059035"/>
     <use style="fill:#1f77b4;stroke:#1f77b4;" x="107.168097" xlink:href="#ma23be883ac" y="24.059035"/>
     <use style="fill:#1f77b4;stroke:#1f77b4;" x="107.966952" xlink:href="#ma23be883ac" y="24.583829"/>
     <use style="fill:#1f77b4;stroke:#1f77b4;" x="108.765806" xlink:href="#ma23be883ac" y="24.583829"/>
     <use style="fill:#1f77b4;stroke:#1f77b4;" x="109.564661" xlink:href="#ma23be883ac" y="24.059035"/>
     <use style="fill:#1f77b4;stroke:#1f77b4;" x="110.363516" xlink:href="#ma23be883ac" y="23.796637"/>
     <use style="fill:#1f77b4;stroke:#1f77b4;" x="111.16237" xlink:href="#ma23be883ac" y="24.583829"/>
     <use style="fill:#1f77b4;stroke:#1f77b4;" x="111.961225" xlink:href="#ma23be883ac" y="24.583829"/>
     <use style="fill:#1f77b4;stroke:#1f77b4;" x="112.76008" xlink:href="#ma23be883ac" y="24.583829"/>
     <use style="fill:#1f77b4;stroke:#1f77b4;" x="113.558934" xlink:href="#ma23be883ac" y="24.846227"/>
     <use style="fill:#1f77b4;stroke:#1f77b4;" x="114.357789" xlink:href="#ma23be883ac" y="24.583829"/>
     <use style="fill:#1f77b4;stroke:#1f77b4;" x="115.156644" xlink:href="#ma23be883ac" y="24.059035"/>
     <use style="fill:#1f77b4;stroke:#1f77b4;" x="115.955498" xlink:href="#ma23be883ac" y="25.633419"/>
     <use style="fill:#1f77b4;stroke:#1f77b4;" x="116.754353" xlink:href="#ma23be883ac" y="25.895817"/>
     <use style="fill:#1f77b4;stroke:#1f77b4;" x="117.553208" xlink:href="#ma23be883ac" y="25.895817"/>
     <use style="fill:#1f77b4;stroke:#1f77b4;" x="118.352062" xlink:href="#ma23be883ac" y="27.207804"/>
     <use style="fill:#1f77b4;stroke:#1f77b4;" x="119.150917" xlink:href="#ma23be883ac" y="26.420611"/>
     <use style="fill:#1f77b4;stroke:#1f77b4;" x="119.949772" xlink:href="#ma23be883ac" y="26.158214"/>
     <use style="fill:#1f77b4;stroke:#1f77b4;" x="120.748627" xlink:href="#ma23be883ac" y="25.108624"/>
     <use style="fill:#1f77b4;stroke:#1f77b4;" x="121.547481" xlink:href="#ma23be883ac" y="25.108624"/>
     <use style="fill:#1f77b4;stroke:#1f77b4;" x="122.346336" xlink:href="#ma23be883ac" y="25.108624"/>
     <use style="fill:#1f77b4;stroke:#1f77b4;" x="123.145191" xlink:href="#ma23be883ac" y="25.108624"/>
     <use style="fill:#1f77b4;stroke:#1f77b4;" x="123.944045" xlink:href="#ma23be883ac" y="25.108624"/>
     <use style="fill:#1f77b4;stroke:#1f77b4;" x="124.7429" xlink:href="#ma23be883ac" y="25.108624"/>
     <use style="fill:#1f77b4;stroke:#1f77b4;" x="125.541755" xlink:href="#ma23be883ac" y="25.108624"/>
     <use style="fill:#1f77b4;stroke:#1f77b4;" x="126.340609" xlink:href="#ma23be883ac" y="25.633419"/>
     <use style="fill:#1f77b4;stroke:#1f77b4;" x="127.139464" xlink:href="#ma23be883ac" y="23.53424"/>
     <use style="fill:#1f77b4;stroke:#1f77b4;" x="127.938319" xlink:href="#ma23be883ac" y="23.796637"/>
     <use style="fill:#1f77b4;stroke:#1f77b4;" x="128.737173" xlink:href="#ma23be883ac" y="24.583829"/>
     <use style="fill:#1f77b4;stroke:#1f77b4;" x="129.536028" xlink:href="#ma23be883ac" y="24.059035"/>
     <use style="fill:#1f77b4;stroke:#1f77b4;" x="130.334883" xlink:href="#ma23be883ac" y="24.583829"/>
     <use style="fill:#1f77b4;stroke:#1f77b4;" x="131.133737" xlink:href="#ma23be883ac" y="23.796637"/>
     <use style="fill:#1f77b4;stroke:#1f77b4;" x="131.932592" xlink:href="#ma23be883ac" y="23.796637"/>
     <use style="fill:#1f77b4;stroke:#1f77b4;" x="132.731447" xlink:href="#ma23be883ac" y="24.321432"/>
     <use style="fill:#1f77b4;stroke:#1f77b4;" x="133.530302" xlink:href="#ma23be883ac" y="23.796637"/>
     <use style="fill:#1f77b4;stroke:#1f77b4;" x="134.329156" xlink:href="#ma23be883ac" y="24.059035"/>
     <use style="fill:#1f77b4;stroke:#1f77b4;" x="135.128011" xlink:href="#ma23be883ac" y="24.059035"/>
     <use style="fill:#1f77b4;stroke:#1f77b4;" x="135.926866" xlink:href="#ma23be883ac" y="24.059035"/>
     <use style="fill:#1f77b4;stroke:#1f77b4;" x="136.72572" xlink:href="#ma23be883ac" y="24.059035"/>
     <use style="fill:#1f77b4;stroke:#1f77b4;" x="137.524575" xlink:href="#ma23be883ac" y="24.321432"/>
     <use style="fill:#1f77b4;stroke:#1f77b4;" x="138.32343" xlink:href="#ma23be883ac" y="24.059035"/>
     <use style="fill:#1f77b4;stroke:#1f77b4;" x="139.122284" xlink:href="#ma23be883ac" y="23.53424"/>
     <use style="fill:#1f77b4;stroke:#1f77b4;" x="139.921139" xlink:href="#ma23be883ac" y="24.059035"/>
     <use style="fill:#1f77b4;stroke:#1f77b4;" x="140.719994" xlink:href="#ma23be883ac" y="24.846227"/>
     <use style="fill:#1f77b4;stroke:#1f77b4;" x="141.518848" xlink:href="#ma23be883ac" y="24.583829"/>
     <use style="fill:#1f77b4;stroke:#1f77b4;" x="142.317703" xlink:href="#ma23be883ac" y="24.583829"/>
     <use style="fill:#1f77b4;stroke:#1f77b4;" x="143.116558" xlink:href="#ma23be883ac" y="24.583829"/>
     <use style="fill:#1f77b4;stroke:#1f77b4;" x="143.915412" xlink:href="#ma23be883ac" y="24.583829"/>
     <use style="fill:#1f77b4;stroke:#1f77b4;" x="144.714267" xlink:href="#ma23be883ac" y="24.583829"/>
     <use style="fill:#1f77b4;stroke:#1f77b4;" x="145.513122" xlink:href="#ma23be883ac" y="23.796637"/>
     <use style="fill:#1f77b4;stroke:#1f77b4;" x="146.311977" xlink:href="#ma23be883ac" y="24.059035"/>
     <use style="fill:#1f77b4;stroke:#1f77b4;" x="147.110831" xlink:href="#ma23be883ac" y="24.583829"/>
     <use style="fill:#1f77b4;stroke:#1f77b4;" x="147.909686" xlink:href="#ma23be883ac" y="25.108624"/>
     <use style="fill:#1f77b4;stroke:#1f77b4;" x="148.708541" xlink:href="#ma23be883ac" y="25.108624"/>
     <use style="fill:#1f77b4;stroke:#1f77b4;" x="149.507395" xlink:href="#ma23be883ac" y="23.53424"/>
     <use style="fill:#1f77b4;stroke:#1f77b4;" x="150.30625" xlink:href="#ma23be883ac" y="24.846227"/>
     <use style="fill:#1f77b4;stroke:#1f77b4;" x="151.105105" xlink:href="#ma23be883ac" y="24.583829"/>
     <use style="fill:#1f77b4;stroke:#1f77b4;" x="151.903959" xlink:href="#ma23be883ac" y="24.583829"/>
     <use style="fill:#1f77b4;stroke:#1f77b4;" x="152.702814" xlink:href="#ma23be883ac" y="25.108624"/>
     <use style="fill:#1f77b4;stroke:#1f77b4;" x="153.501669" xlink:href="#ma23be883ac" y="25.108624"/>
     <use style="fill:#1f77b4;stroke:#1f77b4;" x="154.300523" xlink:href="#ma23be883ac" y="24.583829"/>
     <use style="fill:#1f77b4;stroke:#1f77b4;" x="155.099378" xlink:href="#ma23be883ac" y="25.108624"/>
     <use style="fill:#1f77b4;stroke:#1f77b4;" x="155.898233" xlink:href="#ma23be883ac" y="24.846227"/>
     <use style="fill:#1f77b4;stroke:#1f77b4;" x="156.697088" xlink:href="#ma23be883ac" y="24.846227"/>
     <use style="fill:#1f77b4;stroke:#1f77b4;" x="157.495942" xlink:href="#ma23be883ac" y="24.846227"/>
     <use style="fill:#1f77b4;stroke:#1f77b4;" x="158.294797" xlink:href="#ma23be883ac" y="24.846227"/>
     <use style="fill:#1f77b4;stroke:#1f77b4;" x="159.093652" xlink:href="#ma23be883ac" y="24.846227"/>
     <use style="fill:#1f77b4;stroke:#1f77b4;" x="159.892506" xlink:href="#ma23be883ac" y="24.583829"/>
     <use style="fill:#1f77b4;stroke:#1f77b4;" x="160.691361" xlink:href="#ma23be883ac" y="24.846227"/>
     <use style="fill:#1f77b4;stroke:#1f77b4;" x="161.490216" xlink:href="#ma23be883ac" y="24.583829"/>
     <use style="fill:#1f77b4;stroke:#1f77b4;" x="162.28907" xlink:href="#ma23be883ac" y="24.583829"/>
     <use style="fill:#1f77b4;stroke:#1f77b4;" x="163.087925" xlink:href="#ma23be883ac" y="24.846227"/>
     <use style="fill:#1f77b4;stroke:#1f77b4;" x="163.88678" xlink:href="#ma23be883ac" y="24.846227"/>
     <use style="fill:#1f77b4;stroke:#1f77b4;" x="164.685634" xlink:href="#ma23be883ac" y="24.583829"/>
     <use style="fill:#1f77b4;stroke:#1f77b4;" x="165.484489" xlink:href="#ma23be883ac" y="25.371022"/>
     <use style="fill:#1f77b4;stroke:#1f77b4;" x="166.283344" xlink:href="#ma23be883ac" y="24.583829"/>
     <use style="fill:#1f77b4;stroke:#1f77b4;" x="167.082198" xlink:href="#ma23be883ac" y="24.583829"/>
     <use style="fill:#1f77b4;stroke:#1f77b4;" x="167.881053" xlink:href="#ma23be883ac" y="24.846227"/>
     <use style="fill:#1f77b4;stroke:#1f77b4;" x="168.679908" xlink:href="#ma23be883ac" y="25.108624"/>
     <use style="fill:#1f77b4;stroke:#1f77b4;" x="169.478763" xlink:href="#ma23be883ac" y="24.846227"/>
     <use style="fill:#1f77b4;stroke:#1f77b4;" x="170.277617" xlink:href="#ma23be883ac" y="24.846227"/>
     <use style="fill:#1f77b4;stroke:#1f77b4;" x="171.076472" xlink:href="#ma23be883ac" y="25.108624"/>
     <use style="fill:#1f77b4;stroke:#1f77b4;" x="171.875327" xlink:href="#ma23be883ac" y="24.583829"/>
     <use style="fill:#1f77b4;stroke:#1f77b4;" x="172.674181" xlink:href="#ma23be883ac" y="24.583829"/>
     <use style="fill:#1f77b4;stroke:#1f77b4;" x="173.473036" xlink:href="#ma23be883ac" y="24.583829"/>
     <use style="fill:#1f77b4;stroke:#1f77b4;" x="174.271891" xlink:href="#ma23be883ac" y="24.846227"/>
     <use style="fill:#1f77b4;stroke:#1f77b4;" x="175.070745" xlink:href="#ma23be883ac" y="24.583829"/>
     <use style="fill:#1f77b4;stroke:#1f77b4;" x="175.8696" xlink:href="#ma23be883ac" y="25.108624"/>
     <use style="fill:#1f77b4;stroke:#1f77b4;" x="176.668455" xlink:href="#ma23be883ac" y="24.321432"/>
     <use style="fill:#1f77b4;stroke:#1f77b4;" x="177.467309" xlink:href="#ma23be883ac" y="25.108624"/>
     <use style="fill:#1f77b4;stroke:#1f77b4;" x="178.266164" xlink:href="#ma23be883ac" y="24.583829"/>
     <use style="fill:#1f77b4;stroke:#1f77b4;" x="179.065019" xlink:href="#ma23be883ac" y="24.846227"/>
     <use style="fill:#1f77b4;stroke:#1f77b4;" x="179.863873" xlink:href="#ma23be883ac" y="24.583829"/>
     <use style="fill:#1f77b4;stroke:#1f77b4;" x="180.662728" xlink:href="#ma23be883ac" y="24.059035"/>
     <use style="fill:#1f77b4;stroke:#1f77b4;" x="181.461583" xlink:href="#ma23be883ac" y="24.321432"/>
     <use style="fill:#1f77b4;stroke:#1f77b4;" x="182.260438" xlink:href="#ma23be883ac" y="24.846227"/>
     <use style="fill:#1f77b4;stroke:#1f77b4;" x="183.059292" xlink:href="#ma23be883ac" y="23.796637"/>
     <use style="fill:#1f77b4;stroke:#1f77b4;" x="183.858147" xlink:href="#ma23be883ac" y="24.059035"/>
     <use style="fill:#1f77b4;stroke:#1f77b4;" x="184.657002" xlink:href="#ma23be883ac" y="24.583829"/>
     <use style="fill:#1f77b4;stroke:#1f77b4;" x="185.455856" xlink:href="#ma23be883ac" y="24.583829"/>
     <use style="fill:#1f77b4;stroke:#1f77b4;" x="186.254711" xlink:href="#ma23be883ac" y="23.796637"/>
     <use style="fill:#1f77b4;stroke:#1f77b4;" x="187.053566" xlink:href="#ma23be883ac" y="24.059035"/>
     <use style="fill:#1f77b4;stroke:#1f77b4;" x="187.85242" xlink:href="#ma23be883ac" y="24.583829"/>
     <use style="fill:#1f77b4;stroke:#1f77b4;" x="188.651275" xlink:href="#ma23be883ac" y="23.796637"/>
     <use style="fill:#1f77b4;stroke:#1f77b4;" x="189.45013" xlink:href="#ma23be883ac" y="24.583829"/>
     <use style="fill:#1f77b4;stroke:#1f77b4;" x="190.248984" xlink:href="#ma23be883ac" y="23.796637"/>
     <use style="fill:#1f77b4;stroke:#1f77b4;" x="191.047839" xlink:href="#ma23be883ac" y="24.583829"/>
     <use style="fill:#1f77b4;stroke:#1f77b4;" x="191.846694" xlink:href="#ma23be883ac" y="24.583829"/>
     <use style="fill:#1f77b4;stroke:#1f77b4;" x="192.645548" xlink:href="#ma23be883ac" y="24.846227"/>
     <use style="fill:#1f77b4;stroke:#1f77b4;" x="193.444403" xlink:href="#ma23be883ac" y="24.059035"/>
     <use style="fill:#1f77b4;stroke:#1f77b4;" x="194.243258" xlink:href="#ma23be883ac" y="24.583829"/>
     <use style="fill:#1f77b4;stroke:#1f77b4;" x="195.042113" xlink:href="#ma23be883ac" y="25.108624"/>
     <use style="fill:#1f77b4;stroke:#1f77b4;" x="195.840967" xlink:href="#ma23be883ac" y="25.108624"/>
     <use style="fill:#1f77b4;stroke:#1f77b4;" x="196.639822" xlink:href="#ma23be883ac" y="24.846227"/>
     <use style="fill:#1f77b4;stroke:#1f77b4;" x="197.438677" xlink:href="#ma23be883ac" y="24.321432"/>
     <use style="fill:#1f77b4;stroke:#1f77b4;" x="198.237531" xlink:href="#ma23be883ac" y="24.846227"/>
     <use style="fill:#1f77b4;stroke:#1f77b4;" x="199.036386" xlink:href="#ma23be883ac" y="24.583829"/>
     <use style="fill:#1f77b4;stroke:#1f77b4;" x="199.835241" xlink:href="#ma23be883ac" y="24.583829"/>
     <use style="fill:#1f77b4;stroke:#1f77b4;" x="200.634095" xlink:href="#ma23be883ac" y="25.108624"/>
     <use style="fill:#1f77b4;stroke:#1f77b4;" x="201.43295" xlink:href="#ma23be883ac" y="24.583829"/>
     <use style="fill:#1f77b4;stroke:#1f77b4;" x="202.231805" xlink:href="#ma23be883ac" y="25.108624"/>
     <use style="fill:#1f77b4;stroke:#1f77b4;" x="203.030659" xlink:href="#ma23be883ac" y="25.108624"/>
     <use style="fill:#1f77b4;stroke:#1f77b4;" x="203.829514" xlink:href="#ma23be883ac" y="25.108624"/>
     <use style="fill:#1f77b4;stroke:#1f77b4;" x="204.628369" xlink:href="#ma23be883ac" y="25.108624"/>
     <use style="fill:#1f77b4;stroke:#1f77b4;" x="205.427224" xlink:href="#ma23be883ac" y="25.108624"/>
     <use style="fill:#1f77b4;stroke:#1f77b4;" x="206.226078" xlink:href="#ma23be883ac" y="24.846227"/>
     <use style="fill:#1f77b4;stroke:#1f77b4;" x="207.024933" xlink:href="#ma23be883ac" y="25.371022"/>
     <use style="fill:#1f77b4;stroke:#1f77b4;" x="207.823788" xlink:href="#ma23be883ac" y="24.846227"/>
     <use style="fill:#1f77b4;stroke:#1f77b4;" x="208.622642" xlink:href="#ma23be883ac" y="24.059035"/>
     <use style="fill:#1f77b4;stroke:#1f77b4;" x="209.421497" xlink:href="#ma23be883ac" y="24.583829"/>
     <use style="fill:#1f77b4;stroke:#1f77b4;" x="210.220352" xlink:href="#ma23be883ac" y="24.583829"/>
     <use style="fill:#1f77b4;stroke:#1f77b4;" x="211.019206" xlink:href="#ma23be883ac" y="24.583829"/>
     <use style="fill:#1f77b4;stroke:#1f77b4;" x="211.818061" xlink:href="#ma23be883ac" y="24.583829"/>
     <use style="fill:#1f77b4;stroke:#1f77b4;" x="212.616916" xlink:href="#ma23be883ac" y="24.583829"/>
     <use style="fill:#1f77b4;stroke:#1f77b4;" x="213.41577" xlink:href="#ma23be883ac" y="24.846227"/>
     <use style="fill:#1f77b4;stroke:#1f77b4;" x="214.214625" xlink:href="#ma23be883ac" y="24.846227"/>
     <use style="fill:#1f77b4;stroke:#1f77b4;" x="215.01348" xlink:href="#ma23be883ac" y="25.633419"/>
     <use style="fill:#1f77b4;stroke:#1f77b4;" x="215.812334" xlink:href="#ma23be883ac" y="24.846227"/>
     <use style="fill:#1f77b4;stroke:#1f77b4;" x="216.611189" xlink:href="#ma23be883ac" y="24.583829"/>
     <use style="fill:#1f77b4;stroke:#1f77b4;" x="217.410044" xlink:href="#ma23be883ac" y="24.583829"/>
     <use style="fill:#1f77b4;stroke:#1f77b4;" x="218.208899" xlink:href="#ma23be883ac" y="24.583829"/>
     <use style="fill:#1f77b4;stroke:#1f77b4;" x="219.007753" xlink:href="#ma23be883ac" y="24.059035"/>
     <use style="fill:#1f77b4;stroke:#1f77b4;" x="219.806608" xlink:href="#ma23be883ac" y="24.583829"/>
     <use style="fill:#1f77b4;stroke:#1f77b4;" x="220.605463" xlink:href="#ma23be883ac" y="24.583829"/>
     <use style="fill:#1f77b4;stroke:#1f77b4;" x="221.404317" xlink:href="#ma23be883ac" y="24.583829"/>
     <use style="fill:#1f77b4;stroke:#1f77b4;" x="222.203172" xlink:href="#ma23be883ac" y="24.583829"/>
     <use style="fill:#1f77b4;stroke:#1f77b4;" x="223.002027" xlink:href="#ma23be883ac" y="24.583829"/>
     <use style="fill:#1f77b4;stroke:#1f77b4;" x="223.800881" xlink:href="#ma23be883ac" y="24.583829"/>
     <use style="fill:#1f77b4;stroke:#1f77b4;" x="224.599736" xlink:href="#ma23be883ac" y="24.583829"/>
     <use style="fill:#1f77b4;stroke:#1f77b4;" x="225.398591" xlink:href="#ma23be883ac" y="24.583829"/>
     <use style="fill:#1f77b4;stroke:#1f77b4;" x="226.197445" xlink:href="#ma23be883ac" y="24.846227"/>
     <use style="fill:#1f77b4;stroke:#1f77b4;" x="226.9963" xlink:href="#ma23be883ac" y="24.583829"/>
     <use style="fill:#1f77b4;stroke:#1f77b4;" x="227.795155" xlink:href="#ma23be883ac" y="24.846227"/>
     <use style="fill:#1f77b4;stroke:#1f77b4;" x="228.594009" xlink:href="#ma23be883ac" y="24.583829"/>
     <use style="fill:#1f77b4;stroke:#1f77b4;" x="229.392864" xlink:href="#ma23be883ac" y="24.583829"/>
     <use style="fill:#1f77b4;stroke:#1f77b4;" x="230.191719" xlink:href="#ma23be883ac" y="24.846227"/>
     <use style="fill:#1f77b4;stroke:#1f77b4;" x="230.990574" xlink:href="#ma23be883ac" y="24.321432"/>
     <use style="fill:#1f77b4;stroke:#1f77b4;" x="231.789428" xlink:href="#ma23be883ac" y="24.583829"/>
     <use style="fill:#1f77b4;stroke:#1f77b4;" x="232.588283" xlink:href="#ma23be883ac" y="24.846227"/>
     <use style="fill:#1f77b4;stroke:#1f77b4;" x="233.387138" xlink:href="#ma23be883ac" y="24.583829"/>
     <use style="fill:#1f77b4;stroke:#1f77b4;" x="234.185992" xlink:href="#ma23be883ac" y="24.059035"/>
     <use style="fill:#1f77b4;stroke:#1f77b4;" x="234.984847" xlink:href="#ma23be883ac" y="24.846227"/>
     <use style="fill:#1f77b4;stroke:#1f77b4;" x="235.783702" xlink:href="#ma23be883ac" y="24.583829"/>
     <use style="fill:#1f77b4;stroke:#1f77b4;" x="236.582556" xlink:href="#ma23be883ac" y="24.059035"/>
     <use style="fill:#1f77b4;stroke:#1f77b4;" x="237.381411" xlink:href="#ma23be883ac" y="24.059035"/>
     <use style="fill:#1f77b4;stroke:#1f77b4;" x="238.180266" xlink:href="#ma23be883ac" y="24.059035"/>
     <use style="fill:#1f77b4;stroke:#1f77b4;" x="238.97912" xlink:href="#ma23be883ac" y="24.583829"/>
     <use style="fill:#1f77b4;stroke:#1f77b4;" x="239.777975" xlink:href="#ma23be883ac" y="24.583829"/>
     <use style="fill:#1f77b4;stroke:#1f77b4;" x="240.57683" xlink:href="#ma23be883ac" y="24.583829"/>
     <use style="fill:#1f77b4;stroke:#1f77b4;" x="241.375685" xlink:href="#ma23be883ac" y="24.583829"/>
     <use style="fill:#1f77b4;stroke:#1f77b4;" x="242.174539" xlink:href="#ma23be883ac" y="24.583829"/>
     <use style="fill:#1f77b4;stroke:#1f77b4;" x="242.973394" xlink:href="#ma23be883ac" y="24.583829"/>
     <use style="fill:#1f77b4;stroke:#1f77b4;" x="243.772249" xlink:href="#ma23be883ac" y="24.583829"/>
     <use style="fill:#1f77b4;stroke:#1f77b4;" x="244.571103" xlink:href="#ma23be883ac" y="24.583829"/>
     <use style="fill:#1f77b4;stroke:#1f77b4;" x="245.369958" xlink:href="#ma23be883ac" y="24.059035"/>
     <use style="fill:#1f77b4;stroke:#1f77b4;" x="246.168813" xlink:href="#ma23be883ac" y="24.583829"/>
     <use style="fill:#1f77b4;stroke:#1f77b4;" x="246.967667" xlink:href="#ma23be883ac" y="24.059035"/>
     <use style="fill:#1f77b4;stroke:#1f77b4;" x="247.766522" xlink:href="#ma23be883ac" y="24.059035"/>
     <use style="fill:#1f77b4;stroke:#1f77b4;" x="248.565377" xlink:href="#ma23be883ac" y="24.583829"/>
     <use style="fill:#1f77b4;stroke:#1f77b4;" x="249.364231" xlink:href="#ma23be883ac" y="24.059035"/>
     <use style="fill:#1f77b4;stroke:#1f77b4;" x="250.163086" xlink:href="#ma23be883ac" y="25.108624"/>
     <use style="fill:#1f77b4;stroke:#1f77b4;" x="250.961941" xlink:href="#ma23be883ac" y="25.895817"/>
     <use style="fill:#1f77b4;stroke:#1f77b4;" x="251.760795" xlink:href="#ma23be883ac" y="25.371022"/>
    </g>
   </g>
   <g id="patch_3">
    <path d="M 38.70625 170.28 
L 38.70625 7.2 
" style="fill:none;stroke:#000000;stroke-linecap:square;stroke-linejoin:miter;stroke-width:0.8;"/>
   </g>
   <g id="patch_4">
    <path d="M 261.90625 170.28 
L 261.90625 7.2 
" style="fill:none;stroke:#000000;stroke-linecap:square;stroke-linejoin:miter;stroke-width:0.8;"/>
   </g>
   <g id="patch_5">
    <path d="M 38.70625 170.28 
L 261.90625 170.28 
" style="fill:none;stroke:#000000;stroke-linecap:square;stroke-linejoin:miter;stroke-width:0.8;"/>
   </g>
   <g id="patch_6">
    <path d="M 38.70625 7.2 
L 261.90625 7.2 
" style="fill:none;stroke:#000000;stroke-linecap:square;stroke-linejoin:miter;stroke-width:0.8;"/>
   </g>
  </g>
 </g>
 <defs>
  <clipPath id="p2d2fccb712">
   <rect height="163.08" width="223.2" x="38.70625" y="7.2"/>
  </clipPath>
 </defs>
</svg>
